<svg width="24" height="25" viewBox="0 0 24 25" fill="none" xmlns="http://www.w3.org/2000/svg">
<path d="M23.6351 22.771L17.7187 16.5827C19.2399 14.7641 20.0734 12.4759 20.0734 10.0937C20.0734 4.52814 15.5708 0 10.0367 0C4.50255 0 0 4.52814 0 10.0937C0 15.6593 4.50255 20.1875 10.0367 20.1875C12.1143 20.1875 14.0941 19.5573 15.7868 18.361L21.7482 24.5963C21.9974 24.8565 22.3325 25 22.6916 25C23.0316 25 23.3541 24.8697 23.5989 24.6327C24.119 24.1293 24.1356 23.2946 23.6351 22.771ZM10.0367 2.63315C14.1273 2.63315 17.4551 5.97988 17.4551 10.0937C17.4551 14.2076 14.1273 17.5543 10.0367 17.5543C5.94608 17.5543 2.61827 14.2076 2.61827 10.0937C2.61827 5.97988 5.94608 2.63315 10.0367 2.63315Z" fill="white"/>
</svg>
