<svg width="21" height="24" viewBox="0 0 21 24" fill="none" xmlns="http://www.w3.org/2000/svg">
<path fill-rule="evenodd" clip-rule="evenodd" d="M6.4382 23.7503V12.0034H14.4321L5.2042 3.87202L0.599108 0.0807419C0.537147 0.0294476 0.457767 -2.67029e-05 0.372024 -2.67029e-05C0.170391 -2.67029e-05 0.00672722 0.167301 0.00672722 0.373514L5.34058e-05 23.3779C5.34058e-05 23.5839 0.163507 23.7503 0.364617 23.7503H6.4382Z" fill="#143A63"/>
<path fill-rule="evenodd" clip-rule="evenodd" d="M6.4382 23.7503V12.0034H14.4321L5.2042 3.87202L0.599108 0.0807419C0.537147 0.0294476 0.457767 -2.67029e-05 0.372024 -2.67029e-05C0.170391 -2.67029e-05 0.00672722 0.167301 0.00672722 0.373514L5.34058e-05 23.3779C5.34058e-05 23.5839 0.163507 23.7503 0.364617 23.7503H6.4382Z" fill="#E8F2F8"/>
<path fill-rule="evenodd" clip-rule="evenodd" d="M14.4373 0.249725V11.9966H6.44336L15.6713 20.128L20.2764 23.9193C20.3383 23.9706 20.4177 24 20.5035 24C20.7051 24 20.8688 23.8327 20.8688 23.6265L20.8754 0.622131C20.8754 0.416124 20.712 0.249725 20.5109 0.249725H14.4373Z" fill="#0990CE"/>
</svg>
