<svg width="662" height="571" viewBox="0 0 662 571" fill="none" xmlns="http://www.w3.org/2000/svg">
<line x1="661" y1="380.412" y2="380.412" stroke="white" stroke-opacity="0.2" stroke-width="0.5"/>
<line x1="661" y1="190.412" y2="190.412" stroke="white" stroke-opacity="0.2" stroke-width="0.5"/>
<line x1="661" y1="285.411" y2="285.411" stroke="white" stroke-opacity="0.2" stroke-width="0.5"/>
<line x1="661" y1="475.41" y2="475.41" stroke="white" stroke-opacity="0.2" stroke-width="0.5"/>
<line x1="661" y1="95.4106" y2="95.4106" stroke="white" stroke-opacity="0.2" stroke-width="0.5"/>
<line x1="84.2227" y1="570.161" x2="84.2227" y2="0.161377" stroke="white" stroke-opacity="0.2" stroke-width="0.5"/>
<line x1="166.584" y1="570.161" x2="166.584" y2="0.161377" stroke="white" stroke-opacity="0.2" stroke-width="0.5"/>
<line x1="248.945" y1="570.161" x2="248.945" y2="0.161377" stroke="white" stroke-opacity="0.2" stroke-width="0.5"/>
<line x1="331.306" y1="570.161" x2="331.306" y2="0.161377" stroke="white" stroke-opacity="0.2" stroke-width="0.5"/>
<line x1="413.667" y1="570.161" x2="413.667" y2="0.161377" stroke="white" stroke-opacity="0.2" stroke-width="0.5"/>
<line x1="496.028" y1="570.161" x2="496.028" y2="0.161377" stroke="white" stroke-opacity="0.2" stroke-width="0.5"/>
<line x1="578.389" y1="570.161" x2="578.389" y2="0.161377" stroke="white" stroke-opacity="0.2" stroke-width="0.5"/>
<line y1="312.661" x2="661" y2="312.661" stroke="white"/>
<rect x="214" y="221.161" width="17" height="56" fill="#F33233"/>
<line x1="222.5" y1="304.161" x2="222.5" y2="205.161" stroke="#F33233"/>
<rect x="236" y="277.161" width="16.3539" height="35.9458" fill="#F33233"/>
<rect x="38" y="256.161" width="17" height="40" fill="#59CE77"/>
<line x1="46.6611" y1="315.161" x2="46.6611" y2="246.161" stroke="#59CE77"/>
<rect x="60" y="206.187" width="17" height="50.0545" fill="#59CE77"/>
<line x1="68.5" y1="267.161" x2="68.5" y2="181.16" stroke="#59CE77"/>
<rect x="82" y="179.161" width="17" height="27" fill="#59CE77"/>
<line x1="90.54" y1="264.313" x2="90.54" y2="173.161" stroke="#59CE77"/>
<rect x="-5" y="308.161" width="17" height="61" fill="#F33233"/>
<line x1="4.5" y1="308.161" x2="4.5" y2="296.161" stroke="#F33233"/>
<line x1="4.5" y1="375.161" x2="4.5" y2="369.161" stroke="#F33233"/>
<rect x="104" y="179.161" width="17" height="55" fill="#F33233"/>
<line x1="112.5" y1="253.161" x2="112.5" y2="167.161" stroke="#F33233"/>
<rect x="126" y="234.161" width="17" height="56" fill="#F33233"/>
<line x1="134.5" y1="298.377" x2="134.5" y2="202.161" stroke="#F33233"/>
<rect x="148" y="290.161" width="17" height="33" fill="#F33233"/>
<line x1="156.5" y1="338.161" x2="156.5" y2="262.161" stroke="#F33233"/>
<rect x="170" y="262.161" width="17" height="61" fill="#59CE77"/>
<line x1="178.5" y1="286.874" x2="178.5" y2="209.16" stroke="#59CE77"/>
<rect x="192" y="221.161" width="17" height="41" fill="#59CE77"/>
<line x1="200.5" y1="269.589" x2="200.5" y2="196.161" stroke="#59CE77"/>
<rect x="17" y="296.16" width="17" height="73" fill="#59CE77"/>
<line x1="25.5" y1="374.16" x2="25.5" y2="288.16" stroke="#59CE77"/>
<line x1="661.25" y1="0.160889" x2="661.25" y2="570.161" stroke="white" stroke-width="0.5"/>
<path d="M519.405 334.089C519.48 334.089 519.545 334.119 519.601 334.18L520.14 334.761C519.729 335.237 519.23 335.608 518.642 335.874C518.059 336.14 517.352 336.273 516.521 336.273C515.802 336.273 515.149 336.149 514.561 335.902C513.973 335.65 513.471 335.3 513.056 334.852C512.641 334.399 512.319 333.858 512.09 333.228C511.861 332.598 511.747 331.905 511.747 331.149C511.747 330.393 511.866 329.7 512.104 329.07C512.342 328.44 512.676 327.899 513.105 327.446C513.539 326.993 514.057 326.643 514.659 326.396C515.261 326.144 515.926 326.018 516.654 326.018C517.368 326.018 517.998 326.132 518.544 326.361C519.09 326.59 519.571 326.9 519.986 327.292L519.538 327.915C519.51 327.962 519.473 328.001 519.426 328.034C519.384 328.062 519.326 328.076 519.251 328.076C519.167 328.076 519.064 328.032 518.943 327.943C518.822 327.85 518.663 327.747 518.467 327.635C518.271 327.523 518.026 327.423 517.732 327.334C517.438 327.241 517.076 327.194 516.647 327.194C516.129 327.194 515.655 327.285 515.226 327.467C514.797 327.644 514.426 327.903 514.113 328.244C513.805 328.585 513.565 329 513.392 329.49C513.219 329.98 513.133 330.533 513.133 331.149C513.133 331.774 513.222 332.332 513.399 332.822C513.581 333.312 513.826 333.727 514.134 334.068C514.447 334.404 514.813 334.661 515.233 334.838C515.658 335.015 516.115 335.104 516.605 335.104C516.904 335.104 517.172 335.088 517.41 335.055C517.653 335.018 517.874 334.962 518.075 334.887C518.28 334.812 518.469 334.719 518.642 334.607C518.819 334.49 518.994 334.353 519.167 334.194C519.246 334.124 519.326 334.089 519.405 334.089ZM527.142 329.07V336.161H526.4C526.223 336.161 526.111 336.075 526.064 335.902L525.966 335.139C525.658 335.48 525.313 335.755 524.93 335.965C524.548 336.17 524.109 336.273 523.614 336.273C523.227 336.273 522.884 336.21 522.585 336.084C522.291 335.953 522.044 335.771 521.843 335.538C521.643 335.305 521.491 335.022 521.388 334.691C521.29 334.36 521.241 333.993 521.241 333.592V329.07H522.487V333.592C522.487 334.129 522.609 334.544 522.851 334.838C523.099 335.132 523.474 335.279 523.978 335.279C524.347 335.279 524.69 335.193 525.007 335.02C525.329 334.843 525.626 334.6 525.896 334.292V329.07H527.142ZM530.301 330.491C530.525 330.006 530.8 329.628 531.127 329.357C531.454 329.082 531.853 328.944 532.324 328.944C532.473 328.944 532.616 328.96 532.751 328.993C532.891 329.026 533.015 329.077 533.122 329.147L533.031 330.078C533.003 330.195 532.933 330.253 532.821 330.253C532.756 330.253 532.66 330.239 532.534 330.211C532.408 330.183 532.266 330.169 532.107 330.169C531.883 330.169 531.682 330.202 531.505 330.267C531.332 330.332 531.176 330.43 531.036 330.561C530.901 330.687 530.777 330.846 530.665 331.037C530.558 331.224 530.46 331.438 530.371 331.681V336.161H529.118V329.07H529.832C529.967 329.07 530.061 329.096 530.112 329.147C530.163 329.198 530.198 329.287 530.217 329.413L530.301 330.491ZM535.4 330.491C535.624 330.006 535.9 329.628 536.226 329.357C536.553 329.082 536.952 328.944 537.423 328.944C537.573 328.944 537.715 328.96 537.85 328.993C537.99 329.026 538.114 329.077 538.221 329.147L538.13 330.078C538.102 330.195 538.032 330.253 537.92 330.253C537.855 330.253 537.759 330.239 537.633 330.211C537.507 330.183 537.365 330.169 537.206 330.169C536.982 330.169 536.782 330.202 536.604 330.267C536.432 330.332 536.275 330.43 536.135 330.561C536 330.687 535.876 330.846 535.764 331.037C535.657 331.224 535.559 331.438 535.47 331.681V336.161H534.217V329.07H534.931C535.067 329.07 535.16 329.096 535.211 329.147C535.263 329.198 535.298 329.287 535.316 329.413L535.4 330.491ZM543.776 331.842C543.776 331.553 543.734 331.289 543.65 331.051C543.571 330.808 543.452 330.601 543.293 330.428C543.139 330.251 542.95 330.115 542.726 330.022C542.502 329.924 542.248 329.875 541.963 329.875C541.366 329.875 540.892 330.05 540.542 330.4C540.197 330.745 539.982 331.226 539.898 331.842H543.776ZM544.784 335.167C544.63 335.354 544.446 335.517 544.231 335.657C544.016 335.792 543.785 335.904 543.538 335.993C543.295 336.082 543.043 336.147 542.782 336.189C542.521 336.236 542.262 336.259 542.005 336.259C541.515 336.259 541.062 336.177 540.647 336.014C540.236 335.846 539.879 335.603 539.576 335.286C539.277 334.964 539.044 334.567 538.876 334.096C538.708 333.625 538.624 333.083 538.624 332.472C538.624 331.977 538.699 331.515 538.848 331.086C539.002 330.657 539.221 330.286 539.506 329.973C539.791 329.656 540.138 329.408 540.549 329.231C540.96 329.049 541.422 328.958 541.935 328.958C542.36 328.958 542.752 329.03 543.111 329.175C543.475 329.315 543.788 329.52 544.049 329.791C544.315 330.057 544.523 330.388 544.672 330.785C544.821 331.177 544.896 331.625 544.896 332.129C544.896 332.325 544.875 332.456 544.833 332.521C544.791 332.586 544.712 332.619 544.595 332.619H539.856C539.87 333.067 539.931 333.457 540.038 333.788C540.15 334.119 540.304 334.397 540.5 334.621C540.696 334.84 540.929 335.006 541.2 335.118C541.471 335.225 541.774 335.279 542.11 335.279C542.423 335.279 542.691 335.244 542.915 335.174C543.144 335.099 543.34 335.02 543.503 334.936C543.666 334.852 543.802 334.775 543.909 334.705C544.021 334.63 544.117 334.593 544.196 334.593C544.299 334.593 544.378 334.633 544.434 334.712L544.784 335.167ZM547.602 330.099C547.756 329.926 547.92 329.77 548.092 329.63C548.265 329.49 548.447 329.371 548.638 329.273C548.834 329.17 549.04 329.093 549.254 329.042C549.474 328.986 549.709 328.958 549.961 328.958C550.349 328.958 550.689 329.023 550.983 329.154C551.282 329.28 551.529 329.462 551.725 329.7C551.926 329.933 552.078 330.216 552.18 330.547C552.283 330.878 552.334 331.245 552.334 331.646V336.161H551.081V331.646C551.081 331.109 550.958 330.694 550.71 330.4C550.468 330.101 550.097 329.952 549.597 329.952C549.229 329.952 548.883 330.041 548.561 330.218C548.244 330.395 547.95 330.636 547.679 330.939V336.161H546.426V329.07H547.175C547.353 329.07 547.462 329.156 547.504 329.329L547.602 330.099ZM556.314 336.273C555.754 336.273 555.323 336.117 555.019 335.804C554.721 335.491 554.571 335.041 554.571 334.453V330.113H553.717C553.643 330.113 553.58 330.092 553.528 330.05C553.477 330.003 553.451 329.933 553.451 329.84V329.343L554.613 329.196L554.9 327.005C554.914 326.935 554.945 326.879 554.991 326.837C555.043 326.79 555.108 326.767 555.187 326.767H555.817V329.21H557.868V330.113H555.817V334.369C555.817 334.668 555.89 334.889 556.034 335.034C556.179 335.179 556.366 335.251 556.594 335.251C556.725 335.251 556.837 335.235 556.93 335.202C557.028 335.165 557.112 335.125 557.182 335.083C557.252 335.041 557.311 335.004 557.357 334.971C557.409 334.934 557.453 334.915 557.49 334.915C557.556 334.915 557.614 334.955 557.665 335.034L558.029 335.629C557.815 335.83 557.556 335.988 557.252 336.105C556.949 336.217 556.636 336.273 556.314 336.273ZM563.99 334.453C564.219 334.761 564.468 334.978 564.739 335.104C565.01 335.23 565.313 335.293 565.649 335.293C566.312 335.293 566.82 335.057 567.175 334.586C567.53 334.115 567.707 333.443 567.707 332.57C567.707 332.108 567.665 331.711 567.581 331.38C567.502 331.049 567.385 330.778 567.231 330.568C567.077 330.353 566.888 330.197 566.664 330.099C566.44 330.001 566.186 329.952 565.901 329.952C565.495 329.952 565.138 330.045 564.83 330.232C564.527 330.419 564.247 330.682 563.99 331.023V334.453ZM563.927 330.169C564.226 329.8 564.571 329.504 564.963 329.28C565.355 329.056 565.803 328.944 566.307 328.944C566.718 328.944 567.089 329.023 567.42 329.182C567.751 329.336 568.034 329.567 568.267 329.875C568.5 330.178 568.68 330.556 568.806 331.009C568.932 331.462 568.995 331.982 568.995 332.57C568.995 333.093 568.925 333.58 568.785 334.033C568.645 334.481 568.442 334.871 568.176 335.202C567.915 335.529 567.593 335.788 567.21 335.979C566.832 336.166 566.405 336.259 565.929 336.259C565.495 336.259 565.122 336.187 564.809 336.042C564.501 335.893 564.228 335.687 563.99 335.426V338.562H562.737V329.07H563.486C563.663 329.07 563.773 329.156 563.815 329.329L563.927 330.169ZM571.768 330.491C571.992 330.006 572.267 329.628 572.594 329.357C572.92 329.082 573.319 328.944 573.791 328.944C573.94 328.944 574.082 328.96 574.218 328.993C574.358 329.026 574.481 329.077 574.589 329.147L574.498 330.078C574.47 330.195 574.4 330.253 574.288 330.253C574.222 330.253 574.127 330.239 574.001 330.211C573.875 330.183 573.732 330.169 573.574 330.169C573.35 330.169 573.149 330.202 572.972 330.267C572.799 330.332 572.643 330.43 572.503 330.561C572.367 330.687 572.244 330.846 572.132 331.037C572.024 331.224 571.926 331.438 571.838 331.681V336.161H570.585V329.07H571.299C571.434 329.07 571.527 329.096 571.579 329.147C571.63 329.198 571.665 329.287 571.684 329.413L571.768 330.491ZM577 329.07V336.161H575.754V329.07H577ZM577.266 326.844C577.266 326.965 577.241 327.08 577.189 327.187C577.143 327.29 577.077 327.383 576.993 327.467C576.914 327.546 576.818 327.609 576.706 327.656C576.599 327.703 576.485 327.726 576.363 327.726C576.242 327.726 576.128 327.703 576.02 327.656C575.918 327.609 575.827 327.546 575.747 327.467C575.668 327.383 575.605 327.29 575.558 327.187C575.512 327.08 575.488 326.965 575.488 326.844C575.488 326.723 575.512 326.608 575.558 326.501C575.605 326.389 575.668 326.293 575.747 326.214C575.827 326.13 575.918 326.065 576.02 326.018C576.128 325.971 576.242 325.948 576.363 325.948C576.485 325.948 576.599 325.971 576.706 326.018C576.818 326.065 576.914 326.13 576.993 326.214C577.077 326.293 577.143 326.389 577.189 326.501C577.241 326.608 577.266 326.723 577.266 326.844ZM583.983 330.33C583.945 330.381 583.908 330.421 583.871 330.449C583.833 330.477 583.782 330.491 583.717 330.491C583.647 330.491 583.57 330.463 583.486 330.407C583.402 330.346 583.297 330.281 583.171 330.211C583.049 330.141 582.898 330.078 582.716 330.022C582.538 329.961 582.319 329.931 582.058 329.931C581.708 329.931 581.4 329.994 581.134 330.12C580.868 330.241 580.644 330.419 580.462 330.652C580.284 330.885 580.149 331.168 580.056 331.499C579.967 331.83 579.923 332.201 579.923 332.612C579.923 333.041 579.972 333.424 580.07 333.76C580.168 334.091 580.305 334.371 580.483 334.6C580.665 334.824 580.882 334.997 581.134 335.118C581.39 335.235 581.677 335.293 581.995 335.293C582.298 335.293 582.548 335.258 582.744 335.188C582.94 335.113 583.101 335.032 583.227 334.943C583.357 334.854 583.465 334.775 583.549 334.705C583.637 334.63 583.724 334.593 583.808 334.593C583.91 334.593 583.99 334.633 584.046 334.712L584.396 335.167C584.242 335.358 584.067 335.522 583.871 335.657C583.675 335.792 583.462 335.907 583.234 336C583.01 336.089 582.774 336.154 582.527 336.196C582.279 336.238 582.027 336.259 581.771 336.259C581.327 336.259 580.914 336.177 580.532 336.014C580.154 335.851 579.825 335.615 579.545 335.307C579.265 334.994 579.045 334.612 578.887 334.159C578.728 333.706 578.649 333.191 578.649 332.612C578.649 332.085 578.721 331.597 578.866 331.149C579.015 330.701 579.23 330.316 579.51 329.994C579.794 329.667 580.142 329.413 580.553 329.231C580.968 329.049 581.444 328.958 581.981 328.958C582.48 328.958 582.919 329.04 583.297 329.203C583.679 329.362 584.018 329.588 584.312 329.882L583.983 330.33ZM590.356 331.842C590.356 331.553 590.314 331.289 590.23 331.051C590.151 330.808 590.032 330.601 589.873 330.428C589.719 330.251 589.53 330.115 589.306 330.022C589.082 329.924 588.828 329.875 588.543 329.875C587.946 329.875 587.472 330.05 587.122 330.4C586.777 330.745 586.562 331.226 586.478 331.842H590.356ZM591.364 335.167C591.21 335.354 591.026 335.517 590.811 335.657C590.596 335.792 590.365 335.904 590.118 335.993C589.875 336.082 589.623 336.147 589.362 336.189C589.101 336.236 588.842 336.259 588.585 336.259C588.095 336.259 587.642 336.177 587.227 336.014C586.816 335.846 586.459 335.603 586.156 335.286C585.857 334.964 585.624 334.567 585.456 334.096C585.288 333.625 585.204 333.083 585.204 332.472C585.204 331.977 585.279 331.515 585.428 331.086C585.582 330.657 585.801 330.286 586.086 329.973C586.371 329.656 586.718 329.408 587.129 329.231C587.54 329.049 588.002 328.958 588.515 328.958C588.94 328.958 589.332 329.03 589.691 329.175C590.055 329.315 590.368 329.52 590.629 329.791C590.895 330.057 591.103 330.388 591.252 330.785C591.401 331.177 591.476 331.625 591.476 332.129C591.476 332.325 591.455 332.456 591.413 332.521C591.371 332.586 591.292 332.619 591.175 332.619H586.436C586.45 333.067 586.511 333.457 586.618 333.788C586.73 334.119 586.884 334.397 587.08 334.621C587.276 334.84 587.509 335.006 587.78 335.118C588.051 335.225 588.354 335.279 588.69 335.279C589.003 335.279 589.271 335.244 589.495 335.174C589.724 335.099 589.92 335.02 590.083 334.936C590.246 334.852 590.382 334.775 590.489 334.705C590.601 334.63 590.697 334.593 590.776 334.593C590.879 334.593 590.958 334.633 591.014 334.712L591.364 335.167ZM592.895 335.391C592.895 335.27 592.916 335.155 592.958 335.048C593.004 334.941 593.065 334.847 593.14 334.768C593.219 334.689 593.312 334.626 593.42 334.579C593.527 334.532 593.641 334.509 593.763 334.509C593.884 334.509 593.998 334.532 594.106 334.579C594.213 334.626 594.306 334.689 594.386 334.768C594.465 334.847 594.528 334.941 594.575 335.048C594.621 335.155 594.645 335.27 594.645 335.391C594.645 335.517 594.621 335.634 594.575 335.741C594.528 335.844 594.465 335.935 594.386 336.014C594.306 336.093 594.213 336.154 594.106 336.196C593.998 336.243 593.884 336.266 593.763 336.266C593.641 336.266 593.527 336.243 593.42 336.196C593.312 336.154 593.219 336.093 593.14 336.014C593.065 335.935 593.004 335.844 592.958 335.741C592.916 335.634 592.895 335.517 592.895 335.391ZM592.895 330.141C592.895 330.02 592.916 329.905 592.958 329.798C593.004 329.691 593.065 329.597 593.14 329.518C593.219 329.439 593.312 329.376 593.42 329.329C593.527 329.282 593.641 329.259 593.763 329.259C593.884 329.259 593.998 329.282 594.106 329.329C594.213 329.376 594.306 329.439 594.386 329.518C594.465 329.597 594.528 329.691 594.575 329.798C594.621 329.905 594.645 330.02 594.645 330.141C594.645 330.267 594.621 330.384 594.575 330.491C594.528 330.594 594.465 330.685 594.386 330.764C594.306 330.843 594.213 330.906 594.106 330.953C593.998 330.995 593.884 331.016 593.763 331.016C593.641 331.016 593.527 330.995 593.42 330.953C593.312 330.906 593.219 330.843 593.14 330.764C593.065 330.685 593.004 330.594 592.958 330.491C592.916 330.384 592.895 330.267 592.895 330.141ZM603.393 335.202C603.701 335.174 603.971 335.109 604.205 335.006C604.438 334.899 604.634 334.763 604.793 334.6C604.956 334.437 605.077 334.248 605.157 334.033C605.241 333.814 605.283 333.573 605.283 333.312C605.283 333.079 605.238 332.878 605.15 332.71C605.066 332.542 604.949 332.397 604.8 332.276C604.65 332.15 604.475 332.045 604.275 331.961C604.074 331.872 603.859 331.791 603.631 331.716L603.393 335.202ZM603.162 327.11C602.858 327.138 602.595 327.199 602.371 327.292C602.151 327.385 601.969 327.502 601.825 327.642C601.68 327.782 601.573 327.941 601.503 328.118C601.433 328.291 601.398 328.473 601.398 328.664C601.398 328.888 601.437 329.084 601.517 329.252C601.596 329.415 601.706 329.56 601.846 329.686C601.986 329.812 602.149 329.922 602.336 330.015C602.522 330.108 602.725 330.192 602.945 330.267L603.162 327.11ZM603.715 330.512C604.051 330.619 604.382 330.734 604.709 330.855C605.035 330.976 605.329 331.133 605.591 331.324C605.852 331.515 606.062 331.756 606.221 332.045C606.384 332.33 606.466 332.687 606.466 333.116C606.466 333.536 606.396 333.93 606.256 334.299C606.116 334.668 605.91 334.992 605.64 335.272C605.374 335.552 605.045 335.781 604.653 335.958C604.265 336.131 603.822 336.233 603.323 336.266L603.239 337.491C603.234 337.58 603.199 337.657 603.134 337.722C603.068 337.792 602.987 337.827 602.889 337.827H602.427L602.532 336.252C601.967 336.196 601.451 336.056 600.985 335.832C600.523 335.603 600.124 335.314 599.788 334.964L600.166 334.39C600.203 334.339 600.25 334.297 600.306 334.264C600.362 334.231 600.422 334.215 600.488 334.215C600.576 334.215 600.677 334.259 600.789 334.348C600.901 334.437 601.038 334.537 601.202 334.649C601.37 334.761 601.566 334.871 601.79 334.978C602.018 335.085 602.291 335.158 602.609 335.195L602.861 331.478C602.534 331.38 602.212 331.27 601.895 331.149C601.582 331.028 601.3 330.867 601.048 330.666C600.8 330.465 600.6 330.216 600.446 329.917C600.296 329.618 600.222 329.243 600.222 328.79C600.222 328.449 600.287 328.118 600.418 327.796C600.553 327.469 600.749 327.18 601.006 326.928C601.262 326.676 601.577 326.471 601.951 326.312C602.324 326.149 602.751 326.058 603.232 326.039L603.302 325.031C603.306 324.942 603.339 324.863 603.4 324.793C603.465 324.723 603.549 324.688 603.652 324.688H604.114L604.023 326.067C604.508 326.128 604.928 326.254 605.283 326.445C605.642 326.636 605.959 326.87 606.235 327.145L605.934 327.607C605.84 327.747 605.733 327.817 605.612 327.817C605.546 327.817 605.465 327.789 605.367 327.733C605.273 327.672 605.159 327.602 605.024 327.523C604.893 327.444 604.737 327.367 604.555 327.292C604.377 327.217 604.174 327.161 603.946 327.124L603.715 330.512ZM614.132 334.978C614.267 334.978 614.374 335.018 614.454 335.097C614.533 335.176 614.573 335.279 614.573 335.405V336.161H607.881V335.734C607.881 335.645 607.899 335.554 607.937 335.461C607.974 335.368 608.032 335.281 608.112 335.202L611.325 331.975C611.591 331.704 611.833 331.445 612.053 331.198C612.272 330.946 612.459 330.694 612.613 330.442C612.767 330.19 612.886 329.936 612.97 329.679C613.054 329.418 613.096 329.14 613.096 328.846C613.096 328.552 613.049 328.295 612.956 328.076C612.862 327.852 612.734 327.668 612.571 327.523C612.412 327.378 612.223 327.271 612.004 327.201C611.784 327.126 611.549 327.089 611.297 327.089C611.04 327.089 610.804 327.126 610.59 327.201C610.375 327.276 610.184 327.381 610.016 327.516C609.852 327.647 609.715 327.803 609.603 327.985C609.491 328.167 609.411 328.368 609.365 328.587C609.309 328.75 609.232 328.86 609.134 328.916C609.04 328.967 608.907 328.981 608.735 328.958L608.084 328.846C608.149 328.389 608.275 327.985 608.462 327.635C608.653 327.28 608.891 326.984 609.176 326.746C609.465 326.508 609.794 326.328 610.163 326.207C610.531 326.081 610.93 326.018 611.36 326.018C611.784 326.018 612.181 326.081 612.55 326.207C612.918 326.333 613.238 326.517 613.509 326.76C613.779 326.998 613.992 327.29 614.146 327.635C614.3 327.98 614.377 328.372 614.377 328.811C614.377 329.184 614.321 329.532 614.209 329.854C614.097 330.171 613.945 330.475 613.754 330.764C613.562 331.053 613.341 331.336 613.089 331.611C612.841 331.886 612.578 332.164 612.298 332.444L609.652 335.146C609.838 335.095 610.027 335.055 610.219 335.027C610.41 334.994 610.594 334.978 610.772 334.978H614.132ZM623.044 331.149C623.044 332.026 622.948 332.787 622.757 333.431C622.57 334.07 622.313 334.6 621.987 335.02C621.66 335.44 621.273 335.753 620.825 335.958C620.381 336.163 619.905 336.266 619.397 336.266C618.883 336.266 618.405 336.163 617.962 335.958C617.523 335.753 617.14 335.44 616.814 335.02C616.487 334.6 616.23 334.07 616.044 333.431C615.857 332.787 615.764 332.026 615.764 331.149C615.764 330.272 615.857 329.511 616.044 328.867C616.23 328.223 616.487 327.691 616.814 327.271C617.14 326.846 617.523 326.531 617.962 326.326C618.405 326.121 618.883 326.018 619.397 326.018C619.905 326.018 620.381 326.121 620.825 326.326C621.273 326.531 621.66 326.846 621.987 327.271C622.313 327.691 622.57 328.223 622.757 328.867C622.948 329.511 623.044 330.272 623.044 331.149ZM621.749 331.149C621.749 330.384 621.683 329.742 621.553 329.224C621.427 328.701 621.254 328.281 621.035 327.964C620.82 327.647 620.57 327.42 620.286 327.285C620.001 327.145 619.705 327.075 619.397 327.075C619.089 327.075 618.792 327.145 618.508 327.285C618.223 327.42 617.973 327.647 617.759 327.964C617.544 328.281 617.371 328.701 617.241 329.224C617.115 329.742 617.052 330.384 617.052 331.149C617.052 331.914 617.115 332.556 617.241 333.074C617.371 333.592 617.544 334.01 617.759 334.327C617.973 334.644 618.223 334.873 618.508 335.013C618.792 335.148 619.089 335.216 619.397 335.216C619.705 335.216 620.001 335.148 620.286 335.013C620.57 334.873 620.82 334.644 621.035 334.327C621.254 334.01 621.427 333.592 621.553 333.074C621.683 332.556 621.749 331.914 621.749 331.149ZM624.375 337.855C624.338 337.822 624.312 337.792 624.298 337.764C624.284 337.736 624.277 337.701 624.277 337.659C624.277 337.626 624.286 337.594 624.305 337.561C624.328 337.528 624.354 337.498 624.382 337.47C624.429 337.419 624.487 337.351 624.557 337.267C624.632 337.183 624.706 337.083 624.781 336.966C624.856 336.854 624.923 336.728 624.984 336.588C625.049 336.453 625.096 336.308 625.124 336.154C625.11 336.159 625.094 336.161 625.075 336.161C625.061 336.161 625.047 336.161 625.033 336.161C624.79 336.161 624.592 336.082 624.438 335.923C624.289 335.76 624.214 335.552 624.214 335.3C624.214 335.081 624.289 334.894 624.438 334.74C624.592 334.586 624.795 334.509 625.047 334.509C625.187 334.509 625.311 334.535 625.418 334.586C625.525 334.637 625.614 334.71 625.684 334.803C625.759 334.892 625.815 334.997 625.852 335.118C625.889 335.235 625.908 335.363 625.908 335.503C625.908 335.713 625.878 335.932 625.817 336.161C625.761 336.385 625.675 336.607 625.558 336.826C625.446 337.05 625.308 337.267 625.145 337.477C624.982 337.687 624.795 337.881 624.585 338.058L624.375 337.855ZM634.337 331.149C634.337 332.026 634.241 332.787 634.05 333.431C633.863 334.07 633.606 334.6 633.28 335.02C632.953 335.44 632.566 335.753 632.118 335.958C631.674 336.163 631.198 336.266 630.69 336.266C630.176 336.266 629.698 336.163 629.255 335.958C628.816 335.753 628.433 335.44 628.107 335.02C627.78 334.6 627.523 334.07 627.337 333.431C627.15 332.787 627.057 332.026 627.057 331.149C627.057 330.272 627.15 329.511 627.337 328.867C627.523 328.223 627.78 327.691 628.107 327.271C628.433 326.846 628.816 326.531 629.255 326.326C629.698 326.121 630.176 326.018 630.69 326.018C631.198 326.018 631.674 326.121 632.118 326.326C632.566 326.531 632.953 326.846 633.28 327.271C633.606 327.691 633.863 328.223 634.05 328.867C634.241 329.511 634.337 330.272 634.337 331.149ZM633.042 331.149C633.042 330.384 632.976 329.742 632.846 329.224C632.72 328.701 632.547 328.281 632.328 327.964C632.113 327.647 631.863 327.42 631.579 327.285C631.294 327.145 630.998 327.075 630.69 327.075C630.382 327.075 630.085 327.145 629.801 327.285C629.516 327.42 629.266 327.647 629.052 327.964C628.837 328.281 628.664 328.701 628.534 329.224C628.408 329.742 628.345 330.384 628.345 331.149C628.345 331.914 628.408 332.556 628.534 333.074C628.664 333.592 628.837 334.01 629.052 334.327C629.266 334.644 629.516 334.873 629.801 335.013C630.085 335.148 630.382 335.216 630.69 335.216C630.998 335.216 631.294 335.148 631.579 335.013C631.863 334.873 632.113 334.644 632.328 334.327C632.547 334.01 632.72 333.592 632.846 333.074C632.976 332.556 633.042 331.914 633.042 331.149ZM642.458 331.149C642.458 332.026 642.362 332.787 642.171 333.431C641.984 334.07 641.727 334.6 641.401 335.02C641.074 335.44 640.687 335.753 640.239 335.958C639.795 336.163 639.319 336.266 638.811 336.266C638.297 336.266 637.819 336.163 637.376 335.958C636.937 335.753 636.554 335.44 636.228 335.02C635.901 334.6 635.644 334.07 635.458 333.431C635.271 332.787 635.178 332.026 635.178 331.149C635.178 330.272 635.271 329.511 635.458 328.867C635.644 328.223 635.901 327.691 636.228 327.271C636.554 326.846 636.937 326.531 637.376 326.326C637.819 326.121 638.297 326.018 638.811 326.018C639.319 326.018 639.795 326.121 640.239 326.326C640.687 326.531 641.074 326.846 641.401 327.271C641.727 327.691 641.984 328.223 642.171 328.867C642.362 329.511 642.458 330.272 642.458 331.149ZM641.163 331.149C641.163 330.384 641.097 329.742 640.967 329.224C640.841 328.701 640.668 328.281 640.449 327.964C640.234 327.647 639.984 327.42 639.7 327.285C639.415 327.145 639.119 327.075 638.811 327.075C638.503 327.075 638.206 327.145 637.922 327.285C637.637 327.42 637.387 327.647 637.173 327.964C636.958 328.281 636.785 328.701 636.655 329.224C636.529 329.742 636.466 330.384 636.466 331.149C636.466 331.914 636.529 332.556 636.655 333.074C636.785 333.592 636.958 334.01 637.173 334.327C637.387 334.644 637.637 334.873 637.922 335.013C638.206 335.148 638.503 335.216 638.811 335.216C639.119 335.216 639.415 335.148 639.7 335.013C639.984 334.873 640.234 334.644 640.449 334.327C640.668 334.01 640.841 333.592 640.967 333.074C641.097 332.556 641.163 331.914 641.163 331.149ZM650.579 331.149C650.579 332.026 650.483 332.787 650.292 333.431C650.105 334.07 649.849 334.6 649.522 335.02C649.195 335.44 648.808 335.753 648.36 335.958C647.917 336.163 647.441 336.266 646.932 336.266C646.419 336.266 645.94 336.163 645.497 335.958C645.058 335.753 644.676 335.44 644.349 335.02C644.022 334.6 643.766 334.07 643.579 333.431C643.392 332.787 643.299 332.026 643.299 331.149C643.299 330.272 643.392 329.511 643.579 328.867C643.766 328.223 644.022 327.691 644.349 327.271C644.676 326.846 645.058 326.531 645.497 326.326C645.94 326.121 646.419 326.018 646.932 326.018C647.441 326.018 647.917 326.121 648.36 326.326C648.808 326.531 649.195 326.846 649.522 327.271C649.849 327.691 650.105 328.223 650.292 328.867C650.483 329.511 650.579 330.272 650.579 331.149ZM649.284 331.149C649.284 330.384 649.219 329.742 649.088 329.224C648.962 328.701 648.789 328.281 648.57 327.964C648.355 327.647 648.106 327.42 647.821 327.285C647.536 327.145 647.24 327.075 646.932 327.075C646.624 327.075 646.328 327.145 646.043 327.285C645.758 327.42 645.509 327.647 645.294 327.964C645.079 328.281 644.907 328.701 644.776 329.224C644.65 329.742 644.587 330.384 644.587 331.149C644.587 331.914 644.65 332.556 644.776 333.074C644.907 333.592 645.079 334.01 645.294 334.327C645.509 334.644 645.758 334.873 646.043 335.013C646.328 335.148 646.624 335.216 646.932 335.216C647.24 335.216 647.536 335.148 647.821 335.013C648.106 334.873 648.355 334.644 648.57 334.327C648.789 334.01 648.962 333.592 649.088 333.074C649.219 332.556 649.284 331.914 649.284 331.149Z" fill="white"/>
<line x1="244.5" y1="321.161" x2="244.5" y2="265.161" stroke="#F33233"/>
<path d="M315 185.161H310V323.161H315" stroke="#00AEEF"/>
<path d="M326 323.161L331 323.161L331 185.161L326 185.161" stroke="#00AEEF"/>
<path d="M351 222.161H346V360.161H351" stroke="white"/>
<path d="M362 360.161L367 360.161L367 222.161L362 222.161" stroke="white"/>
<path d="M387 259.161H382V397.161H387" stroke="white"/>
<path d="M398 397.161L403 397.161L403 259.161L398 259.161" stroke="white"/>
<path d="M423 296.161H418V434.161H423" stroke="#F33233"/>
<path d="M434 434.161L439 434.161L439 296.161L434 296.161" stroke="#F33233"/>
</svg>
