<svg width="662" height="571" viewBox="0 0 662 571" fill="none" xmlns="http://www.w3.org/2000/svg">
<line x1="661" y1="380.412" y2="380.412" stroke="white" stroke-opacity="0.2" stroke-width="0.5"/>
<line x1="661" y1="190.412" y2="190.412" stroke="white" stroke-opacity="0.2" stroke-width="0.5"/>
<line x1="661" y1="285.411" y2="285.411" stroke="white" stroke-opacity="0.2" stroke-width="0.5"/>
<line x1="661" y1="475.41" y2="475.41" stroke="white" stroke-opacity="0.2" stroke-width="0.5"/>
<line x1="661" y1="95.4106" y2="95.4106" stroke="white" stroke-opacity="0.2" stroke-width="0.5"/>
<line x1="84.2227" y1="570.161" x2="84.2227" y2="0.161316" stroke="white" stroke-opacity="0.2" stroke-width="0.5"/>
<line x1="166.584" y1="570.161" x2="166.584" y2="0.161316" stroke="white" stroke-opacity="0.2" stroke-width="0.5"/>
<line x1="248.945" y1="570.161" x2="248.945" y2="0.161316" stroke="white" stroke-opacity="0.2" stroke-width="0.5"/>
<line x1="331.306" y1="570.161" x2="331.306" y2="0.161316" stroke="white" stroke-opacity="0.2" stroke-width="0.5"/>
<line x1="413.667" y1="570.161" x2="413.667" y2="0.161316" stroke="white" stroke-opacity="0.2" stroke-width="0.5"/>
<line x1="496.028" y1="570.161" x2="496.028" y2="0.161316" stroke="white" stroke-opacity="0.2" stroke-width="0.5"/>
<line x1="578.389" y1="570.161" x2="578.389" y2="0.161316" stroke="white" stroke-opacity="0.2" stroke-width="0.5"/>
<line y1="312.661" x2="661" y2="312.661" stroke="white"/>
<path d="M0 434.161H661" stroke="white" stroke-width="0.5" stroke-dasharray="5 5"/>
<path d="M0 275.161H661" stroke="white" stroke-width="0.5" stroke-dasharray="5 5"/>
<rect x="214" y="221.161" width="17" height="56" fill="#F33233"/>
<line x1="222.5" y1="304.161" x2="222.5" y2="205.161" stroke="#F33233"/>
<rect x="236" y="277.161" width="16.3539" height="35.9458" fill="#F33233"/>
<rect x="38" y="256.161" width="17" height="40" fill="#59CE77"/>
<line x1="46.6611" y1="315.161" x2="46.6611" y2="246.161" stroke="#59CE77"/>
<rect x="60" y="206.187" width="17" height="50.0545" fill="#59CE77"/>
<line x1="68.5" y1="267.161" x2="68.5" y2="181.16" stroke="#59CE77"/>
<rect x="82" y="179.161" width="17" height="27" fill="#59CE77"/>
<line x1="90.54" y1="264.313" x2="90.54" y2="173.161" stroke="#59CE77"/>
<rect x="-5" y="308.161" width="17" height="61" fill="#F33233"/>
<line x1="4.5" y1="308.161" x2="4.5" y2="296.161" stroke="#F33233"/>
<line x1="4.5" y1="375.161" x2="4.5" y2="369.161" stroke="#F33233"/>
<rect x="104" y="179.161" width="17" height="55" fill="#F33233"/>
<line x1="112.5" y1="253.161" x2="112.5" y2="167.161" stroke="#F33233"/>
<rect x="126" y="234.161" width="17" height="56" fill="#F33233"/>
<line x1="134.5" y1="298.377" x2="134.5" y2="202.161" stroke="#F33233"/>
<rect x="148" y="290.161" width="17" height="33" fill="#F33233"/>
<line x1="156.5" y1="338.161" x2="156.5" y2="262.161" stroke="#F33233"/>
<rect x="170" y="262.161" width="17" height="61" fill="#59CE77"/>
<line x1="178.5" y1="286.874" x2="178.5" y2="209.16" stroke="#59CE77"/>
<rect x="192" y="221.161" width="17" height="41" fill="#59CE77"/>
<line x1="200.5" y1="269.589" x2="200.5" y2="196.161" stroke="#59CE77"/>
<rect x="17" y="296.16" width="17" height="73" fill="#59CE77"/>
<line x1="25.5" y1="374.16" x2="25.5" y2="288.16" stroke="#59CE77"/>
<rect x="257.5" y="313.661" width="16" height="19" stroke="#F33233"/>
<line x1="265.5" y1="343.161" x2="265.5" y2="332.161" stroke="#F33233"/>
<line x1="265.5" y1="314.161" x2="265.5" y2="297.161" stroke="#F33233"/>
<rect x="279.5" y="333.661" width="16" height="28" stroke="#F33233"/>
<line x1="287.5" y1="372.161" x2="287.5" y2="361.161" stroke="#F33233"/>
<line x1="287.5" y1="334.161" x2="287.5" y2="323.161" stroke="#F33233"/>
<rect x="323.5" y="412.661" width="16" height="28" stroke="#F33233"/>
<line x1="331.5" y1="451.161" x2="331.5" y2="440.161" stroke="#F33233"/>
<line x1="331.5" y1="413.161" x2="331.5" y2="402.161" stroke="#F33233"/>
<rect x="301.5" y="362.661" width="16" height="49" stroke="#F33233"/>
<line x1="309.5" y1="429.161" x2="309.5" y2="411.161" stroke="#F33233"/>
<line x1="309.5" y1="363.161" x2="309.5" y2="338.161" stroke="#F33233"/>
<line x1="661.25" y1="0.160858" x2="661.25" y2="570.161" stroke="white" stroke-width="0.5"/>
<path d="M519.405 334.089C519.48 334.089 519.545 334.119 519.601 334.18L520.14 334.761C519.729 335.237 519.23 335.608 518.642 335.874C518.059 336.14 517.352 336.273 516.521 336.273C515.802 336.273 515.149 336.149 514.561 335.902C513.973 335.65 513.471 335.3 513.056 334.852C512.641 334.399 512.319 333.858 512.09 333.228C511.861 332.598 511.747 331.905 511.747 331.149C511.747 330.393 511.866 329.7 512.104 329.07C512.342 328.44 512.676 327.899 513.105 327.446C513.539 326.993 514.057 326.643 514.659 326.396C515.261 326.144 515.926 326.018 516.654 326.018C517.368 326.018 517.998 326.132 518.544 326.361C519.09 326.59 519.571 326.9 519.986 327.292L519.538 327.915C519.51 327.962 519.473 328.001 519.426 328.034C519.384 328.062 519.326 328.076 519.251 328.076C519.167 328.076 519.064 328.032 518.943 327.943C518.822 327.85 518.663 327.747 518.467 327.635C518.271 327.523 518.026 327.423 517.732 327.334C517.438 327.241 517.076 327.194 516.647 327.194C516.129 327.194 515.655 327.285 515.226 327.467C514.797 327.644 514.426 327.903 514.113 328.244C513.805 328.585 513.565 329 513.392 329.49C513.219 329.98 513.133 330.533 513.133 331.149C513.133 331.774 513.222 332.332 513.399 332.822C513.581 333.312 513.826 333.727 514.134 334.068C514.447 334.404 514.813 334.661 515.233 334.838C515.658 335.015 516.115 335.104 516.605 335.104C516.904 335.104 517.172 335.088 517.41 335.055C517.653 335.018 517.874 334.962 518.075 334.887C518.28 334.812 518.469 334.719 518.642 334.607C518.819 334.49 518.994 334.353 519.167 334.194C519.246 334.124 519.326 334.089 519.405 334.089ZM527.142 329.07V336.161H526.4C526.223 336.161 526.111 336.075 526.064 335.902L525.966 335.139C525.658 335.48 525.313 335.755 524.93 335.965C524.548 336.17 524.109 336.273 523.614 336.273C523.227 336.273 522.884 336.21 522.585 336.084C522.291 335.953 522.044 335.771 521.843 335.538C521.643 335.305 521.491 335.022 521.388 334.691C521.29 334.36 521.241 333.993 521.241 333.592V329.07H522.487V333.592C522.487 334.129 522.609 334.544 522.851 334.838C523.099 335.132 523.474 335.279 523.978 335.279C524.347 335.279 524.69 335.193 525.007 335.02C525.329 334.843 525.626 334.6 525.896 334.292V329.07H527.142ZM530.301 330.491C530.525 330.006 530.8 329.628 531.127 329.357C531.454 329.082 531.853 328.944 532.324 328.944C532.473 328.944 532.616 328.96 532.751 328.993C532.891 329.026 533.015 329.077 533.122 329.147L533.031 330.078C533.003 330.195 532.933 330.253 532.821 330.253C532.756 330.253 532.66 330.239 532.534 330.211C532.408 330.183 532.266 330.169 532.107 330.169C531.883 330.169 531.682 330.202 531.505 330.267C531.332 330.332 531.176 330.43 531.036 330.561C530.901 330.687 530.777 330.846 530.665 331.037C530.558 331.224 530.46 331.438 530.371 331.681V336.161H529.118V329.07H529.832C529.967 329.07 530.061 329.096 530.112 329.147C530.163 329.198 530.198 329.287 530.217 329.413L530.301 330.491ZM535.4 330.491C535.624 330.006 535.9 329.628 536.226 329.357C536.553 329.082 536.952 328.944 537.423 328.944C537.573 328.944 537.715 328.96 537.85 328.993C537.99 329.026 538.114 329.077 538.221 329.147L538.13 330.078C538.102 330.195 538.032 330.253 537.92 330.253C537.855 330.253 537.759 330.239 537.633 330.211C537.507 330.183 537.365 330.169 537.206 330.169C536.982 330.169 536.782 330.202 536.604 330.267C536.432 330.332 536.275 330.43 536.135 330.561C536 330.687 535.876 330.846 535.764 331.037C535.657 331.224 535.559 331.438 535.47 331.681V336.161H534.217V329.07H534.931C535.067 329.07 535.16 329.096 535.211 329.147C535.263 329.198 535.298 329.287 535.316 329.413L535.4 330.491ZM543.776 331.842C543.776 331.553 543.734 331.289 543.65 331.051C543.571 330.808 543.452 330.601 543.293 330.428C543.139 330.251 542.95 330.115 542.726 330.022C542.502 329.924 542.248 329.875 541.963 329.875C541.366 329.875 540.892 330.05 540.542 330.4C540.197 330.745 539.982 331.226 539.898 331.842H543.776ZM544.784 335.167C544.63 335.354 544.446 335.517 544.231 335.657C544.016 335.792 543.785 335.904 543.538 335.993C543.295 336.082 543.043 336.147 542.782 336.189C542.521 336.236 542.262 336.259 542.005 336.259C541.515 336.259 541.062 336.177 540.647 336.014C540.236 335.846 539.879 335.603 539.576 335.286C539.277 334.964 539.044 334.567 538.876 334.096C538.708 333.625 538.624 333.083 538.624 332.472C538.624 331.977 538.699 331.515 538.848 331.086C539.002 330.657 539.221 330.286 539.506 329.973C539.791 329.656 540.138 329.408 540.549 329.231C540.96 329.049 541.422 328.958 541.935 328.958C542.36 328.958 542.752 329.03 543.111 329.175C543.475 329.315 543.788 329.52 544.049 329.791C544.315 330.057 544.523 330.388 544.672 330.785C544.821 331.177 544.896 331.625 544.896 332.129C544.896 332.325 544.875 332.456 544.833 332.521C544.791 332.586 544.712 332.619 544.595 332.619H539.856C539.87 333.067 539.931 333.457 540.038 333.788C540.15 334.119 540.304 334.397 540.5 334.621C540.696 334.84 540.929 335.006 541.2 335.118C541.471 335.225 541.774 335.279 542.11 335.279C542.423 335.279 542.691 335.244 542.915 335.174C543.144 335.099 543.34 335.02 543.503 334.936C543.666 334.852 543.802 334.775 543.909 334.705C544.021 334.63 544.117 334.593 544.196 334.593C544.299 334.593 544.378 334.633 544.434 334.712L544.784 335.167ZM547.602 330.099C547.756 329.926 547.92 329.77 548.092 329.63C548.265 329.49 548.447 329.371 548.638 329.273C548.834 329.17 549.04 329.093 549.254 329.042C549.474 328.986 549.709 328.958 549.961 328.958C550.349 328.958 550.689 329.023 550.983 329.154C551.282 329.28 551.529 329.462 551.725 329.7C551.926 329.933 552.078 330.216 552.18 330.547C552.283 330.878 552.334 331.245 552.334 331.646V336.161H551.081V331.646C551.081 331.109 550.958 330.694 550.71 330.4C550.468 330.101 550.097 329.952 549.597 329.952C549.229 329.952 548.883 330.041 548.561 330.218C548.244 330.395 547.95 330.636 547.679 330.939V336.161H546.426V329.07H547.175C547.353 329.07 547.462 329.156 547.504 329.329L547.602 330.099ZM556.314 336.273C555.754 336.273 555.323 336.117 555.019 335.804C554.721 335.491 554.571 335.041 554.571 334.453V330.113H553.717C553.643 330.113 553.58 330.092 553.528 330.05C553.477 330.003 553.451 329.933 553.451 329.84V329.343L554.613 329.196L554.9 327.005C554.914 326.935 554.945 326.879 554.991 326.837C555.043 326.79 555.108 326.767 555.187 326.767H555.817V329.21H557.868V330.113H555.817V334.369C555.817 334.668 555.89 334.889 556.034 335.034C556.179 335.179 556.366 335.251 556.594 335.251C556.725 335.251 556.837 335.235 556.93 335.202C557.028 335.165 557.112 335.125 557.182 335.083C557.252 335.041 557.311 335.004 557.357 334.971C557.409 334.934 557.453 334.915 557.49 334.915C557.556 334.915 557.614 334.955 557.665 335.034L558.029 335.629C557.815 335.83 557.556 335.988 557.252 336.105C556.949 336.217 556.636 336.273 556.314 336.273ZM563.99 334.453C564.219 334.761 564.468 334.978 564.739 335.104C565.01 335.23 565.313 335.293 565.649 335.293C566.312 335.293 566.82 335.057 567.175 334.586C567.53 334.115 567.707 333.443 567.707 332.57C567.707 332.108 567.665 331.711 567.581 331.38C567.502 331.049 567.385 330.778 567.231 330.568C567.077 330.353 566.888 330.197 566.664 330.099C566.44 330.001 566.186 329.952 565.901 329.952C565.495 329.952 565.138 330.045 564.83 330.232C564.527 330.419 564.247 330.682 563.99 331.023V334.453ZM563.927 330.169C564.226 329.8 564.571 329.504 564.963 329.28C565.355 329.056 565.803 328.944 566.307 328.944C566.718 328.944 567.089 329.023 567.42 329.182C567.751 329.336 568.034 329.567 568.267 329.875C568.5 330.178 568.68 330.556 568.806 331.009C568.932 331.462 568.995 331.982 568.995 332.57C568.995 333.093 568.925 333.58 568.785 334.033C568.645 334.481 568.442 334.871 568.176 335.202C567.915 335.529 567.593 335.788 567.21 335.979C566.832 336.166 566.405 336.259 565.929 336.259C565.495 336.259 565.122 336.187 564.809 336.042C564.501 335.893 564.228 335.687 563.99 335.426V338.562H562.737V329.07H563.486C563.663 329.07 563.773 329.156 563.815 329.329L563.927 330.169ZM571.768 330.491C571.992 330.006 572.267 329.628 572.594 329.357C572.92 329.082 573.319 328.944 573.791 328.944C573.94 328.944 574.082 328.96 574.218 328.993C574.358 329.026 574.481 329.077 574.589 329.147L574.498 330.078C574.47 330.195 574.4 330.253 574.288 330.253C574.222 330.253 574.127 330.239 574.001 330.211C573.875 330.183 573.732 330.169 573.574 330.169C573.35 330.169 573.149 330.202 572.972 330.267C572.799 330.332 572.643 330.43 572.503 330.561C572.367 330.687 572.244 330.846 572.132 331.037C572.024 331.224 571.926 331.438 571.838 331.681V336.161H570.585V329.07H571.299C571.434 329.07 571.527 329.096 571.579 329.147C571.63 329.198 571.665 329.287 571.684 329.413L571.768 330.491ZM577 329.07V336.161H575.754V329.07H577ZM577.266 326.844C577.266 326.965 577.241 327.08 577.189 327.187C577.143 327.29 577.077 327.383 576.993 327.467C576.914 327.546 576.818 327.609 576.706 327.656C576.599 327.703 576.485 327.726 576.363 327.726C576.242 327.726 576.128 327.703 576.02 327.656C575.918 327.609 575.827 327.546 575.747 327.467C575.668 327.383 575.605 327.29 575.558 327.187C575.512 327.08 575.488 326.965 575.488 326.844C575.488 326.723 575.512 326.608 575.558 326.501C575.605 326.389 575.668 326.293 575.747 326.214C575.827 326.13 575.918 326.065 576.02 326.018C576.128 325.971 576.242 325.948 576.363 325.948C576.485 325.948 576.599 325.971 576.706 326.018C576.818 326.065 576.914 326.13 576.993 326.214C577.077 326.293 577.143 326.389 577.189 326.501C577.241 326.608 577.266 326.723 577.266 326.844ZM583.983 330.33C583.945 330.381 583.908 330.421 583.871 330.449C583.833 330.477 583.782 330.491 583.717 330.491C583.647 330.491 583.57 330.463 583.486 330.407C583.402 330.346 583.297 330.281 583.171 330.211C583.049 330.141 582.898 330.078 582.716 330.022C582.538 329.961 582.319 329.931 582.058 329.931C581.708 329.931 581.4 329.994 581.134 330.12C580.868 330.241 580.644 330.419 580.462 330.652C580.284 330.885 580.149 331.168 580.056 331.499C579.967 331.83 579.923 332.201 579.923 332.612C579.923 333.041 579.972 333.424 580.07 333.76C580.168 334.091 580.305 334.371 580.483 334.6C580.665 334.824 580.882 334.997 581.134 335.118C581.39 335.235 581.677 335.293 581.995 335.293C582.298 335.293 582.548 335.258 582.744 335.188C582.94 335.113 583.101 335.032 583.227 334.943C583.357 334.854 583.465 334.775 583.549 334.705C583.637 334.63 583.724 334.593 583.808 334.593C583.91 334.593 583.99 334.633 584.046 334.712L584.396 335.167C584.242 335.358 584.067 335.522 583.871 335.657C583.675 335.792 583.462 335.907 583.234 336C583.01 336.089 582.774 336.154 582.527 336.196C582.279 336.238 582.027 336.259 581.771 336.259C581.327 336.259 580.914 336.177 580.532 336.014C580.154 335.851 579.825 335.615 579.545 335.307C579.265 334.994 579.045 334.612 578.887 334.159C578.728 333.706 578.649 333.191 578.649 332.612C578.649 332.085 578.721 331.597 578.866 331.149C579.015 330.701 579.23 330.316 579.51 329.994C579.794 329.667 580.142 329.413 580.553 329.231C580.968 329.049 581.444 328.958 581.981 328.958C582.48 328.958 582.919 329.04 583.297 329.203C583.679 329.362 584.018 329.588 584.312 329.882L583.983 330.33ZM590.356 331.842C590.356 331.553 590.314 331.289 590.23 331.051C590.151 330.808 590.032 330.601 589.873 330.428C589.719 330.251 589.53 330.115 589.306 330.022C589.082 329.924 588.828 329.875 588.543 329.875C587.946 329.875 587.472 330.05 587.122 330.4C586.777 330.745 586.562 331.226 586.478 331.842H590.356ZM591.364 335.167C591.21 335.354 591.026 335.517 590.811 335.657C590.596 335.792 590.365 335.904 590.118 335.993C589.875 336.082 589.623 336.147 589.362 336.189C589.101 336.236 588.842 336.259 588.585 336.259C588.095 336.259 587.642 336.177 587.227 336.014C586.816 335.846 586.459 335.603 586.156 335.286C585.857 334.964 585.624 334.567 585.456 334.096C585.288 333.625 585.204 333.083 585.204 332.472C585.204 331.977 585.279 331.515 585.428 331.086C585.582 330.657 585.801 330.286 586.086 329.973C586.371 329.656 586.718 329.408 587.129 329.231C587.54 329.049 588.002 328.958 588.515 328.958C588.94 328.958 589.332 329.03 589.691 329.175C590.055 329.315 590.368 329.52 590.629 329.791C590.895 330.057 591.103 330.388 591.252 330.785C591.401 331.177 591.476 331.625 591.476 332.129C591.476 332.325 591.455 332.456 591.413 332.521C591.371 332.586 591.292 332.619 591.175 332.619H586.436C586.45 333.067 586.511 333.457 586.618 333.788C586.73 334.119 586.884 334.397 587.08 334.621C587.276 334.84 587.509 335.006 587.78 335.118C588.051 335.225 588.354 335.279 588.69 335.279C589.003 335.279 589.271 335.244 589.495 335.174C589.724 335.099 589.92 335.02 590.083 334.936C590.246 334.852 590.382 334.775 590.489 334.705C590.601 334.63 590.697 334.593 590.776 334.593C590.879 334.593 590.958 334.633 591.014 334.712L591.364 335.167ZM592.895 335.391C592.895 335.27 592.916 335.155 592.958 335.048C593.004 334.941 593.065 334.847 593.14 334.768C593.219 334.689 593.312 334.626 593.42 334.579C593.527 334.532 593.641 334.509 593.763 334.509C593.884 334.509 593.998 334.532 594.106 334.579C594.213 334.626 594.306 334.689 594.386 334.768C594.465 334.847 594.528 334.941 594.575 335.048C594.621 335.155 594.645 335.27 594.645 335.391C594.645 335.517 594.621 335.634 594.575 335.741C594.528 335.844 594.465 335.935 594.386 336.014C594.306 336.093 594.213 336.154 594.106 336.196C593.998 336.243 593.884 336.266 593.763 336.266C593.641 336.266 593.527 336.243 593.42 336.196C593.312 336.154 593.219 336.093 593.14 336.014C593.065 335.935 593.004 335.844 592.958 335.741C592.916 335.634 592.895 335.517 592.895 335.391ZM592.895 330.141C592.895 330.02 592.916 329.905 592.958 329.798C593.004 329.691 593.065 329.597 593.14 329.518C593.219 329.439 593.312 329.376 593.42 329.329C593.527 329.282 593.641 329.259 593.763 329.259C593.884 329.259 593.998 329.282 594.106 329.329C594.213 329.376 594.306 329.439 594.386 329.518C594.465 329.597 594.528 329.691 594.575 329.798C594.621 329.905 594.645 330.02 594.645 330.141C594.645 330.267 594.621 330.384 594.575 330.491C594.528 330.594 594.465 330.685 594.386 330.764C594.306 330.843 594.213 330.906 594.106 330.953C593.998 330.995 593.884 331.016 593.763 331.016C593.641 331.016 593.527 330.995 593.42 330.953C593.312 330.906 593.219 330.843 593.14 330.764C593.065 330.685 593.004 330.594 592.958 330.491C592.916 330.384 592.895 330.267 592.895 330.141ZM603.393 335.202C603.701 335.174 603.971 335.109 604.205 335.006C604.438 334.899 604.634 334.763 604.793 334.6C604.956 334.437 605.077 334.248 605.157 334.033C605.241 333.814 605.283 333.573 605.283 333.312C605.283 333.079 605.238 332.878 605.15 332.71C605.066 332.542 604.949 332.397 604.8 332.276C604.65 332.15 604.475 332.045 604.275 331.961C604.074 331.872 603.859 331.791 603.631 331.716L603.393 335.202ZM603.162 327.11C602.858 327.138 602.595 327.199 602.371 327.292C602.151 327.385 601.969 327.502 601.825 327.642C601.68 327.782 601.573 327.941 601.503 328.118C601.433 328.291 601.398 328.473 601.398 328.664C601.398 328.888 601.437 329.084 601.517 329.252C601.596 329.415 601.706 329.56 601.846 329.686C601.986 329.812 602.149 329.922 602.336 330.015C602.522 330.108 602.725 330.192 602.945 330.267L603.162 327.11ZM603.715 330.512C604.051 330.619 604.382 330.734 604.709 330.855C605.035 330.976 605.329 331.133 605.591 331.324C605.852 331.515 606.062 331.756 606.221 332.045C606.384 332.33 606.466 332.687 606.466 333.116C606.466 333.536 606.396 333.93 606.256 334.299C606.116 334.668 605.91 334.992 605.64 335.272C605.374 335.552 605.045 335.781 604.653 335.958C604.265 336.131 603.822 336.233 603.323 336.266L603.239 337.491C603.234 337.58 603.199 337.657 603.134 337.722C603.068 337.792 602.987 337.827 602.889 337.827H602.427L602.532 336.252C601.967 336.196 601.451 336.056 600.985 335.832C600.523 335.603 600.124 335.314 599.788 334.964L600.166 334.39C600.203 334.339 600.25 334.297 600.306 334.264C600.362 334.231 600.422 334.215 600.488 334.215C600.576 334.215 600.677 334.259 600.789 334.348C600.901 334.437 601.038 334.537 601.202 334.649C601.37 334.761 601.566 334.871 601.79 334.978C602.018 335.085 602.291 335.158 602.609 335.195L602.861 331.478C602.534 331.38 602.212 331.27 601.895 331.149C601.582 331.028 601.3 330.867 601.048 330.666C600.8 330.465 600.6 330.216 600.446 329.917C600.296 329.618 600.222 329.243 600.222 328.79C600.222 328.449 600.287 328.118 600.418 327.796C600.553 327.469 600.749 327.18 601.006 326.928C601.262 326.676 601.577 326.471 601.951 326.312C602.324 326.149 602.751 326.058 603.232 326.039L603.302 325.031C603.306 324.942 603.339 324.863 603.4 324.793C603.465 324.723 603.549 324.688 603.652 324.688H604.114L604.023 326.067C604.508 326.128 604.928 326.254 605.283 326.445C605.642 326.636 605.959 326.87 606.235 327.145L605.934 327.607C605.84 327.747 605.733 327.817 605.612 327.817C605.546 327.817 605.465 327.789 605.367 327.733C605.273 327.672 605.159 327.602 605.024 327.523C604.893 327.444 604.737 327.367 604.555 327.292C604.377 327.217 604.174 327.161 603.946 327.124L603.715 330.512ZM614.132 334.978C614.267 334.978 614.374 335.018 614.454 335.097C614.533 335.176 614.573 335.279 614.573 335.405V336.161H607.881V335.734C607.881 335.645 607.899 335.554 607.937 335.461C607.974 335.368 608.032 335.281 608.112 335.202L611.325 331.975C611.591 331.704 611.833 331.445 612.053 331.198C612.272 330.946 612.459 330.694 612.613 330.442C612.767 330.19 612.886 329.936 612.97 329.679C613.054 329.418 613.096 329.14 613.096 328.846C613.096 328.552 613.049 328.295 612.956 328.076C612.862 327.852 612.734 327.668 612.571 327.523C612.412 327.378 612.223 327.271 612.004 327.201C611.784 327.126 611.549 327.089 611.297 327.089C611.04 327.089 610.804 327.126 610.59 327.201C610.375 327.276 610.184 327.381 610.016 327.516C609.852 327.647 609.715 327.803 609.603 327.985C609.491 328.167 609.411 328.368 609.365 328.587C609.309 328.75 609.232 328.86 609.134 328.916C609.04 328.967 608.907 328.981 608.735 328.958L608.084 328.846C608.149 328.389 608.275 327.985 608.462 327.635C608.653 327.28 608.891 326.984 609.176 326.746C609.465 326.508 609.794 326.328 610.163 326.207C610.531 326.081 610.93 326.018 611.36 326.018C611.784 326.018 612.181 326.081 612.55 326.207C612.918 326.333 613.238 326.517 613.509 326.76C613.779 326.998 613.992 327.29 614.146 327.635C614.3 327.98 614.377 328.372 614.377 328.811C614.377 329.184 614.321 329.532 614.209 329.854C614.097 330.171 613.945 330.475 613.754 330.764C613.562 331.053 613.341 331.336 613.089 331.611C612.841 331.886 612.578 332.164 612.298 332.444L609.652 335.146C609.838 335.095 610.027 335.055 610.219 335.027C610.41 334.994 610.594 334.978 610.772 334.978H614.132ZM623.044 331.149C623.044 332.026 622.948 332.787 622.757 333.431C622.57 334.07 622.313 334.6 621.987 335.02C621.66 335.44 621.273 335.753 620.825 335.958C620.381 336.163 619.905 336.266 619.397 336.266C618.883 336.266 618.405 336.163 617.962 335.958C617.523 335.753 617.14 335.44 616.814 335.02C616.487 334.6 616.23 334.07 616.044 333.431C615.857 332.787 615.764 332.026 615.764 331.149C615.764 330.272 615.857 329.511 616.044 328.867C616.23 328.223 616.487 327.691 616.814 327.271C617.14 326.846 617.523 326.531 617.962 326.326C618.405 326.121 618.883 326.018 619.397 326.018C619.905 326.018 620.381 326.121 620.825 326.326C621.273 326.531 621.66 326.846 621.987 327.271C622.313 327.691 622.57 328.223 622.757 328.867C622.948 329.511 623.044 330.272 623.044 331.149ZM621.749 331.149C621.749 330.384 621.683 329.742 621.553 329.224C621.427 328.701 621.254 328.281 621.035 327.964C620.82 327.647 620.57 327.42 620.286 327.285C620.001 327.145 619.705 327.075 619.397 327.075C619.089 327.075 618.792 327.145 618.508 327.285C618.223 327.42 617.973 327.647 617.759 327.964C617.544 328.281 617.371 328.701 617.241 329.224C617.115 329.742 617.052 330.384 617.052 331.149C617.052 331.914 617.115 332.556 617.241 333.074C617.371 333.592 617.544 334.01 617.759 334.327C617.973 334.644 618.223 334.873 618.508 335.013C618.792 335.148 619.089 335.216 619.397 335.216C619.705 335.216 620.001 335.148 620.286 335.013C620.57 334.873 620.82 334.644 621.035 334.327C621.254 334.01 621.427 333.592 621.553 333.074C621.683 332.556 621.749 331.914 621.749 331.149ZM624.375 337.855C624.338 337.822 624.312 337.792 624.298 337.764C624.284 337.736 624.277 337.701 624.277 337.659C624.277 337.626 624.286 337.594 624.305 337.561C624.328 337.528 624.354 337.498 624.382 337.47C624.429 337.419 624.487 337.351 624.557 337.267C624.632 337.183 624.706 337.083 624.781 336.966C624.856 336.854 624.923 336.728 624.984 336.588C625.049 336.453 625.096 336.308 625.124 336.154C625.11 336.159 625.094 336.161 625.075 336.161C625.061 336.161 625.047 336.161 625.033 336.161C624.79 336.161 624.592 336.082 624.438 335.923C624.289 335.76 624.214 335.552 624.214 335.3C624.214 335.081 624.289 334.894 624.438 334.74C624.592 334.586 624.795 334.509 625.047 334.509C625.187 334.509 625.311 334.535 625.418 334.586C625.525 334.637 625.614 334.71 625.684 334.803C625.759 334.892 625.815 334.997 625.852 335.118C625.889 335.235 625.908 335.363 625.908 335.503C625.908 335.713 625.878 335.932 625.817 336.161C625.761 336.385 625.675 336.607 625.558 336.826C625.446 337.05 625.308 337.267 625.145 337.477C624.982 337.687 624.795 337.881 624.585 338.058L624.375 337.855ZM634.337 331.149C634.337 332.026 634.241 332.787 634.05 333.431C633.863 334.07 633.606 334.6 633.28 335.02C632.953 335.44 632.566 335.753 632.118 335.958C631.674 336.163 631.198 336.266 630.69 336.266C630.176 336.266 629.698 336.163 629.255 335.958C628.816 335.753 628.433 335.44 628.107 335.02C627.78 334.6 627.523 334.07 627.337 333.431C627.15 332.787 627.057 332.026 627.057 331.149C627.057 330.272 627.15 329.511 627.337 328.867C627.523 328.223 627.78 327.691 628.107 327.271C628.433 326.846 628.816 326.531 629.255 326.326C629.698 326.121 630.176 326.018 630.69 326.018C631.198 326.018 631.674 326.121 632.118 326.326C632.566 326.531 632.953 326.846 633.28 327.271C633.606 327.691 633.863 328.223 634.05 328.867C634.241 329.511 634.337 330.272 634.337 331.149ZM633.042 331.149C633.042 330.384 632.976 329.742 632.846 329.224C632.72 328.701 632.547 328.281 632.328 327.964C632.113 327.647 631.863 327.42 631.579 327.285C631.294 327.145 630.998 327.075 630.69 327.075C630.382 327.075 630.085 327.145 629.801 327.285C629.516 327.42 629.266 327.647 629.052 327.964C628.837 328.281 628.664 328.701 628.534 329.224C628.408 329.742 628.345 330.384 628.345 331.149C628.345 331.914 628.408 332.556 628.534 333.074C628.664 333.592 628.837 334.01 629.052 334.327C629.266 334.644 629.516 334.873 629.801 335.013C630.085 335.148 630.382 335.216 630.69 335.216C630.998 335.216 631.294 335.148 631.579 335.013C631.863 334.873 632.113 334.644 632.328 334.327C632.547 334.01 632.72 333.592 632.846 333.074C632.976 332.556 633.042 331.914 633.042 331.149ZM642.458 331.149C642.458 332.026 642.362 332.787 642.171 333.431C641.984 334.07 641.727 334.6 641.401 335.02C641.074 335.44 640.687 335.753 640.239 335.958C639.795 336.163 639.319 336.266 638.811 336.266C638.297 336.266 637.819 336.163 637.376 335.958C636.937 335.753 636.554 335.44 636.228 335.02C635.901 334.6 635.644 334.07 635.458 333.431C635.271 332.787 635.178 332.026 635.178 331.149C635.178 330.272 635.271 329.511 635.458 328.867C635.644 328.223 635.901 327.691 636.228 327.271C636.554 326.846 636.937 326.531 637.376 326.326C637.819 326.121 638.297 326.018 638.811 326.018C639.319 326.018 639.795 326.121 640.239 326.326C640.687 326.531 641.074 326.846 641.401 327.271C641.727 327.691 641.984 328.223 642.171 328.867C642.362 329.511 642.458 330.272 642.458 331.149ZM641.163 331.149C641.163 330.384 641.097 329.742 640.967 329.224C640.841 328.701 640.668 328.281 640.449 327.964C640.234 327.647 639.984 327.42 639.7 327.285C639.415 327.145 639.119 327.075 638.811 327.075C638.503 327.075 638.206 327.145 637.922 327.285C637.637 327.42 637.387 327.647 637.173 327.964C636.958 328.281 636.785 328.701 636.655 329.224C636.529 329.742 636.466 330.384 636.466 331.149C636.466 331.914 636.529 332.556 636.655 333.074C636.785 333.592 636.958 334.01 637.173 334.327C637.387 334.644 637.637 334.873 637.922 335.013C638.206 335.148 638.503 335.216 638.811 335.216C639.119 335.216 639.415 335.148 639.7 335.013C639.984 334.873 640.234 334.644 640.449 334.327C640.668 334.01 640.841 333.592 640.967 333.074C641.097 332.556 641.163 331.914 641.163 331.149ZM650.579 331.149C650.579 332.026 650.483 332.787 650.292 333.431C650.105 334.07 649.849 334.6 649.522 335.02C649.195 335.44 648.808 335.753 648.36 335.958C647.917 336.163 647.441 336.266 646.932 336.266C646.419 336.266 645.94 336.163 645.497 335.958C645.058 335.753 644.676 335.44 644.349 335.02C644.022 334.6 643.766 334.07 643.579 333.431C643.392 332.787 643.299 332.026 643.299 331.149C643.299 330.272 643.392 329.511 643.579 328.867C643.766 328.223 644.022 327.691 644.349 327.271C644.676 326.846 645.058 326.531 645.497 326.326C645.94 326.121 646.419 326.018 646.932 326.018C647.441 326.018 647.917 326.121 648.36 326.326C648.808 326.531 649.195 326.846 649.522 327.271C649.849 327.691 650.105 328.223 650.292 328.867C650.483 329.511 650.579 330.272 650.579 331.149ZM649.284 331.149C649.284 330.384 649.219 329.742 649.088 329.224C648.962 328.701 648.789 328.281 648.57 327.964C648.355 327.647 648.106 327.42 647.821 327.285C647.536 327.145 647.24 327.075 646.932 327.075C646.624 327.075 646.328 327.145 646.043 327.285C645.758 327.42 645.509 327.647 645.294 327.964C645.079 328.281 644.907 328.701 644.776 329.224C644.65 329.742 644.587 330.384 644.587 331.149C644.587 331.914 644.65 332.556 644.776 333.074C644.907 333.592 645.079 334.01 645.294 334.327C645.509 334.644 645.758 334.873 646.043 335.013C646.328 335.148 646.624 335.216 646.932 335.216C647.24 335.216 647.536 335.148 647.821 335.013C648.106 334.873 648.355 334.644 648.57 334.327C648.789 334.01 648.962 333.592 649.088 333.074C649.219 332.556 649.284 331.914 649.284 331.149Z" fill="white"/>
<path d="M562.571 449.236V452.743H566.694V453.849H562.571V458.161H561.213V448.13H567.394V449.236H562.571ZM570 447.85V458.161H568.754V447.85H570ZM575.009 450.958C575.527 450.958 575.994 451.044 576.409 451.217C576.825 451.39 577.179 451.635 577.473 451.952C577.767 452.269 577.991 452.654 578.145 453.107C578.304 453.555 578.383 454.057 578.383 454.612C578.383 455.172 578.304 455.676 578.145 456.124C577.991 456.572 577.767 456.955 577.473 457.272C577.179 457.589 576.825 457.834 576.409 458.007C575.994 458.175 575.527 458.259 575.009 458.259C574.487 458.259 574.015 458.175 573.595 458.007C573.18 457.834 572.825 457.589 572.531 457.272C572.237 456.955 572.011 456.572 571.852 456.124C571.698 455.676 571.621 455.172 571.621 454.612C571.621 454.057 571.698 453.555 571.852 453.107C572.011 452.654 572.237 452.269 572.531 451.952C572.825 451.635 573.18 451.39 573.595 451.217C574.015 451.044 574.487 450.958 575.009 450.958ZM575.009 457.286C575.709 457.286 576.232 457.053 576.577 456.586C576.923 456.115 577.095 455.459 577.095 454.619C577.095 453.774 576.923 453.116 576.577 452.645C576.232 452.174 575.709 451.938 575.009 451.938C574.655 451.938 574.344 451.999 574.078 452.12C573.817 452.241 573.598 452.416 573.42 452.645C573.248 452.874 573.117 453.156 573.028 453.492C572.944 453.823 572.902 454.199 572.902 454.619C572.902 455.459 573.075 456.115 573.42 456.586C573.77 457.053 574.3 457.286 575.009 457.286ZM582.953 450.958C583.471 450.958 583.937 451.044 584.353 451.217C584.768 451.39 585.123 451.635 585.417 451.952C585.711 452.269 585.935 452.654 586.089 453.107C586.247 453.555 586.327 454.057 586.327 454.612C586.327 455.172 586.247 455.676 586.089 456.124C585.935 456.572 585.711 456.955 585.417 457.272C585.123 457.589 584.768 457.834 584.353 458.007C583.937 458.175 583.471 458.259 582.953 458.259C582.43 458.259 581.959 458.175 581.539 458.007C581.123 457.834 580.769 457.589 580.475 457.272C580.181 456.955 579.954 456.572 579.796 456.124C579.642 455.676 579.565 455.172 579.565 454.612C579.565 454.057 579.642 453.555 579.796 453.107C579.954 452.654 580.181 452.269 580.475 451.952C580.769 451.635 581.123 451.39 581.539 451.217C581.959 451.044 582.43 450.958 582.953 450.958ZM582.953 457.286C583.653 457.286 584.175 457.053 584.521 456.586C584.866 456.115 585.039 455.459 585.039 454.619C585.039 453.774 584.866 453.116 584.521 452.645C584.175 452.174 583.653 451.938 582.953 451.938C582.598 451.938 582.288 451.999 582.022 452.12C581.76 452.241 581.541 452.416 581.364 452.645C581.191 452.874 581.06 453.156 580.972 453.492C580.888 453.823 580.846 454.199 580.846 454.619C580.846 455.459 581.018 456.115 581.364 456.586C581.714 457.053 582.243 457.286 582.953 457.286ZM589.09 452.491C589.314 452.006 589.589 451.628 589.916 451.357C590.243 451.082 590.642 450.944 591.113 450.944C591.262 450.944 591.405 450.96 591.54 450.993C591.68 451.026 591.804 451.077 591.911 451.147L591.82 452.078C591.792 452.195 591.722 452.253 591.61 452.253C591.545 452.253 591.449 452.239 591.323 452.211C591.197 452.183 591.055 452.169 590.896 452.169C590.672 452.169 590.471 452.202 590.294 452.267C590.121 452.332 589.965 452.43 589.825 452.561C589.69 452.687 589.566 452.846 589.454 453.037C589.347 453.224 589.249 453.438 589.16 453.681V458.161H587.907V451.07H588.621C588.756 451.07 588.85 451.096 588.901 451.147C588.952 451.198 588.987 451.287 589.006 451.413L589.09 452.491ZM592.895 457.391C592.895 457.27 592.916 457.155 592.958 457.048C593.004 456.941 593.065 456.847 593.14 456.768C593.219 456.689 593.312 456.626 593.42 456.579C593.527 456.532 593.641 456.509 593.763 456.509C593.884 456.509 593.998 456.532 594.106 456.579C594.213 456.626 594.306 456.689 594.386 456.768C594.465 456.847 594.528 456.941 594.575 457.048C594.621 457.155 594.645 457.27 594.645 457.391C594.645 457.517 594.621 457.634 594.575 457.741C594.528 457.844 594.465 457.935 594.386 458.014C594.306 458.093 594.213 458.154 594.106 458.196C593.998 458.243 593.884 458.266 593.763 458.266C593.641 458.266 593.527 458.243 593.42 458.196C593.312 458.154 593.219 458.093 593.14 458.014C593.065 457.935 593.004 457.844 592.958 457.741C592.916 457.634 592.895 457.517 592.895 457.391ZM592.895 452.141C592.895 452.02 592.916 451.905 592.958 451.798C593.004 451.691 593.065 451.597 593.14 451.518C593.219 451.439 593.312 451.376 593.42 451.329C593.527 451.282 593.641 451.259 593.763 451.259C593.884 451.259 593.998 451.282 594.106 451.329C594.213 451.376 594.306 451.439 594.386 451.518C594.465 451.597 594.528 451.691 594.575 451.798C594.621 451.905 594.645 452.02 594.645 452.141C594.645 452.267 594.621 452.384 594.575 452.491C594.528 452.594 594.465 452.685 594.386 452.764C594.306 452.843 594.213 452.906 594.106 452.953C593.998 452.995 593.884 453.016 593.763 453.016C593.641 453.016 593.527 452.995 593.42 452.953C593.312 452.906 593.219 452.843 593.14 452.764C593.065 452.685 593.004 452.594 592.958 452.491C592.916 452.384 592.895 452.267 592.895 452.141ZM603.393 457.202C603.701 457.174 603.971 457.109 604.205 457.006C604.438 456.899 604.634 456.763 604.793 456.6C604.956 456.437 605.077 456.248 605.157 456.033C605.241 455.814 605.283 455.573 605.283 455.312C605.283 455.079 605.238 454.878 605.15 454.71C605.066 454.542 604.949 454.397 604.8 454.276C604.65 454.15 604.475 454.045 604.275 453.961C604.074 453.872 603.859 453.791 603.631 453.716L603.393 457.202ZM603.162 449.11C602.858 449.138 602.595 449.199 602.371 449.292C602.151 449.385 601.969 449.502 601.825 449.642C601.68 449.782 601.573 449.941 601.503 450.118C601.433 450.291 601.398 450.473 601.398 450.664C601.398 450.888 601.437 451.084 601.517 451.252C601.596 451.415 601.706 451.56 601.846 451.686C601.986 451.812 602.149 451.922 602.336 452.015C602.522 452.108 602.725 452.192 602.945 452.267L603.162 449.11ZM603.715 452.512C604.051 452.619 604.382 452.734 604.709 452.855C605.035 452.976 605.329 453.133 605.591 453.324C605.852 453.515 606.062 453.756 606.221 454.045C606.384 454.33 606.466 454.687 606.466 455.116C606.466 455.536 606.396 455.93 606.256 456.299C606.116 456.668 605.91 456.992 605.64 457.272C605.374 457.552 605.045 457.781 604.653 457.958C604.265 458.131 603.822 458.233 603.323 458.266L603.239 459.491C603.234 459.58 603.199 459.657 603.134 459.722C603.068 459.792 602.987 459.827 602.889 459.827H602.427L602.532 458.252C601.967 458.196 601.451 458.056 600.985 457.832C600.523 457.603 600.124 457.314 599.788 456.964L600.166 456.39C600.203 456.339 600.25 456.297 600.306 456.264C600.362 456.231 600.422 456.215 600.488 456.215C600.576 456.215 600.677 456.259 600.789 456.348C600.901 456.437 601.038 456.537 601.202 456.649C601.37 456.761 601.566 456.871 601.79 456.978C602.018 457.085 602.291 457.158 602.609 457.195L602.861 453.478C602.534 453.38 602.212 453.27 601.895 453.149C601.582 453.028 601.3 452.867 601.048 452.666C600.8 452.465 600.6 452.216 600.446 451.917C600.296 451.618 600.222 451.243 600.222 450.79C600.222 450.449 600.287 450.118 600.418 449.796C600.553 449.469 600.749 449.18 601.006 448.928C601.262 448.676 601.577 448.471 601.951 448.312C602.324 448.149 602.751 448.058 603.232 448.039L603.302 447.031C603.306 446.942 603.339 446.863 603.4 446.793C603.465 446.723 603.549 446.688 603.652 446.688H604.114L604.023 448.067C604.508 448.128 604.928 448.254 605.283 448.445C605.642 448.636 605.959 448.87 606.235 449.145L605.934 449.607C605.84 449.747 605.733 449.817 605.612 449.817C605.546 449.817 605.465 449.789 605.367 449.733C605.273 449.672 605.159 449.602 605.024 449.523C604.893 449.444 604.737 449.367 604.555 449.292C604.377 449.217 604.174 449.161 603.946 449.124L603.715 452.512ZM614.349 457.209V458.161H608.973V457.209H611.122V450.37C611.122 450.165 611.129 449.957 611.143 449.747L609.358 451.28C609.297 451.331 609.236 451.364 609.176 451.378C609.115 451.387 609.059 451.387 609.008 451.378C608.956 451.369 608.907 451.35 608.861 451.322C608.819 451.294 608.786 451.264 608.763 451.231L608.371 450.692L611.36 448.109H612.375V457.209H614.349ZM617.325 451.077C617.325 451.394 617.369 451.679 617.458 451.931C617.551 452.178 617.682 452.388 617.85 452.561C618.022 452.734 618.23 452.864 618.473 452.953C618.72 453.042 618.995 453.086 619.299 453.086C619.635 453.086 619.931 453.032 620.188 452.925C620.449 452.813 620.668 452.666 620.846 452.484C621.023 452.302 621.158 452.092 621.252 451.854C621.345 451.616 621.392 451.369 621.392 451.112C621.392 450.799 621.34 450.517 621.238 450.265C621.14 450.008 621.002 449.791 620.825 449.614C620.647 449.437 620.435 449.301 620.188 449.208C619.945 449.11 619.677 449.061 619.383 449.061C619.075 449.061 618.795 449.112 618.543 449.215C618.291 449.313 618.074 449.451 617.892 449.628C617.71 449.805 617.57 450.018 617.472 450.265C617.374 450.512 617.325 450.783 617.325 451.077ZM620.237 454.164C620.339 454.029 620.435 453.9 620.524 453.779C620.612 453.658 620.696 453.536 620.776 453.415C620.519 453.62 620.23 453.777 619.908 453.884C619.586 453.991 619.245 454.045 618.886 454.045C618.508 454.045 618.148 453.982 617.808 453.856C617.472 453.73 617.175 453.546 616.919 453.303C616.662 453.056 616.457 452.755 616.303 452.4C616.153 452.041 616.079 451.63 616.079 451.168C616.079 450.729 616.16 450.319 616.324 449.936C616.487 449.553 616.716 449.22 617.01 448.935C617.304 448.65 617.654 448.426 618.06 448.263C618.466 448.1 618.911 448.018 619.397 448.018C619.877 448.018 620.314 448.097 620.706 448.256C621.098 448.415 621.434 448.636 621.714 448.921C621.994 449.206 622.208 449.546 622.358 449.943C622.512 450.34 622.589 450.778 622.589 451.259C622.589 451.548 622.561 451.824 622.505 452.085C622.453 452.342 622.376 452.596 622.274 452.848C622.176 453.095 622.054 453.343 621.91 453.59C621.765 453.833 621.602 454.082 621.42 454.339L618.977 457.867C618.916 457.956 618.83 458.028 618.718 458.084C618.606 458.135 618.477 458.161 618.333 458.161H617.185L620.237 454.164ZM624.375 459.855C624.338 459.822 624.312 459.792 624.298 459.764C624.284 459.736 624.277 459.701 624.277 459.659C624.277 459.626 624.286 459.594 624.305 459.561C624.328 459.528 624.354 459.498 624.382 459.47C624.429 459.419 624.487 459.351 624.557 459.267C624.632 459.183 624.706 459.083 624.781 458.966C624.856 458.854 624.923 458.728 624.984 458.588C625.049 458.453 625.096 458.308 625.124 458.154C625.11 458.159 625.094 458.161 625.075 458.161C625.061 458.161 625.047 458.161 625.033 458.161C624.79 458.161 624.592 458.082 624.438 457.923C624.289 457.76 624.214 457.552 624.214 457.3C624.214 457.081 624.289 456.894 624.438 456.74C624.592 456.586 624.795 456.509 625.047 456.509C625.187 456.509 625.311 456.535 625.418 456.586C625.525 456.637 625.614 456.71 625.684 456.803C625.759 456.892 625.815 456.997 625.852 457.118C625.889 457.235 625.908 457.363 625.908 457.503C625.908 457.713 625.878 457.932 625.817 458.161C625.761 458.385 625.675 458.607 625.558 458.826C625.446 459.05 625.308 459.267 625.145 459.477C624.982 459.687 624.795 459.881 624.585 460.058L624.375 459.855ZM630.683 457.237C631.019 457.237 631.322 457.183 631.593 457.076C631.868 456.969 632.101 456.819 632.293 456.628C632.489 456.437 632.638 456.21 632.741 455.949C632.848 455.688 632.902 455.403 632.902 455.095C632.902 454.768 632.85 454.474 632.748 454.213C632.645 453.947 632.498 453.723 632.307 453.541C632.12 453.354 631.896 453.212 631.635 453.114C631.373 453.016 631.086 452.967 630.774 452.967C630.438 452.967 630.134 453.025 629.864 453.142C629.593 453.254 629.362 453.408 629.171 453.604C628.984 453.795 628.839 454.019 628.737 454.276C628.639 454.528 628.59 454.792 628.59 455.067C628.59 455.389 628.636 455.683 628.73 455.949C628.823 456.215 628.958 456.444 629.136 456.635C629.318 456.826 629.537 456.976 629.794 457.083C630.055 457.186 630.351 457.237 630.683 457.237ZM629.955 451.889C629.866 452.001 629.78 452.111 629.696 452.218C629.616 452.321 629.539 452.423 629.465 452.526C629.703 452.363 629.964 452.237 630.249 452.148C630.533 452.059 630.844 452.015 631.18 452.015C631.586 452.015 631.968 452.083 632.328 452.218C632.687 452.349 633 452.542 633.266 452.799C633.536 453.051 633.751 453.364 633.91 453.737C634.068 454.106 634.148 454.528 634.148 455.004C634.148 455.466 634.064 455.895 633.896 456.292C633.728 456.689 633.492 457.034 633.189 457.328C632.89 457.622 632.528 457.853 632.104 458.021C631.684 458.189 631.219 458.273 630.711 458.273C630.207 458.273 629.749 458.194 629.339 458.035C628.928 457.872 628.578 457.643 628.289 457.349C628.004 457.05 627.782 456.691 627.624 456.271C627.47 455.846 627.393 455.373 627.393 454.85C627.393 454.411 627.488 453.945 627.68 453.45C627.876 452.951 628.186 452.419 628.611 451.854L631.159 448.431C631.224 448.347 631.313 448.277 631.425 448.221C631.541 448.16 631.674 448.13 631.824 448.13H632.93L629.955 451.889ZM642.458 453.149C642.458 454.026 642.362 454.787 642.171 455.431C641.984 456.07 641.727 456.6 641.401 457.02C641.074 457.44 640.687 457.753 640.239 457.958C639.795 458.163 639.319 458.266 638.811 458.266C638.297 458.266 637.819 458.163 637.376 457.958C636.937 457.753 636.554 457.44 636.228 457.02C635.901 456.6 635.644 456.07 635.458 455.431C635.271 454.787 635.178 454.026 635.178 453.149C635.178 452.272 635.271 451.511 635.458 450.867C635.644 450.223 635.901 449.691 636.228 449.271C636.554 448.846 636.937 448.531 637.376 448.326C637.819 448.121 638.297 448.018 638.811 448.018C639.319 448.018 639.795 448.121 640.239 448.326C640.687 448.531 641.074 448.846 641.401 449.271C641.727 449.691 641.984 450.223 642.171 450.867C642.362 451.511 642.458 452.272 642.458 453.149ZM641.163 453.149C641.163 452.384 641.097 451.742 640.967 451.224C640.841 450.701 640.668 450.281 640.449 449.964C640.234 449.647 639.984 449.42 639.7 449.285C639.415 449.145 639.119 449.075 638.811 449.075C638.503 449.075 638.206 449.145 637.922 449.285C637.637 449.42 637.387 449.647 637.173 449.964C636.958 450.281 636.785 450.701 636.655 451.224C636.529 451.742 636.466 452.384 636.466 453.149C636.466 453.914 636.529 454.556 636.655 455.074C636.785 455.592 636.958 456.01 637.173 456.327C637.387 456.644 637.637 456.873 637.922 457.013C638.206 457.148 638.503 457.216 638.811 457.216C639.119 457.216 639.415 457.148 639.7 457.013C639.984 456.873 640.234 456.644 640.449 456.327C640.668 456.01 640.841 455.592 640.967 455.074C641.097 454.556 641.163 453.914 641.163 453.149ZM650.579 453.149C650.579 454.026 650.483 454.787 650.292 455.431C650.105 456.07 649.849 456.6 649.522 457.02C649.195 457.44 648.808 457.753 648.36 457.958C647.917 458.163 647.441 458.266 646.932 458.266C646.419 458.266 645.94 458.163 645.497 457.958C645.058 457.753 644.676 457.44 644.349 457.02C644.022 456.6 643.766 456.07 643.579 455.431C643.392 454.787 643.299 454.026 643.299 453.149C643.299 452.272 643.392 451.511 643.579 450.867C643.766 450.223 644.022 449.691 644.349 449.271C644.676 448.846 645.058 448.531 645.497 448.326C645.94 448.121 646.419 448.018 646.932 448.018C647.441 448.018 647.917 448.121 648.36 448.326C648.808 448.531 649.195 448.846 649.522 449.271C649.849 449.691 650.105 450.223 650.292 450.867C650.483 451.511 650.579 452.272 650.579 453.149ZM649.284 453.149C649.284 452.384 649.219 451.742 649.088 451.224C648.962 450.701 648.789 450.281 648.57 449.964C648.355 449.647 648.106 449.42 647.821 449.285C647.536 449.145 647.24 449.075 646.932 449.075C646.624 449.075 646.328 449.145 646.043 449.285C645.758 449.42 645.509 449.647 645.294 449.964C645.079 450.281 644.907 450.701 644.776 451.224C644.65 451.742 644.587 452.384 644.587 453.149C644.587 453.914 644.65 454.556 644.776 455.074C644.907 455.592 645.079 456.01 645.294 456.327C645.509 456.644 645.758 456.873 646.043 457.013C646.328 457.148 646.624 457.216 646.932 457.216C647.24 457.216 647.536 457.148 647.821 457.013C648.106 456.873 648.355 456.644 648.57 456.327C648.789 456.01 648.962 455.592 649.088 455.074C649.219 454.556 649.284 453.914 649.284 453.149Z" fill="white"/>
<path d="M559.616 297.089C559.691 297.089 559.756 297.119 559.812 297.18L560.351 297.761C559.94 298.237 559.441 298.608 558.853 298.874C558.27 299.14 557.563 299.273 556.732 299.273C556.013 299.273 555.36 299.149 554.772 298.902C554.184 298.65 553.682 298.3 553.267 297.852C552.852 297.399 552.53 296.858 552.301 296.228C552.072 295.598 551.958 294.905 551.958 294.149C551.958 293.393 552.077 292.7 552.315 292.07C552.553 291.44 552.887 290.899 553.316 290.446C553.75 289.993 554.268 289.643 554.87 289.396C555.472 289.144 556.137 289.018 556.865 289.018C557.579 289.018 558.209 289.132 558.755 289.361C559.301 289.59 559.782 289.9 560.197 290.292L559.749 290.915C559.721 290.962 559.684 291.001 559.637 291.034C559.595 291.062 559.537 291.076 559.462 291.076C559.378 291.076 559.275 291.032 559.154 290.943C559.033 290.85 558.874 290.747 558.678 290.635C558.482 290.523 558.237 290.423 557.943 290.334C557.649 290.241 557.287 290.194 556.858 290.194C556.34 290.194 555.866 290.285 555.437 290.467C555.008 290.644 554.637 290.903 554.324 291.244C554.016 291.585 553.776 292 553.603 292.49C553.43 292.98 553.344 293.533 553.344 294.149C553.344 294.774 553.433 295.332 553.61 295.822C553.792 296.312 554.037 296.727 554.345 297.068C554.658 297.404 555.024 297.661 555.444 297.838C555.869 298.015 556.326 298.104 556.816 298.104C557.115 298.104 557.383 298.088 557.621 298.055C557.864 298.018 558.085 297.962 558.286 297.887C558.491 297.812 558.68 297.719 558.853 297.607C559.03 297.49 559.205 297.353 559.378 297.194C559.457 297.124 559.537 297.089 559.616 297.089ZM566.241 294.842C566.241 294.553 566.199 294.289 566.115 294.051C566.035 293.808 565.916 293.601 565.758 293.428C565.604 293.251 565.415 293.115 565.191 293.022C564.967 292.924 564.712 292.875 564.428 292.875C563.83 292.875 563.357 293.05 563.007 293.4C562.661 293.745 562.447 294.226 562.363 294.842H566.241ZM567.249 298.167C567.095 298.354 566.91 298.517 566.696 298.657C566.481 298.792 566.25 298.904 566.003 298.993C565.76 299.082 565.508 299.147 565.247 299.189C564.985 299.236 564.726 299.259 564.47 299.259C563.98 299.259 563.527 299.177 563.112 299.014C562.701 298.846 562.344 298.603 562.041 298.286C561.742 297.964 561.509 297.567 561.341 297.096C561.173 296.625 561.089 296.083 561.089 295.472C561.089 294.977 561.163 294.515 561.313 294.086C561.467 293.657 561.686 293.286 561.971 292.973C562.255 292.656 562.603 292.408 563.014 292.231C563.424 292.049 563.886 291.958 564.4 291.958C564.824 291.958 565.216 292.03 565.576 292.175C565.94 292.315 566.252 292.52 566.514 292.791C566.78 293.057 566.987 293.388 567.137 293.785C567.286 294.177 567.361 294.625 567.361 295.129C567.361 295.325 567.34 295.456 567.298 295.521C567.256 295.586 567.176 295.619 567.06 295.619H562.321C562.335 296.067 562.395 296.457 562.503 296.788C562.615 297.119 562.769 297.397 562.965 297.621C563.161 297.84 563.394 298.006 563.665 298.118C563.935 298.225 564.239 298.279 564.575 298.279C564.887 298.279 565.156 298.244 565.38 298.174C565.608 298.099 565.804 298.02 565.968 297.936C566.131 297.852 566.266 297.775 566.374 297.705C566.486 297.63 566.581 297.593 566.661 297.593C566.763 297.593 566.843 297.633 566.899 297.712L567.249 298.167ZM570.207 292.07V299.161H568.961V292.07H570.207ZM570.473 289.844C570.473 289.965 570.448 290.08 570.396 290.187C570.35 290.29 570.284 290.383 570.2 290.467C570.121 290.546 570.025 290.609 569.913 290.656C569.806 290.703 569.692 290.726 569.57 290.726C569.449 290.726 569.335 290.703 569.227 290.656C569.125 290.609 569.034 290.546 568.954 290.467C568.875 290.383 568.812 290.29 568.765 290.187C568.719 290.08 568.695 289.965 568.695 289.844C568.695 289.723 568.719 289.608 568.765 289.501C568.812 289.389 568.875 289.293 568.954 289.214C569.034 289.13 569.125 289.065 569.227 289.018C569.335 288.971 569.449 288.948 569.57 288.948C569.692 288.948 569.806 288.971 569.913 289.018C570.025 289.065 570.121 289.13 570.2 289.214C570.284 289.293 570.35 289.389 570.396 289.501C570.448 289.608 570.473 289.723 570.473 289.844ZM573.543 288.85V299.161H572.297V288.85H573.543ZM576.879 292.07V299.161H575.633V292.07H576.879ZM577.145 289.844C577.145 289.965 577.12 290.08 577.068 290.187C577.022 290.29 576.956 290.383 576.872 290.467C576.793 290.546 576.697 290.609 576.585 290.656C576.478 290.703 576.364 290.726 576.242 290.726C576.121 290.726 576.007 290.703 575.899 290.656C575.797 290.609 575.706 290.546 575.626 290.467C575.547 290.383 575.484 290.29 575.437 290.187C575.391 290.08 575.367 289.965 575.367 289.844C575.367 289.723 575.391 289.608 575.437 289.501C575.484 289.389 575.547 289.293 575.626 289.214C575.706 289.13 575.797 289.065 575.899 289.018C576.007 288.971 576.121 288.948 576.242 288.948C576.364 288.948 576.478 288.971 576.585 289.018C576.697 289.065 576.793 289.13 576.872 289.214C576.956 289.293 577.022 289.389 577.068 289.501C577.12 289.608 577.145 289.723 577.145 289.844ZM580.102 293.099C580.256 292.926 580.42 292.77 580.592 292.63C580.765 292.49 580.947 292.371 581.138 292.273C581.334 292.17 581.54 292.093 581.754 292.042C581.974 291.986 582.209 291.958 582.461 291.958C582.849 291.958 583.189 292.023 583.483 292.154C583.782 292.28 584.029 292.462 584.225 292.7C584.426 292.933 584.578 293.216 584.68 293.547C584.783 293.878 584.834 294.245 584.834 294.646V299.161H583.581V294.646C583.581 294.109 583.458 293.694 583.21 293.4C582.968 293.101 582.597 292.952 582.097 292.952C581.729 292.952 581.383 293.041 581.061 293.218C580.744 293.395 580.45 293.636 580.179 293.939V299.161H578.926V292.07H579.675C579.853 292.07 579.962 292.156 580.004 292.329L580.102 293.099ZM589.204 295.696C589.456 295.696 589.678 295.661 589.869 295.591C590.06 295.521 590.221 295.423 590.352 295.297C590.483 295.171 590.581 295.022 590.646 294.849C590.711 294.672 590.744 294.478 590.744 294.268C590.744 293.834 590.611 293.489 590.345 293.232C590.084 292.975 589.703 292.847 589.204 292.847C588.7 292.847 588.315 292.975 588.049 293.232C587.788 293.489 587.657 293.834 587.657 294.268C587.657 294.478 587.69 294.672 587.755 294.849C587.825 295.022 587.925 295.171 588.056 295.297C588.187 295.423 588.348 295.521 588.539 295.591C588.73 295.661 588.952 295.696 589.204 295.696ZM591.451 299.546C591.451 299.373 591.402 299.233 591.304 299.126C591.206 299.019 591.073 298.935 590.905 298.874C590.742 298.813 590.55 298.771 590.331 298.748C590.112 298.72 589.878 298.699 589.631 298.685C589.388 298.671 589.141 298.657 588.889 298.643C588.637 298.629 588.394 298.606 588.161 298.573C587.9 298.694 587.685 298.848 587.517 299.035C587.354 299.217 587.272 299.432 587.272 299.679C587.272 299.838 587.312 299.985 587.391 300.12C587.475 300.26 587.601 300.379 587.769 300.477C587.937 300.58 588.147 300.659 588.399 300.715C588.656 300.776 588.957 300.806 589.302 300.806C589.638 300.806 589.939 300.776 590.205 300.715C590.471 300.654 590.695 300.568 590.877 300.456C591.064 300.344 591.206 300.211 591.304 300.057C591.402 299.903 591.451 299.733 591.451 299.546ZM592.718 292.35V292.812C592.718 292.966 592.62 293.064 592.424 293.106L591.619 293.211C591.778 293.519 591.857 293.86 591.857 294.233C591.857 294.578 591.789 294.893 591.654 295.178C591.523 295.458 591.341 295.698 591.108 295.899C590.875 296.1 590.595 296.254 590.268 296.361C589.941 296.468 589.587 296.522 589.204 296.522C588.873 296.522 588.56 296.482 588.266 296.403C588.117 296.496 588.002 296.597 587.923 296.704C587.844 296.807 587.804 296.912 587.804 297.019C587.804 297.187 587.872 297.315 588.007 297.404C588.147 297.488 588.329 297.549 588.553 297.586C588.777 297.623 589.031 297.647 589.316 297.656C589.605 297.665 589.899 297.682 590.198 297.705C590.501 297.724 590.795 297.759 591.08 297.81C591.369 297.861 591.626 297.945 591.85 298.062C592.074 298.179 592.254 298.34 592.389 298.545C592.529 298.75 592.599 299.016 592.599 299.343C592.599 299.646 592.522 299.94 592.368 300.225C592.219 300.51 592.002 300.762 591.717 300.981C591.432 301.205 591.082 301.382 590.667 301.513C590.256 301.648 589.792 301.716 589.274 301.716C588.756 301.716 588.303 301.665 587.916 301.562C587.529 301.459 587.207 301.322 586.95 301.149C586.693 300.976 586.5 300.776 586.369 300.547C586.243 300.323 586.18 300.087 586.18 299.84C586.18 299.49 586.29 299.194 586.509 298.951C586.728 298.708 587.029 298.515 587.412 298.37C587.202 298.277 587.034 298.153 586.908 297.999C586.787 297.84 586.726 297.628 586.726 297.362C586.726 297.259 586.745 297.154 586.782 297.047C586.819 296.935 586.875 296.825 586.95 296.718C587.029 296.606 587.125 296.501 587.237 296.403C587.349 296.305 587.48 296.219 587.629 296.144C587.279 295.948 587.006 295.689 586.81 295.367C586.614 295.04 586.516 294.662 586.516 294.233C586.516 293.888 586.581 293.575 586.712 293.295C586.847 293.01 587.034 292.77 587.272 292.574C587.51 292.373 587.792 292.219 588.119 292.112C588.45 292.005 588.812 291.951 589.204 291.951C589.512 291.951 589.799 291.986 590.065 292.056C590.331 292.121 590.574 292.219 590.793 292.35H592.718ZM593.895 298.391C593.895 298.27 593.916 298.155 593.958 298.048C594.004 297.941 594.065 297.847 594.14 297.768C594.219 297.689 594.312 297.626 594.42 297.579C594.527 297.532 594.641 297.509 594.763 297.509C594.884 297.509 594.998 297.532 595.106 297.579C595.213 297.626 595.306 297.689 595.386 297.768C595.465 297.847 595.528 297.941 595.575 298.048C595.621 298.155 595.645 298.27 595.645 298.391C595.645 298.517 595.621 298.634 595.575 298.741C595.528 298.844 595.465 298.935 595.386 299.014C595.306 299.093 595.213 299.154 595.106 299.196C594.998 299.243 594.884 299.266 594.763 299.266C594.641 299.266 594.527 299.243 594.42 299.196C594.312 299.154 594.219 299.093 594.14 299.014C594.065 298.935 594.004 298.844 593.958 298.741C593.916 298.634 593.895 298.517 593.895 298.391ZM593.895 293.141C593.895 293.02 593.916 292.905 593.958 292.798C594.004 292.691 594.065 292.597 594.14 292.518C594.219 292.439 594.312 292.376 594.42 292.329C594.527 292.282 594.641 292.259 594.763 292.259C594.884 292.259 594.998 292.282 595.106 292.329C595.213 292.376 595.306 292.439 595.386 292.518C595.465 292.597 595.528 292.691 595.575 292.798C595.621 292.905 595.645 293.02 595.645 293.141C595.645 293.267 595.621 293.384 595.575 293.491C595.528 293.594 595.465 293.685 595.386 293.764C595.306 293.843 595.213 293.906 595.106 293.953C594.998 293.995 594.884 294.016 594.763 294.016C594.641 294.016 594.527 293.995 594.42 293.953C594.312 293.906 594.219 293.843 594.14 293.764C594.065 293.685 594.004 293.594 593.958 293.491C593.916 293.384 593.895 293.267 593.895 293.141ZM604.393 298.202C604.701 298.174 604.971 298.109 605.205 298.006C605.438 297.899 605.634 297.763 605.793 297.6C605.956 297.437 606.077 297.248 606.157 297.033C606.241 296.814 606.283 296.573 606.283 296.312C606.283 296.079 606.238 295.878 606.15 295.71C606.066 295.542 605.949 295.397 605.8 295.276C605.65 295.15 605.475 295.045 605.275 294.961C605.074 294.872 604.859 294.791 604.631 294.716L604.393 298.202ZM604.162 290.11C603.858 290.138 603.595 290.199 603.371 290.292C603.151 290.385 602.969 290.502 602.825 290.642C602.68 290.782 602.573 290.941 602.503 291.118C602.433 291.291 602.398 291.473 602.398 291.664C602.398 291.888 602.437 292.084 602.517 292.252C602.596 292.415 602.706 292.56 602.846 292.686C602.986 292.812 603.149 292.922 603.336 293.015C603.522 293.108 603.725 293.192 603.945 293.267L604.162 290.11ZM604.715 293.512C605.051 293.619 605.382 293.734 605.709 293.855C606.035 293.976 606.329 294.133 606.591 294.324C606.852 294.515 607.062 294.756 607.221 295.045C607.384 295.33 607.466 295.687 607.466 296.116C607.466 296.536 607.396 296.93 607.256 297.299C607.116 297.668 606.91 297.992 606.64 298.272C606.374 298.552 606.045 298.781 605.653 298.958C605.265 299.131 604.822 299.233 604.323 299.266L604.239 300.491C604.234 300.58 604.199 300.657 604.134 300.722C604.068 300.792 603.987 300.827 603.889 300.827H603.427L603.532 299.252C602.967 299.196 602.451 299.056 601.985 298.832C601.523 298.603 601.124 298.314 600.788 297.964L601.166 297.39C601.203 297.339 601.25 297.297 601.306 297.264C601.362 297.231 601.422 297.215 601.488 297.215C601.576 297.215 601.677 297.259 601.789 297.348C601.901 297.437 602.038 297.537 602.202 297.649C602.37 297.761 602.566 297.871 602.79 297.978C603.018 298.085 603.291 298.158 603.609 298.195L603.861 294.478C603.534 294.38 603.212 294.27 602.895 294.149C602.582 294.028 602.3 293.867 602.048 293.666C601.8 293.465 601.6 293.216 601.446 292.917C601.296 292.618 601.222 292.243 601.222 291.79C601.222 291.449 601.287 291.118 601.418 290.796C601.553 290.469 601.749 290.18 602.006 289.928C602.262 289.676 602.577 289.471 602.951 289.312C603.324 289.149 603.751 289.058 604.232 289.039L604.302 288.031C604.306 287.942 604.339 287.863 604.4 287.793C604.465 287.723 604.549 287.688 604.652 287.688H605.114L605.023 289.067C605.508 289.128 605.928 289.254 606.283 289.445C606.642 289.636 606.959 289.87 607.235 290.145L606.934 290.607C606.84 290.747 606.733 290.817 606.612 290.817C606.546 290.817 606.465 290.789 606.367 290.733C606.273 290.672 606.159 290.602 606.024 290.523C605.893 290.444 605.737 290.367 605.555 290.292C605.377 290.217 605.174 290.161 604.946 290.124L604.715 293.512ZM615.132 297.978C615.267 297.978 615.374 298.018 615.454 298.097C615.533 298.176 615.573 298.279 615.573 298.405V299.161H608.881V298.734C608.881 298.645 608.899 298.554 608.937 298.461C608.974 298.368 609.032 298.281 609.112 298.202L612.325 294.975C612.591 294.704 612.833 294.445 613.053 294.198C613.272 293.946 613.459 293.694 613.613 293.442C613.767 293.19 613.886 292.936 613.97 292.679C614.054 292.418 614.096 292.14 614.096 291.846C614.096 291.552 614.049 291.295 613.956 291.076C613.862 290.852 613.734 290.668 613.571 290.523C613.412 290.378 613.223 290.271 613.004 290.201C612.784 290.126 612.549 290.089 612.297 290.089C612.04 290.089 611.804 290.126 611.59 290.201C611.375 290.276 611.184 290.381 611.016 290.516C610.852 290.647 610.715 290.803 610.603 290.985C610.491 291.167 610.411 291.368 610.365 291.587C610.309 291.75 610.232 291.86 610.134 291.916C610.04 291.967 609.907 291.981 609.735 291.958L609.084 291.846C609.149 291.389 609.275 290.985 609.462 290.635C609.653 290.28 609.891 289.984 610.176 289.746C610.465 289.508 610.794 289.328 611.163 289.207C611.531 289.081 611.93 289.018 612.36 289.018C612.784 289.018 613.181 289.081 613.55 289.207C613.918 289.333 614.238 289.517 614.509 289.76C614.779 289.998 614.992 290.29 615.146 290.635C615.3 290.98 615.377 291.372 615.377 291.811C615.377 292.184 615.321 292.532 615.209 292.854C615.097 293.171 614.945 293.475 614.754 293.764C614.562 294.053 614.341 294.336 614.089 294.611C613.841 294.886 613.578 295.164 613.298 295.444L610.652 298.146C610.838 298.095 611.027 298.055 611.219 298.027C611.41 297.994 611.594 297.978 611.772 297.978H615.132ZM624.044 294.149C624.044 295.026 623.948 295.787 623.757 296.431C623.57 297.07 623.313 297.6 622.987 298.02C622.66 298.44 622.273 298.753 621.825 298.958C621.381 299.163 620.905 299.266 620.397 299.266C619.883 299.266 619.405 299.163 618.962 298.958C618.523 298.753 618.14 298.44 617.814 298.02C617.487 297.6 617.23 297.07 617.044 296.431C616.857 295.787 616.764 295.026 616.764 294.149C616.764 293.272 616.857 292.511 617.044 291.867C617.23 291.223 617.487 290.691 617.814 290.271C618.14 289.846 618.523 289.531 618.962 289.326C619.405 289.121 619.883 289.018 620.397 289.018C620.905 289.018 621.381 289.121 621.825 289.326C622.273 289.531 622.66 289.846 622.987 290.271C623.313 290.691 623.57 291.223 623.757 291.867C623.948 292.511 624.044 293.272 624.044 294.149ZM622.749 294.149C622.749 293.384 622.683 292.742 622.553 292.224C622.427 291.701 622.254 291.281 622.035 290.964C621.82 290.647 621.57 290.42 621.286 290.285C621.001 290.145 620.705 290.075 620.397 290.075C620.089 290.075 619.792 290.145 619.508 290.285C619.223 290.42 618.973 290.647 618.759 290.964C618.544 291.281 618.371 291.701 618.241 292.224C618.115 292.742 618.052 293.384 618.052 294.149C618.052 294.914 618.115 295.556 618.241 296.074C618.371 296.592 618.544 297.01 618.759 297.327C618.973 297.644 619.223 297.873 619.508 298.013C619.792 298.148 620.089 298.216 620.397 298.216C620.705 298.216 621.001 298.148 621.286 298.013C621.57 297.873 621.82 297.644 622.035 297.327C622.254 297.01 622.427 296.592 622.553 296.074C622.683 295.556 622.749 294.914 622.749 294.149ZM625.375 300.855C625.338 300.822 625.312 300.792 625.298 300.764C625.284 300.736 625.277 300.701 625.277 300.659C625.277 300.626 625.286 300.594 625.305 300.561C625.328 300.528 625.354 300.498 625.382 300.47C625.429 300.419 625.487 300.351 625.557 300.267C625.632 300.183 625.706 300.083 625.781 299.966C625.856 299.854 625.923 299.728 625.984 299.588C626.049 299.453 626.096 299.308 626.124 299.154C626.11 299.159 626.094 299.161 626.075 299.161C626.061 299.161 626.047 299.161 626.033 299.161C625.79 299.161 625.592 299.082 625.438 298.923C625.289 298.76 625.214 298.552 625.214 298.3C625.214 298.081 625.289 297.894 625.438 297.74C625.592 297.586 625.795 297.509 626.047 297.509C626.187 297.509 626.311 297.535 626.418 297.586C626.525 297.637 626.614 297.71 626.684 297.803C626.759 297.892 626.815 297.997 626.852 298.118C626.889 298.235 626.908 298.363 626.908 298.503C626.908 298.713 626.878 298.932 626.817 299.161C626.761 299.385 626.675 299.607 626.558 299.826C626.446 300.05 626.308 300.267 626.145 300.477C625.982 300.687 625.795 300.881 625.585 301.058L625.375 300.855ZM634.763 298.209V299.161H629.387V298.209H631.536V291.37C631.536 291.165 631.543 290.957 631.557 290.747L629.772 292.28C629.711 292.331 629.65 292.364 629.59 292.378C629.529 292.387 629.473 292.387 629.422 292.378C629.37 292.369 629.321 292.35 629.275 292.322C629.233 292.294 629.2 292.264 629.177 292.231L628.785 291.692L631.774 289.109H632.789V298.209H634.763ZM643.458 294.149C643.458 295.026 643.362 295.787 643.171 296.431C642.984 297.07 642.727 297.6 642.401 298.02C642.074 298.44 641.687 298.753 641.239 298.958C640.795 299.163 640.319 299.266 639.811 299.266C639.297 299.266 638.819 299.163 638.376 298.958C637.937 298.753 637.554 298.44 637.228 298.02C636.901 297.6 636.644 297.07 636.458 296.431C636.271 295.787 636.178 295.026 636.178 294.149C636.178 293.272 636.271 292.511 636.458 291.867C636.644 291.223 636.901 290.691 637.228 290.271C637.554 289.846 637.937 289.531 638.376 289.326C638.819 289.121 639.297 289.018 639.811 289.018C640.319 289.018 640.795 289.121 641.239 289.326C641.687 289.531 642.074 289.846 642.401 290.271C642.727 290.691 642.984 291.223 643.171 291.867C643.362 292.511 643.458 293.272 643.458 294.149ZM642.163 294.149C642.163 293.384 642.097 292.742 641.967 292.224C641.841 291.701 641.668 291.281 641.449 290.964C641.234 290.647 640.984 290.42 640.7 290.285C640.415 290.145 640.119 290.075 639.811 290.075C639.503 290.075 639.206 290.145 638.922 290.285C638.637 290.42 638.387 290.647 638.173 290.964C637.958 291.281 637.785 291.701 637.655 292.224C637.529 292.742 637.466 293.384 637.466 294.149C637.466 294.914 637.529 295.556 637.655 296.074C637.785 296.592 637.958 297.01 638.173 297.327C638.387 297.644 638.637 297.873 638.922 298.013C639.206 298.148 639.503 298.216 639.811 298.216C640.119 298.216 640.415 298.148 640.7 298.013C640.984 297.873 641.234 297.644 641.449 297.327C641.668 297.01 641.841 296.592 641.967 296.074C642.097 295.556 642.163 294.914 642.163 294.149ZM651.579 294.149C651.579 295.026 651.483 295.787 651.292 296.431C651.105 297.07 650.849 297.6 650.522 298.02C650.195 298.44 649.808 298.753 649.36 298.958C648.917 299.163 648.441 299.266 647.932 299.266C647.419 299.266 646.94 299.163 646.497 298.958C646.058 298.753 645.676 298.44 645.349 298.02C645.022 297.6 644.766 297.07 644.579 296.431C644.392 295.787 644.299 295.026 644.299 294.149C644.299 293.272 644.392 292.511 644.579 291.867C644.766 291.223 645.022 290.691 645.349 290.271C645.676 289.846 646.058 289.531 646.497 289.326C646.94 289.121 647.419 289.018 647.932 289.018C648.441 289.018 648.917 289.121 649.36 289.326C649.808 289.531 650.195 289.846 650.522 290.271C650.849 290.691 651.105 291.223 651.292 291.867C651.483 292.511 651.579 293.272 651.579 294.149ZM650.284 294.149C650.284 293.384 650.219 292.742 650.088 292.224C649.962 291.701 649.789 291.281 649.57 290.964C649.355 290.647 649.106 290.42 648.821 290.285C648.536 290.145 648.24 290.075 647.932 290.075C647.624 290.075 647.328 290.145 647.043 290.285C646.758 290.42 646.509 290.647 646.294 290.964C646.079 291.281 645.907 291.701 645.776 292.224C645.65 292.742 645.587 293.384 645.587 294.149C645.587 294.914 645.65 295.556 645.776 296.074C645.907 296.592 646.079 297.01 646.294 297.327C646.509 297.644 646.758 297.873 647.043 298.013C647.328 298.148 647.624 298.216 647.932 298.216C648.24 298.216 648.536 298.148 648.821 298.013C649.106 297.873 649.355 297.644 649.57 297.327C649.789 297.01 649.962 296.592 650.088 296.074C650.219 295.556 650.284 294.914 650.284 294.149Z" fill="white"/>
<line x1="244.5" y1="321.161" x2="244.5" y2="265.161" stroke="#F33233"/>
</svg>
