<svg width="662" height="571" viewBox="0 0 662 571" fill="none" xmlns="http://www.w3.org/2000/svg">
<line x1="661" y1="380.412" y2="380.412" stroke="white" stroke-opacity="0.2" stroke-width="0.5"/>
<line x1="661" y1="190.412" y2="190.412" stroke="white" stroke-opacity="0.2" stroke-width="0.5"/>
<line x1="661" y1="285.411" y2="285.411" stroke="white" stroke-opacity="0.2" stroke-width="0.5"/>
<line x1="661" y1="475.41" y2="475.41" stroke="white" stroke-opacity="0.2" stroke-width="0.5"/>
<line x1="661" y1="95.4106" y2="95.4106" stroke="white" stroke-opacity="0.2" stroke-width="0.5"/>
<line x1="84.2227" y1="570.161" x2="84.2227" y2="0.161316" stroke="white" stroke-opacity="0.2" stroke-width="0.5"/>
<line x1="166.584" y1="570.161" x2="166.584" y2="0.161316" stroke="white" stroke-opacity="0.2" stroke-width="0.5"/>
<line x1="248.945" y1="570.161" x2="248.945" y2="0.161316" stroke="white" stroke-opacity="0.2" stroke-width="0.5"/>
<line x1="331.306" y1="570.161" x2="331.306" y2="0.161316" stroke="white" stroke-opacity="0.2" stroke-width="0.5"/>
<line x1="413.667" y1="570.161" x2="413.667" y2="0.161316" stroke="white" stroke-opacity="0.2" stroke-width="0.5"/>
<line x1="496.028" y1="570.161" x2="496.028" y2="0.161316" stroke="white" stroke-opacity="0.2" stroke-width="0.5"/>
<line x1="578.389" y1="570.161" x2="578.389" y2="0.161316" stroke="white" stroke-opacity="0.2" stroke-width="0.5"/>
<line y1="312.661" x2="661" y2="312.661" stroke="white"/>
<rect x="214" y="221.161" width="17" height="56" fill="#F33233"/>
<line x1="222.5" y1="304.161" x2="222.5" y2="205.161" stroke="#F33233"/>
<rect x="236" y="277.161" width="16.3539" height="35.9458" fill="#F33233"/>
<rect x="38" y="256.161" width="17" height="40" fill="#59CE77"/>
<line x1="46.6611" y1="315.161" x2="46.6611" y2="246.161" stroke="#59CE77"/>
<rect x="60" y="206.187" width="17" height="50.0545" fill="#59CE77"/>
<line x1="68.5" y1="267.161" x2="68.5" y2="181.16" stroke="#59CE77"/>
<rect x="82" y="179.161" width="17" height="27" fill="#59CE77"/>
<line x1="90.54" y1="264.313" x2="90.54" y2="173.161" stroke="#59CE77"/>
<rect x="-5" y="308.161" width="17" height="61" fill="#F33233"/>
<line x1="4.5" y1="308.161" x2="4.5" y2="296.161" stroke="#F33233"/>
<line x1="4.5" y1="375.161" x2="4.5" y2="369.161" stroke="#F33233"/>
<rect x="104" y="179.161" width="17" height="55" fill="#F33233"/>
<line x1="112.5" y1="253.161" x2="112.5" y2="167.161" stroke="#F33233"/>
<rect x="126" y="234.161" width="17" height="56" fill="#F33233"/>
<line x1="134.5" y1="298.377" x2="134.5" y2="202.161" stroke="#F33233"/>
<rect x="148" y="290.161" width="17" height="33" fill="#F33233"/>
<line x1="156.5" y1="338.161" x2="156.5" y2="262.161" stroke="#F33233"/>
<rect x="170" y="262.161" width="17" height="61" fill="#59CE77"/>
<line x1="178.5" y1="286.874" x2="178.5" y2="209.16" stroke="#59CE77"/>
<rect x="192" y="221.161" width="17" height="41" fill="#59CE77"/>
<line x1="200.5" y1="269.589" x2="200.5" y2="196.161" stroke="#59CE77"/>
<rect x="17" y="296.16" width="17" height="73" fill="#59CE77"/>
<line x1="25.5" y1="374.16" x2="25.5" y2="288.16" stroke="#59CE77"/>
<rect x="257.5" y="313.661" width="16" height="19" fill="#F33233" stroke="#F33233"/>
<line x1="265.5" y1="343.161" x2="265.5" y2="332.161" stroke="#F33233"/>
<line x1="265.5" y1="314.161" x2="265.5" y2="297.161" stroke="#F33233"/>
<rect x="279.5" y="333.661" width="16" height="28" fill="#F33233" stroke="#F33233"/>
<line x1="287.5" y1="372.161" x2="287.5" y2="361.161" stroke="#F33233"/>
<line x1="287.5" y1="334.161" x2="287.5" y2="323.161" stroke="#F33233"/>
<line x1="661.25" y1="0.160858" x2="661.25" y2="570.161" stroke="white" stroke-width="0.5"/>
<path d="M520.469 331.149C520.469 331.9 520.35 332.591 520.112 333.221C519.874 333.846 519.538 334.385 519.104 334.838C518.67 335.291 518.147 335.643 517.536 335.895C516.929 336.142 516.257 336.266 515.52 336.266C514.783 336.266 514.111 336.142 513.504 335.895C512.897 335.643 512.377 335.291 511.943 334.838C511.509 334.385 511.173 333.846 510.935 333.221C510.697 332.591 510.578 331.9 510.578 331.149C510.578 330.398 510.697 329.709 510.935 329.084C511.173 328.454 511.509 327.913 511.943 327.46C512.377 327.003 512.897 326.648 513.504 326.396C514.111 326.144 514.783 326.018 515.52 326.018C516.257 326.018 516.929 326.144 517.536 326.396C518.147 326.648 518.67 327.003 519.104 327.46C519.538 327.913 519.874 328.454 520.112 329.084C520.35 329.709 520.469 330.398 520.469 331.149ZM519.076 331.149C519.076 330.533 518.992 329.98 518.824 329.49C518.656 329 518.418 328.587 518.11 328.251C517.802 327.91 517.429 327.649 516.99 327.467C516.551 327.285 516.061 327.194 515.52 327.194C514.983 327.194 514.496 327.285 514.057 327.467C513.618 327.649 513.243 327.91 512.93 328.251C512.622 328.587 512.384 329 512.216 329.49C512.048 329.98 511.964 330.533 511.964 331.149C511.964 331.765 512.048 332.318 512.216 332.808C512.384 333.293 512.622 333.706 512.93 334.047C513.243 334.383 513.618 334.642 514.057 334.824C514.496 335.001 514.983 335.09 515.52 335.09C516.061 335.09 516.551 335.001 516.99 334.824C517.429 334.642 517.802 334.383 518.11 334.047C518.418 333.706 518.656 333.293 518.824 332.808C518.992 332.318 519.076 331.765 519.076 331.149ZM523.164 330.491C523.388 330.006 523.663 329.628 523.99 329.357C524.317 329.082 524.716 328.944 525.187 328.944C525.336 328.944 525.479 328.96 525.614 328.993C525.754 329.026 525.878 329.077 525.985 329.147L525.894 330.078C525.866 330.195 525.796 330.253 525.684 330.253C525.619 330.253 525.523 330.239 525.397 330.211C525.271 330.183 525.129 330.169 524.97 330.169C524.746 330.169 524.545 330.202 524.368 330.267C524.195 330.332 524.039 330.43 523.899 330.561C523.764 330.687 523.64 330.846 523.528 331.037C523.421 331.224 523.323 331.438 523.234 331.681V336.161H521.981V329.07H522.695C522.83 329.07 522.924 329.096 522.975 329.147C523.026 329.198 523.061 329.287 523.08 329.413L523.164 330.491ZM528.397 329.07V336.161H527.151V329.07H528.397ZM528.663 326.844C528.663 326.965 528.637 327.08 528.586 327.187C528.539 327.29 528.474 327.383 528.39 327.467C528.31 327.546 528.215 327.609 528.103 327.656C527.995 327.703 527.881 327.726 527.76 327.726C527.638 327.726 527.524 327.703 527.417 327.656C527.314 327.609 527.223 327.546 527.144 327.467C527.064 327.383 527.001 327.29 526.955 327.187C526.908 327.08 526.885 326.965 526.885 326.844C526.885 326.723 526.908 326.608 526.955 326.501C527.001 326.389 527.064 326.293 527.144 326.214C527.223 326.13 527.314 326.065 527.417 326.018C527.524 325.971 527.638 325.948 527.76 325.948C527.881 325.948 527.995 325.971 528.103 326.018C528.215 326.065 528.31 326.13 528.39 326.214C528.474 326.293 528.539 326.389 528.586 326.501C528.637 326.608 528.663 326.723 528.663 326.844ZM532.915 332.696C533.167 332.696 533.389 332.661 533.58 332.591C533.771 332.521 533.932 332.423 534.063 332.297C534.194 332.171 534.292 332.022 534.357 331.849C534.422 331.672 534.455 331.478 534.455 331.268C534.455 330.834 534.322 330.489 534.056 330.232C533.795 329.975 533.414 329.847 532.915 329.847C532.411 329.847 532.026 329.975 531.76 330.232C531.499 330.489 531.368 330.834 531.368 331.268C531.368 331.478 531.401 331.672 531.466 331.849C531.536 332.022 531.636 332.171 531.767 332.297C531.898 332.423 532.059 332.521 532.25 332.591C532.441 332.661 532.663 332.696 532.915 332.696ZM535.162 336.546C535.162 336.373 535.113 336.233 535.015 336.126C534.917 336.019 534.784 335.935 534.616 335.874C534.453 335.813 534.261 335.771 534.042 335.748C533.823 335.72 533.589 335.699 533.342 335.685C533.099 335.671 532.852 335.657 532.6 335.643C532.348 335.629 532.105 335.606 531.872 335.573C531.611 335.694 531.396 335.848 531.228 336.035C531.065 336.217 530.983 336.432 530.983 336.679C530.983 336.838 531.023 336.985 531.102 337.12C531.186 337.26 531.312 337.379 531.48 337.477C531.648 337.58 531.858 337.659 532.11 337.715C532.367 337.776 532.668 337.806 533.013 337.806C533.349 337.806 533.65 337.776 533.916 337.715C534.182 337.654 534.406 337.568 534.588 337.456C534.775 337.344 534.917 337.211 535.015 337.057C535.113 336.903 535.162 336.733 535.162 336.546ZM536.429 329.35V329.812C536.429 329.966 536.331 330.064 536.135 330.106L535.33 330.211C535.489 330.519 535.568 330.86 535.568 331.233C535.568 331.578 535.5 331.893 535.365 332.178C535.234 332.458 535.052 332.698 534.819 332.899C534.586 333.1 534.306 333.254 533.979 333.361C533.652 333.468 533.298 333.522 532.915 333.522C532.584 333.522 532.271 333.482 531.977 333.403C531.828 333.496 531.713 333.597 531.634 333.704C531.555 333.807 531.515 333.912 531.515 334.019C531.515 334.187 531.583 334.315 531.718 334.404C531.858 334.488 532.04 334.549 532.264 334.586C532.488 334.623 532.742 334.647 533.027 334.656C533.316 334.665 533.61 334.682 533.909 334.705C534.212 334.724 534.506 334.759 534.791 334.81C535.08 334.861 535.337 334.945 535.561 335.062C535.785 335.179 535.965 335.34 536.1 335.545C536.24 335.75 536.31 336.016 536.31 336.343C536.31 336.646 536.233 336.94 536.079 337.225C535.93 337.51 535.713 337.762 535.428 337.981C535.143 338.205 534.793 338.382 534.378 338.513C533.967 338.648 533.503 338.716 532.985 338.716C532.467 338.716 532.014 338.665 531.627 338.562C531.24 338.459 530.918 338.322 530.661 338.149C530.404 337.976 530.211 337.776 530.08 337.547C529.954 337.323 529.891 337.087 529.891 336.84C529.891 336.49 530.001 336.194 530.22 335.951C530.439 335.708 530.74 335.515 531.123 335.37C530.913 335.277 530.745 335.153 530.619 334.999C530.498 334.84 530.437 334.628 530.437 334.362C530.437 334.259 530.456 334.154 530.493 334.047C530.53 333.935 530.586 333.825 530.661 333.718C530.74 333.606 530.836 333.501 530.948 333.403C531.06 333.305 531.191 333.219 531.34 333.144C530.99 332.948 530.717 332.689 530.521 332.367C530.325 332.04 530.227 331.662 530.227 331.233C530.227 330.888 530.292 330.575 530.423 330.295C530.558 330.01 530.745 329.77 530.983 329.574C531.221 329.373 531.503 329.219 531.83 329.112C532.161 329.005 532.523 328.951 532.915 328.951C533.223 328.951 533.51 328.986 533.776 329.056C534.042 329.121 534.285 329.219 534.504 329.35H536.429ZM539.033 329.07V336.161H537.787V329.07H539.033ZM539.299 326.844C539.299 326.965 539.274 327.08 539.222 327.187C539.176 327.29 539.11 327.383 539.026 327.467C538.947 327.546 538.851 327.609 538.739 327.656C538.632 327.703 538.518 327.726 538.396 327.726C538.275 327.726 538.161 327.703 538.053 327.656C537.951 327.609 537.86 327.546 537.78 327.467C537.701 327.383 537.638 327.29 537.591 327.187C537.545 327.08 537.521 326.965 537.521 326.844C537.521 326.723 537.545 326.608 537.591 326.501C537.638 326.389 537.701 326.293 537.78 326.214C537.86 326.13 537.951 326.065 538.053 326.018C538.161 325.971 538.275 325.948 538.396 325.948C538.518 325.948 538.632 325.971 538.739 326.018C538.851 326.065 538.947 326.13 539.026 326.214C539.11 326.293 539.176 326.389 539.222 326.501C539.274 326.608 539.299 326.723 539.299 326.844ZM542.257 330.099C542.411 329.926 542.574 329.77 542.747 329.63C542.919 329.49 543.101 329.371 543.293 329.273C543.489 329.17 543.694 329.093 543.909 329.042C544.128 328.986 544.364 328.958 544.616 328.958C545.003 328.958 545.344 329.023 545.638 329.154C545.936 329.28 546.184 329.462 546.38 329.7C546.58 329.933 546.732 330.216 546.835 330.547C546.937 330.878 546.989 331.245 546.989 331.646V336.161H545.736V331.646C545.736 331.109 545.612 330.694 545.365 330.4C545.122 330.101 544.751 329.952 544.252 329.952C543.883 329.952 543.538 330.041 543.216 330.218C542.898 330.395 542.604 330.636 542.334 330.939V336.161H541.081V329.07H541.83C542.007 329.07 542.117 329.156 542.159 329.329L542.257 330.099ZM552.73 332.969C552.156 332.988 551.666 333.034 551.26 333.109C550.859 333.179 550.53 333.272 550.273 333.389C550.021 333.506 549.837 333.643 549.72 333.802C549.608 333.961 549.552 334.138 549.552 334.334C549.552 334.521 549.583 334.682 549.643 334.817C549.704 334.952 549.786 335.064 549.888 335.153C549.996 335.237 550.119 335.3 550.259 335.342C550.404 335.379 550.558 335.398 550.721 335.398C550.941 335.398 551.141 335.377 551.323 335.335C551.505 335.288 551.676 335.223 551.834 335.139C551.998 335.055 552.152 334.955 552.296 334.838C552.446 334.721 552.59 334.588 552.73 334.439V332.969ZM548.705 330.071C549.097 329.693 549.52 329.411 549.972 329.224C550.425 329.037 550.927 328.944 551.477 328.944C551.874 328.944 552.226 329.009 552.534 329.14C552.842 329.271 553.101 329.453 553.311 329.686C553.521 329.919 553.68 330.202 553.787 330.533C553.895 330.864 553.948 331.228 553.948 331.625V336.161H553.395C553.274 336.161 553.181 336.142 553.115 336.105C553.05 336.063 552.999 335.984 552.961 335.867L552.821 335.195C552.635 335.368 552.453 335.522 552.275 335.657C552.098 335.788 551.911 335.9 551.715 335.993C551.519 336.082 551.309 336.149 551.085 336.196C550.866 336.247 550.621 336.273 550.35 336.273C550.075 336.273 549.816 336.236 549.573 336.161C549.331 336.082 549.118 335.965 548.936 335.811C548.759 335.657 548.617 335.463 548.509 335.23C548.407 334.992 548.355 334.712 548.355 334.39C548.355 334.11 548.432 333.842 548.586 333.585C548.74 333.324 548.99 333.093 549.335 332.892C549.681 332.691 550.131 332.528 550.686 332.402C551.242 332.271 551.923 332.197 552.73 332.178V331.625C552.73 331.074 552.611 330.659 552.373 330.379C552.135 330.094 551.788 329.952 551.33 329.952C551.022 329.952 550.763 329.992 550.553 330.071C550.348 330.146 550.168 330.232 550.014 330.33C549.865 330.423 549.734 330.51 549.622 330.589C549.515 330.664 549.408 330.701 549.3 330.701C549.216 330.701 549.144 330.68 549.083 330.638C549.023 330.591 548.971 330.535 548.929 330.47L548.705 330.071ZM557.134 325.85V336.161H555.888V325.85H557.134ZM563.99 334.453C564.219 334.761 564.468 334.978 564.739 335.104C565.01 335.23 565.313 335.293 565.649 335.293C566.312 335.293 566.82 335.057 567.175 334.586C567.53 334.115 567.707 333.443 567.707 332.57C567.707 332.108 567.665 331.711 567.581 331.38C567.502 331.049 567.385 330.778 567.231 330.568C567.077 330.353 566.888 330.197 566.664 330.099C566.44 330.001 566.186 329.952 565.901 329.952C565.495 329.952 565.138 330.045 564.83 330.232C564.527 330.419 564.247 330.682 563.99 331.023V334.453ZM563.927 330.169C564.226 329.8 564.571 329.504 564.963 329.28C565.355 329.056 565.803 328.944 566.307 328.944C566.718 328.944 567.089 329.023 567.42 329.182C567.751 329.336 568.034 329.567 568.267 329.875C568.5 330.178 568.68 330.556 568.806 331.009C568.932 331.462 568.995 331.982 568.995 332.57C568.995 333.093 568.925 333.58 568.785 334.033C568.645 334.481 568.442 334.871 568.176 335.202C567.915 335.529 567.593 335.788 567.21 335.979C566.832 336.166 566.405 336.259 565.929 336.259C565.495 336.259 565.122 336.187 564.809 336.042C564.501 335.893 564.228 335.687 563.99 335.426V338.562H562.737V329.07H563.486C563.663 329.07 563.773 329.156 563.815 329.329L563.927 330.169ZM571.768 330.491C571.992 330.006 572.267 329.628 572.594 329.357C572.92 329.082 573.319 328.944 573.791 328.944C573.94 328.944 574.082 328.96 574.218 328.993C574.358 329.026 574.481 329.077 574.589 329.147L574.498 330.078C574.47 330.195 574.4 330.253 574.288 330.253C574.222 330.253 574.127 330.239 574.001 330.211C573.875 330.183 573.732 330.169 573.574 330.169C573.35 330.169 573.149 330.202 572.972 330.267C572.799 330.332 572.643 330.43 572.503 330.561C572.367 330.687 572.244 330.846 572.132 331.037C572.024 331.224 571.926 331.438 571.838 331.681V336.161H570.585V329.07H571.299C571.434 329.07 571.527 329.096 571.579 329.147C571.63 329.198 571.665 329.287 571.684 329.413L571.768 330.491ZM577 329.07V336.161H575.754V329.07H577ZM577.266 326.844C577.266 326.965 577.241 327.08 577.189 327.187C577.143 327.29 577.077 327.383 576.993 327.467C576.914 327.546 576.818 327.609 576.706 327.656C576.599 327.703 576.485 327.726 576.363 327.726C576.242 327.726 576.128 327.703 576.02 327.656C575.918 327.609 575.827 327.546 575.747 327.467C575.668 327.383 575.605 327.29 575.558 327.187C575.512 327.08 575.488 326.965 575.488 326.844C575.488 326.723 575.512 326.608 575.558 326.501C575.605 326.389 575.668 326.293 575.747 326.214C575.827 326.13 575.918 326.065 576.02 326.018C576.128 325.971 576.242 325.948 576.363 325.948C576.485 325.948 576.599 325.971 576.706 326.018C576.818 326.065 576.914 326.13 576.993 326.214C577.077 326.293 577.143 326.389 577.189 326.501C577.241 326.608 577.266 326.723 577.266 326.844ZM583.983 330.33C583.945 330.381 583.908 330.421 583.871 330.449C583.833 330.477 583.782 330.491 583.717 330.491C583.647 330.491 583.57 330.463 583.486 330.407C583.402 330.346 583.297 330.281 583.171 330.211C583.049 330.141 582.898 330.078 582.716 330.022C582.538 329.961 582.319 329.931 582.058 329.931C581.708 329.931 581.4 329.994 581.134 330.12C580.868 330.241 580.644 330.419 580.462 330.652C580.284 330.885 580.149 331.168 580.056 331.499C579.967 331.83 579.923 332.201 579.923 332.612C579.923 333.041 579.972 333.424 580.07 333.76C580.168 334.091 580.305 334.371 580.483 334.6C580.665 334.824 580.882 334.997 581.134 335.118C581.39 335.235 581.677 335.293 581.995 335.293C582.298 335.293 582.548 335.258 582.744 335.188C582.94 335.113 583.101 335.032 583.227 334.943C583.357 334.854 583.465 334.775 583.549 334.705C583.637 334.63 583.724 334.593 583.808 334.593C583.91 334.593 583.99 334.633 584.046 334.712L584.396 335.167C584.242 335.358 584.067 335.522 583.871 335.657C583.675 335.792 583.462 335.907 583.234 336C583.01 336.089 582.774 336.154 582.527 336.196C582.279 336.238 582.027 336.259 581.771 336.259C581.327 336.259 580.914 336.177 580.532 336.014C580.154 335.851 579.825 335.615 579.545 335.307C579.265 334.994 579.045 334.612 578.887 334.159C578.728 333.706 578.649 333.191 578.649 332.612C578.649 332.085 578.721 331.597 578.866 331.149C579.015 330.701 579.23 330.316 579.51 329.994C579.794 329.667 580.142 329.413 580.553 329.231C580.968 329.049 581.444 328.958 581.981 328.958C582.48 328.958 582.919 329.04 583.297 329.203C583.679 329.362 584.018 329.588 584.312 329.882L583.983 330.33ZM590.356 331.842C590.356 331.553 590.314 331.289 590.23 331.051C590.151 330.808 590.032 330.601 589.873 330.428C589.719 330.251 589.53 330.115 589.306 330.022C589.082 329.924 588.828 329.875 588.543 329.875C587.946 329.875 587.472 330.05 587.122 330.4C586.777 330.745 586.562 331.226 586.478 331.842H590.356ZM591.364 335.167C591.21 335.354 591.026 335.517 590.811 335.657C590.596 335.792 590.365 335.904 590.118 335.993C589.875 336.082 589.623 336.147 589.362 336.189C589.101 336.236 588.842 336.259 588.585 336.259C588.095 336.259 587.642 336.177 587.227 336.014C586.816 335.846 586.459 335.603 586.156 335.286C585.857 334.964 585.624 334.567 585.456 334.096C585.288 333.625 585.204 333.083 585.204 332.472C585.204 331.977 585.279 331.515 585.428 331.086C585.582 330.657 585.801 330.286 586.086 329.973C586.371 329.656 586.718 329.408 587.129 329.231C587.54 329.049 588.002 328.958 588.515 328.958C588.94 328.958 589.332 329.03 589.691 329.175C590.055 329.315 590.368 329.52 590.629 329.791C590.895 330.057 591.103 330.388 591.252 330.785C591.401 331.177 591.476 331.625 591.476 332.129C591.476 332.325 591.455 332.456 591.413 332.521C591.371 332.586 591.292 332.619 591.175 332.619H586.436C586.45 333.067 586.511 333.457 586.618 333.788C586.73 334.119 586.884 334.397 587.08 334.621C587.276 334.84 587.509 335.006 587.78 335.118C588.051 335.225 588.354 335.279 588.69 335.279C589.003 335.279 589.271 335.244 589.495 335.174C589.724 335.099 589.92 335.02 590.083 334.936C590.246 334.852 590.382 334.775 590.489 334.705C590.601 334.63 590.697 334.593 590.776 334.593C590.879 334.593 590.958 334.633 591.014 334.712L591.364 335.167ZM592.895 335.391C592.895 335.27 592.916 335.155 592.958 335.048C593.004 334.941 593.065 334.847 593.14 334.768C593.219 334.689 593.312 334.626 593.42 334.579C593.527 334.532 593.641 334.509 593.763 334.509C593.884 334.509 593.998 334.532 594.106 334.579C594.213 334.626 594.306 334.689 594.386 334.768C594.465 334.847 594.528 334.941 594.575 335.048C594.621 335.155 594.645 335.27 594.645 335.391C594.645 335.517 594.621 335.634 594.575 335.741C594.528 335.844 594.465 335.935 594.386 336.014C594.306 336.093 594.213 336.154 594.106 336.196C593.998 336.243 593.884 336.266 593.763 336.266C593.641 336.266 593.527 336.243 593.42 336.196C593.312 336.154 593.219 336.093 593.14 336.014C593.065 335.935 593.004 335.844 592.958 335.741C592.916 335.634 592.895 335.517 592.895 335.391ZM592.895 330.141C592.895 330.02 592.916 329.905 592.958 329.798C593.004 329.691 593.065 329.597 593.14 329.518C593.219 329.439 593.312 329.376 593.42 329.329C593.527 329.282 593.641 329.259 593.763 329.259C593.884 329.259 593.998 329.282 594.106 329.329C594.213 329.376 594.306 329.439 594.386 329.518C594.465 329.597 594.528 329.691 594.575 329.798C594.621 329.905 594.645 330.02 594.645 330.141C594.645 330.267 594.621 330.384 594.575 330.491C594.528 330.594 594.465 330.685 594.386 330.764C594.306 330.843 594.213 330.906 594.106 330.953C593.998 330.995 593.884 331.016 593.763 331.016C593.641 331.016 593.527 330.995 593.42 330.953C593.312 330.906 593.219 330.843 593.14 330.764C593.065 330.685 593.004 330.594 592.958 330.491C592.916 330.384 592.895 330.267 592.895 330.141ZM603.393 335.202C603.701 335.174 603.971 335.109 604.205 335.006C604.438 334.899 604.634 334.763 604.793 334.6C604.956 334.437 605.077 334.248 605.157 334.033C605.241 333.814 605.283 333.573 605.283 333.312C605.283 333.079 605.238 332.878 605.15 332.71C605.066 332.542 604.949 332.397 604.8 332.276C604.65 332.15 604.475 332.045 604.275 331.961C604.074 331.872 603.859 331.791 603.631 331.716L603.393 335.202ZM603.162 327.11C602.858 327.138 602.595 327.199 602.371 327.292C602.151 327.385 601.969 327.502 601.825 327.642C601.68 327.782 601.573 327.941 601.503 328.118C601.433 328.291 601.398 328.473 601.398 328.664C601.398 328.888 601.437 329.084 601.517 329.252C601.596 329.415 601.706 329.56 601.846 329.686C601.986 329.812 602.149 329.922 602.336 330.015C602.522 330.108 602.725 330.192 602.945 330.267L603.162 327.11ZM603.715 330.512C604.051 330.619 604.382 330.734 604.709 330.855C605.035 330.976 605.329 331.133 605.591 331.324C605.852 331.515 606.062 331.756 606.221 332.045C606.384 332.33 606.466 332.687 606.466 333.116C606.466 333.536 606.396 333.93 606.256 334.299C606.116 334.668 605.91 334.992 605.64 335.272C605.374 335.552 605.045 335.781 604.653 335.958C604.265 336.131 603.822 336.233 603.323 336.266L603.239 337.491C603.234 337.58 603.199 337.657 603.134 337.722C603.068 337.792 602.987 337.827 602.889 337.827H602.427L602.532 336.252C601.967 336.196 601.451 336.056 600.985 335.832C600.523 335.603 600.124 335.314 599.788 334.964L600.166 334.39C600.203 334.339 600.25 334.297 600.306 334.264C600.362 334.231 600.422 334.215 600.488 334.215C600.576 334.215 600.677 334.259 600.789 334.348C600.901 334.437 601.038 334.537 601.202 334.649C601.37 334.761 601.566 334.871 601.79 334.978C602.018 335.085 602.291 335.158 602.609 335.195L602.861 331.478C602.534 331.38 602.212 331.27 601.895 331.149C601.582 331.028 601.3 330.867 601.048 330.666C600.8 330.465 600.6 330.216 600.446 329.917C600.296 329.618 600.222 329.243 600.222 328.79C600.222 328.449 600.287 328.118 600.418 327.796C600.553 327.469 600.749 327.18 601.006 326.928C601.262 326.676 601.577 326.471 601.951 326.312C602.324 326.149 602.751 326.058 603.232 326.039L603.302 325.031C603.306 324.942 603.339 324.863 603.4 324.793C603.465 324.723 603.549 324.688 603.652 324.688H604.114L604.023 326.067C604.508 326.128 604.928 326.254 605.283 326.445C605.642 326.636 605.959 326.87 606.235 327.145L605.934 327.607C605.84 327.747 605.733 327.817 605.612 327.817C605.546 327.817 605.465 327.789 605.367 327.733C605.273 327.672 605.159 327.602 605.024 327.523C604.893 327.444 604.737 327.367 604.555 327.292C604.377 327.217 604.174 327.161 603.946 327.124L603.715 330.512ZM614.132 334.978C614.267 334.978 614.374 335.018 614.454 335.097C614.533 335.176 614.573 335.279 614.573 335.405V336.161H607.881V335.734C607.881 335.645 607.899 335.554 607.937 335.461C607.974 335.368 608.032 335.281 608.112 335.202L611.325 331.975C611.591 331.704 611.833 331.445 612.053 331.198C612.272 330.946 612.459 330.694 612.613 330.442C612.767 330.19 612.886 329.936 612.97 329.679C613.054 329.418 613.096 329.14 613.096 328.846C613.096 328.552 613.049 328.295 612.956 328.076C612.862 327.852 612.734 327.668 612.571 327.523C612.412 327.378 612.223 327.271 612.004 327.201C611.784 327.126 611.549 327.089 611.297 327.089C611.04 327.089 610.804 327.126 610.59 327.201C610.375 327.276 610.184 327.381 610.016 327.516C609.852 327.647 609.715 327.803 609.603 327.985C609.491 328.167 609.411 328.368 609.365 328.587C609.309 328.75 609.232 328.86 609.134 328.916C609.04 328.967 608.907 328.981 608.735 328.958L608.084 328.846C608.149 328.389 608.275 327.985 608.462 327.635C608.653 327.28 608.891 326.984 609.176 326.746C609.465 326.508 609.794 326.328 610.163 326.207C610.531 326.081 610.93 326.018 611.36 326.018C611.784 326.018 612.181 326.081 612.55 326.207C612.918 326.333 613.238 326.517 613.509 326.76C613.779 326.998 613.992 327.29 614.146 327.635C614.3 327.98 614.377 328.372 614.377 328.811C614.377 329.184 614.321 329.532 614.209 329.854C614.097 330.171 613.945 330.475 613.754 330.764C613.562 331.053 613.341 331.336 613.089 331.611C612.841 331.886 612.578 332.164 612.298 332.444L609.652 335.146C609.838 335.095 610.027 335.055 610.219 335.027C610.41 334.994 610.594 334.978 610.772 334.978H614.132ZM623.044 331.149C623.044 332.026 622.948 332.787 622.757 333.431C622.57 334.07 622.313 334.6 621.987 335.02C621.66 335.44 621.273 335.753 620.825 335.958C620.381 336.163 619.905 336.266 619.397 336.266C618.883 336.266 618.405 336.163 617.962 335.958C617.523 335.753 617.14 335.44 616.814 335.02C616.487 334.6 616.23 334.07 616.044 333.431C615.857 332.787 615.764 332.026 615.764 331.149C615.764 330.272 615.857 329.511 616.044 328.867C616.23 328.223 616.487 327.691 616.814 327.271C617.14 326.846 617.523 326.531 617.962 326.326C618.405 326.121 618.883 326.018 619.397 326.018C619.905 326.018 620.381 326.121 620.825 326.326C621.273 326.531 621.66 326.846 621.987 327.271C622.313 327.691 622.57 328.223 622.757 328.867C622.948 329.511 623.044 330.272 623.044 331.149ZM621.749 331.149C621.749 330.384 621.683 329.742 621.553 329.224C621.427 328.701 621.254 328.281 621.035 327.964C620.82 327.647 620.57 327.42 620.286 327.285C620.001 327.145 619.705 327.075 619.397 327.075C619.089 327.075 618.792 327.145 618.508 327.285C618.223 327.42 617.973 327.647 617.759 327.964C617.544 328.281 617.371 328.701 617.241 329.224C617.115 329.742 617.052 330.384 617.052 331.149C617.052 331.914 617.115 332.556 617.241 333.074C617.371 333.592 617.544 334.01 617.759 334.327C617.973 334.644 618.223 334.873 618.508 335.013C618.792 335.148 619.089 335.216 619.397 335.216C619.705 335.216 620.001 335.148 620.286 335.013C620.57 334.873 620.82 334.644 621.035 334.327C621.254 334.01 621.427 333.592 621.553 333.074C621.683 332.556 621.749 331.914 621.749 331.149ZM624.375 337.855C624.338 337.822 624.312 337.792 624.298 337.764C624.284 337.736 624.277 337.701 624.277 337.659C624.277 337.626 624.286 337.594 624.305 337.561C624.328 337.528 624.354 337.498 624.382 337.47C624.429 337.419 624.487 337.351 624.557 337.267C624.632 337.183 624.706 337.083 624.781 336.966C624.856 336.854 624.923 336.728 624.984 336.588C625.049 336.453 625.096 336.308 625.124 336.154C625.11 336.159 625.094 336.161 625.075 336.161C625.061 336.161 625.047 336.161 625.033 336.161C624.79 336.161 624.592 336.082 624.438 335.923C624.289 335.76 624.214 335.552 624.214 335.3C624.214 335.081 624.289 334.894 624.438 334.74C624.592 334.586 624.795 334.509 625.047 334.509C625.187 334.509 625.311 334.535 625.418 334.586C625.525 334.637 625.614 334.71 625.684 334.803C625.759 334.892 625.815 334.997 625.852 335.118C625.889 335.235 625.908 335.363 625.908 335.503C625.908 335.713 625.878 335.932 625.817 336.161C625.761 336.385 625.675 336.607 625.558 336.826C625.446 337.05 625.308 337.267 625.145 337.477C624.982 337.687 624.795 337.881 624.585 338.058L624.375 337.855ZM634.337 331.149C634.337 332.026 634.241 332.787 634.05 333.431C633.863 334.07 633.606 334.6 633.28 335.02C632.953 335.44 632.566 335.753 632.118 335.958C631.674 336.163 631.198 336.266 630.69 336.266C630.176 336.266 629.698 336.163 629.255 335.958C628.816 335.753 628.433 335.44 628.107 335.02C627.78 334.6 627.523 334.07 627.337 333.431C627.15 332.787 627.057 332.026 627.057 331.149C627.057 330.272 627.15 329.511 627.337 328.867C627.523 328.223 627.78 327.691 628.107 327.271C628.433 326.846 628.816 326.531 629.255 326.326C629.698 326.121 630.176 326.018 630.69 326.018C631.198 326.018 631.674 326.121 632.118 326.326C632.566 326.531 632.953 326.846 633.28 327.271C633.606 327.691 633.863 328.223 634.05 328.867C634.241 329.511 634.337 330.272 634.337 331.149ZM633.042 331.149C633.042 330.384 632.976 329.742 632.846 329.224C632.72 328.701 632.547 328.281 632.328 327.964C632.113 327.647 631.863 327.42 631.579 327.285C631.294 327.145 630.998 327.075 630.69 327.075C630.382 327.075 630.085 327.145 629.801 327.285C629.516 327.42 629.266 327.647 629.052 327.964C628.837 328.281 628.664 328.701 628.534 329.224C628.408 329.742 628.345 330.384 628.345 331.149C628.345 331.914 628.408 332.556 628.534 333.074C628.664 333.592 628.837 334.01 629.052 334.327C629.266 334.644 629.516 334.873 629.801 335.013C630.085 335.148 630.382 335.216 630.69 335.216C630.998 335.216 631.294 335.148 631.579 335.013C631.863 334.873 632.113 334.644 632.328 334.327C632.547 334.01 632.72 333.592 632.846 333.074C632.976 332.556 633.042 331.914 633.042 331.149ZM642.458 331.149C642.458 332.026 642.362 332.787 642.171 333.431C641.984 334.07 641.727 334.6 641.401 335.02C641.074 335.44 640.687 335.753 640.239 335.958C639.795 336.163 639.319 336.266 638.811 336.266C638.297 336.266 637.819 336.163 637.376 335.958C636.937 335.753 636.554 335.44 636.228 335.02C635.901 334.6 635.644 334.07 635.458 333.431C635.271 332.787 635.178 332.026 635.178 331.149C635.178 330.272 635.271 329.511 635.458 328.867C635.644 328.223 635.901 327.691 636.228 327.271C636.554 326.846 636.937 326.531 637.376 326.326C637.819 326.121 638.297 326.018 638.811 326.018C639.319 326.018 639.795 326.121 640.239 326.326C640.687 326.531 641.074 326.846 641.401 327.271C641.727 327.691 641.984 328.223 642.171 328.867C642.362 329.511 642.458 330.272 642.458 331.149ZM641.163 331.149C641.163 330.384 641.097 329.742 640.967 329.224C640.841 328.701 640.668 328.281 640.449 327.964C640.234 327.647 639.984 327.42 639.7 327.285C639.415 327.145 639.119 327.075 638.811 327.075C638.503 327.075 638.206 327.145 637.922 327.285C637.637 327.42 637.387 327.647 637.173 327.964C636.958 328.281 636.785 328.701 636.655 329.224C636.529 329.742 636.466 330.384 636.466 331.149C636.466 331.914 636.529 332.556 636.655 333.074C636.785 333.592 636.958 334.01 637.173 334.327C637.387 334.644 637.637 334.873 637.922 335.013C638.206 335.148 638.503 335.216 638.811 335.216C639.119 335.216 639.415 335.148 639.7 335.013C639.984 334.873 640.234 334.644 640.449 334.327C640.668 334.01 640.841 333.592 640.967 333.074C641.097 332.556 641.163 331.914 641.163 331.149ZM650.579 331.149C650.579 332.026 650.483 332.787 650.292 333.431C650.105 334.07 649.849 334.6 649.522 335.02C649.195 335.44 648.808 335.753 648.36 335.958C647.917 336.163 647.441 336.266 646.932 336.266C646.419 336.266 645.94 336.163 645.497 335.958C645.058 335.753 644.676 335.44 644.349 335.02C644.022 334.6 643.766 334.07 643.579 333.431C643.392 332.787 643.299 332.026 643.299 331.149C643.299 330.272 643.392 329.511 643.579 328.867C643.766 328.223 644.022 327.691 644.349 327.271C644.676 326.846 645.058 326.531 645.497 326.326C645.94 326.121 646.419 326.018 646.932 326.018C647.441 326.018 647.917 326.121 648.36 326.326C648.808 326.531 649.195 326.846 649.522 327.271C649.849 327.691 650.105 328.223 650.292 328.867C650.483 329.511 650.579 330.272 650.579 331.149ZM649.284 331.149C649.284 330.384 649.219 329.742 649.088 329.224C648.962 328.701 648.789 328.281 648.57 327.964C648.355 327.647 648.106 327.42 647.821 327.285C647.536 327.145 647.24 327.075 646.932 327.075C646.624 327.075 646.328 327.145 646.043 327.285C645.758 327.42 645.509 327.647 645.294 327.964C645.079 328.281 644.907 328.701 644.776 329.224C644.65 329.742 644.587 330.384 644.587 331.149C644.587 331.914 644.65 332.556 644.776 333.074C644.907 333.592 645.079 334.01 645.294 334.327C645.509 334.644 645.758 334.873 646.043 335.013C646.328 335.148 646.624 335.216 646.932 335.216C647.24 335.216 647.536 335.148 647.821 335.013C648.106 334.873 648.355 334.644 648.57 334.327C648.789 334.01 648.962 333.592 649.088 333.074C649.219 332.556 649.284 331.914 649.284 331.149Z" fill="white"/>
<line x1="244.5" y1="321.161" x2="244.5" y2="265.161" stroke="#F33233"/>
<line x1="296" y1="361.661" x2="661" y2="361.661" stroke="#F33233"/>
<path d="M525.6 383.089C525.675 383.089 525.74 383.119 525.796 383.18L526.335 383.761C525.925 384.237 525.425 384.608 524.837 384.874C524.254 385.14 523.547 385.273 522.716 385.273C521.998 385.273 521.344 385.149 520.756 384.902C520.168 384.65 519.667 384.3 519.251 383.852C518.836 383.399 518.514 382.858 518.285 382.228C518.057 381.598 517.942 380.905 517.942 380.149C517.942 379.393 518.061 378.7 518.299 378.07C518.537 377.44 518.871 376.899 519.3 376.446C519.734 375.993 520.252 375.643 520.854 375.396C521.456 375.144 522.121 375.018 522.849 375.018C523.563 375.018 524.193 375.132 524.739 375.361C525.285 375.59 525.766 375.9 526.181 376.292L525.733 376.915C525.705 376.962 525.668 377.001 525.621 377.034C525.579 377.062 525.521 377.076 525.446 377.076C525.362 377.076 525.26 377.032 525.138 376.943C525.017 376.85 524.858 376.747 524.662 376.635C524.466 376.523 524.221 376.423 523.927 376.334C523.633 376.241 523.272 376.194 522.842 376.194C522.324 376.194 521.851 376.285 521.421 376.467C520.992 376.644 520.621 376.903 520.308 377.244C520 377.585 519.76 378 519.587 378.49C519.415 378.98 519.328 379.533 519.328 380.149C519.328 380.774 519.417 381.332 519.594 381.822C519.776 382.312 520.021 382.727 520.329 383.068C520.642 383.404 521.008 383.661 521.428 383.838C521.853 384.015 522.31 384.104 522.8 384.104C523.099 384.104 523.367 384.088 523.605 384.055C523.848 384.018 524.07 383.962 524.27 383.887C524.476 383.812 524.665 383.719 524.837 383.607C525.015 383.49 525.19 383.353 525.362 383.194C525.442 383.124 525.521 383.089 525.6 383.089ZM528.904 374.85V385.161H527.658V374.85H528.904ZM533.914 377.958C534.432 377.958 534.898 378.044 535.314 378.217C535.729 378.39 536.084 378.635 536.378 378.952C536.672 379.269 536.896 379.654 537.05 380.107C537.208 380.555 537.288 381.057 537.288 381.612C537.288 382.172 537.208 382.676 537.05 383.124C536.896 383.572 536.672 383.955 536.378 384.272C536.084 384.589 535.729 384.834 535.314 385.007C534.898 385.175 534.432 385.259 533.914 385.259C533.391 385.259 532.92 385.175 532.5 385.007C532.084 384.834 531.73 384.589 531.436 384.272C531.142 383.955 530.915 383.572 530.757 383.124C530.603 382.676 530.526 382.172 530.526 381.612C530.526 381.057 530.603 380.555 530.757 380.107C530.915 379.654 531.142 379.269 531.436 378.952C531.73 378.635 532.084 378.39 532.5 378.217C532.92 378.044 533.391 377.958 533.914 377.958ZM533.914 384.286C534.614 384.286 535.136 384.053 535.482 383.586C535.827 383.115 536 382.459 536 381.619C536 380.774 535.827 380.116 535.482 379.645C535.136 379.174 534.614 378.938 533.914 378.938C533.559 378.938 533.249 378.999 532.983 379.12C532.721 379.241 532.502 379.416 532.325 379.645C532.152 379.874 532.021 380.156 531.933 380.492C531.849 380.823 531.807 381.199 531.807 381.619C531.807 382.459 531.979 383.115 532.325 383.586C532.675 384.053 533.204 384.286 533.914 384.286ZM542.998 379.239C542.942 379.342 542.856 379.393 542.739 379.393C542.669 379.393 542.59 379.367 542.501 379.316C542.412 379.265 542.303 379.209 542.172 379.148C542.046 379.083 541.894 379.024 541.717 378.973C541.54 378.917 541.33 378.889 541.087 378.889C540.877 378.889 540.688 378.917 540.52 378.973C540.352 379.024 540.207 379.097 540.086 379.19C539.969 379.283 539.878 379.393 539.813 379.519C539.752 379.64 539.722 379.773 539.722 379.918C539.722 380.1 539.773 380.252 539.876 380.373C539.983 380.494 540.123 380.599 540.296 380.688C540.469 380.777 540.665 380.856 540.884 380.926C541.103 380.991 541.327 381.064 541.556 381.143C541.789 381.218 542.016 381.302 542.235 381.395C542.454 381.488 542.65 381.605 542.823 381.745C542.996 381.885 543.133 382.058 543.236 382.263C543.343 382.464 543.397 382.706 543.397 382.991C543.397 383.318 543.339 383.621 543.222 383.901C543.105 384.176 542.933 384.417 542.704 384.622C542.475 384.823 542.195 384.981 541.864 385.098C541.533 385.215 541.15 385.273 540.716 385.273C540.221 385.273 539.773 385.194 539.372 385.035C538.971 384.872 538.63 384.664 538.35 384.412L538.644 383.936C538.681 383.875 538.726 383.829 538.777 383.796C538.828 383.763 538.894 383.747 538.973 383.747C539.057 383.747 539.146 383.78 539.239 383.845C539.332 383.91 539.444 383.983 539.575 384.062C539.71 384.141 539.874 384.214 540.065 384.279C540.256 384.344 540.494 384.377 540.779 384.377C541.022 384.377 541.234 384.347 541.416 384.286C541.598 384.221 541.75 384.134 541.871 384.027C541.992 383.92 542.081 383.796 542.137 383.656C542.198 383.516 542.228 383.367 542.228 383.208C542.228 383.012 542.174 382.851 542.067 382.725C541.964 382.594 541.827 382.485 541.654 382.396C541.481 382.303 541.283 382.223 541.059 382.158C540.84 382.088 540.613 382.016 540.38 381.941C540.151 381.866 539.925 381.782 539.701 381.689C539.482 381.591 539.286 381.47 539.113 381.325C538.94 381.18 538.8 381.003 538.693 380.793C538.59 380.578 538.539 380.319 538.539 380.016C538.539 379.745 538.595 379.486 538.707 379.239C538.819 378.987 538.982 378.768 539.197 378.581C539.412 378.39 539.675 378.238 539.988 378.126C540.301 378.014 540.658 377.958 541.059 377.958C541.526 377.958 541.943 378.033 542.312 378.182C542.685 378.327 543.007 378.527 543.278 378.784L542.998 379.239ZM549.671 380.842C549.671 380.553 549.629 380.289 549.545 380.051C549.465 379.808 549.346 379.601 549.188 379.428C549.034 379.251 548.845 379.115 548.621 379.022C548.397 378.924 548.142 378.875 547.858 378.875C547.26 378.875 546.787 379.05 546.437 379.4C546.091 379.745 545.877 380.226 545.793 380.842H549.671ZM550.679 384.167C550.525 384.354 550.34 384.517 550.126 384.657C549.911 384.792 549.68 384.904 549.433 384.993C549.19 385.082 548.938 385.147 548.677 385.189C548.415 385.236 548.156 385.259 547.9 385.259C547.41 385.259 546.957 385.177 546.542 385.014C546.131 384.846 545.774 384.603 545.471 384.286C545.172 383.964 544.939 383.567 544.771 383.096C544.603 382.625 544.519 382.083 544.519 381.472C544.519 380.977 544.593 380.515 544.743 380.086C544.897 379.657 545.116 379.286 545.401 378.973C545.685 378.656 546.033 378.408 546.444 378.231C546.854 378.049 547.316 377.958 547.83 377.958C548.254 377.958 548.646 378.03 549.006 378.175C549.37 378.315 549.682 378.52 549.944 378.791C550.21 379.057 550.417 379.388 550.567 379.785C550.716 380.177 550.791 380.625 550.791 381.129C550.791 381.325 550.77 381.456 550.728 381.521C550.686 381.586 550.606 381.619 550.49 381.619H545.751C545.765 382.067 545.825 382.457 545.933 382.788C546.045 383.119 546.199 383.397 546.395 383.621C546.591 383.84 546.824 384.006 547.095 384.118C547.365 384.225 547.669 384.279 548.005 384.279C548.317 384.279 548.586 384.244 548.81 384.174C549.038 384.099 549.234 384.02 549.398 383.936C549.561 383.852 549.696 383.775 549.804 383.705C549.916 383.63 550.011 383.593 550.091 383.593C550.193 383.593 550.273 383.633 550.329 383.712L550.679 384.167ZM556.941 379.757C556.708 379.444 556.456 379.227 556.185 379.106C555.914 378.98 555.611 378.917 555.275 378.917C554.617 378.917 554.111 379.153 553.756 379.624C553.401 380.095 553.224 380.767 553.224 381.64C553.224 382.102 553.264 382.499 553.343 382.83C553.422 383.157 553.539 383.427 553.693 383.642C553.847 383.852 554.036 384.006 554.26 384.104C554.484 384.202 554.738 384.251 555.023 384.251C555.434 384.251 555.791 384.158 556.094 383.971C556.402 383.784 556.684 383.521 556.941 383.18V379.757ZM558.187 374.85V385.161H557.445C557.268 385.161 557.156 385.075 557.109 384.902L556.997 384.041C556.694 384.405 556.348 384.699 555.961 384.923C555.574 385.147 555.126 385.259 554.617 385.259C554.211 385.259 553.842 385.182 553.511 385.028C553.18 384.869 552.897 384.638 552.664 384.335C552.431 384.032 552.251 383.654 552.125 383.201C551.999 382.748 551.936 382.228 551.936 381.64C551.936 381.117 552.006 380.632 552.146 380.184C552.286 379.731 552.487 379.339 552.748 379.008C553.009 378.677 553.329 378.418 553.707 378.231C554.09 378.04 554.519 377.944 554.995 377.944C555.429 377.944 555.8 378.019 556.108 378.168C556.421 378.313 556.698 378.516 556.941 378.777V374.85H558.187ZM564.99 383.453C565.219 383.761 565.468 383.978 565.739 384.104C566.01 384.23 566.313 384.293 566.649 384.293C567.312 384.293 567.82 384.057 568.175 383.586C568.53 383.115 568.707 382.443 568.707 381.57C568.707 381.108 568.665 380.711 568.581 380.38C568.502 380.049 568.385 379.778 568.231 379.568C568.077 379.353 567.888 379.197 567.664 379.099C567.44 379.001 567.186 378.952 566.901 378.952C566.495 378.952 566.138 379.045 565.83 379.232C565.527 379.419 565.247 379.682 564.99 380.023V383.453ZM564.927 379.169C565.226 378.8 565.571 378.504 565.963 378.28C566.355 378.056 566.803 377.944 567.307 377.944C567.718 377.944 568.089 378.023 568.42 378.182C568.751 378.336 569.034 378.567 569.267 378.875C569.5 379.178 569.68 379.556 569.806 380.009C569.932 380.462 569.995 380.982 569.995 381.57C569.995 382.093 569.925 382.58 569.785 383.033C569.645 383.481 569.442 383.871 569.176 384.202C568.915 384.529 568.593 384.788 568.21 384.979C567.832 385.166 567.405 385.259 566.929 385.259C566.495 385.259 566.122 385.187 565.809 385.042C565.501 384.893 565.228 384.687 564.99 384.426V387.562H563.737V378.07H564.486C564.663 378.07 564.773 378.156 564.815 378.329L564.927 379.169ZM572.768 379.491C572.992 379.006 573.267 378.628 573.594 378.357C573.92 378.082 574.319 377.944 574.791 377.944C574.94 377.944 575.082 377.96 575.218 377.993C575.358 378.026 575.481 378.077 575.589 378.147L575.498 379.078C575.47 379.195 575.4 379.253 575.288 379.253C575.222 379.253 575.127 379.239 575.001 379.211C574.875 379.183 574.732 379.169 574.574 379.169C574.35 379.169 574.149 379.202 573.972 379.267C573.799 379.332 573.643 379.43 573.503 379.561C573.367 379.687 573.244 379.846 573.132 380.037C573.024 380.224 572.926 380.438 572.838 380.681V385.161H571.585V378.07H572.299C572.434 378.07 572.527 378.096 572.579 378.147C572.63 378.198 572.665 378.287 572.684 378.413L572.768 379.491ZM578 378.07V385.161H576.754V378.07H578ZM578.266 375.844C578.266 375.965 578.241 376.08 578.189 376.187C578.143 376.29 578.077 376.383 577.993 376.467C577.914 376.546 577.818 376.609 577.706 376.656C577.599 376.703 577.485 376.726 577.363 376.726C577.242 376.726 577.128 376.703 577.02 376.656C576.918 376.609 576.827 376.546 576.747 376.467C576.668 376.383 576.605 376.29 576.558 376.187C576.512 376.08 576.488 375.965 576.488 375.844C576.488 375.723 576.512 375.608 576.558 375.501C576.605 375.389 576.668 375.293 576.747 375.214C576.827 375.13 576.918 375.065 577.02 375.018C577.128 374.971 577.242 374.948 577.363 374.948C577.485 374.948 577.599 374.971 577.706 375.018C577.818 375.065 577.914 375.13 577.993 375.214C578.077 375.293 578.143 375.389 578.189 375.501C578.241 375.608 578.266 375.723 578.266 375.844ZM584.983 379.33C584.945 379.381 584.908 379.421 584.871 379.449C584.833 379.477 584.782 379.491 584.717 379.491C584.647 379.491 584.57 379.463 584.486 379.407C584.402 379.346 584.297 379.281 584.171 379.211C584.049 379.141 583.898 379.078 583.716 379.022C583.538 378.961 583.319 378.931 583.058 378.931C582.708 378.931 582.4 378.994 582.134 379.12C581.868 379.241 581.644 379.419 581.462 379.652C581.284 379.885 581.149 380.168 581.056 380.499C580.967 380.83 580.923 381.201 580.923 381.612C580.923 382.041 580.972 382.424 581.07 382.76C581.168 383.091 581.305 383.371 581.483 383.6C581.665 383.824 581.882 383.997 582.134 384.118C582.39 384.235 582.677 384.293 582.995 384.293C583.298 384.293 583.548 384.258 583.744 384.188C583.94 384.113 584.101 384.032 584.227 383.943C584.357 383.854 584.465 383.775 584.549 383.705C584.637 383.63 584.724 383.593 584.808 383.593C584.91 383.593 584.99 383.633 585.046 383.712L585.396 384.167C585.242 384.358 585.067 384.522 584.871 384.657C584.675 384.792 584.462 384.907 584.234 385C584.01 385.089 583.774 385.154 583.527 385.196C583.279 385.238 583.027 385.259 582.771 385.259C582.327 385.259 581.914 385.177 581.532 385.014C581.154 384.851 580.825 384.615 580.545 384.307C580.265 383.994 580.045 383.612 579.887 383.159C579.728 382.706 579.649 382.191 579.649 381.612C579.649 381.085 579.721 380.597 579.866 380.149C580.015 379.701 580.23 379.316 580.51 378.994C580.794 378.667 581.142 378.413 581.553 378.231C581.968 378.049 582.444 377.958 582.981 377.958C583.48 377.958 583.919 378.04 584.297 378.203C584.679 378.362 585.018 378.588 585.312 378.882L584.983 379.33ZM591.356 380.842C591.356 380.553 591.314 380.289 591.23 380.051C591.151 379.808 591.032 379.601 590.873 379.428C590.719 379.251 590.53 379.115 590.306 379.022C590.082 378.924 589.828 378.875 589.543 378.875C588.946 378.875 588.472 379.05 588.122 379.4C587.777 379.745 587.562 380.226 587.478 380.842H591.356ZM592.364 384.167C592.21 384.354 592.026 384.517 591.811 384.657C591.596 384.792 591.365 384.904 591.118 384.993C590.875 385.082 590.623 385.147 590.362 385.189C590.101 385.236 589.842 385.259 589.585 385.259C589.095 385.259 588.642 385.177 588.227 385.014C587.816 384.846 587.459 384.603 587.156 384.286C586.857 383.964 586.624 383.567 586.456 383.096C586.288 382.625 586.204 382.083 586.204 381.472C586.204 380.977 586.279 380.515 586.428 380.086C586.582 379.657 586.801 379.286 587.086 378.973C587.371 378.656 587.718 378.408 588.129 378.231C588.54 378.049 589.002 377.958 589.515 377.958C589.94 377.958 590.332 378.03 590.691 378.175C591.055 378.315 591.368 378.52 591.629 378.791C591.895 379.057 592.103 379.388 592.252 379.785C592.401 380.177 592.476 380.625 592.476 381.129C592.476 381.325 592.455 381.456 592.413 381.521C592.371 381.586 592.292 381.619 592.175 381.619H587.436C587.45 382.067 587.511 382.457 587.618 382.788C587.73 383.119 587.884 383.397 588.08 383.621C588.276 383.84 588.509 384.006 588.78 384.118C589.051 384.225 589.354 384.279 589.69 384.279C590.003 384.279 590.271 384.244 590.495 384.174C590.724 384.099 590.92 384.02 591.083 383.936C591.246 383.852 591.382 383.775 591.489 383.705C591.601 383.63 591.697 383.593 591.776 383.593C591.879 383.593 591.958 383.633 592.014 383.712L592.364 384.167ZM593.895 384.391C593.895 384.27 593.916 384.155 593.958 384.048C594.004 383.941 594.065 383.847 594.14 383.768C594.219 383.689 594.312 383.626 594.42 383.579C594.527 383.532 594.641 383.509 594.763 383.509C594.884 383.509 594.998 383.532 595.106 383.579C595.213 383.626 595.306 383.689 595.386 383.768C595.465 383.847 595.528 383.941 595.575 384.048C595.621 384.155 595.645 384.27 595.645 384.391C595.645 384.517 595.621 384.634 595.575 384.741C595.528 384.844 595.465 384.935 595.386 385.014C595.306 385.093 595.213 385.154 595.106 385.196C594.998 385.243 594.884 385.266 594.763 385.266C594.641 385.266 594.527 385.243 594.42 385.196C594.312 385.154 594.219 385.093 594.14 385.014C594.065 384.935 594.004 384.844 593.958 384.741C593.916 384.634 593.895 384.517 593.895 384.391ZM593.895 379.141C593.895 379.02 593.916 378.905 593.958 378.798C594.004 378.691 594.065 378.597 594.14 378.518C594.219 378.439 594.312 378.376 594.42 378.329C594.527 378.282 594.641 378.259 594.763 378.259C594.884 378.259 594.998 378.282 595.106 378.329C595.213 378.376 595.306 378.439 595.386 378.518C595.465 378.597 595.528 378.691 595.575 378.798C595.621 378.905 595.645 379.02 595.645 379.141C595.645 379.267 595.621 379.384 595.575 379.491C595.528 379.594 595.465 379.685 595.386 379.764C595.306 379.843 595.213 379.906 595.106 379.953C594.998 379.995 594.884 380.016 594.763 380.016C594.641 380.016 594.527 379.995 594.42 379.953C594.312 379.906 594.219 379.843 594.14 379.764C594.065 379.685 594.004 379.594 593.958 379.491C593.916 379.384 593.895 379.267 593.895 379.141ZM604.393 384.202C604.701 384.174 604.971 384.109 605.205 384.006C605.438 383.899 605.634 383.763 605.793 383.6C605.956 383.437 606.077 383.248 606.157 383.033C606.241 382.814 606.283 382.573 606.283 382.312C606.283 382.079 606.238 381.878 606.15 381.71C606.066 381.542 605.949 381.397 605.8 381.276C605.65 381.15 605.475 381.045 605.275 380.961C605.074 380.872 604.859 380.791 604.631 380.716L604.393 384.202ZM604.162 376.11C603.858 376.138 603.595 376.199 603.371 376.292C603.151 376.385 602.969 376.502 602.825 376.642C602.68 376.782 602.573 376.941 602.503 377.118C602.433 377.291 602.398 377.473 602.398 377.664C602.398 377.888 602.437 378.084 602.517 378.252C602.596 378.415 602.706 378.56 602.846 378.686C602.986 378.812 603.149 378.922 603.336 379.015C603.522 379.108 603.725 379.192 603.945 379.267L604.162 376.11ZM604.715 379.512C605.051 379.619 605.382 379.734 605.709 379.855C606.035 379.976 606.329 380.133 606.591 380.324C606.852 380.515 607.062 380.756 607.221 381.045C607.384 381.33 607.466 381.687 607.466 382.116C607.466 382.536 607.396 382.93 607.256 383.299C607.116 383.668 606.91 383.992 606.64 384.272C606.374 384.552 606.045 384.781 605.653 384.958C605.265 385.131 604.822 385.233 604.323 385.266L604.239 386.491C604.234 386.58 604.199 386.657 604.134 386.722C604.068 386.792 603.987 386.827 603.889 386.827H603.427L603.532 385.252C602.967 385.196 602.451 385.056 601.985 384.832C601.523 384.603 601.124 384.314 600.788 383.964L601.166 383.39C601.203 383.339 601.25 383.297 601.306 383.264C601.362 383.231 601.422 383.215 601.488 383.215C601.576 383.215 601.677 383.259 601.789 383.348C601.901 383.437 602.038 383.537 602.202 383.649C602.37 383.761 602.566 383.871 602.79 383.978C603.018 384.085 603.291 384.158 603.609 384.195L603.861 380.478C603.534 380.38 603.212 380.27 602.895 380.149C602.582 380.028 602.3 379.867 602.048 379.666C601.8 379.465 601.6 379.216 601.446 378.917C601.296 378.618 601.222 378.243 601.222 377.79C601.222 377.449 601.287 377.118 601.418 376.796C601.553 376.469 601.749 376.18 602.006 375.928C602.262 375.676 602.577 375.471 602.951 375.312C603.324 375.149 603.751 375.058 604.232 375.039L604.302 374.031C604.306 373.942 604.339 373.863 604.4 373.793C604.465 373.723 604.549 373.688 604.652 373.688H605.114L605.023 375.067C605.508 375.128 605.928 375.254 606.283 375.445C606.642 375.636 606.959 375.87 607.235 376.145L606.934 376.607C606.84 376.747 606.733 376.817 606.612 376.817C606.546 376.817 606.465 376.789 606.367 376.733C606.273 376.672 606.159 376.602 606.024 376.523C605.893 376.444 605.737 376.367 605.555 376.292C605.377 376.217 605.174 376.161 604.946 376.124L604.715 379.512ZM615.349 384.209V385.161H609.973V384.209H612.122V377.37C612.122 377.165 612.129 376.957 612.143 376.747L610.358 378.28C610.297 378.331 610.236 378.364 610.176 378.378C610.115 378.387 610.059 378.387 610.008 378.378C609.956 378.369 609.907 378.35 609.861 378.322C609.819 378.294 609.786 378.264 609.763 378.231L609.371 377.692L612.36 375.109H613.375V384.209H615.349ZM618.325 378.077C618.325 378.394 618.369 378.679 618.458 378.931C618.551 379.178 618.682 379.388 618.85 379.561C619.022 379.734 619.23 379.864 619.473 379.953C619.72 380.042 619.995 380.086 620.299 380.086C620.635 380.086 620.931 380.032 621.188 379.925C621.449 379.813 621.668 379.666 621.846 379.484C622.023 379.302 622.158 379.092 622.252 378.854C622.345 378.616 622.392 378.369 622.392 378.112C622.392 377.799 622.34 377.517 622.238 377.265C622.14 377.008 622.002 376.791 621.825 376.614C621.647 376.437 621.435 376.301 621.188 376.208C620.945 376.11 620.677 376.061 620.383 376.061C620.075 376.061 619.795 376.112 619.543 376.215C619.291 376.313 619.074 376.451 618.892 376.628C618.71 376.805 618.57 377.018 618.472 377.265C618.374 377.512 618.325 377.783 618.325 378.077ZM621.237 381.164C621.339 381.029 621.435 380.9 621.524 380.779C621.612 380.658 621.696 380.536 621.776 380.415C621.519 380.62 621.23 380.777 620.908 380.884C620.586 380.991 620.245 381.045 619.886 381.045C619.508 381.045 619.148 380.982 618.808 380.856C618.472 380.73 618.175 380.546 617.919 380.303C617.662 380.056 617.457 379.755 617.303 379.4C617.153 379.041 617.079 378.63 617.079 378.168C617.079 377.729 617.16 377.319 617.324 376.936C617.487 376.553 617.716 376.22 618.01 375.935C618.304 375.65 618.654 375.426 619.06 375.263C619.466 375.1 619.911 375.018 620.397 375.018C620.877 375.018 621.314 375.097 621.706 375.256C622.098 375.415 622.434 375.636 622.714 375.921C622.994 376.206 623.208 376.546 623.358 376.943C623.512 377.34 623.589 377.778 623.589 378.259C623.589 378.548 623.561 378.824 623.505 379.085C623.453 379.342 623.376 379.596 623.274 379.848C623.176 380.095 623.054 380.343 622.91 380.59C622.765 380.833 622.602 381.082 622.42 381.339L619.977 384.867C619.916 384.956 619.83 385.028 619.718 385.084C619.606 385.135 619.477 385.161 619.333 385.161H618.185L621.237 381.164ZM625.375 386.855C625.338 386.822 625.312 386.792 625.298 386.764C625.284 386.736 625.277 386.701 625.277 386.659C625.277 386.626 625.286 386.594 625.305 386.561C625.328 386.528 625.354 386.498 625.382 386.47C625.429 386.419 625.487 386.351 625.557 386.267C625.632 386.183 625.706 386.083 625.781 385.966C625.856 385.854 625.923 385.728 625.984 385.588C626.049 385.453 626.096 385.308 626.124 385.154C626.11 385.159 626.094 385.161 626.075 385.161C626.061 385.161 626.047 385.161 626.033 385.161C625.79 385.161 625.592 385.082 625.438 384.923C625.289 384.76 625.214 384.552 625.214 384.3C625.214 384.081 625.289 383.894 625.438 383.74C625.592 383.586 625.795 383.509 626.047 383.509C626.187 383.509 626.311 383.535 626.418 383.586C626.525 383.637 626.614 383.71 626.684 383.803C626.759 383.892 626.815 383.997 626.852 384.118C626.889 384.235 626.908 384.363 626.908 384.503C626.908 384.713 626.878 384.932 626.817 385.161C626.761 385.385 626.675 385.607 626.558 385.826C626.446 386.05 626.308 386.267 626.145 386.477C625.982 386.687 625.795 386.881 625.585 387.058L625.375 386.855ZM631.697 384.279C632.023 384.279 632.315 384.235 632.572 384.146C632.833 384.053 633.052 383.924 633.23 383.761C633.412 383.593 633.549 383.395 633.643 383.166C633.741 382.933 633.79 382.676 633.79 382.396C633.79 382.051 633.731 381.757 633.615 381.514C633.503 381.267 633.349 381.066 633.153 380.912C632.961 380.758 632.74 380.646 632.488 380.576C632.236 380.501 631.972 380.464 631.697 380.464C631.421 380.464 631.158 380.501 630.906 380.576C630.654 380.646 630.43 380.758 630.234 380.912C630.042 381.066 629.888 381.267 629.772 381.514C629.66 381.757 629.604 382.051 629.604 382.396C629.604 382.676 629.65 382.933 629.744 383.166C629.842 383.395 629.979 383.593 630.157 383.761C630.339 383.924 630.558 384.053 630.815 384.146C631.076 384.235 631.37 384.279 631.697 384.279ZM631.697 375.984C631.398 375.984 631.134 376.028 630.906 376.117C630.682 376.206 630.493 376.327 630.339 376.481C630.189 376.635 630.075 376.815 629.996 377.02C629.921 377.225 629.884 377.445 629.884 377.678C629.884 377.907 629.916 378.128 629.982 378.343C630.047 378.558 630.152 378.749 630.297 378.917C630.441 379.08 630.628 379.213 630.857 379.316C631.09 379.414 631.37 379.463 631.697 379.463C632.023 379.463 632.301 379.414 632.53 379.316C632.763 379.213 632.952 379.08 633.097 378.917C633.241 378.749 633.346 378.558 633.412 378.343C633.477 378.128 633.51 377.907 633.51 377.678C633.51 377.445 633.47 377.225 633.391 377.02C633.316 376.815 633.202 376.635 633.048 376.481C632.898 376.327 632.709 376.206 632.481 376.117C632.257 376.028 631.995 375.984 631.697 375.984ZM633.132 379.932C633.757 380.109 634.238 380.406 634.574 380.821C634.91 381.236 635.078 381.768 635.078 382.417C635.078 382.856 634.994 383.252 634.826 383.607C634.662 383.957 634.431 384.256 634.133 384.503C633.839 384.75 633.484 384.942 633.069 385.077C632.653 385.208 632.196 385.273 631.697 385.273C631.197 385.273 630.74 385.208 630.325 385.077C629.909 384.942 629.552 384.75 629.254 384.503C628.955 384.256 628.724 383.957 628.561 383.607C628.397 383.252 628.316 382.856 628.316 382.417C628.316 381.768 628.484 381.236 628.82 380.821C629.156 380.406 629.636 380.109 630.262 379.932C629.734 379.736 629.335 379.444 629.065 379.057C628.799 378.665 628.666 378.198 628.666 377.657C628.666 377.288 628.738 376.943 628.883 376.621C629.027 376.299 629.233 376.019 629.499 375.781C629.765 375.543 630.082 375.356 630.451 375.221C630.824 375.086 631.239 375.018 631.697 375.018C632.149 375.018 632.562 375.086 632.936 375.221C633.309 375.356 633.629 375.543 633.895 375.781C634.161 376.019 634.366 376.299 634.511 376.621C634.655 376.943 634.728 377.288 634.728 377.657C634.728 378.198 634.592 378.665 634.322 379.057C634.056 379.444 633.659 379.736 633.132 379.932ZM643.458 380.149C643.458 381.026 643.362 381.787 643.171 382.431C642.984 383.07 642.727 383.6 642.401 384.02C642.074 384.44 641.687 384.753 641.239 384.958C640.795 385.163 640.319 385.266 639.811 385.266C639.297 385.266 638.819 385.163 638.376 384.958C637.937 384.753 637.554 384.44 637.228 384.02C636.901 383.6 636.644 383.07 636.458 382.431C636.271 381.787 636.178 381.026 636.178 380.149C636.178 379.272 636.271 378.511 636.458 377.867C636.644 377.223 636.901 376.691 637.228 376.271C637.554 375.846 637.937 375.531 638.376 375.326C638.819 375.121 639.297 375.018 639.811 375.018C640.319 375.018 640.795 375.121 641.239 375.326C641.687 375.531 642.074 375.846 642.401 376.271C642.727 376.691 642.984 377.223 643.171 377.867C643.362 378.511 643.458 379.272 643.458 380.149ZM642.163 380.149C642.163 379.384 642.097 378.742 641.967 378.224C641.841 377.701 641.668 377.281 641.449 376.964C641.234 376.647 640.984 376.42 640.7 376.285C640.415 376.145 640.119 376.075 639.811 376.075C639.503 376.075 639.206 376.145 638.922 376.285C638.637 376.42 638.387 376.647 638.173 376.964C637.958 377.281 637.785 377.701 637.655 378.224C637.529 378.742 637.466 379.384 637.466 380.149C637.466 380.914 637.529 381.556 637.655 382.074C637.785 382.592 637.958 383.01 638.173 383.327C638.387 383.644 638.637 383.873 638.922 384.013C639.206 384.148 639.503 384.216 639.811 384.216C640.119 384.216 640.415 384.148 640.7 384.013C640.984 383.873 641.234 383.644 641.449 383.327C641.668 383.01 641.841 382.592 641.967 382.074C642.097 381.556 642.163 380.914 642.163 380.149ZM651.579 380.149C651.579 381.026 651.483 381.787 651.292 382.431C651.105 383.07 650.849 383.6 650.522 384.02C650.195 384.44 649.808 384.753 649.36 384.958C648.917 385.163 648.441 385.266 647.932 385.266C647.419 385.266 646.94 385.163 646.497 384.958C646.058 384.753 645.676 384.44 645.349 384.02C645.022 383.6 644.766 383.07 644.579 382.431C644.392 381.787 644.299 381.026 644.299 380.149C644.299 379.272 644.392 378.511 644.579 377.867C644.766 377.223 645.022 376.691 645.349 376.271C645.676 375.846 646.058 375.531 646.497 375.326C646.94 375.121 647.419 375.018 647.932 375.018C648.441 375.018 648.917 375.121 649.36 375.326C649.808 375.531 650.195 375.846 650.522 376.271C650.849 376.691 651.105 377.223 651.292 377.867C651.483 378.511 651.579 379.272 651.579 380.149ZM650.284 380.149C650.284 379.384 650.219 378.742 650.088 378.224C649.962 377.701 649.789 377.281 649.57 376.964C649.355 376.647 649.106 376.42 648.821 376.285C648.536 376.145 648.24 376.075 647.932 376.075C647.624 376.075 647.328 376.145 647.043 376.285C646.758 376.42 646.509 376.647 646.294 376.964C646.079 377.281 645.907 377.701 645.776 378.224C645.65 378.742 645.587 379.384 645.587 380.149C645.587 380.914 645.65 381.556 645.776 382.074C645.907 382.592 646.079 383.01 646.294 383.327C646.509 383.644 646.758 383.873 647.043 384.013C647.328 384.148 647.624 384.216 647.932 384.216C648.24 384.216 648.536 384.148 648.821 384.013C649.106 383.873 649.355 383.644 649.57 383.327C649.789 383.01 649.962 382.592 650.088 382.074C650.219 381.556 650.284 380.914 650.284 380.149Z" fill="#F33233"/>
</svg>
