<svg width="56" height="56" viewBox="0 0 56 56" fill="none" xmlns="http://www.w3.org/2000/svg">
<path d="M31.7698 15.7087C31.7053 15.6557 31.6333 15.6177 31.5536 15.5988C31.3527 15.5343 31.1441 15.5116 30.9318 15.5267C30.7081 15.5381 30.4844 15.5647 30.2607 15.5836H30.2266L30.3479 16.9107H30.4237C30.7157 16.8955 31.0076 16.8538 31.292 16.7818C31.4437 16.7439 31.584 16.6832 31.7167 16.5998C31.8304 16.5315 31.9138 16.4216 31.9518 16.2927C31.9897 16.1637 31.9783 16.0272 31.9176 15.9059C31.8835 15.8301 31.8304 15.7656 31.7698 15.7125V15.7087Z" fill="url(#paint0_linear_231_1041)"/>
<path d="M32.8513 10.4648C30.1592 9.26289 27.0008 10.4724 25.7988 13.1645C24.5969 15.8566 25.8064 19.015 28.4985 20.217C31.1906 21.4189 34.349 20.2094 35.551 17.5173C36.7529 14.8252 35.5434 11.6668 32.8513 10.4648ZM33.0902 16.5959C32.9992 16.8576 32.8134 17.0737 32.5745 17.2064C32.3584 17.3277 32.1271 17.4149 31.8844 17.4642C31.7631 17.4908 31.6418 17.5097 31.5204 17.5325L31.4901 17.5401L31.5811 18.5335L30.982 18.5904L30.891 17.6045L30.4133 17.65L30.5043 18.6358L29.9052 18.6927L29.8142 17.6917L28.6084 17.8055C28.6084 17.7524 28.6122 17.7031 28.616 17.6576C28.6274 17.4756 28.6426 17.2898 28.6539 17.1078C28.6539 17.0851 28.6653 17.0775 28.6881 17.0737C28.8246 17.0623 28.9611 17.0509 29.1014 17.0358C29.1317 17.0358 29.162 17.0244 29.1886 17.013C29.2151 16.9979 29.2379 16.9789 29.2568 16.9561C29.2758 16.9334 29.2871 16.9031 29.2947 16.8727C29.3023 16.8424 29.3023 16.8121 29.2947 16.7817C29.2151 15.9059 29.1317 15.0338 29.0521 14.1579C29.0521 14.1162 29.0407 14.0745 29.0255 14.0404C29.0104 14.0062 28.9838 13.9683 28.9535 13.9418C28.9231 13.9152 28.8852 13.8925 28.8473 13.8811C28.8094 13.8697 28.7677 13.866 28.726 13.8697C28.5781 13.8773 28.4302 13.8963 28.2824 13.9077H28.2482L28.1876 13.2631L29.3895 13.1493L29.2985 12.1597L29.8976 12.1028L29.9886 13.0659L30.4663 13.0204L30.3754 12.0573L30.9782 12.0005L31.0692 12.9863C31.1678 12.9863 31.2626 12.9901 31.3574 12.9977C31.619 13.0052 31.8768 13.0659 32.1157 13.1797C32.2446 13.2441 32.3584 13.3389 32.4456 13.4602C32.5328 13.5778 32.5897 13.7143 32.6162 13.8622C32.6541 14.0366 32.6541 14.2148 32.6162 14.3892C32.5593 14.6091 32.4228 14.7987 32.2333 14.92L32.2067 14.939C32.2788 14.9542 32.3508 14.9693 32.4191 14.9883C32.6503 15.0414 32.8513 15.1779 32.9878 15.3712C33.0864 15.5267 33.147 15.7049 33.1622 15.8907C33.1925 16.1296 33.1736 16.3722 33.0978 16.6035L33.0902 16.5959Z" fill="url(#paint1_linear_231_1041)"/>
<path d="M31.1941 14.7722C31.3117 14.7191 31.4103 14.6243 31.4671 14.5067C31.4975 14.4423 31.5126 14.3702 31.5126 14.2982C31.5126 14.2262 31.5013 14.1541 31.4747 14.0897C31.4482 14.0252 31.4065 13.9645 31.3572 13.9115C31.3079 13.8622 31.2472 13.8242 31.179 13.7977C31.0197 13.737 30.8453 13.7105 30.6747 13.7219C30.4737 13.7332 30.2766 13.7522 30.0756 13.7712C30.068 13.7712 30.0642 13.7712 30.0566 13.775L30.1704 14.9731H30.2007C30.3638 14.958 30.523 14.9428 30.6823 14.92C30.8605 14.8973 31.0349 14.848 31.1941 14.7684V14.7722Z" fill="url(#paint2_linear_231_1041)"/>
<path d="M24.6602 26.4097L24.6794 26.3938L24.6602 26.4097Z" fill="url(#paint3_linear_231_1041)"/>
<path d="M25.3081 21.9614C22.3733 21.9614 19.9922 24.3425 19.9922 27.2773C19.9922 30.212 22.3733 32.5932 25.3081 32.5932C28.2428 32.5932 30.624 30.212 30.624 27.2773C30.624 24.3425 28.2428 21.9614 25.3081 21.9614ZM23.0558 27.9408C23.0558 27.8877 23.0672 27.8346 23.0824 27.7853C23.162 27.3948 23.2416 27.0081 23.325 26.6175L23.6739 24.953L23.9469 23.6411C23.9469 23.6411 23.9469 23.6183 23.9583 23.6069C23.9583 23.588 23.962 23.588 23.9772 23.5994C24.0341 23.6487 24.0948 23.6979 24.1516 23.7472L26.4115 25.6165L27.2532 26.3104C27.2532 26.3104 27.2722 26.3256 27.2911 26.3407L27.367 26.4052C27.367 26.4052 27.3745 26.4128 27.3783 26.4166C27.3821 26.4166 27.3897 26.4241 27.3935 26.4241C27.42 26.4355 27.3973 26.4469 27.3935 26.4545L27.1205 26.7768L26.2181 27.8498L25.6948 28.4678C25.6948 28.4678 25.6872 28.4868 25.6759 28.4868L25.6607 28.4413L25.6759 28.4868L25.1602 28.3882L23.0824 27.9749C23.0824 27.9749 23.0445 27.9749 23.0634 27.9484L23.0558 27.9408ZM27.3935 27.573C27.1774 28.3238 26.9612 29.0745 26.7489 29.8253C26.6617 30.1324 26.5745 30.4433 26.4835 30.7504C26.4835 30.758 26.4835 30.7807 26.4645 30.7694C26.4039 30.7352 26.347 30.6973 26.2939 30.6556C25.71 30.2423 25.1299 29.829 24.5498 29.4158L23.2909 28.5247L23.2606 28.502V28.4944C23.3668 28.5058 23.4729 28.5323 23.5791 28.555C23.8862 28.6157 24.1895 28.6764 24.4929 28.7333L25.6228 28.957L25.8541 29.0025C26.074 28.7408 26.2939 28.4792 26.5138 28.2214C26.7451 27.9446 26.9802 27.6678 27.2077 27.3872L27.5603 26.9663H27.5679C27.511 27.1711 27.4542 27.3683 27.4011 27.5654L27.3935 27.573Z" fill="url(#paint4_linear_231_1041)"/>
<path d="M25.1748 28.2786C25.1748 28.2786 25.1629 28.2786 25.1668 28.2707C25.1668 28.2627 25.1748 28.2707 25.1787 28.2707V28.2786H25.1748Z" fill="white"/>
<path d="M29.4824 26.7464C29.4824 26.7464 29.4903 26.7385 29.4943 26.7464V26.7583L29.4824 26.7464Z" fill="url(#paint5_linear_231_1041)"/>
<path d="M42.2748 35.2244C42.0625 34.7353 41.6265 34.3486 41.0843 34.1552C40.489 33.9467 39.8254 33.9922 39.2529 34.2803L32.754 36.961C32.6478 36.7563 32.5113 36.5781 32.3369 36.4264C32.1549 36.2671 31.9464 36.1534 31.7189 36.0776C31.499 36.0055 31.2677 35.979 31.0364 35.9941H25.8456C21.5876 34.0566 18.2434 35.3534 16.8556 36.1079V36.0169C16.8556 35.7363 16.6281 35.505 16.3437 35.505H14.0119C13.7313 35.505 13.5 35.7325 13.5 36.0169V45.0524C13.5 45.333 13.7275 45.5643 14.0119 45.5643H16.3437C16.6243 45.5643 16.8556 45.3368 16.8556 45.0524V44.6429C18.2851 44.2182 19.6918 44.0438 21.0454 44.1386C22.6227 44.2486 25.2655 44.7794 26.5509 45.0372C26.8542 45.0979 27.4002 45.2079 28.0524 45.2079C28.7576 45.2079 29.588 45.0789 30.3804 44.6277L30.4676 44.5746C31.1918 44.1348 33.7057 42.5878 41.581 37.7231L41.6492 37.6701C42.3734 37.0331 42.6313 36.0245 42.2786 35.2244H42.2748ZM41.0008 36.8776C33.1635 41.7233 30.6572 43.2627 29.9368 43.6988L29.861 43.7443C28.6742 44.423 27.2751 44.1386 26.7367 44.0324C24.6702 43.6154 22.5545 43.221 21.1136 43.1187C19.7297 43.0239 18.3002 43.1793 16.8556 43.5774V37.2985C17.4206 36.9117 20.852 34.796 25.5157 36.9686L25.6181 37.0179H31.0971C31.1994 37.0065 31.3018 37.0179 31.4004 37.052C31.499 37.0823 31.59 37.1354 31.6658 37.2037C31.7454 37.2719 31.8061 37.3516 31.8516 37.4463C31.8971 37.5411 31.9236 37.6397 31.9312 37.7421C31.9388 37.8445 31.9236 37.9468 31.8895 38.0454C31.8554 38.144 31.8023 38.2312 31.7303 38.3071C31.662 38.3829 31.5786 38.4435 31.4838 38.4853C31.389 38.527 31.2904 38.5535 31.1843 38.5535L23.2521 38.8303C22.9715 38.8417 22.7478 39.0768 22.7592 39.3573C22.7706 39.6341 22.9943 39.8503 23.2711 39.8503H23.29L31.2222 39.5735C31.4648 39.5659 31.6961 39.5128 31.9161 39.4104C32.136 39.308 32.3293 39.1678 32.4924 38.9933C32.6554 38.8151 32.7806 38.6104 32.8602 38.3829C32.9057 38.254 32.9322 38.1213 32.9474 37.9886L39.6662 35.2169L39.7079 35.1979C40.034 35.0311 40.4131 35.0007 40.7468 35.1183C41.0236 35.2169 41.2435 35.4064 41.3459 35.6339C41.5127 36.0169 41.3724 36.5326 41.0046 36.8776H41.0008Z" fill="url(#paint6_linear_231_1041)"/>
<rect x="0.5" y="0.5" width="55" height="55" rx="27.5" stroke="url(#paint7_linear_231_1041)"/>
<defs>
<linearGradient id="paint0_linear_231_1041" x1="31.311" y1="16.7969" x2="30.6816" y2="15.3864" gradientUnits="userSpaceOnUse">
<stop stop-color="#8B7FFF"/>
<stop offset="1" stop-color="#5700FF"/>
</linearGradient>
<linearGradient id="paint1_linear_231_1041" x1="32.8513" y1="20.2208" x2="28.4985" y2="10.4648" gradientUnits="userSpaceOnUse">
<stop stop-color="#8B7FFF"/>
<stop offset="1" stop-color="#5700FF"/>
</linearGradient>
<linearGradient id="paint2_linear_231_1041" x1="30.9742" y1="14.8745" x2="30.4168" y2="13.6195" gradientUnits="userSpaceOnUse">
<stop stop-color="#8B7FFF"/>
<stop offset="1" stop-color="#5700FF"/>
</linearGradient>
<linearGradient id="paint3_linear_231_1041" x1="24.6717" y1="26.4017" x2="24.6679" y2="26.4017" gradientUnits="userSpaceOnUse">
<stop stop-color="#D299FF"/>
<stop offset="1" stop-color="#6515FF"/>
</linearGradient>
<linearGradient id="paint4_linear_231_1041" x1="29.0353" y1="30.5608" x2="21.0728" y2="23.5463" gradientUnits="userSpaceOnUse">
<stop stop-color="#D299FF"/>
<stop offset="1" stop-color="#6515FF"/>
</linearGradient>
<linearGradient id="paint5_linear_231_1041" x1="29.4884" y1="26.7429" x2="29.4884" y2="26.7583" gradientUnits="userSpaceOnUse">
<stop stop-color="#5700FF"/>
<stop offset="1" stop-color="#CA72F6"/>
</linearGradient>
<linearGradient id="paint6_linear_231_1041" x1="28.2495" y1="41.0901" x2="23.9308" y2="30.2991" gradientUnits="userSpaceOnUse">
<stop stop-color="#5700FF"/>
<stop offset="1" stop-color="#CA72F6"/>
</linearGradient>
<linearGradient id="paint7_linear_231_1041" x1="0" y1="0" x2="56" y2="56" gradientUnits="userSpaceOnUse">
<stop stop-color="#B672F6"/>
<stop offset="1" stop-color="#5700FF"/>
</linearGradient>
</defs>
</svg>
