<svg width="56" height="56" viewBox="0 0 56 56" fill="none" xmlns="http://www.w3.org/2000/svg">
<path fill-rule="evenodd" clip-rule="evenodd" d="M28 10C32.4183 10 36 13.5817 36 18H34V18C34 14.6863 31.3137 12 28 12C24.6863 12 22 14.6863 22 18V18H20C20 13.5817 23.5817 10 28 10ZM21.9999 24V18H19.9999V24H21.9999ZM35.9999 18V24H33.9999V18H35.9999ZM16 26C16 24.8955 16.8954 24 18 24H38C39.1046 24 40 24.8955 40 26V40.6667C40 41.7713 39.1046 42.6667 38 42.6667H18C16.8954 42.6667 16 41.7713 16 40.6667V26ZM30 30L30 30.0038V36.6667V36.6667C30 37.7713 29.1046 38.6667 28 38.6667C26.8954 38.6667 26 37.7713 26 36.6667V36.6667V30C26 28.8955 26.8954 28 28 28C29.1046 28 30 28.8955 30 30Z" fill="url(#paint0_linear_231_1074)"/>
<rect x="0.5" y="0.5" width="55" height="55" rx="27.5" stroke="url(#paint1_linear_231_1074)"/>
<defs>
<linearGradient id="paint0_linear_231_1074" x1="28" y1="10" x2="28" y2="42.6667" gradientUnits="userSpaceOnUse">
<stop stop-color="#5700FF"/>
<stop offset="1" stop-color="#CA72F6"/>
</linearGradient>
<linearGradient id="paint1_linear_231_1074" x1="0" y1="0" x2="56" y2="56" gradientUnits="userSpaceOnUse">
<stop stop-color="#B672F6"/>
<stop offset="1" stop-color="#5700FF"/>
</linearGradient>
</defs>
</svg>
