<svg width="136" height="35" viewBox="0 0 136 35" fill="none" xmlns="http://www.w3.org/2000/svg">
<path fill-rule="evenodd" clip-rule="evenodd" d="M54.3714 7.99991H51.8393C51.3158 7.99991 51.0307 8.18964 51.0307 8.79424V19.5269H50.9782L43.1946 8.57619C42.908 8.16132 42.647 7.99991 42.1236 7.99991H39.9291C39.3843 7.99991 39.0723 8.13725 39.0723 8.84521V26.2043C39.0723 26.8641 39.3319 27.0001 39.9291 27.0001H42.3576C42.8797 27.0001 43.145 26.7778 43.145 26.176V15.5255H43.1932L50.9768 26.3955C51.2648 26.8061 51.6535 26.9987 52.1258 26.9987H54.343C54.8154 26.9987 55.1006 26.8627 55.1006 26.1491V8.84521C55.1006 8.38362 55.0481 7.99991 54.3686 7.99991H54.3714Z" fill="white"/>
<path fill-rule="evenodd" clip-rule="evenodd" d="M67.7815 8.60167C67.6525 8.24628 67.3673 7.99991 66.8524 7.99991H64.1912C63.6975 7.99991 63.4677 8.27318 63.3102 8.68663L57.1594 26.2312C57.1055 26.3403 57.1055 26.4493 57.1055 26.5597C57.1055 26.8061 57.2374 26.9987 57.5225 26.9987H60.4703C60.9356 26.9987 61.1398 26.6957 61.242 26.3388L62.279 23.0525H68.661L69.6938 26.2298C69.8455 26.6942 70.081 26.9972 70.7038 26.9972H73.5962C73.9579 26.9972 74.1381 26.7749 74.1381 26.4465C74.1381 26.3374 74.114 26.2015 74.0601 26.0358L67.783 8.59884L67.7815 8.60167ZM63.3102 19.7704L64.9402 14.4098C65.1189 13.8335 65.2749 13.2855 65.404 12.7914H65.4551C65.5814 13.2558 65.7402 13.774 65.9218 14.38L67.5461 19.7704H63.3102Z" fill="white"/>
<path fill-rule="evenodd" clip-rule="evenodd" d="M81.2418 7.99991H77.0187C76.2981 7.99991 76.1406 8.27318 76.1406 8.87778V26.1505C76.1406 26.8641 76.4612 27.0001 76.9946 27.0001H82.4461C87.8693 27.0001 92.1703 24.1258 92.1703 17.5559C92.1703 10.271 87.8693 7.99991 81.2418 7.99991ZM82.2844 23.306H80.3849V11.7507H81.8858C85.6492 11.7507 87.6281 13.4469 87.6281 17.5276C87.6281 22.1237 84.957 23.3045 82.283 23.3045L82.2844 23.306Z" fill="white"/>
<path fill-rule="evenodd" clip-rule="evenodd" d="M106.524 7.99991H95.8723C95.4155 7.99991 95.1758 8.29867 95.1758 8.76733V26.1505C95.1758 26.8344 95.4439 27.0001 96.0581 27.0001H106.446C106.954 27.0001 107.198 26.7537 107.198 26.2326V24.2051C107.198 23.6868 106.902 23.4688 106.419 23.4688H99.4329V19.1403H105.533C106.046 19.1403 106.311 18.8982 106.311 18.3517V16.3538C106.311 15.9149 106.097 15.609 105.51 15.609H99.4329V11.5369H105.911C106.554 11.5369 106.902 11.4264 106.954 10.8473L107.198 8.63282V8.49689C107.198 8.22504 106.954 8.00416 106.524 8.00416V7.99991Z" fill="white"/>
<path fill-rule="evenodd" clip-rule="evenodd" d="M119.424 16.9796L124.732 8.90609C124.813 8.79424 124.891 8.60167 124.891 8.43459C124.891 8.18964 124.709 7.99991 124.414 7.99991H121.372C120.817 7.99991 120.583 8.16132 120.344 8.57619L117.245 13.7259L114.378 8.68804C114.121 8.24769 113.697 8.00132 113.25 8.00132H109.914C109.707 8.00132 109.494 8.16274 109.494 8.41194C109.494 8.52097 109.518 8.66114 109.6 8.79565L114.772 17.2515L109.335 26.1222C109.256 26.261 109.203 26.4224 109.203 26.5342C109.203 26.8358 109.441 27.0015 109.729 27.0015H112.542C113.147 27.0015 113.463 26.8089 113.699 26.3983L117.036 20.6483L120.293 26.3431C120.529 26.7551 120.845 27.0029 121.394 27.0029H124.651C125.101 27.0029 125.233 26.7565 125.233 26.5088C125.233 26.3714 125.206 26.2072 125.129 26.0981L119.425 16.9825L119.424 16.9796Z" fill="white"/>
<path fill-rule="evenodd" clip-rule="evenodd" d="M134.514 7.99991L133.589 10.7241H133.565L132.598 7.99991H131.137V12.2477H132.104L132.08 9.24167H132.098L133.175 12.2477H133.896L135.002 9.24167H135.019L134.997 12.2477H136V7.99991H134.514Z" fill="white"/>
<path fill-rule="evenodd" clip-rule="evenodd" d="M127.236 8.87636H128.438V12.2477H129.466V8.87636H130.668V7.99991H127.236V8.87636Z" fill="white"/>
<path fill-rule="evenodd" clip-rule="evenodd" d="M28.7045 0H20.0967V17.311H20.0428L7.3765 5.70614L0.849716 0.118937C0.761766 0.0438934 0.6497 0 0.527704 0C0.241155 0 0.00992991 0.246369 0.00992991 0.550791L0 34.4506C0 34.7536 0.231225 35 0.516355 35H9.12417V17.689H9.17807L21.8444 29.2939L28.3712 34.8811C28.4591 34.9561 28.5712 35 28.6932 35C28.9783 35 29.211 34.7536 29.211 34.4492L29.2209 0.549375C29.2209 0.246369 28.9897 0 28.7045 0V0Z" fill="white"/>
</svg>
