<svg width="662" height="571" viewBox="0 0 662 571" fill="none" xmlns="http://www.w3.org/2000/svg">
<line x1="661" y1="380.412" y2="380.412" stroke="white" stroke-opacity="0.2" stroke-width="0.5"/>
<line x1="661" y1="190.412" y2="190.412" stroke="white" stroke-opacity="0.2" stroke-width="0.5"/>
<line x1="661" y1="285.411" y2="285.411" stroke="white" stroke-opacity="0.2" stroke-width="0.5"/>
<line x1="661" y1="475.41" y2="475.41" stroke="white" stroke-opacity="0.2" stroke-width="0.5"/>
<line x1="661" y1="95.4106" y2="95.4106" stroke="white" stroke-opacity="0.2" stroke-width="0.5"/>
<line x1="84.2227" y1="570.161" x2="84.2227" y2="0.161377" stroke="white" stroke-opacity="0.2" stroke-width="0.5"/>
<line x1="166.584" y1="570.161" x2="166.584" y2="0.161377" stroke="white" stroke-opacity="0.2" stroke-width="0.5"/>
<line x1="248.945" y1="570.161" x2="248.945" y2="0.161377" stroke="white" stroke-opacity="0.2" stroke-width="0.5"/>
<line x1="331.306" y1="570.161" x2="331.306" y2="0.161377" stroke="white" stroke-opacity="0.2" stroke-width="0.5"/>
<line x1="413.667" y1="570.161" x2="413.667" y2="0.161377" stroke="white" stroke-opacity="0.2" stroke-width="0.5"/>
<line x1="496.028" y1="570.161" x2="496.028" y2="0.161377" stroke="white" stroke-opacity="0.2" stroke-width="0.5"/>
<line x1="578.389" y1="570.161" x2="578.389" y2="0.161377" stroke="white" stroke-opacity="0.2" stroke-width="0.5"/>
<line y1="312.661" x2="661" y2="312.661" stroke="white"/>
<path d="M0 351.161H661" stroke="white" stroke-width="0.5" stroke-dasharray="5 5"/>
<path d="M0 185.161H661" stroke="white" stroke-width="0.5" stroke-dasharray="5 5"/>
<rect x="214" y="221.161" width="17" height="56" fill="#F33233"/>
<line x1="222.5" y1="304.161" x2="222.5" y2="205.161" stroke="#F33233"/>
<rect x="236" y="277.161" width="16.3539" height="35.9458" fill="#F33233"/>
<rect x="38" y="256.161" width="17" height="40" fill="#59CE77"/>
<line x1="46.6611" y1="315.161" x2="46.6611" y2="246.161" stroke="#59CE77"/>
<rect x="60" y="206.187" width="17" height="50.0545" fill="#59CE77"/>
<line x1="68.5" y1="267.161" x2="68.5" y2="181.16" stroke="#59CE77"/>
<rect x="82" y="179.161" width="17" height="27" fill="#59CE77"/>
<line x1="90.54" y1="264.313" x2="90.54" y2="173.161" stroke="#59CE77"/>
<rect x="-5" y="308.161" width="17" height="61" fill="#F33233"/>
<line x1="4.5" y1="308.161" x2="4.5" y2="296.161" stroke="#F33233"/>
<line x1="4.5" y1="375.161" x2="4.5" y2="369.161" stroke="#F33233"/>
<rect x="104" y="179.161" width="17" height="55" fill="#F33233"/>
<line x1="112.5" y1="253.161" x2="112.5" y2="167.161" stroke="#F33233"/>
<rect x="126" y="234.161" width="17" height="56" fill="#F33233"/>
<line x1="134.5" y1="298.377" x2="134.5" y2="202.161" stroke="#F33233"/>
<rect x="148" y="290.161" width="17" height="33" fill="#F33233"/>
<line x1="156.5" y1="338.161" x2="156.5" y2="262.161" stroke="#F33233"/>
<rect x="170" y="262.161" width="17" height="61" fill="#59CE77"/>
<line x1="178.5" y1="286.874" x2="178.5" y2="209.16" stroke="#59CE77"/>
<rect x="192" y="221.161" width="17" height="41" fill="#59CE77"/>
<line x1="200.5" y1="269.589" x2="200.5" y2="196.161" stroke="#59CE77"/>
<rect x="17" y="296.16" width="17" height="73" fill="#59CE77"/>
<line x1="25.5" y1="374.16" x2="25.5" y2="288.16" stroke="#59CE77"/>
<rect x="257.5" y="293.661" width="16" height="19" stroke="#59CE77"/>
<line x1="265.5" y1="323.161" x2="265.5" y2="312.161" stroke="#59CE77"/>
<line x1="265.5" y1="294.161" x2="265.5" y2="277.161" stroke="#59CE77"/>
<rect x="279.5" y="264.661" width="16" height="28" stroke="#59CE77"/>
<line x1="287.5" y1="303.161" x2="287.5" y2="292.161" stroke="#59CE77"/>
<line x1="287.5" y1="265.161" x2="287.5" y2="254.161" stroke="#59CE77"/>
<rect x="301.5" y="214.661" width="16" height="49" stroke="#59CE77"/>
<line x1="309.5" y1="281.161" x2="309.5" y2="263.161" stroke="#59CE77"/>
<line x1="309.5" y1="215.161" x2="309.5" y2="190.161" stroke="#59CE77"/>
<rect x="323.5" y="187.661" width="16" height="26" stroke="#59CE77"/>
<line x1="331.5" y1="224.161" x2="331.5" y2="213.161" stroke="#59CE77"/>
<line x1="331.5" y1="188.161" x2="331.5" y2="167.161" stroke="#59CE77"/>
<rect x="345.5" y="148.661" width="16" height="38" stroke="#59CE77"/>
<line x1="353.5" y1="203.161" x2="353.5" y2="186.161" stroke="#59CE77"/>
<line x1="353.5" y1="149.161" x2="353.5" y2="132.161" stroke="#59CE77"/>
<line x1="661.25" y1="0.160889" x2="661.25" y2="570.161" stroke="white" stroke-width="0.5"/>
<path d="M519.405 334.089C519.48 334.089 519.545 334.119 519.601 334.18L520.14 334.761C519.729 335.237 519.23 335.608 518.642 335.874C518.059 336.14 517.352 336.273 516.521 336.273C515.802 336.273 515.149 336.149 514.561 335.902C513.973 335.65 513.471 335.3 513.056 334.852C512.641 334.399 512.319 333.858 512.09 333.228C511.861 332.598 511.747 331.905 511.747 331.149C511.747 330.393 511.866 329.7 512.104 329.07C512.342 328.44 512.676 327.899 513.105 327.446C513.539 326.993 514.057 326.643 514.659 326.396C515.261 326.144 515.926 326.018 516.654 326.018C517.368 326.018 517.998 326.132 518.544 326.361C519.09 326.59 519.571 326.9 519.986 327.292L519.538 327.915C519.51 327.962 519.473 328.001 519.426 328.034C519.384 328.062 519.326 328.076 519.251 328.076C519.167 328.076 519.064 328.032 518.943 327.943C518.822 327.85 518.663 327.747 518.467 327.635C518.271 327.523 518.026 327.423 517.732 327.334C517.438 327.241 517.076 327.194 516.647 327.194C516.129 327.194 515.655 327.285 515.226 327.467C514.797 327.644 514.426 327.903 514.113 328.244C513.805 328.585 513.565 329 513.392 329.49C513.219 329.98 513.133 330.533 513.133 331.149C513.133 331.774 513.222 332.332 513.399 332.822C513.581 333.312 513.826 333.727 514.134 334.068C514.447 334.404 514.813 334.661 515.233 334.838C515.658 335.015 516.115 335.104 516.605 335.104C516.904 335.104 517.172 335.088 517.41 335.055C517.653 335.018 517.874 334.962 518.075 334.887C518.28 334.812 518.469 334.719 518.642 334.607C518.819 334.49 518.994 334.353 519.167 334.194C519.246 334.124 519.326 334.089 519.405 334.089ZM527.142 329.07V336.161H526.4C526.223 336.161 526.111 336.075 526.064 335.902L525.966 335.139C525.658 335.48 525.313 335.755 524.93 335.965C524.548 336.17 524.109 336.273 523.614 336.273C523.227 336.273 522.884 336.21 522.585 336.084C522.291 335.953 522.044 335.771 521.843 335.538C521.643 335.305 521.491 335.022 521.388 334.691C521.29 334.36 521.241 333.993 521.241 333.592V329.07H522.487V333.592C522.487 334.129 522.609 334.544 522.851 334.838C523.099 335.132 523.474 335.279 523.978 335.279C524.347 335.279 524.69 335.193 525.007 335.02C525.329 334.843 525.626 334.6 525.896 334.292V329.07H527.142ZM530.301 330.491C530.525 330.006 530.8 329.628 531.127 329.357C531.454 329.082 531.853 328.944 532.324 328.944C532.473 328.944 532.616 328.96 532.751 328.993C532.891 329.026 533.015 329.077 533.122 329.147L533.031 330.078C533.003 330.195 532.933 330.253 532.821 330.253C532.756 330.253 532.66 330.239 532.534 330.211C532.408 330.183 532.266 330.169 532.107 330.169C531.883 330.169 531.682 330.202 531.505 330.267C531.332 330.332 531.176 330.43 531.036 330.561C530.901 330.687 530.777 330.846 530.665 331.037C530.558 331.224 530.46 331.438 530.371 331.681V336.161H529.118V329.07H529.832C529.967 329.07 530.061 329.096 530.112 329.147C530.163 329.198 530.198 329.287 530.217 329.413L530.301 330.491ZM535.4 330.491C535.624 330.006 535.9 329.628 536.226 329.357C536.553 329.082 536.952 328.944 537.423 328.944C537.573 328.944 537.715 328.96 537.85 328.993C537.99 329.026 538.114 329.077 538.221 329.147L538.13 330.078C538.102 330.195 538.032 330.253 537.92 330.253C537.855 330.253 537.759 330.239 537.633 330.211C537.507 330.183 537.365 330.169 537.206 330.169C536.982 330.169 536.782 330.202 536.604 330.267C536.432 330.332 536.275 330.43 536.135 330.561C536 330.687 535.876 330.846 535.764 331.037C535.657 331.224 535.559 331.438 535.47 331.681V336.161H534.217V329.07H534.931C535.067 329.07 535.16 329.096 535.211 329.147C535.263 329.198 535.298 329.287 535.316 329.413L535.4 330.491ZM543.776 331.842C543.776 331.553 543.734 331.289 543.65 331.051C543.571 330.808 543.452 330.601 543.293 330.428C543.139 330.251 542.95 330.115 542.726 330.022C542.502 329.924 542.248 329.875 541.963 329.875C541.366 329.875 540.892 330.05 540.542 330.4C540.197 330.745 539.982 331.226 539.898 331.842H543.776ZM544.784 335.167C544.63 335.354 544.446 335.517 544.231 335.657C544.016 335.792 543.785 335.904 543.538 335.993C543.295 336.082 543.043 336.147 542.782 336.189C542.521 336.236 542.262 336.259 542.005 336.259C541.515 336.259 541.062 336.177 540.647 336.014C540.236 335.846 539.879 335.603 539.576 335.286C539.277 334.964 539.044 334.567 538.876 334.096C538.708 333.625 538.624 333.083 538.624 332.472C538.624 331.977 538.699 331.515 538.848 331.086C539.002 330.657 539.221 330.286 539.506 329.973C539.791 329.656 540.138 329.408 540.549 329.231C540.96 329.049 541.422 328.958 541.935 328.958C542.36 328.958 542.752 329.03 543.111 329.175C543.475 329.315 543.788 329.52 544.049 329.791C544.315 330.057 544.523 330.388 544.672 330.785C544.821 331.177 544.896 331.625 544.896 332.129C544.896 332.325 544.875 332.456 544.833 332.521C544.791 332.586 544.712 332.619 544.595 332.619H539.856C539.87 333.067 539.931 333.457 540.038 333.788C540.15 334.119 540.304 334.397 540.5 334.621C540.696 334.84 540.929 335.006 541.2 335.118C541.471 335.225 541.774 335.279 542.11 335.279C542.423 335.279 542.691 335.244 542.915 335.174C543.144 335.099 543.34 335.02 543.503 334.936C543.666 334.852 543.802 334.775 543.909 334.705C544.021 334.63 544.117 334.593 544.196 334.593C544.299 334.593 544.378 334.633 544.434 334.712L544.784 335.167ZM547.602 330.099C547.756 329.926 547.92 329.77 548.092 329.63C548.265 329.49 548.447 329.371 548.638 329.273C548.834 329.17 549.04 329.093 549.254 329.042C549.474 328.986 549.709 328.958 549.961 328.958C550.349 328.958 550.689 329.023 550.983 329.154C551.282 329.28 551.529 329.462 551.725 329.7C551.926 329.933 552.078 330.216 552.18 330.547C552.283 330.878 552.334 331.245 552.334 331.646V336.161H551.081V331.646C551.081 331.109 550.958 330.694 550.71 330.4C550.468 330.101 550.097 329.952 549.597 329.952C549.229 329.952 548.883 330.041 548.561 330.218C548.244 330.395 547.95 330.636 547.679 330.939V336.161H546.426V329.07H547.175C547.353 329.07 547.462 329.156 547.504 329.329L547.602 330.099ZM556.314 336.273C555.754 336.273 555.323 336.117 555.019 335.804C554.721 335.491 554.571 335.041 554.571 334.453V330.113H553.717C553.643 330.113 553.58 330.092 553.528 330.05C553.477 330.003 553.451 329.933 553.451 329.84V329.343L554.613 329.196L554.9 327.005C554.914 326.935 554.945 326.879 554.991 326.837C555.043 326.79 555.108 326.767 555.187 326.767H555.817V329.21H557.868V330.113H555.817V334.369C555.817 334.668 555.89 334.889 556.034 335.034C556.179 335.179 556.366 335.251 556.594 335.251C556.725 335.251 556.837 335.235 556.93 335.202C557.028 335.165 557.112 335.125 557.182 335.083C557.252 335.041 557.311 335.004 557.357 334.971C557.409 334.934 557.453 334.915 557.49 334.915C557.556 334.915 557.614 334.955 557.665 335.034L558.029 335.629C557.815 335.83 557.556 335.988 557.252 336.105C556.949 336.217 556.636 336.273 556.314 336.273ZM563.99 334.453C564.219 334.761 564.468 334.978 564.739 335.104C565.01 335.23 565.313 335.293 565.649 335.293C566.312 335.293 566.82 335.057 567.175 334.586C567.53 334.115 567.707 333.443 567.707 332.57C567.707 332.108 567.665 331.711 567.581 331.38C567.502 331.049 567.385 330.778 567.231 330.568C567.077 330.353 566.888 330.197 566.664 330.099C566.44 330.001 566.186 329.952 565.901 329.952C565.495 329.952 565.138 330.045 564.83 330.232C564.527 330.419 564.247 330.682 563.99 331.023V334.453ZM563.927 330.169C564.226 329.8 564.571 329.504 564.963 329.28C565.355 329.056 565.803 328.944 566.307 328.944C566.718 328.944 567.089 329.023 567.42 329.182C567.751 329.336 568.034 329.567 568.267 329.875C568.5 330.178 568.68 330.556 568.806 331.009C568.932 331.462 568.995 331.982 568.995 332.57C568.995 333.093 568.925 333.58 568.785 334.033C568.645 334.481 568.442 334.871 568.176 335.202C567.915 335.529 567.593 335.788 567.21 335.979C566.832 336.166 566.405 336.259 565.929 336.259C565.495 336.259 565.122 336.187 564.809 336.042C564.501 335.893 564.228 335.687 563.99 335.426V338.562H562.737V329.07H563.486C563.663 329.07 563.773 329.156 563.815 329.329L563.927 330.169ZM571.768 330.491C571.992 330.006 572.267 329.628 572.594 329.357C572.92 329.082 573.319 328.944 573.791 328.944C573.94 328.944 574.082 328.96 574.218 328.993C574.358 329.026 574.481 329.077 574.589 329.147L574.498 330.078C574.47 330.195 574.4 330.253 574.288 330.253C574.222 330.253 574.127 330.239 574.001 330.211C573.875 330.183 573.732 330.169 573.574 330.169C573.35 330.169 573.149 330.202 572.972 330.267C572.799 330.332 572.643 330.43 572.503 330.561C572.367 330.687 572.244 330.846 572.132 331.037C572.024 331.224 571.926 331.438 571.838 331.681V336.161H570.585V329.07H571.299C571.434 329.07 571.527 329.096 571.579 329.147C571.63 329.198 571.665 329.287 571.684 329.413L571.768 330.491ZM577 329.07V336.161H575.754V329.07H577ZM577.266 326.844C577.266 326.965 577.241 327.08 577.189 327.187C577.143 327.29 577.077 327.383 576.993 327.467C576.914 327.546 576.818 327.609 576.706 327.656C576.599 327.703 576.485 327.726 576.363 327.726C576.242 327.726 576.128 327.703 576.02 327.656C575.918 327.609 575.827 327.546 575.747 327.467C575.668 327.383 575.605 327.29 575.558 327.187C575.512 327.08 575.488 326.965 575.488 326.844C575.488 326.723 575.512 326.608 575.558 326.501C575.605 326.389 575.668 326.293 575.747 326.214C575.827 326.13 575.918 326.065 576.02 326.018C576.128 325.971 576.242 325.948 576.363 325.948C576.485 325.948 576.599 325.971 576.706 326.018C576.818 326.065 576.914 326.13 576.993 326.214C577.077 326.293 577.143 326.389 577.189 326.501C577.241 326.608 577.266 326.723 577.266 326.844ZM583.983 330.33C583.945 330.381 583.908 330.421 583.871 330.449C583.833 330.477 583.782 330.491 583.717 330.491C583.647 330.491 583.57 330.463 583.486 330.407C583.402 330.346 583.297 330.281 583.171 330.211C583.049 330.141 582.898 330.078 582.716 330.022C582.538 329.961 582.319 329.931 582.058 329.931C581.708 329.931 581.4 329.994 581.134 330.12C580.868 330.241 580.644 330.419 580.462 330.652C580.284 330.885 580.149 331.168 580.056 331.499C579.967 331.83 579.923 332.201 579.923 332.612C579.923 333.041 579.972 333.424 580.07 333.76C580.168 334.091 580.305 334.371 580.483 334.6C580.665 334.824 580.882 334.997 581.134 335.118C581.39 335.235 581.677 335.293 581.995 335.293C582.298 335.293 582.548 335.258 582.744 335.188C582.94 335.113 583.101 335.032 583.227 334.943C583.357 334.854 583.465 334.775 583.549 334.705C583.637 334.63 583.724 334.593 583.808 334.593C583.91 334.593 583.99 334.633 584.046 334.712L584.396 335.167C584.242 335.358 584.067 335.522 583.871 335.657C583.675 335.792 583.462 335.907 583.234 336C583.01 336.089 582.774 336.154 582.527 336.196C582.279 336.238 582.027 336.259 581.771 336.259C581.327 336.259 580.914 336.177 580.532 336.014C580.154 335.851 579.825 335.615 579.545 335.307C579.265 334.994 579.045 334.612 578.887 334.159C578.728 333.706 578.649 333.191 578.649 332.612C578.649 332.085 578.721 331.597 578.866 331.149C579.015 330.701 579.23 330.316 579.51 329.994C579.794 329.667 580.142 329.413 580.553 329.231C580.968 329.049 581.444 328.958 581.981 328.958C582.48 328.958 582.919 329.04 583.297 329.203C583.679 329.362 584.018 329.588 584.312 329.882L583.983 330.33ZM590.356 331.842C590.356 331.553 590.314 331.289 590.23 331.051C590.151 330.808 590.032 330.601 589.873 330.428C589.719 330.251 589.53 330.115 589.306 330.022C589.082 329.924 588.828 329.875 588.543 329.875C587.946 329.875 587.472 330.05 587.122 330.4C586.777 330.745 586.562 331.226 586.478 331.842H590.356ZM591.364 335.167C591.21 335.354 591.026 335.517 590.811 335.657C590.596 335.792 590.365 335.904 590.118 335.993C589.875 336.082 589.623 336.147 589.362 336.189C589.101 336.236 588.842 336.259 588.585 336.259C588.095 336.259 587.642 336.177 587.227 336.014C586.816 335.846 586.459 335.603 586.156 335.286C585.857 334.964 585.624 334.567 585.456 334.096C585.288 333.625 585.204 333.083 585.204 332.472C585.204 331.977 585.279 331.515 585.428 331.086C585.582 330.657 585.801 330.286 586.086 329.973C586.371 329.656 586.718 329.408 587.129 329.231C587.54 329.049 588.002 328.958 588.515 328.958C588.94 328.958 589.332 329.03 589.691 329.175C590.055 329.315 590.368 329.52 590.629 329.791C590.895 330.057 591.103 330.388 591.252 330.785C591.401 331.177 591.476 331.625 591.476 332.129C591.476 332.325 591.455 332.456 591.413 332.521C591.371 332.586 591.292 332.619 591.175 332.619H586.436C586.45 333.067 586.511 333.457 586.618 333.788C586.73 334.119 586.884 334.397 587.08 334.621C587.276 334.84 587.509 335.006 587.78 335.118C588.051 335.225 588.354 335.279 588.69 335.279C589.003 335.279 589.271 335.244 589.495 335.174C589.724 335.099 589.92 335.02 590.083 334.936C590.246 334.852 590.382 334.775 590.489 334.705C590.601 334.63 590.697 334.593 590.776 334.593C590.879 334.593 590.958 334.633 591.014 334.712L591.364 335.167ZM592.895 335.391C592.895 335.27 592.916 335.155 592.958 335.048C593.004 334.941 593.065 334.847 593.14 334.768C593.219 334.689 593.312 334.626 593.42 334.579C593.527 334.532 593.641 334.509 593.763 334.509C593.884 334.509 593.998 334.532 594.106 334.579C594.213 334.626 594.306 334.689 594.386 334.768C594.465 334.847 594.528 334.941 594.575 335.048C594.621 335.155 594.645 335.27 594.645 335.391C594.645 335.517 594.621 335.634 594.575 335.741C594.528 335.844 594.465 335.935 594.386 336.014C594.306 336.093 594.213 336.154 594.106 336.196C593.998 336.243 593.884 336.266 593.763 336.266C593.641 336.266 593.527 336.243 593.42 336.196C593.312 336.154 593.219 336.093 593.14 336.014C593.065 335.935 593.004 335.844 592.958 335.741C592.916 335.634 592.895 335.517 592.895 335.391ZM592.895 330.141C592.895 330.02 592.916 329.905 592.958 329.798C593.004 329.691 593.065 329.597 593.14 329.518C593.219 329.439 593.312 329.376 593.42 329.329C593.527 329.282 593.641 329.259 593.763 329.259C593.884 329.259 593.998 329.282 594.106 329.329C594.213 329.376 594.306 329.439 594.386 329.518C594.465 329.597 594.528 329.691 594.575 329.798C594.621 329.905 594.645 330.02 594.645 330.141C594.645 330.267 594.621 330.384 594.575 330.491C594.528 330.594 594.465 330.685 594.386 330.764C594.306 330.843 594.213 330.906 594.106 330.953C593.998 330.995 593.884 331.016 593.763 331.016C593.641 331.016 593.527 330.995 593.42 330.953C593.312 330.906 593.219 330.843 593.14 330.764C593.065 330.685 593.004 330.594 592.958 330.491C592.916 330.384 592.895 330.267 592.895 330.141ZM603.393 335.202C603.701 335.174 603.971 335.109 604.205 335.006C604.438 334.899 604.634 334.763 604.793 334.6C604.956 334.437 605.077 334.248 605.157 334.033C605.241 333.814 605.283 333.573 605.283 333.312C605.283 333.079 605.238 332.878 605.15 332.71C605.066 332.542 604.949 332.397 604.8 332.276C604.65 332.15 604.475 332.045 604.275 331.961C604.074 331.872 603.859 331.791 603.631 331.716L603.393 335.202ZM603.162 327.11C602.858 327.138 602.595 327.199 602.371 327.292C602.151 327.385 601.969 327.502 601.825 327.642C601.68 327.782 601.573 327.941 601.503 328.118C601.433 328.291 601.398 328.473 601.398 328.664C601.398 328.888 601.437 329.084 601.517 329.252C601.596 329.415 601.706 329.56 601.846 329.686C601.986 329.812 602.149 329.922 602.336 330.015C602.522 330.108 602.725 330.192 602.945 330.267L603.162 327.11ZM603.715 330.512C604.051 330.619 604.382 330.734 604.709 330.855C605.035 330.976 605.329 331.133 605.591 331.324C605.852 331.515 606.062 331.756 606.221 332.045C606.384 332.33 606.466 332.687 606.466 333.116C606.466 333.536 606.396 333.93 606.256 334.299C606.116 334.668 605.91 334.992 605.64 335.272C605.374 335.552 605.045 335.781 604.653 335.958C604.265 336.131 603.822 336.233 603.323 336.266L603.239 337.491C603.234 337.58 603.199 337.657 603.134 337.722C603.068 337.792 602.987 337.827 602.889 337.827H602.427L602.532 336.252C601.967 336.196 601.451 336.056 600.985 335.832C600.523 335.603 600.124 335.314 599.788 334.964L600.166 334.39C600.203 334.339 600.25 334.297 600.306 334.264C600.362 334.231 600.422 334.215 600.488 334.215C600.576 334.215 600.677 334.259 600.789 334.348C600.901 334.437 601.038 334.537 601.202 334.649C601.37 334.761 601.566 334.871 601.79 334.978C602.018 335.085 602.291 335.158 602.609 335.195L602.861 331.478C602.534 331.38 602.212 331.27 601.895 331.149C601.582 331.028 601.3 330.867 601.048 330.666C600.8 330.465 600.6 330.216 600.446 329.917C600.296 329.618 600.222 329.243 600.222 328.79C600.222 328.449 600.287 328.118 600.418 327.796C600.553 327.469 600.749 327.18 601.006 326.928C601.262 326.676 601.577 326.471 601.951 326.312C602.324 326.149 602.751 326.058 603.232 326.039L603.302 325.031C603.306 324.942 603.339 324.863 603.4 324.793C603.465 324.723 603.549 324.688 603.652 324.688H604.114L604.023 326.067C604.508 326.128 604.928 326.254 605.283 326.445C605.642 326.636 605.959 326.87 606.235 327.145L605.934 327.607C605.84 327.747 605.733 327.817 605.612 327.817C605.546 327.817 605.465 327.789 605.367 327.733C605.273 327.672 605.159 327.602 605.024 327.523C604.893 327.444 604.737 327.367 604.555 327.292C604.377 327.217 604.174 327.161 603.946 327.124L603.715 330.512ZM614.132 334.978C614.267 334.978 614.374 335.018 614.454 335.097C614.533 335.176 614.573 335.279 614.573 335.405V336.161H607.881V335.734C607.881 335.645 607.899 335.554 607.937 335.461C607.974 335.368 608.032 335.281 608.112 335.202L611.325 331.975C611.591 331.704 611.833 331.445 612.053 331.198C612.272 330.946 612.459 330.694 612.613 330.442C612.767 330.19 612.886 329.936 612.97 329.679C613.054 329.418 613.096 329.14 613.096 328.846C613.096 328.552 613.049 328.295 612.956 328.076C612.862 327.852 612.734 327.668 612.571 327.523C612.412 327.378 612.223 327.271 612.004 327.201C611.784 327.126 611.549 327.089 611.297 327.089C611.04 327.089 610.804 327.126 610.59 327.201C610.375 327.276 610.184 327.381 610.016 327.516C609.852 327.647 609.715 327.803 609.603 327.985C609.491 328.167 609.411 328.368 609.365 328.587C609.309 328.75 609.232 328.86 609.134 328.916C609.04 328.967 608.907 328.981 608.735 328.958L608.084 328.846C608.149 328.389 608.275 327.985 608.462 327.635C608.653 327.28 608.891 326.984 609.176 326.746C609.465 326.508 609.794 326.328 610.163 326.207C610.531 326.081 610.93 326.018 611.36 326.018C611.784 326.018 612.181 326.081 612.55 326.207C612.918 326.333 613.238 326.517 613.509 326.76C613.779 326.998 613.992 327.29 614.146 327.635C614.3 327.98 614.377 328.372 614.377 328.811C614.377 329.184 614.321 329.532 614.209 329.854C614.097 330.171 613.945 330.475 613.754 330.764C613.562 331.053 613.341 331.336 613.089 331.611C612.841 331.886 612.578 332.164 612.298 332.444L609.652 335.146C609.838 335.095 610.027 335.055 610.219 335.027C610.41 334.994 610.594 334.978 610.772 334.978H614.132ZM623.044 331.149C623.044 332.026 622.948 332.787 622.757 333.431C622.57 334.07 622.313 334.6 621.987 335.02C621.66 335.44 621.273 335.753 620.825 335.958C620.381 336.163 619.905 336.266 619.397 336.266C618.883 336.266 618.405 336.163 617.962 335.958C617.523 335.753 617.14 335.44 616.814 335.02C616.487 334.6 616.23 334.07 616.044 333.431C615.857 332.787 615.764 332.026 615.764 331.149C615.764 330.272 615.857 329.511 616.044 328.867C616.23 328.223 616.487 327.691 616.814 327.271C617.14 326.846 617.523 326.531 617.962 326.326C618.405 326.121 618.883 326.018 619.397 326.018C619.905 326.018 620.381 326.121 620.825 326.326C621.273 326.531 621.66 326.846 621.987 327.271C622.313 327.691 622.57 328.223 622.757 328.867C622.948 329.511 623.044 330.272 623.044 331.149ZM621.749 331.149C621.749 330.384 621.683 329.742 621.553 329.224C621.427 328.701 621.254 328.281 621.035 327.964C620.82 327.647 620.57 327.42 620.286 327.285C620.001 327.145 619.705 327.075 619.397 327.075C619.089 327.075 618.792 327.145 618.508 327.285C618.223 327.42 617.973 327.647 617.759 327.964C617.544 328.281 617.371 328.701 617.241 329.224C617.115 329.742 617.052 330.384 617.052 331.149C617.052 331.914 617.115 332.556 617.241 333.074C617.371 333.592 617.544 334.01 617.759 334.327C617.973 334.644 618.223 334.873 618.508 335.013C618.792 335.148 619.089 335.216 619.397 335.216C619.705 335.216 620.001 335.148 620.286 335.013C620.57 334.873 620.82 334.644 621.035 334.327C621.254 334.01 621.427 333.592 621.553 333.074C621.683 332.556 621.749 331.914 621.749 331.149ZM624.375 337.855C624.338 337.822 624.312 337.792 624.298 337.764C624.284 337.736 624.277 337.701 624.277 337.659C624.277 337.626 624.286 337.594 624.305 337.561C624.328 337.528 624.354 337.498 624.382 337.47C624.429 337.419 624.487 337.351 624.557 337.267C624.632 337.183 624.706 337.083 624.781 336.966C624.856 336.854 624.923 336.728 624.984 336.588C625.049 336.453 625.096 336.308 625.124 336.154C625.11 336.159 625.094 336.161 625.075 336.161C625.061 336.161 625.047 336.161 625.033 336.161C624.79 336.161 624.592 336.082 624.438 335.923C624.289 335.76 624.214 335.552 624.214 335.3C624.214 335.081 624.289 334.894 624.438 334.74C624.592 334.586 624.795 334.509 625.047 334.509C625.187 334.509 625.311 334.535 625.418 334.586C625.525 334.637 625.614 334.71 625.684 334.803C625.759 334.892 625.815 334.997 625.852 335.118C625.889 335.235 625.908 335.363 625.908 335.503C625.908 335.713 625.878 335.932 625.817 336.161C625.761 336.385 625.675 336.607 625.558 336.826C625.446 337.05 625.308 337.267 625.145 337.477C624.982 337.687 624.795 337.881 624.585 338.058L624.375 337.855ZM634.337 331.149C634.337 332.026 634.241 332.787 634.05 333.431C633.863 334.07 633.606 334.6 633.28 335.02C632.953 335.44 632.566 335.753 632.118 335.958C631.674 336.163 631.198 336.266 630.69 336.266C630.176 336.266 629.698 336.163 629.255 335.958C628.816 335.753 628.433 335.44 628.107 335.02C627.78 334.6 627.523 334.07 627.337 333.431C627.15 332.787 627.057 332.026 627.057 331.149C627.057 330.272 627.15 329.511 627.337 328.867C627.523 328.223 627.78 327.691 628.107 327.271C628.433 326.846 628.816 326.531 629.255 326.326C629.698 326.121 630.176 326.018 630.69 326.018C631.198 326.018 631.674 326.121 632.118 326.326C632.566 326.531 632.953 326.846 633.28 327.271C633.606 327.691 633.863 328.223 634.05 328.867C634.241 329.511 634.337 330.272 634.337 331.149ZM633.042 331.149C633.042 330.384 632.976 329.742 632.846 329.224C632.72 328.701 632.547 328.281 632.328 327.964C632.113 327.647 631.863 327.42 631.579 327.285C631.294 327.145 630.998 327.075 630.69 327.075C630.382 327.075 630.085 327.145 629.801 327.285C629.516 327.42 629.266 327.647 629.052 327.964C628.837 328.281 628.664 328.701 628.534 329.224C628.408 329.742 628.345 330.384 628.345 331.149C628.345 331.914 628.408 332.556 628.534 333.074C628.664 333.592 628.837 334.01 629.052 334.327C629.266 334.644 629.516 334.873 629.801 335.013C630.085 335.148 630.382 335.216 630.69 335.216C630.998 335.216 631.294 335.148 631.579 335.013C631.863 334.873 632.113 334.644 632.328 334.327C632.547 334.01 632.72 333.592 632.846 333.074C632.976 332.556 633.042 331.914 633.042 331.149ZM642.458 331.149C642.458 332.026 642.362 332.787 642.171 333.431C641.984 334.07 641.727 334.6 641.401 335.02C641.074 335.44 640.687 335.753 640.239 335.958C639.795 336.163 639.319 336.266 638.811 336.266C638.297 336.266 637.819 336.163 637.376 335.958C636.937 335.753 636.554 335.44 636.228 335.02C635.901 334.6 635.644 334.07 635.458 333.431C635.271 332.787 635.178 332.026 635.178 331.149C635.178 330.272 635.271 329.511 635.458 328.867C635.644 328.223 635.901 327.691 636.228 327.271C636.554 326.846 636.937 326.531 637.376 326.326C637.819 326.121 638.297 326.018 638.811 326.018C639.319 326.018 639.795 326.121 640.239 326.326C640.687 326.531 641.074 326.846 641.401 327.271C641.727 327.691 641.984 328.223 642.171 328.867C642.362 329.511 642.458 330.272 642.458 331.149ZM641.163 331.149C641.163 330.384 641.097 329.742 640.967 329.224C640.841 328.701 640.668 328.281 640.449 327.964C640.234 327.647 639.984 327.42 639.7 327.285C639.415 327.145 639.119 327.075 638.811 327.075C638.503 327.075 638.206 327.145 637.922 327.285C637.637 327.42 637.387 327.647 637.173 327.964C636.958 328.281 636.785 328.701 636.655 329.224C636.529 329.742 636.466 330.384 636.466 331.149C636.466 331.914 636.529 332.556 636.655 333.074C636.785 333.592 636.958 334.01 637.173 334.327C637.387 334.644 637.637 334.873 637.922 335.013C638.206 335.148 638.503 335.216 638.811 335.216C639.119 335.216 639.415 335.148 639.7 335.013C639.984 334.873 640.234 334.644 640.449 334.327C640.668 334.01 640.841 333.592 640.967 333.074C641.097 332.556 641.163 331.914 641.163 331.149ZM650.579 331.149C650.579 332.026 650.483 332.787 650.292 333.431C650.105 334.07 649.849 334.6 649.522 335.02C649.195 335.44 648.808 335.753 648.36 335.958C647.917 336.163 647.441 336.266 646.932 336.266C646.419 336.266 645.94 336.163 645.497 335.958C645.058 335.753 644.676 335.44 644.349 335.02C644.022 334.6 643.766 334.07 643.579 333.431C643.392 332.787 643.299 332.026 643.299 331.149C643.299 330.272 643.392 329.511 643.579 328.867C643.766 328.223 644.022 327.691 644.349 327.271C644.676 326.846 645.058 326.531 645.497 326.326C645.94 326.121 646.419 326.018 646.932 326.018C647.441 326.018 647.917 326.121 648.36 326.326C648.808 326.531 649.195 326.846 649.522 327.271C649.849 327.691 650.105 328.223 650.292 328.867C650.483 329.511 650.579 330.272 650.579 331.149ZM649.284 331.149C649.284 330.384 649.219 329.742 649.088 329.224C648.962 328.701 648.789 328.281 648.57 327.964C648.355 327.647 648.106 327.42 647.821 327.285C647.536 327.145 647.24 327.075 646.932 327.075C646.624 327.075 646.328 327.145 646.043 327.285C645.758 327.42 645.509 327.647 645.294 327.964C645.079 328.281 644.907 328.701 644.776 329.224C644.65 329.742 644.587 330.384 644.587 331.149C644.587 331.914 644.65 332.556 644.776 333.074C644.907 333.592 645.079 334.01 645.294 334.327C645.509 334.644 645.758 334.873 646.043 335.013C646.328 335.148 646.624 335.216 646.932 335.216C647.24 335.216 647.536 335.148 647.821 335.013C648.106 334.873 648.355 334.644 648.57 334.327C648.789 334.01 648.962 333.592 649.088 333.074C649.219 332.556 649.284 331.914 649.284 331.149Z" fill="white"/>
<path d="M562.571 366.236V369.743H566.694V370.849H562.571V375.161H561.213V365.13H567.394V366.236H562.571ZM570 364.85V375.161H568.754V364.85H570ZM575.009 367.958C575.527 367.958 575.994 368.044 576.409 368.217C576.825 368.39 577.179 368.635 577.473 368.952C577.767 369.269 577.991 369.654 578.145 370.107C578.304 370.555 578.383 371.057 578.383 371.612C578.383 372.172 578.304 372.676 578.145 373.124C577.991 373.572 577.767 373.955 577.473 374.272C577.179 374.589 576.825 374.834 576.409 375.007C575.994 375.175 575.527 375.259 575.009 375.259C574.487 375.259 574.015 375.175 573.595 375.007C573.18 374.834 572.825 374.589 572.531 374.272C572.237 373.955 572.011 373.572 571.852 373.124C571.698 372.676 571.621 372.172 571.621 371.612C571.621 371.057 571.698 370.555 571.852 370.107C572.011 369.654 572.237 369.269 572.531 368.952C572.825 368.635 573.18 368.39 573.595 368.217C574.015 368.044 574.487 367.958 575.009 367.958ZM575.009 374.286C575.709 374.286 576.232 374.053 576.577 373.586C576.923 373.115 577.095 372.459 577.095 371.619C577.095 370.774 576.923 370.116 576.577 369.645C576.232 369.174 575.709 368.938 575.009 368.938C574.655 368.938 574.344 368.999 574.078 369.12C573.817 369.241 573.598 369.416 573.42 369.645C573.248 369.874 573.117 370.156 573.028 370.492C572.944 370.823 572.902 371.199 572.902 371.619C572.902 372.459 573.075 373.115 573.42 373.586C573.77 374.053 574.3 374.286 575.009 374.286ZM582.953 367.958C583.471 367.958 583.937 368.044 584.353 368.217C584.768 368.39 585.123 368.635 585.417 368.952C585.711 369.269 585.935 369.654 586.089 370.107C586.247 370.555 586.327 371.057 586.327 371.612C586.327 372.172 586.247 372.676 586.089 373.124C585.935 373.572 585.711 373.955 585.417 374.272C585.123 374.589 584.768 374.834 584.353 375.007C583.937 375.175 583.471 375.259 582.953 375.259C582.43 375.259 581.959 375.175 581.539 375.007C581.123 374.834 580.769 374.589 580.475 374.272C580.181 373.955 579.954 373.572 579.796 373.124C579.642 372.676 579.565 372.172 579.565 371.612C579.565 371.057 579.642 370.555 579.796 370.107C579.954 369.654 580.181 369.269 580.475 368.952C580.769 368.635 581.123 368.39 581.539 368.217C581.959 368.044 582.43 367.958 582.953 367.958ZM582.953 374.286C583.653 374.286 584.175 374.053 584.521 373.586C584.866 373.115 585.039 372.459 585.039 371.619C585.039 370.774 584.866 370.116 584.521 369.645C584.175 369.174 583.653 368.938 582.953 368.938C582.598 368.938 582.288 368.999 582.022 369.12C581.76 369.241 581.541 369.416 581.364 369.645C581.191 369.874 581.06 370.156 580.972 370.492C580.888 370.823 580.846 371.199 580.846 371.619C580.846 372.459 581.018 373.115 581.364 373.586C581.714 374.053 582.243 374.286 582.953 374.286ZM589.09 369.491C589.314 369.006 589.589 368.628 589.916 368.357C590.243 368.082 590.642 367.944 591.113 367.944C591.262 367.944 591.405 367.96 591.54 367.993C591.68 368.026 591.804 368.077 591.911 368.147L591.82 369.078C591.792 369.195 591.722 369.253 591.61 369.253C591.545 369.253 591.449 369.239 591.323 369.211C591.197 369.183 591.055 369.169 590.896 369.169C590.672 369.169 590.471 369.202 590.294 369.267C590.121 369.332 589.965 369.43 589.825 369.561C589.69 369.687 589.566 369.846 589.454 370.037C589.347 370.224 589.249 370.438 589.16 370.681V375.161H587.907V368.07H588.621C588.756 368.07 588.85 368.096 588.901 368.147C588.952 368.198 588.987 368.287 589.006 368.413L589.09 369.491ZM592.895 374.391C592.895 374.27 592.916 374.155 592.958 374.048C593.004 373.941 593.065 373.847 593.14 373.768C593.219 373.689 593.312 373.626 593.42 373.579C593.527 373.532 593.641 373.509 593.763 373.509C593.884 373.509 593.998 373.532 594.106 373.579C594.213 373.626 594.306 373.689 594.386 373.768C594.465 373.847 594.528 373.941 594.575 374.048C594.621 374.155 594.645 374.27 594.645 374.391C594.645 374.517 594.621 374.634 594.575 374.741C594.528 374.844 594.465 374.935 594.386 375.014C594.306 375.093 594.213 375.154 594.106 375.196C593.998 375.243 593.884 375.266 593.763 375.266C593.641 375.266 593.527 375.243 593.42 375.196C593.312 375.154 593.219 375.093 593.14 375.014C593.065 374.935 593.004 374.844 592.958 374.741C592.916 374.634 592.895 374.517 592.895 374.391ZM592.895 369.141C592.895 369.02 592.916 368.905 592.958 368.798C593.004 368.691 593.065 368.597 593.14 368.518C593.219 368.439 593.312 368.376 593.42 368.329C593.527 368.282 593.641 368.259 593.763 368.259C593.884 368.259 593.998 368.282 594.106 368.329C594.213 368.376 594.306 368.439 594.386 368.518C594.465 368.597 594.528 368.691 594.575 368.798C594.621 368.905 594.645 369.02 594.645 369.141C594.645 369.267 594.621 369.384 594.575 369.491C594.528 369.594 594.465 369.685 594.386 369.764C594.306 369.843 594.213 369.906 594.106 369.953C593.998 369.995 593.884 370.016 593.763 370.016C593.641 370.016 593.527 369.995 593.42 369.953C593.312 369.906 593.219 369.843 593.14 369.764C593.065 369.685 593.004 369.594 592.958 369.491C592.916 369.384 592.895 369.267 592.895 369.141ZM603.393 374.202C603.701 374.174 603.971 374.109 604.205 374.006C604.438 373.899 604.634 373.763 604.793 373.6C604.956 373.437 605.077 373.248 605.157 373.033C605.241 372.814 605.283 372.573 605.283 372.312C605.283 372.079 605.238 371.878 605.15 371.71C605.066 371.542 604.949 371.397 604.8 371.276C604.65 371.15 604.475 371.045 604.275 370.961C604.074 370.872 603.859 370.791 603.631 370.716L603.393 374.202ZM603.162 366.11C602.858 366.138 602.595 366.199 602.371 366.292C602.151 366.385 601.969 366.502 601.825 366.642C601.68 366.782 601.573 366.941 601.503 367.118C601.433 367.291 601.398 367.473 601.398 367.664C601.398 367.888 601.437 368.084 601.517 368.252C601.596 368.415 601.706 368.56 601.846 368.686C601.986 368.812 602.149 368.922 602.336 369.015C602.522 369.108 602.725 369.192 602.945 369.267L603.162 366.11ZM603.715 369.512C604.051 369.619 604.382 369.734 604.709 369.855C605.035 369.976 605.329 370.133 605.591 370.324C605.852 370.515 606.062 370.756 606.221 371.045C606.384 371.33 606.466 371.687 606.466 372.116C606.466 372.536 606.396 372.93 606.256 373.299C606.116 373.668 605.91 373.992 605.64 374.272C605.374 374.552 605.045 374.781 604.653 374.958C604.265 375.131 603.822 375.233 603.323 375.266L603.239 376.491C603.234 376.58 603.199 376.657 603.134 376.722C603.068 376.792 602.987 376.827 602.889 376.827H602.427L602.532 375.252C601.967 375.196 601.451 375.056 600.985 374.832C600.523 374.603 600.124 374.314 599.788 373.964L600.166 373.39C600.203 373.339 600.25 373.297 600.306 373.264C600.362 373.231 600.422 373.215 600.488 373.215C600.576 373.215 600.677 373.259 600.789 373.348C600.901 373.437 601.038 373.537 601.202 373.649C601.37 373.761 601.566 373.871 601.79 373.978C602.018 374.085 602.291 374.158 602.609 374.195L602.861 370.478C602.534 370.38 602.212 370.27 601.895 370.149C601.582 370.028 601.3 369.867 601.048 369.666C600.8 369.465 600.6 369.216 600.446 368.917C600.296 368.618 600.222 368.243 600.222 367.79C600.222 367.449 600.287 367.118 600.418 366.796C600.553 366.469 600.749 366.18 601.006 365.928C601.262 365.676 601.577 365.471 601.951 365.312C602.324 365.149 602.751 365.058 603.232 365.039L603.302 364.031C603.306 363.942 603.339 363.863 603.4 363.793C603.465 363.723 603.549 363.688 603.652 363.688H604.114L604.023 365.067C604.508 365.128 604.928 365.254 605.283 365.445C605.642 365.636 605.959 365.87 606.235 366.145L605.934 366.607C605.84 366.747 605.733 366.817 605.612 366.817C605.546 366.817 605.465 366.789 605.367 366.733C605.273 366.672 605.159 366.602 605.024 366.523C604.893 366.444 604.737 366.367 604.555 366.292C604.377 366.217 604.174 366.161 603.946 366.124L603.715 369.512ZM614.349 374.209V375.161H608.973V374.209H611.122V367.37C611.122 367.165 611.129 366.957 611.143 366.747L609.358 368.28C609.297 368.331 609.236 368.364 609.176 368.378C609.115 368.387 609.059 368.387 609.008 368.378C608.956 368.369 608.907 368.35 608.861 368.322C608.819 368.294 608.786 368.264 608.763 368.231L608.371 367.692L611.36 365.109H612.375V374.209H614.349ZM617.325 368.077C617.325 368.394 617.369 368.679 617.458 368.931C617.551 369.178 617.682 369.388 617.85 369.561C618.022 369.734 618.23 369.864 618.473 369.953C618.72 370.042 618.995 370.086 619.299 370.086C619.635 370.086 619.931 370.032 620.188 369.925C620.449 369.813 620.668 369.666 620.846 369.484C621.023 369.302 621.158 369.092 621.252 368.854C621.345 368.616 621.392 368.369 621.392 368.112C621.392 367.799 621.34 367.517 621.238 367.265C621.14 367.008 621.002 366.791 620.825 366.614C620.647 366.437 620.435 366.301 620.188 366.208C619.945 366.11 619.677 366.061 619.383 366.061C619.075 366.061 618.795 366.112 618.543 366.215C618.291 366.313 618.074 366.451 617.892 366.628C617.71 366.805 617.57 367.018 617.472 367.265C617.374 367.512 617.325 367.783 617.325 368.077ZM620.237 371.164C620.339 371.029 620.435 370.9 620.524 370.779C620.612 370.658 620.696 370.536 620.776 370.415C620.519 370.62 620.23 370.777 619.908 370.884C619.586 370.991 619.245 371.045 618.886 371.045C618.508 371.045 618.148 370.982 617.808 370.856C617.472 370.73 617.175 370.546 616.919 370.303C616.662 370.056 616.457 369.755 616.303 369.4C616.153 369.041 616.079 368.63 616.079 368.168C616.079 367.729 616.16 367.319 616.324 366.936C616.487 366.553 616.716 366.22 617.01 365.935C617.304 365.65 617.654 365.426 618.06 365.263C618.466 365.1 618.911 365.018 619.397 365.018C619.877 365.018 620.314 365.097 620.706 365.256C621.098 365.415 621.434 365.636 621.714 365.921C621.994 366.206 622.208 366.546 622.358 366.943C622.512 367.34 622.589 367.778 622.589 368.259C622.589 368.548 622.561 368.824 622.505 369.085C622.453 369.342 622.376 369.596 622.274 369.848C622.176 370.095 622.054 370.343 621.91 370.59C621.765 370.833 621.602 371.082 621.42 371.339L618.977 374.867C618.916 374.956 618.83 375.028 618.718 375.084C618.606 375.135 618.477 375.161 618.333 375.161H617.185L620.237 371.164ZM624.375 376.855C624.338 376.822 624.312 376.792 624.298 376.764C624.284 376.736 624.277 376.701 624.277 376.659C624.277 376.626 624.286 376.594 624.305 376.561C624.328 376.528 624.354 376.498 624.382 376.47C624.429 376.419 624.487 376.351 624.557 376.267C624.632 376.183 624.706 376.083 624.781 375.966C624.856 375.854 624.923 375.728 624.984 375.588C625.049 375.453 625.096 375.308 625.124 375.154C625.11 375.159 625.094 375.161 625.075 375.161C625.061 375.161 625.047 375.161 625.033 375.161C624.79 375.161 624.592 375.082 624.438 374.923C624.289 374.76 624.214 374.552 624.214 374.3C624.214 374.081 624.289 373.894 624.438 373.74C624.592 373.586 624.795 373.509 625.047 373.509C625.187 373.509 625.311 373.535 625.418 373.586C625.525 373.637 625.614 373.71 625.684 373.803C625.759 373.892 625.815 373.997 625.852 374.118C625.889 374.235 625.908 374.363 625.908 374.503C625.908 374.713 625.878 374.932 625.817 375.161C625.761 375.385 625.675 375.607 625.558 375.826C625.446 376.05 625.308 376.267 625.145 376.477C624.982 376.687 624.795 376.881 624.585 377.058L624.375 376.855ZM628.618 368.077C628.618 368.394 628.662 368.679 628.751 368.931C628.844 369.178 628.975 369.388 629.143 369.561C629.315 369.734 629.523 369.864 629.766 369.953C630.013 370.042 630.288 370.086 630.592 370.086C630.928 370.086 631.224 370.032 631.481 369.925C631.742 369.813 631.961 369.666 632.139 369.484C632.316 369.302 632.451 369.092 632.545 368.854C632.638 368.616 632.685 368.369 632.685 368.112C632.685 367.799 632.633 367.517 632.531 367.265C632.433 367.008 632.295 366.791 632.118 366.614C631.94 366.437 631.728 366.301 631.481 366.208C631.238 366.11 630.97 366.061 630.676 366.061C630.368 366.061 630.088 366.112 629.836 366.215C629.584 366.313 629.367 366.451 629.185 366.628C629.003 366.805 628.863 367.018 628.765 367.265C628.667 367.512 628.618 367.783 628.618 368.077ZM631.53 371.164C631.632 371.029 631.728 370.9 631.817 370.779C631.905 370.658 631.989 370.536 632.069 370.415C631.812 370.62 631.523 370.777 631.201 370.884C630.879 370.991 630.538 371.045 630.179 371.045C629.801 371.045 629.441 370.982 629.101 370.856C628.765 370.73 628.468 370.546 628.212 370.303C627.955 370.056 627.75 369.755 627.596 369.4C627.446 369.041 627.372 368.63 627.372 368.168C627.372 367.729 627.453 367.319 627.617 366.936C627.78 366.553 628.009 366.22 628.303 365.935C628.597 365.65 628.947 365.426 629.353 365.263C629.759 365.1 630.204 365.018 630.69 365.018C631.17 365.018 631.607 365.097 631.999 365.256C632.391 365.415 632.727 365.636 633.007 365.921C633.287 366.206 633.501 366.546 633.651 366.943C633.805 367.34 633.882 367.778 633.882 368.259C633.882 368.548 633.854 368.824 633.798 369.085C633.746 369.342 633.669 369.596 633.567 369.848C633.469 370.095 633.347 370.343 633.203 370.59C633.058 370.833 632.895 371.082 632.713 371.339L630.27 374.867C630.209 374.956 630.123 375.028 630.011 375.084C629.899 375.135 629.77 375.161 629.626 375.161H628.478L631.53 371.164ZM642.458 370.149C642.458 371.026 642.362 371.787 642.171 372.431C641.984 373.07 641.727 373.6 641.401 374.02C641.074 374.44 640.687 374.753 640.239 374.958C639.795 375.163 639.319 375.266 638.811 375.266C638.297 375.266 637.819 375.163 637.376 374.958C636.937 374.753 636.554 374.44 636.228 374.02C635.901 373.6 635.644 373.07 635.458 372.431C635.271 371.787 635.178 371.026 635.178 370.149C635.178 369.272 635.271 368.511 635.458 367.867C635.644 367.223 635.901 366.691 636.228 366.271C636.554 365.846 636.937 365.531 637.376 365.326C637.819 365.121 638.297 365.018 638.811 365.018C639.319 365.018 639.795 365.121 640.239 365.326C640.687 365.531 641.074 365.846 641.401 366.271C641.727 366.691 641.984 367.223 642.171 367.867C642.362 368.511 642.458 369.272 642.458 370.149ZM641.163 370.149C641.163 369.384 641.097 368.742 640.967 368.224C640.841 367.701 640.668 367.281 640.449 366.964C640.234 366.647 639.984 366.42 639.7 366.285C639.415 366.145 639.119 366.075 638.811 366.075C638.503 366.075 638.206 366.145 637.922 366.285C637.637 366.42 637.387 366.647 637.173 366.964C636.958 367.281 636.785 367.701 636.655 368.224C636.529 368.742 636.466 369.384 636.466 370.149C636.466 370.914 636.529 371.556 636.655 372.074C636.785 372.592 636.958 373.01 637.173 373.327C637.387 373.644 637.637 373.873 637.922 374.013C638.206 374.148 638.503 374.216 638.811 374.216C639.119 374.216 639.415 374.148 639.7 374.013C639.984 373.873 640.234 373.644 640.449 373.327C640.668 373.01 640.841 372.592 640.967 372.074C641.097 371.556 641.163 370.914 641.163 370.149ZM650.579 370.149C650.579 371.026 650.483 371.787 650.292 372.431C650.105 373.07 649.849 373.6 649.522 374.02C649.195 374.44 648.808 374.753 648.36 374.958C647.917 375.163 647.441 375.266 646.932 375.266C646.419 375.266 645.94 375.163 645.497 374.958C645.058 374.753 644.676 374.44 644.349 374.02C644.022 373.6 643.766 373.07 643.579 372.431C643.392 371.787 643.299 371.026 643.299 370.149C643.299 369.272 643.392 368.511 643.579 367.867C643.766 367.223 644.022 366.691 644.349 366.271C644.676 365.846 645.058 365.531 645.497 365.326C645.94 365.121 646.419 365.018 646.932 365.018C647.441 365.018 647.917 365.121 648.36 365.326C648.808 365.531 649.195 365.846 649.522 366.271C649.849 366.691 650.105 367.223 650.292 367.867C650.483 368.511 650.579 369.272 650.579 370.149ZM649.284 370.149C649.284 369.384 649.219 368.742 649.088 368.224C648.962 367.701 648.789 367.281 648.57 366.964C648.355 366.647 648.106 366.42 647.821 366.285C647.536 366.145 647.24 366.075 646.932 366.075C646.624 366.075 646.328 366.145 646.043 366.285C645.758 366.42 645.509 366.647 645.294 366.964C645.079 367.281 644.907 367.701 644.776 368.224C644.65 368.742 644.587 369.384 644.587 370.149C644.587 370.914 644.65 371.556 644.776 372.074C644.907 372.592 645.079 373.01 645.294 373.327C645.509 373.644 645.758 373.873 646.043 374.013C646.328 374.148 646.624 374.216 646.932 374.216C647.24 374.216 647.536 374.148 647.821 374.013C648.106 373.873 648.355 373.644 648.57 373.327C648.789 373.01 648.962 372.592 649.088 372.074C649.219 371.556 649.284 370.914 649.284 370.149Z" fill="white"/>
<path d="M558.323 207.089C558.398 207.089 558.463 207.119 558.519 207.18L559.058 207.761C558.647 208.237 558.148 208.608 557.56 208.874C556.977 209.14 556.27 209.273 555.439 209.273C554.72 209.273 554.067 209.149 553.479 208.902C552.891 208.65 552.389 208.3 551.974 207.852C551.559 207.399 551.237 206.858 551.008 206.228C550.779 205.598 550.665 204.905 550.665 204.149C550.665 203.393 550.784 202.7 551.022 202.07C551.26 201.44 551.594 200.899 552.023 200.446C552.457 199.993 552.975 199.643 553.577 199.396C554.179 199.144 554.844 199.018 555.572 199.018C556.286 199.018 556.916 199.132 557.462 199.361C558.008 199.59 558.489 199.9 558.904 200.292L558.456 200.915C558.428 200.962 558.391 201.001 558.344 201.034C558.302 201.062 558.244 201.076 558.169 201.076C558.085 201.076 557.982 201.032 557.861 200.943C557.74 200.85 557.581 200.747 557.385 200.635C557.189 200.523 556.944 200.423 556.65 200.334C556.356 200.241 555.994 200.194 555.565 200.194C555.047 200.194 554.573 200.285 554.144 200.467C553.715 200.644 553.344 200.903 553.031 201.244C552.723 201.585 552.483 202 552.31 202.49C552.137 202.98 552.051 203.533 552.051 204.149C552.051 204.774 552.14 205.332 552.317 205.822C552.499 206.312 552.744 206.727 553.052 207.068C553.365 207.404 553.731 207.661 554.151 207.838C554.576 208.015 555.033 208.104 555.523 208.104C555.822 208.104 556.09 208.088 556.328 208.055C556.571 208.018 556.792 207.962 556.993 207.887C557.198 207.812 557.387 207.719 557.56 207.607C557.737 207.49 557.912 207.353 558.085 207.194C558.164 207.124 558.244 207.089 558.323 207.089ZM564.948 204.842C564.948 204.553 564.906 204.289 564.822 204.051C564.743 203.808 564.624 203.601 564.465 203.428C564.311 203.251 564.122 203.115 563.898 203.022C563.674 202.924 563.42 202.875 563.135 202.875C562.538 202.875 562.064 203.05 561.714 203.4C561.369 203.745 561.154 204.226 561.07 204.842H564.948ZM565.956 208.167C565.802 208.354 565.618 208.517 565.403 208.657C565.188 208.792 564.957 208.904 564.71 208.993C564.467 209.082 564.215 209.147 563.954 209.189C563.693 209.236 563.434 209.259 563.177 209.259C562.687 209.259 562.234 209.177 561.819 209.014C561.408 208.846 561.051 208.603 560.748 208.286C560.449 207.964 560.216 207.567 560.048 207.096C559.88 206.625 559.796 206.083 559.796 205.472C559.796 204.977 559.871 204.515 560.02 204.086C560.174 203.657 560.393 203.286 560.678 202.973C560.963 202.656 561.31 202.408 561.721 202.231C562.132 202.049 562.594 201.958 563.107 201.958C563.532 201.958 563.924 202.03 564.283 202.175C564.647 202.315 564.96 202.52 565.221 202.791C565.487 203.057 565.695 203.388 565.844 203.785C565.993 204.177 566.068 204.625 566.068 205.129C566.068 205.325 566.047 205.456 566.005 205.521C565.963 205.586 565.884 205.619 565.767 205.619H561.028C561.042 206.067 561.103 206.457 561.21 206.788C561.322 207.119 561.476 207.397 561.672 207.621C561.868 207.84 562.101 208.006 562.372 208.118C562.643 208.225 562.946 208.279 563.282 208.279C563.595 208.279 563.863 208.244 564.087 208.174C564.316 208.099 564.512 208.02 564.675 207.936C564.838 207.852 564.974 207.775 565.081 207.705C565.193 207.63 565.289 207.593 565.368 207.593C565.471 207.593 565.55 207.633 565.606 207.712L565.956 208.167ZM568.914 202.07V209.161H567.668V202.07H568.914ZM569.18 199.844C569.18 199.965 569.155 200.08 569.103 200.187C569.057 200.29 568.991 200.383 568.907 200.467C568.828 200.546 568.732 200.609 568.62 200.656C568.513 200.703 568.399 200.726 568.277 200.726C568.156 200.726 568.042 200.703 567.934 200.656C567.832 200.609 567.741 200.546 567.661 200.467C567.582 200.383 567.519 200.29 567.472 200.187C567.426 200.08 567.402 199.965 567.402 199.844C567.402 199.723 567.426 199.608 567.472 199.501C567.519 199.389 567.582 199.293 567.661 199.214C567.741 199.13 567.832 199.065 567.934 199.018C568.042 198.971 568.156 198.948 568.277 198.948C568.399 198.948 568.513 198.971 568.62 199.018C568.732 199.065 568.828 199.13 568.907 199.214C568.991 199.293 569.057 199.389 569.103 199.501C569.155 199.608 569.18 199.723 569.18 199.844ZM572.25 198.85V209.161H571.004V198.85H572.25ZM575.586 202.07V209.161H574.34V202.07H575.586ZM575.852 199.844C575.852 199.965 575.827 200.08 575.775 200.187C575.729 200.29 575.663 200.383 575.579 200.467C575.5 200.546 575.404 200.609 575.292 200.656C575.185 200.703 575.071 200.726 574.949 200.726C574.828 200.726 574.714 200.703 574.606 200.656C574.504 200.609 574.413 200.546 574.333 200.467C574.254 200.383 574.191 200.29 574.144 200.187C574.098 200.08 574.074 199.965 574.074 199.844C574.074 199.723 574.098 199.608 574.144 199.501C574.191 199.389 574.254 199.293 574.333 199.214C574.413 199.13 574.504 199.065 574.606 199.018C574.714 198.971 574.828 198.948 574.949 198.948C575.071 198.948 575.185 198.971 575.292 199.018C575.404 199.065 575.5 199.13 575.579 199.214C575.663 199.293 575.729 199.389 575.775 199.501C575.827 199.608 575.852 199.723 575.852 199.844ZM578.809 203.099C578.963 202.926 579.127 202.77 579.299 202.63C579.472 202.49 579.654 202.371 579.845 202.273C580.041 202.17 580.247 202.093 580.461 202.042C580.681 201.986 580.916 201.958 581.168 201.958C581.556 201.958 581.896 202.023 582.19 202.154C582.489 202.28 582.736 202.462 582.932 202.7C583.133 202.933 583.285 203.216 583.387 203.547C583.49 203.878 583.541 204.245 583.541 204.646V209.161H582.288V204.646C582.288 204.109 582.165 203.694 581.917 203.4C581.675 203.101 581.304 202.952 580.804 202.952C580.436 202.952 580.09 203.041 579.768 203.218C579.451 203.395 579.157 203.636 578.886 203.939V209.161H577.633V202.07H578.382C578.56 202.07 578.669 202.156 578.711 202.329L578.809 203.099ZM587.911 205.696C588.163 205.696 588.385 205.661 588.576 205.591C588.767 205.521 588.928 205.423 589.059 205.297C589.19 205.171 589.288 205.022 589.353 204.849C589.418 204.672 589.451 204.478 589.451 204.268C589.451 203.834 589.318 203.489 589.052 203.232C588.791 202.975 588.41 202.847 587.911 202.847C587.407 202.847 587.022 202.975 586.756 203.232C586.495 203.489 586.364 203.834 586.364 204.268C586.364 204.478 586.397 204.672 586.462 204.849C586.532 205.022 586.632 205.171 586.763 205.297C586.894 205.423 587.055 205.521 587.246 205.591C587.437 205.661 587.659 205.696 587.911 205.696ZM590.158 209.546C590.158 209.373 590.109 209.233 590.011 209.126C589.913 209.019 589.78 208.935 589.612 208.874C589.449 208.813 589.257 208.771 589.038 208.748C588.819 208.72 588.585 208.699 588.338 208.685C588.095 208.671 587.848 208.657 587.596 208.643C587.344 208.629 587.101 208.606 586.868 208.573C586.607 208.694 586.392 208.848 586.224 209.035C586.061 209.217 585.979 209.432 585.979 209.679C585.979 209.838 586.019 209.985 586.098 210.12C586.182 210.26 586.308 210.379 586.476 210.477C586.644 210.58 586.854 210.659 587.106 210.715C587.363 210.776 587.664 210.806 588.009 210.806C588.345 210.806 588.646 210.776 588.912 210.715C589.178 210.654 589.402 210.568 589.584 210.456C589.771 210.344 589.913 210.211 590.011 210.057C590.109 209.903 590.158 209.733 590.158 209.546ZM591.425 202.35V202.812C591.425 202.966 591.327 203.064 591.131 203.106L590.326 203.211C590.485 203.519 590.564 203.86 590.564 204.233C590.564 204.578 590.496 204.893 590.361 205.178C590.23 205.458 590.048 205.698 589.815 205.899C589.582 206.1 589.302 206.254 588.975 206.361C588.648 206.468 588.294 206.522 587.911 206.522C587.58 206.522 587.267 206.482 586.973 206.403C586.824 206.496 586.709 206.597 586.63 206.704C586.551 206.807 586.511 206.912 586.511 207.019C586.511 207.187 586.579 207.315 586.714 207.404C586.854 207.488 587.036 207.549 587.26 207.586C587.484 207.623 587.738 207.647 588.023 207.656C588.312 207.665 588.606 207.682 588.905 207.705C589.208 207.724 589.502 207.759 589.787 207.81C590.076 207.861 590.333 207.945 590.557 208.062C590.781 208.179 590.961 208.34 591.096 208.545C591.236 208.75 591.306 209.016 591.306 209.343C591.306 209.646 591.229 209.94 591.075 210.225C590.926 210.51 590.709 210.762 590.424 210.981C590.139 211.205 589.789 211.382 589.374 211.513C588.963 211.648 588.499 211.716 587.981 211.716C587.463 211.716 587.01 211.665 586.623 211.562C586.236 211.459 585.914 211.322 585.657 211.149C585.4 210.976 585.207 210.776 585.076 210.547C584.95 210.323 584.887 210.087 584.887 209.84C584.887 209.49 584.997 209.194 585.216 208.951C585.435 208.708 585.736 208.515 586.119 208.37C585.909 208.277 585.741 208.153 585.615 207.999C585.494 207.84 585.433 207.628 585.433 207.362C585.433 207.259 585.452 207.154 585.489 207.047C585.526 206.935 585.582 206.825 585.657 206.718C585.736 206.606 585.832 206.501 585.944 206.403C586.056 206.305 586.187 206.219 586.336 206.144C585.986 205.948 585.713 205.689 585.517 205.367C585.321 205.04 585.223 204.662 585.223 204.233C585.223 203.888 585.288 203.575 585.419 203.295C585.554 203.01 585.741 202.77 585.979 202.574C586.217 202.373 586.499 202.219 586.826 202.112C587.157 202.005 587.519 201.951 587.911 201.951C588.219 201.951 588.506 201.986 588.772 202.056C589.038 202.121 589.281 202.219 589.5 202.35H591.425ZM592.602 208.391C592.602 208.27 592.623 208.155 592.665 208.048C592.711 207.941 592.772 207.847 592.847 207.768C592.926 207.689 593.019 207.626 593.127 207.579C593.234 207.532 593.348 207.509 593.47 207.509C593.591 207.509 593.705 207.532 593.813 207.579C593.92 207.626 594.013 207.689 594.093 207.768C594.172 207.847 594.235 207.941 594.282 208.048C594.328 208.155 594.352 208.27 594.352 208.391C594.352 208.517 594.328 208.634 594.282 208.741C594.235 208.844 594.172 208.935 594.093 209.014C594.013 209.093 593.92 209.154 593.813 209.196C593.705 209.243 593.591 209.266 593.47 209.266C593.348 209.266 593.234 209.243 593.127 209.196C593.019 209.154 592.926 209.093 592.847 209.014C592.772 208.935 592.711 208.844 592.665 208.741C592.623 208.634 592.602 208.517 592.602 208.391ZM592.602 203.141C592.602 203.02 592.623 202.905 592.665 202.798C592.711 202.691 592.772 202.597 592.847 202.518C592.926 202.439 593.019 202.376 593.127 202.329C593.234 202.282 593.348 202.259 593.47 202.259C593.591 202.259 593.705 202.282 593.813 202.329C593.92 202.376 594.013 202.439 594.093 202.518C594.172 202.597 594.235 202.691 594.282 202.798C594.328 202.905 594.352 203.02 594.352 203.141C594.352 203.267 594.328 203.384 594.282 203.491C594.235 203.594 594.172 203.685 594.093 203.764C594.013 203.843 593.92 203.906 593.813 203.953C593.705 203.995 593.591 204.016 593.47 204.016C593.348 204.016 593.234 203.995 593.127 203.953C593.019 203.906 592.926 203.843 592.847 203.764C592.772 203.685 592.711 203.594 592.665 203.491C592.623 203.384 592.602 203.267 592.602 203.141ZM603.1 208.202C603.408 208.174 603.678 208.109 603.912 208.006C604.145 207.899 604.341 207.763 604.5 207.6C604.663 207.437 604.784 207.248 604.864 207.033C604.948 206.814 604.99 206.573 604.99 206.312C604.99 206.079 604.945 205.878 604.857 205.71C604.773 205.542 604.656 205.397 604.507 205.276C604.357 205.15 604.182 205.045 603.982 204.961C603.781 204.872 603.566 204.791 603.338 204.716L603.1 208.202ZM602.869 200.11C602.565 200.138 602.302 200.199 602.078 200.292C601.858 200.385 601.676 200.502 601.532 200.642C601.387 200.782 601.28 200.941 601.21 201.118C601.14 201.291 601.105 201.473 601.105 201.664C601.105 201.888 601.144 202.084 601.224 202.252C601.303 202.415 601.413 202.56 601.553 202.686C601.693 202.812 601.856 202.922 602.043 203.015C602.229 203.108 602.432 203.192 602.652 203.267L602.869 200.11ZM603.422 203.512C603.758 203.619 604.089 203.734 604.416 203.855C604.742 203.976 605.036 204.133 605.298 204.324C605.559 204.515 605.769 204.756 605.928 205.045C606.091 205.33 606.173 205.687 606.173 206.116C606.173 206.536 606.103 206.93 605.963 207.299C605.823 207.668 605.617 207.992 605.347 208.272C605.081 208.552 604.752 208.781 604.36 208.958C603.972 209.131 603.529 209.233 603.03 209.266L602.946 210.491C602.941 210.58 602.906 210.657 602.841 210.722C602.775 210.792 602.694 210.827 602.596 210.827H602.134L602.239 209.252C601.674 209.196 601.158 209.056 600.692 208.832C600.23 208.603 599.831 208.314 599.495 207.964L599.873 207.39C599.91 207.339 599.957 207.297 600.013 207.264C600.069 207.231 600.129 207.215 600.195 207.215C600.283 207.215 600.384 207.259 600.496 207.348C600.608 207.437 600.745 207.537 600.909 207.649C601.077 207.761 601.273 207.871 601.497 207.978C601.725 208.085 601.998 208.158 602.316 208.195L602.568 204.478C602.241 204.38 601.919 204.27 601.602 204.149C601.289 204.028 601.007 203.867 600.755 203.666C600.507 203.465 600.307 203.216 600.153 202.917C600.003 202.618 599.929 202.243 599.929 201.79C599.929 201.449 599.994 201.118 600.125 200.796C600.26 200.469 600.456 200.18 600.713 199.928C600.969 199.676 601.284 199.471 601.658 199.312C602.031 199.149 602.458 199.058 602.939 199.039L603.009 198.031C603.013 197.942 603.046 197.863 603.107 197.793C603.172 197.723 603.256 197.688 603.359 197.688H603.821L603.73 199.067C604.215 199.128 604.635 199.254 604.99 199.445C605.349 199.636 605.666 199.87 605.942 200.145L605.641 200.607C605.547 200.747 605.44 200.817 605.319 200.817C605.253 200.817 605.172 200.789 605.074 200.733C604.98 200.672 604.866 200.602 604.731 200.523C604.6 200.444 604.444 200.367 604.262 200.292C604.084 200.217 603.881 200.161 603.653 200.124L603.422 203.512ZM613.839 207.978C613.974 207.978 614.081 208.018 614.161 208.097C614.24 208.176 614.28 208.279 614.28 208.405V209.161H607.588V208.734C607.588 208.645 607.606 208.554 607.644 208.461C607.681 208.368 607.739 208.281 607.819 208.202L611.032 204.975C611.298 204.704 611.54 204.445 611.76 204.198C611.979 203.946 612.166 203.694 612.32 203.442C612.474 203.19 612.593 202.936 612.677 202.679C612.761 202.418 612.803 202.14 612.803 201.846C612.803 201.552 612.756 201.295 612.663 201.076C612.569 200.852 612.441 200.668 612.278 200.523C612.119 200.378 611.93 200.271 611.711 200.201C611.491 200.126 611.256 200.089 611.004 200.089C610.747 200.089 610.511 200.126 610.297 200.201C610.082 200.276 609.891 200.381 609.723 200.516C609.559 200.647 609.422 200.803 609.31 200.985C609.198 201.167 609.118 201.368 609.072 201.587C609.016 201.75 608.939 201.86 608.841 201.916C608.747 201.967 608.614 201.981 608.442 201.958L607.791 201.846C607.856 201.389 607.982 200.985 608.169 200.635C608.36 200.28 608.598 199.984 608.883 199.746C609.172 199.508 609.501 199.328 609.87 199.207C610.238 199.081 610.637 199.018 611.067 199.018C611.491 199.018 611.888 199.081 612.257 199.207C612.625 199.333 612.945 199.517 613.216 199.76C613.486 199.998 613.699 200.29 613.853 200.635C614.007 200.98 614.084 201.372 614.084 201.811C614.084 202.184 614.028 202.532 613.916 202.854C613.804 203.171 613.652 203.475 613.461 203.764C613.269 204.053 613.048 204.336 612.796 204.611C612.548 204.886 612.285 205.164 612.005 205.444L609.359 208.146C609.545 208.095 609.734 208.055 609.926 208.027C610.117 207.994 610.301 207.978 610.479 207.978H613.839ZM622.751 204.149C622.751 205.026 622.655 205.787 622.464 206.431C622.277 207.07 622.02 207.6 621.694 208.02C621.367 208.44 620.98 208.753 620.532 208.958C620.088 209.163 619.612 209.266 619.104 209.266C618.59 209.266 618.112 209.163 617.669 208.958C617.23 208.753 616.847 208.44 616.521 208.02C616.194 207.6 615.937 207.07 615.751 206.431C615.564 205.787 615.471 205.026 615.471 204.149C615.471 203.272 615.564 202.511 615.751 201.867C615.937 201.223 616.194 200.691 616.521 200.271C616.847 199.846 617.23 199.531 617.669 199.326C618.112 199.121 618.59 199.018 619.104 199.018C619.612 199.018 620.088 199.121 620.532 199.326C620.98 199.531 621.367 199.846 621.694 200.271C622.02 200.691 622.277 201.223 622.464 201.867C622.655 202.511 622.751 203.272 622.751 204.149ZM621.456 204.149C621.456 203.384 621.39 202.742 621.26 202.224C621.134 201.701 620.961 201.281 620.742 200.964C620.527 200.647 620.277 200.42 619.993 200.285C619.708 200.145 619.412 200.075 619.104 200.075C618.796 200.075 618.499 200.145 618.215 200.285C617.93 200.42 617.68 200.647 617.466 200.964C617.251 201.281 617.078 201.701 616.948 202.224C616.822 202.742 616.759 203.384 616.759 204.149C616.759 204.914 616.822 205.556 616.948 206.074C617.078 206.592 617.251 207.01 617.466 207.327C617.68 207.644 617.93 207.873 618.215 208.013C618.499 208.148 618.796 208.216 619.104 208.216C619.412 208.216 619.708 208.148 619.993 208.013C620.277 207.873 620.527 207.644 620.742 207.327C620.961 207.01 621.134 206.592 621.26 206.074C621.39 205.556 621.456 204.914 621.456 204.149ZM624.082 210.855C624.045 210.822 624.019 210.792 624.005 210.764C623.991 210.736 623.984 210.701 623.984 210.659C623.984 210.626 623.993 210.594 624.012 210.561C624.035 210.528 624.061 210.498 624.089 210.47C624.136 210.419 624.194 210.351 624.264 210.267C624.339 210.183 624.413 210.083 624.488 209.966C624.563 209.854 624.63 209.728 624.691 209.588C624.756 209.453 624.803 209.308 624.831 209.154C624.817 209.159 624.801 209.161 624.782 209.161C624.768 209.161 624.754 209.161 624.74 209.161C624.497 209.161 624.299 209.082 624.145 208.923C623.996 208.76 623.921 208.552 623.921 208.3C623.921 208.081 623.996 207.894 624.145 207.74C624.299 207.586 624.502 207.509 624.754 207.509C624.894 207.509 625.018 207.535 625.125 207.586C625.232 207.637 625.321 207.71 625.391 207.803C625.466 207.892 625.522 207.997 625.559 208.118C625.596 208.235 625.615 208.363 625.615 208.503C625.615 208.713 625.585 208.932 625.524 209.161C625.468 209.385 625.382 209.607 625.265 209.826C625.153 210.05 625.015 210.267 624.852 210.477C624.689 210.687 624.502 210.881 624.292 211.058L624.082 210.855ZM631.454 205.542V201.405C631.454 201.284 631.458 201.151 631.468 201.006C631.477 200.861 631.491 200.714 631.51 200.565L627.856 205.542H631.454ZM634.065 205.542V206.256C634.065 206.331 634.041 206.394 633.995 206.445C633.953 206.496 633.885 206.522 633.792 206.522H632.546V209.161H631.454V206.522H627.002C626.908 206.522 626.827 206.496 626.757 206.445C626.691 206.389 626.649 206.321 626.631 206.242L626.505 205.605L631.384 199.13H632.546V205.542H634.065ZM642.165 204.149C642.165 205.026 642.069 205.787 641.878 206.431C641.691 207.07 641.435 207.6 641.108 208.02C640.781 208.44 640.394 208.753 639.946 208.958C639.503 209.163 639.027 209.266 638.518 209.266C638.005 209.266 637.526 209.163 637.083 208.958C636.644 208.753 636.262 208.44 635.935 208.02C635.608 207.6 635.352 207.07 635.165 206.431C634.978 205.787 634.885 205.026 634.885 204.149C634.885 203.272 634.978 202.511 635.165 201.867C635.352 201.223 635.608 200.691 635.935 200.271C636.262 199.846 636.644 199.531 637.083 199.326C637.526 199.121 638.005 199.018 638.518 199.018C639.027 199.018 639.503 199.121 639.946 199.326C640.394 199.531 640.781 199.846 641.108 200.271C641.435 200.691 641.691 201.223 641.878 201.867C642.069 202.511 642.165 203.272 642.165 204.149ZM640.87 204.149C640.87 203.384 640.805 202.742 640.674 202.224C640.548 201.701 640.375 201.281 640.156 200.964C639.941 200.647 639.692 200.42 639.407 200.285C639.122 200.145 638.826 200.075 638.518 200.075C638.21 200.075 637.914 200.145 637.629 200.285C637.344 200.42 637.095 200.647 636.88 200.964C636.665 201.281 636.493 201.701 636.362 202.224C636.236 202.742 636.173 203.384 636.173 204.149C636.173 204.914 636.236 205.556 636.362 206.074C636.493 206.592 636.665 207.01 636.88 207.327C637.095 207.644 637.344 207.873 637.629 208.013C637.914 208.148 638.21 208.216 638.518 208.216C638.826 208.216 639.122 208.148 639.407 208.013C639.692 207.873 639.941 207.644 640.156 207.327C640.375 207.01 640.548 206.592 640.674 206.074C640.805 205.556 640.87 204.914 640.87 204.149ZM650.286 204.149C650.286 205.026 650.19 205.787 649.999 206.431C649.812 207.07 649.556 207.6 649.229 208.02C648.902 208.44 648.515 208.753 648.067 208.958C647.624 209.163 647.148 209.266 646.639 209.266C646.126 209.266 645.647 209.163 645.204 208.958C644.765 208.753 644.383 208.44 644.056 208.02C643.729 207.6 643.473 207.07 643.286 206.431C643.099 205.787 643.006 205.026 643.006 204.149C643.006 203.272 643.099 202.511 643.286 201.867C643.473 201.223 643.729 200.691 644.056 200.271C644.383 199.846 644.765 199.531 645.204 199.326C645.647 199.121 646.126 199.018 646.639 199.018C647.148 199.018 647.624 199.121 648.067 199.326C648.515 199.531 648.902 199.846 649.229 200.271C649.556 200.691 649.812 201.223 649.999 201.867C650.19 202.511 650.286 203.272 650.286 204.149ZM648.991 204.149C648.991 203.384 648.926 202.742 648.795 202.224C648.669 201.701 648.496 201.281 648.277 200.964C648.062 200.647 647.813 200.42 647.528 200.285C647.243 200.145 646.947 200.075 646.639 200.075C646.331 200.075 646.035 200.145 645.75 200.285C645.465 200.42 645.216 200.647 645.001 200.964C644.786 201.281 644.614 201.701 644.483 202.224C644.357 202.742 644.294 203.384 644.294 204.149C644.294 204.914 644.357 205.556 644.483 206.074C644.614 206.592 644.786 207.01 645.001 207.327C645.216 207.644 645.465 207.873 645.75 208.013C646.035 208.148 646.331 208.216 646.639 208.216C646.947 208.216 647.243 208.148 647.528 208.013C647.813 207.873 648.062 207.644 648.277 207.327C648.496 207.01 648.669 206.592 648.795 206.074C648.926 205.556 648.991 204.914 648.991 204.149Z" fill="white"/>
<line x1="244.5" y1="321.161" x2="244.5" y2="265.161" stroke="#F33233"/>
</svg>
