<svg width="662" height="571" viewBox="0 0 662 571" fill="none" xmlns="http://www.w3.org/2000/svg">
<line x1="661" y1="380.412" y2="380.412" stroke="white" stroke-opacity="0.2" stroke-width="0.5"/>
<line x1="661" y1="190.412" y2="190.412" stroke="white" stroke-opacity="0.2" stroke-width="0.5"/>
<line x1="661" y1="285.411" y2="285.411" stroke="white" stroke-opacity="0.2" stroke-width="0.5"/>
<line x1="661" y1="475.41" y2="475.41" stroke="white" stroke-opacity="0.2" stroke-width="0.5"/>
<line x1="661" y1="95.4106" y2="95.4106" stroke="white" stroke-opacity="0.2" stroke-width="0.5"/>
<line x1="84.2227" y1="570.161" x2="84.2227" y2="0.161377" stroke="white" stroke-opacity="0.2" stroke-width="0.5"/>
<line x1="166.584" y1="570.161" x2="166.584" y2="0.161377" stroke="white" stroke-opacity="0.2" stroke-width="0.5"/>
<line x1="248.945" y1="570.161" x2="248.945" y2="0.161377" stroke="white" stroke-opacity="0.2" stroke-width="0.5"/>
<line x1="331.306" y1="570.161" x2="331.306" y2="0.161377" stroke="white" stroke-opacity="0.2" stroke-width="0.5"/>
<line x1="413.667" y1="570.161" x2="413.667" y2="0.161377" stroke="white" stroke-opacity="0.2" stroke-width="0.5"/>
<line x1="496.028" y1="570.161" x2="496.028" y2="0.161377" stroke="white" stroke-opacity="0.2" stroke-width="0.5"/>
<line x1="578.389" y1="570.161" x2="578.389" y2="0.161377" stroke="white" stroke-opacity="0.2" stroke-width="0.5"/>
<line y1="312.661" x2="661" y2="312.661" stroke="white"/>
<line x1="295" y1="264.661" x2="661" y2="264.661" stroke="#59CE77"/>
<path d="M0 351.161H661" stroke="white" stroke-width="0.5" stroke-dasharray="5 5"/>
<path d="M0 185.161H661" stroke="white" stroke-width="0.5" stroke-dasharray="5 5"/>
<rect x="214" y="221.161" width="17" height="56" fill="#F33233"/>
<line x1="222.5" y1="304.161" x2="222.5" y2="205.161" stroke="#F33233"/>
<rect x="236" y="277.161" width="16.3539" height="35.9458" fill="#F33233"/>
<rect x="38" y="256.161" width="17" height="40" fill="#59CE77"/>
<line x1="46.6611" y1="315.161" x2="46.6611" y2="246.161" stroke="#59CE77"/>
<rect x="60" y="206.187" width="17" height="50.0545" fill="#59CE77"/>
<line x1="68.5" y1="267.161" x2="68.5" y2="181.16" stroke="#59CE77"/>
<rect x="82" y="179.161" width="17" height="27" fill="#59CE77"/>
<line x1="90.54" y1="264.313" x2="90.54" y2="173.161" stroke="#59CE77"/>
<rect x="-5" y="308.161" width="17" height="61" fill="#F33233"/>
<line x1="4.5" y1="308.161" x2="4.5" y2="296.161" stroke="#F33233"/>
<line x1="4.5" y1="375.161" x2="4.5" y2="369.161" stroke="#F33233"/>
<rect x="104" y="179.161" width="17" height="55" fill="#F33233"/>
<line x1="112.5" y1="253.161" x2="112.5" y2="167.161" stroke="#F33233"/>
<rect x="126" y="234.161" width="17" height="56" fill="#F33233"/>
<line x1="134.5" y1="298.377" x2="134.5" y2="202.161" stroke="#F33233"/>
<rect x="148" y="290.161" width="17" height="33" fill="#F33233"/>
<line x1="156.5" y1="338.161" x2="156.5" y2="262.161" stroke="#F33233"/>
<rect x="170" y="262.161" width="17" height="61" fill="#59CE77"/>
<line x1="178.5" y1="286.874" x2="178.5" y2="209.16" stroke="#59CE77"/>
<rect x="192" y="221.161" width="17" height="41" fill="#59CE77"/>
<line x1="200.5" y1="269.589" x2="200.5" y2="196.161" stroke="#59CE77"/>
<rect x="17" y="296.16" width="17" height="73" fill="#59CE77"/>
<line x1="25.5" y1="374.16" x2="25.5" y2="288.16" stroke="#59CE77"/>
<rect x="257.5" y="293.661" width="16" height="19" fill="#59CE77" stroke="#59CE77"/>
<line x1="265.5" y1="323.161" x2="265.5" y2="312.161" stroke="#59CE77"/>
<line x1="265.5" y1="294.161" x2="265.5" y2="277.161" stroke="#59CE77"/>
<rect x="279.5" y="264.661" width="16" height="28" fill="#59CE77" stroke="#59CE77"/>
<line x1="287.5" y1="303.161" x2="287.5" y2="292.161" stroke="#59CE77"/>
<line x1="287.5" y1="265.161" x2="287.5" y2="254.161" stroke="#59CE77"/>
<line x1="661.25" y1="0.160889" x2="661.25" y2="570.161" stroke="white" stroke-width="0.5"/>
<path d="M520.469 331.149C520.469 331.9 520.35 332.591 520.112 333.221C519.874 333.846 519.538 334.385 519.104 334.838C518.67 335.291 518.147 335.643 517.536 335.895C516.929 336.142 516.257 336.266 515.52 336.266C514.783 336.266 514.111 336.142 513.504 335.895C512.897 335.643 512.377 335.291 511.943 334.838C511.509 334.385 511.173 333.846 510.935 333.221C510.697 332.591 510.578 331.9 510.578 331.149C510.578 330.398 510.697 329.709 510.935 329.084C511.173 328.454 511.509 327.913 511.943 327.46C512.377 327.003 512.897 326.648 513.504 326.396C514.111 326.144 514.783 326.018 515.52 326.018C516.257 326.018 516.929 326.144 517.536 326.396C518.147 326.648 518.67 327.003 519.104 327.46C519.538 327.913 519.874 328.454 520.112 329.084C520.35 329.709 520.469 330.398 520.469 331.149ZM519.076 331.149C519.076 330.533 518.992 329.98 518.824 329.49C518.656 329 518.418 328.587 518.11 328.251C517.802 327.91 517.429 327.649 516.99 327.467C516.551 327.285 516.061 327.194 515.52 327.194C514.983 327.194 514.496 327.285 514.057 327.467C513.618 327.649 513.243 327.91 512.93 328.251C512.622 328.587 512.384 329 512.216 329.49C512.048 329.98 511.964 330.533 511.964 331.149C511.964 331.765 512.048 332.318 512.216 332.808C512.384 333.293 512.622 333.706 512.93 334.047C513.243 334.383 513.618 334.642 514.057 334.824C514.496 335.001 514.983 335.09 515.52 335.09C516.061 335.09 516.551 335.001 516.99 334.824C517.429 334.642 517.802 334.383 518.11 334.047C518.418 333.706 518.656 333.293 518.824 332.808C518.992 332.318 519.076 331.765 519.076 331.149ZM523.164 330.491C523.388 330.006 523.663 329.628 523.99 329.357C524.317 329.082 524.716 328.944 525.187 328.944C525.336 328.944 525.479 328.96 525.614 328.993C525.754 329.026 525.878 329.077 525.985 329.147L525.894 330.078C525.866 330.195 525.796 330.253 525.684 330.253C525.619 330.253 525.523 330.239 525.397 330.211C525.271 330.183 525.129 330.169 524.97 330.169C524.746 330.169 524.545 330.202 524.368 330.267C524.195 330.332 524.039 330.43 523.899 330.561C523.764 330.687 523.64 330.846 523.528 331.037C523.421 331.224 523.323 331.438 523.234 331.681V336.161H521.981V329.07H522.695C522.83 329.07 522.924 329.096 522.975 329.147C523.026 329.198 523.061 329.287 523.08 329.413L523.164 330.491ZM528.397 329.07V336.161H527.151V329.07H528.397ZM528.663 326.844C528.663 326.965 528.637 327.08 528.586 327.187C528.539 327.29 528.474 327.383 528.39 327.467C528.31 327.546 528.215 327.609 528.103 327.656C527.995 327.703 527.881 327.726 527.76 327.726C527.638 327.726 527.524 327.703 527.417 327.656C527.314 327.609 527.223 327.546 527.144 327.467C527.064 327.383 527.001 327.29 526.955 327.187C526.908 327.08 526.885 326.965 526.885 326.844C526.885 326.723 526.908 326.608 526.955 326.501C527.001 326.389 527.064 326.293 527.144 326.214C527.223 326.13 527.314 326.065 527.417 326.018C527.524 325.971 527.638 325.948 527.76 325.948C527.881 325.948 527.995 325.971 528.103 326.018C528.215 326.065 528.31 326.13 528.39 326.214C528.474 326.293 528.539 326.389 528.586 326.501C528.637 326.608 528.663 326.723 528.663 326.844ZM532.915 332.696C533.167 332.696 533.389 332.661 533.58 332.591C533.771 332.521 533.932 332.423 534.063 332.297C534.194 332.171 534.292 332.022 534.357 331.849C534.422 331.672 534.455 331.478 534.455 331.268C534.455 330.834 534.322 330.489 534.056 330.232C533.795 329.975 533.414 329.847 532.915 329.847C532.411 329.847 532.026 329.975 531.76 330.232C531.499 330.489 531.368 330.834 531.368 331.268C531.368 331.478 531.401 331.672 531.466 331.849C531.536 332.022 531.636 332.171 531.767 332.297C531.898 332.423 532.059 332.521 532.25 332.591C532.441 332.661 532.663 332.696 532.915 332.696ZM535.162 336.546C535.162 336.373 535.113 336.233 535.015 336.126C534.917 336.019 534.784 335.935 534.616 335.874C534.453 335.813 534.261 335.771 534.042 335.748C533.823 335.72 533.589 335.699 533.342 335.685C533.099 335.671 532.852 335.657 532.6 335.643C532.348 335.629 532.105 335.606 531.872 335.573C531.611 335.694 531.396 335.848 531.228 336.035C531.065 336.217 530.983 336.432 530.983 336.679C530.983 336.838 531.023 336.985 531.102 337.12C531.186 337.26 531.312 337.379 531.48 337.477C531.648 337.58 531.858 337.659 532.11 337.715C532.367 337.776 532.668 337.806 533.013 337.806C533.349 337.806 533.65 337.776 533.916 337.715C534.182 337.654 534.406 337.568 534.588 337.456C534.775 337.344 534.917 337.211 535.015 337.057C535.113 336.903 535.162 336.733 535.162 336.546ZM536.429 329.35V329.812C536.429 329.966 536.331 330.064 536.135 330.106L535.33 330.211C535.489 330.519 535.568 330.86 535.568 331.233C535.568 331.578 535.5 331.893 535.365 332.178C535.234 332.458 535.052 332.698 534.819 332.899C534.586 333.1 534.306 333.254 533.979 333.361C533.652 333.468 533.298 333.522 532.915 333.522C532.584 333.522 532.271 333.482 531.977 333.403C531.828 333.496 531.713 333.597 531.634 333.704C531.555 333.807 531.515 333.912 531.515 334.019C531.515 334.187 531.583 334.315 531.718 334.404C531.858 334.488 532.04 334.549 532.264 334.586C532.488 334.623 532.742 334.647 533.027 334.656C533.316 334.665 533.61 334.682 533.909 334.705C534.212 334.724 534.506 334.759 534.791 334.81C535.08 334.861 535.337 334.945 535.561 335.062C535.785 335.179 535.965 335.34 536.1 335.545C536.24 335.75 536.31 336.016 536.31 336.343C536.31 336.646 536.233 336.94 536.079 337.225C535.93 337.51 535.713 337.762 535.428 337.981C535.143 338.205 534.793 338.382 534.378 338.513C533.967 338.648 533.503 338.716 532.985 338.716C532.467 338.716 532.014 338.665 531.627 338.562C531.24 338.459 530.918 338.322 530.661 338.149C530.404 337.976 530.211 337.776 530.08 337.547C529.954 337.323 529.891 337.087 529.891 336.84C529.891 336.49 530.001 336.194 530.22 335.951C530.439 335.708 530.74 335.515 531.123 335.37C530.913 335.277 530.745 335.153 530.619 334.999C530.498 334.84 530.437 334.628 530.437 334.362C530.437 334.259 530.456 334.154 530.493 334.047C530.53 333.935 530.586 333.825 530.661 333.718C530.74 333.606 530.836 333.501 530.948 333.403C531.06 333.305 531.191 333.219 531.34 333.144C530.99 332.948 530.717 332.689 530.521 332.367C530.325 332.04 530.227 331.662 530.227 331.233C530.227 330.888 530.292 330.575 530.423 330.295C530.558 330.01 530.745 329.77 530.983 329.574C531.221 329.373 531.503 329.219 531.83 329.112C532.161 329.005 532.523 328.951 532.915 328.951C533.223 328.951 533.51 328.986 533.776 329.056C534.042 329.121 534.285 329.219 534.504 329.35H536.429ZM539.033 329.07V336.161H537.787V329.07H539.033ZM539.299 326.844C539.299 326.965 539.274 327.08 539.222 327.187C539.176 327.29 539.11 327.383 539.026 327.467C538.947 327.546 538.851 327.609 538.739 327.656C538.632 327.703 538.518 327.726 538.396 327.726C538.275 327.726 538.161 327.703 538.053 327.656C537.951 327.609 537.86 327.546 537.78 327.467C537.701 327.383 537.638 327.29 537.591 327.187C537.545 327.08 537.521 326.965 537.521 326.844C537.521 326.723 537.545 326.608 537.591 326.501C537.638 326.389 537.701 326.293 537.78 326.214C537.86 326.13 537.951 326.065 538.053 326.018C538.161 325.971 538.275 325.948 538.396 325.948C538.518 325.948 538.632 325.971 538.739 326.018C538.851 326.065 538.947 326.13 539.026 326.214C539.11 326.293 539.176 326.389 539.222 326.501C539.274 326.608 539.299 326.723 539.299 326.844ZM542.257 330.099C542.411 329.926 542.574 329.77 542.747 329.63C542.919 329.49 543.101 329.371 543.293 329.273C543.489 329.17 543.694 329.093 543.909 329.042C544.128 328.986 544.364 328.958 544.616 328.958C545.003 328.958 545.344 329.023 545.638 329.154C545.936 329.28 546.184 329.462 546.38 329.7C546.58 329.933 546.732 330.216 546.835 330.547C546.937 330.878 546.989 331.245 546.989 331.646V336.161H545.736V331.646C545.736 331.109 545.612 330.694 545.365 330.4C545.122 330.101 544.751 329.952 544.252 329.952C543.883 329.952 543.538 330.041 543.216 330.218C542.898 330.395 542.604 330.636 542.334 330.939V336.161H541.081V329.07H541.83C542.007 329.07 542.117 329.156 542.159 329.329L542.257 330.099ZM552.73 332.969C552.156 332.988 551.666 333.034 551.26 333.109C550.859 333.179 550.53 333.272 550.273 333.389C550.021 333.506 549.837 333.643 549.72 333.802C549.608 333.961 549.552 334.138 549.552 334.334C549.552 334.521 549.583 334.682 549.643 334.817C549.704 334.952 549.786 335.064 549.888 335.153C549.996 335.237 550.119 335.3 550.259 335.342C550.404 335.379 550.558 335.398 550.721 335.398C550.941 335.398 551.141 335.377 551.323 335.335C551.505 335.288 551.676 335.223 551.834 335.139C551.998 335.055 552.152 334.955 552.296 334.838C552.446 334.721 552.59 334.588 552.73 334.439V332.969ZM548.705 330.071C549.097 329.693 549.52 329.411 549.972 329.224C550.425 329.037 550.927 328.944 551.477 328.944C551.874 328.944 552.226 329.009 552.534 329.14C552.842 329.271 553.101 329.453 553.311 329.686C553.521 329.919 553.68 330.202 553.787 330.533C553.895 330.864 553.948 331.228 553.948 331.625V336.161H553.395C553.274 336.161 553.181 336.142 553.115 336.105C553.05 336.063 552.999 335.984 552.961 335.867L552.821 335.195C552.635 335.368 552.453 335.522 552.275 335.657C552.098 335.788 551.911 335.9 551.715 335.993C551.519 336.082 551.309 336.149 551.085 336.196C550.866 336.247 550.621 336.273 550.35 336.273C550.075 336.273 549.816 336.236 549.573 336.161C549.331 336.082 549.118 335.965 548.936 335.811C548.759 335.657 548.617 335.463 548.509 335.23C548.407 334.992 548.355 334.712 548.355 334.39C548.355 334.11 548.432 333.842 548.586 333.585C548.74 333.324 548.99 333.093 549.335 332.892C549.681 332.691 550.131 332.528 550.686 332.402C551.242 332.271 551.923 332.197 552.73 332.178V331.625C552.73 331.074 552.611 330.659 552.373 330.379C552.135 330.094 551.788 329.952 551.33 329.952C551.022 329.952 550.763 329.992 550.553 330.071C550.348 330.146 550.168 330.232 550.014 330.33C549.865 330.423 549.734 330.51 549.622 330.589C549.515 330.664 549.408 330.701 549.3 330.701C549.216 330.701 549.144 330.68 549.083 330.638C549.023 330.591 548.971 330.535 548.929 330.47L548.705 330.071ZM557.134 325.85V336.161H555.888V325.85H557.134ZM563.99 334.453C564.219 334.761 564.468 334.978 564.739 335.104C565.01 335.23 565.313 335.293 565.649 335.293C566.312 335.293 566.82 335.057 567.175 334.586C567.53 334.115 567.707 333.443 567.707 332.57C567.707 332.108 567.665 331.711 567.581 331.38C567.502 331.049 567.385 330.778 567.231 330.568C567.077 330.353 566.888 330.197 566.664 330.099C566.44 330.001 566.186 329.952 565.901 329.952C565.495 329.952 565.138 330.045 564.83 330.232C564.527 330.419 564.247 330.682 563.99 331.023V334.453ZM563.927 330.169C564.226 329.8 564.571 329.504 564.963 329.28C565.355 329.056 565.803 328.944 566.307 328.944C566.718 328.944 567.089 329.023 567.42 329.182C567.751 329.336 568.034 329.567 568.267 329.875C568.5 330.178 568.68 330.556 568.806 331.009C568.932 331.462 568.995 331.982 568.995 332.57C568.995 333.093 568.925 333.58 568.785 334.033C568.645 334.481 568.442 334.871 568.176 335.202C567.915 335.529 567.593 335.788 567.21 335.979C566.832 336.166 566.405 336.259 565.929 336.259C565.495 336.259 565.122 336.187 564.809 336.042C564.501 335.893 564.228 335.687 563.99 335.426V338.562H562.737V329.07H563.486C563.663 329.07 563.773 329.156 563.815 329.329L563.927 330.169ZM571.768 330.491C571.992 330.006 572.267 329.628 572.594 329.357C572.92 329.082 573.319 328.944 573.791 328.944C573.94 328.944 574.082 328.96 574.218 328.993C574.358 329.026 574.481 329.077 574.589 329.147L574.498 330.078C574.47 330.195 574.4 330.253 574.288 330.253C574.222 330.253 574.127 330.239 574.001 330.211C573.875 330.183 573.732 330.169 573.574 330.169C573.35 330.169 573.149 330.202 572.972 330.267C572.799 330.332 572.643 330.43 572.503 330.561C572.367 330.687 572.244 330.846 572.132 331.037C572.024 331.224 571.926 331.438 571.838 331.681V336.161H570.585V329.07H571.299C571.434 329.07 571.527 329.096 571.579 329.147C571.63 329.198 571.665 329.287 571.684 329.413L571.768 330.491ZM577 329.07V336.161H575.754V329.07H577ZM577.266 326.844C577.266 326.965 577.241 327.08 577.189 327.187C577.143 327.29 577.077 327.383 576.993 327.467C576.914 327.546 576.818 327.609 576.706 327.656C576.599 327.703 576.485 327.726 576.363 327.726C576.242 327.726 576.128 327.703 576.02 327.656C575.918 327.609 575.827 327.546 575.747 327.467C575.668 327.383 575.605 327.29 575.558 327.187C575.512 327.08 575.488 326.965 575.488 326.844C575.488 326.723 575.512 326.608 575.558 326.501C575.605 326.389 575.668 326.293 575.747 326.214C575.827 326.13 575.918 326.065 576.02 326.018C576.128 325.971 576.242 325.948 576.363 325.948C576.485 325.948 576.599 325.971 576.706 326.018C576.818 326.065 576.914 326.13 576.993 326.214C577.077 326.293 577.143 326.389 577.189 326.501C577.241 326.608 577.266 326.723 577.266 326.844ZM583.983 330.33C583.945 330.381 583.908 330.421 583.871 330.449C583.833 330.477 583.782 330.491 583.717 330.491C583.647 330.491 583.57 330.463 583.486 330.407C583.402 330.346 583.297 330.281 583.171 330.211C583.049 330.141 582.898 330.078 582.716 330.022C582.538 329.961 582.319 329.931 582.058 329.931C581.708 329.931 581.4 329.994 581.134 330.12C580.868 330.241 580.644 330.419 580.462 330.652C580.284 330.885 580.149 331.168 580.056 331.499C579.967 331.83 579.923 332.201 579.923 332.612C579.923 333.041 579.972 333.424 580.07 333.76C580.168 334.091 580.305 334.371 580.483 334.6C580.665 334.824 580.882 334.997 581.134 335.118C581.39 335.235 581.677 335.293 581.995 335.293C582.298 335.293 582.548 335.258 582.744 335.188C582.94 335.113 583.101 335.032 583.227 334.943C583.357 334.854 583.465 334.775 583.549 334.705C583.637 334.63 583.724 334.593 583.808 334.593C583.91 334.593 583.99 334.633 584.046 334.712L584.396 335.167C584.242 335.358 584.067 335.522 583.871 335.657C583.675 335.792 583.462 335.907 583.234 336C583.01 336.089 582.774 336.154 582.527 336.196C582.279 336.238 582.027 336.259 581.771 336.259C581.327 336.259 580.914 336.177 580.532 336.014C580.154 335.851 579.825 335.615 579.545 335.307C579.265 334.994 579.045 334.612 578.887 334.159C578.728 333.706 578.649 333.191 578.649 332.612C578.649 332.085 578.721 331.597 578.866 331.149C579.015 330.701 579.23 330.316 579.51 329.994C579.794 329.667 580.142 329.413 580.553 329.231C580.968 329.049 581.444 328.958 581.981 328.958C582.48 328.958 582.919 329.04 583.297 329.203C583.679 329.362 584.018 329.588 584.312 329.882L583.983 330.33ZM590.356 331.842C590.356 331.553 590.314 331.289 590.23 331.051C590.151 330.808 590.032 330.601 589.873 330.428C589.719 330.251 589.53 330.115 589.306 330.022C589.082 329.924 588.828 329.875 588.543 329.875C587.946 329.875 587.472 330.05 587.122 330.4C586.777 330.745 586.562 331.226 586.478 331.842H590.356ZM591.364 335.167C591.21 335.354 591.026 335.517 590.811 335.657C590.596 335.792 590.365 335.904 590.118 335.993C589.875 336.082 589.623 336.147 589.362 336.189C589.101 336.236 588.842 336.259 588.585 336.259C588.095 336.259 587.642 336.177 587.227 336.014C586.816 335.846 586.459 335.603 586.156 335.286C585.857 334.964 585.624 334.567 585.456 334.096C585.288 333.625 585.204 333.083 585.204 332.472C585.204 331.977 585.279 331.515 585.428 331.086C585.582 330.657 585.801 330.286 586.086 329.973C586.371 329.656 586.718 329.408 587.129 329.231C587.54 329.049 588.002 328.958 588.515 328.958C588.94 328.958 589.332 329.03 589.691 329.175C590.055 329.315 590.368 329.52 590.629 329.791C590.895 330.057 591.103 330.388 591.252 330.785C591.401 331.177 591.476 331.625 591.476 332.129C591.476 332.325 591.455 332.456 591.413 332.521C591.371 332.586 591.292 332.619 591.175 332.619H586.436C586.45 333.067 586.511 333.457 586.618 333.788C586.73 334.119 586.884 334.397 587.08 334.621C587.276 334.84 587.509 335.006 587.78 335.118C588.051 335.225 588.354 335.279 588.69 335.279C589.003 335.279 589.271 335.244 589.495 335.174C589.724 335.099 589.92 335.02 590.083 334.936C590.246 334.852 590.382 334.775 590.489 334.705C590.601 334.63 590.697 334.593 590.776 334.593C590.879 334.593 590.958 334.633 591.014 334.712L591.364 335.167ZM592.895 335.391C592.895 335.27 592.916 335.155 592.958 335.048C593.004 334.941 593.065 334.847 593.14 334.768C593.219 334.689 593.312 334.626 593.42 334.579C593.527 334.532 593.641 334.509 593.763 334.509C593.884 334.509 593.998 334.532 594.106 334.579C594.213 334.626 594.306 334.689 594.386 334.768C594.465 334.847 594.528 334.941 594.575 335.048C594.621 335.155 594.645 335.27 594.645 335.391C594.645 335.517 594.621 335.634 594.575 335.741C594.528 335.844 594.465 335.935 594.386 336.014C594.306 336.093 594.213 336.154 594.106 336.196C593.998 336.243 593.884 336.266 593.763 336.266C593.641 336.266 593.527 336.243 593.42 336.196C593.312 336.154 593.219 336.093 593.14 336.014C593.065 335.935 593.004 335.844 592.958 335.741C592.916 335.634 592.895 335.517 592.895 335.391ZM592.895 330.141C592.895 330.02 592.916 329.905 592.958 329.798C593.004 329.691 593.065 329.597 593.14 329.518C593.219 329.439 593.312 329.376 593.42 329.329C593.527 329.282 593.641 329.259 593.763 329.259C593.884 329.259 593.998 329.282 594.106 329.329C594.213 329.376 594.306 329.439 594.386 329.518C594.465 329.597 594.528 329.691 594.575 329.798C594.621 329.905 594.645 330.02 594.645 330.141C594.645 330.267 594.621 330.384 594.575 330.491C594.528 330.594 594.465 330.685 594.386 330.764C594.306 330.843 594.213 330.906 594.106 330.953C593.998 330.995 593.884 331.016 593.763 331.016C593.641 331.016 593.527 330.995 593.42 330.953C593.312 330.906 593.219 330.843 593.14 330.764C593.065 330.685 593.004 330.594 592.958 330.491C592.916 330.384 592.895 330.267 592.895 330.141ZM603.393 335.202C603.701 335.174 603.971 335.109 604.205 335.006C604.438 334.899 604.634 334.763 604.793 334.6C604.956 334.437 605.077 334.248 605.157 334.033C605.241 333.814 605.283 333.573 605.283 333.312C605.283 333.079 605.238 332.878 605.15 332.71C605.066 332.542 604.949 332.397 604.8 332.276C604.65 332.15 604.475 332.045 604.275 331.961C604.074 331.872 603.859 331.791 603.631 331.716L603.393 335.202ZM603.162 327.11C602.858 327.138 602.595 327.199 602.371 327.292C602.151 327.385 601.969 327.502 601.825 327.642C601.68 327.782 601.573 327.941 601.503 328.118C601.433 328.291 601.398 328.473 601.398 328.664C601.398 328.888 601.437 329.084 601.517 329.252C601.596 329.415 601.706 329.56 601.846 329.686C601.986 329.812 602.149 329.922 602.336 330.015C602.522 330.108 602.725 330.192 602.945 330.267L603.162 327.11ZM603.715 330.512C604.051 330.619 604.382 330.734 604.709 330.855C605.035 330.976 605.329 331.133 605.591 331.324C605.852 331.515 606.062 331.756 606.221 332.045C606.384 332.33 606.466 332.687 606.466 333.116C606.466 333.536 606.396 333.93 606.256 334.299C606.116 334.668 605.91 334.992 605.64 335.272C605.374 335.552 605.045 335.781 604.653 335.958C604.265 336.131 603.822 336.233 603.323 336.266L603.239 337.491C603.234 337.58 603.199 337.657 603.134 337.722C603.068 337.792 602.987 337.827 602.889 337.827H602.427L602.532 336.252C601.967 336.196 601.451 336.056 600.985 335.832C600.523 335.603 600.124 335.314 599.788 334.964L600.166 334.39C600.203 334.339 600.25 334.297 600.306 334.264C600.362 334.231 600.422 334.215 600.488 334.215C600.576 334.215 600.677 334.259 600.789 334.348C600.901 334.437 601.038 334.537 601.202 334.649C601.37 334.761 601.566 334.871 601.79 334.978C602.018 335.085 602.291 335.158 602.609 335.195L602.861 331.478C602.534 331.38 602.212 331.27 601.895 331.149C601.582 331.028 601.3 330.867 601.048 330.666C600.8 330.465 600.6 330.216 600.446 329.917C600.296 329.618 600.222 329.243 600.222 328.79C600.222 328.449 600.287 328.118 600.418 327.796C600.553 327.469 600.749 327.18 601.006 326.928C601.262 326.676 601.577 326.471 601.951 326.312C602.324 326.149 602.751 326.058 603.232 326.039L603.302 325.031C603.306 324.942 603.339 324.863 603.4 324.793C603.465 324.723 603.549 324.688 603.652 324.688H604.114L604.023 326.067C604.508 326.128 604.928 326.254 605.283 326.445C605.642 326.636 605.959 326.87 606.235 327.145L605.934 327.607C605.84 327.747 605.733 327.817 605.612 327.817C605.546 327.817 605.465 327.789 605.367 327.733C605.273 327.672 605.159 327.602 605.024 327.523C604.893 327.444 604.737 327.367 604.555 327.292C604.377 327.217 604.174 327.161 603.946 327.124L603.715 330.512ZM614.132 334.978C614.267 334.978 614.374 335.018 614.454 335.097C614.533 335.176 614.573 335.279 614.573 335.405V336.161H607.881V335.734C607.881 335.645 607.899 335.554 607.937 335.461C607.974 335.368 608.032 335.281 608.112 335.202L611.325 331.975C611.591 331.704 611.833 331.445 612.053 331.198C612.272 330.946 612.459 330.694 612.613 330.442C612.767 330.19 612.886 329.936 612.97 329.679C613.054 329.418 613.096 329.14 613.096 328.846C613.096 328.552 613.049 328.295 612.956 328.076C612.862 327.852 612.734 327.668 612.571 327.523C612.412 327.378 612.223 327.271 612.004 327.201C611.784 327.126 611.549 327.089 611.297 327.089C611.04 327.089 610.804 327.126 610.59 327.201C610.375 327.276 610.184 327.381 610.016 327.516C609.852 327.647 609.715 327.803 609.603 327.985C609.491 328.167 609.411 328.368 609.365 328.587C609.309 328.75 609.232 328.86 609.134 328.916C609.04 328.967 608.907 328.981 608.735 328.958L608.084 328.846C608.149 328.389 608.275 327.985 608.462 327.635C608.653 327.28 608.891 326.984 609.176 326.746C609.465 326.508 609.794 326.328 610.163 326.207C610.531 326.081 610.93 326.018 611.36 326.018C611.784 326.018 612.181 326.081 612.55 326.207C612.918 326.333 613.238 326.517 613.509 326.76C613.779 326.998 613.992 327.29 614.146 327.635C614.3 327.98 614.377 328.372 614.377 328.811C614.377 329.184 614.321 329.532 614.209 329.854C614.097 330.171 613.945 330.475 613.754 330.764C613.562 331.053 613.341 331.336 613.089 331.611C612.841 331.886 612.578 332.164 612.298 332.444L609.652 335.146C609.838 335.095 610.027 335.055 610.219 335.027C610.41 334.994 610.594 334.978 610.772 334.978H614.132ZM623.044 331.149C623.044 332.026 622.948 332.787 622.757 333.431C622.57 334.07 622.313 334.6 621.987 335.02C621.66 335.44 621.273 335.753 620.825 335.958C620.381 336.163 619.905 336.266 619.397 336.266C618.883 336.266 618.405 336.163 617.962 335.958C617.523 335.753 617.14 335.44 616.814 335.02C616.487 334.6 616.23 334.07 616.044 333.431C615.857 332.787 615.764 332.026 615.764 331.149C615.764 330.272 615.857 329.511 616.044 328.867C616.23 328.223 616.487 327.691 616.814 327.271C617.14 326.846 617.523 326.531 617.962 326.326C618.405 326.121 618.883 326.018 619.397 326.018C619.905 326.018 620.381 326.121 620.825 326.326C621.273 326.531 621.66 326.846 621.987 327.271C622.313 327.691 622.57 328.223 622.757 328.867C622.948 329.511 623.044 330.272 623.044 331.149ZM621.749 331.149C621.749 330.384 621.683 329.742 621.553 329.224C621.427 328.701 621.254 328.281 621.035 327.964C620.82 327.647 620.57 327.42 620.286 327.285C620.001 327.145 619.705 327.075 619.397 327.075C619.089 327.075 618.792 327.145 618.508 327.285C618.223 327.42 617.973 327.647 617.759 327.964C617.544 328.281 617.371 328.701 617.241 329.224C617.115 329.742 617.052 330.384 617.052 331.149C617.052 331.914 617.115 332.556 617.241 333.074C617.371 333.592 617.544 334.01 617.759 334.327C617.973 334.644 618.223 334.873 618.508 335.013C618.792 335.148 619.089 335.216 619.397 335.216C619.705 335.216 620.001 335.148 620.286 335.013C620.57 334.873 620.82 334.644 621.035 334.327C621.254 334.01 621.427 333.592 621.553 333.074C621.683 332.556 621.749 331.914 621.749 331.149ZM624.375 337.855C624.338 337.822 624.312 337.792 624.298 337.764C624.284 337.736 624.277 337.701 624.277 337.659C624.277 337.626 624.286 337.594 624.305 337.561C624.328 337.528 624.354 337.498 624.382 337.47C624.429 337.419 624.487 337.351 624.557 337.267C624.632 337.183 624.706 337.083 624.781 336.966C624.856 336.854 624.923 336.728 624.984 336.588C625.049 336.453 625.096 336.308 625.124 336.154C625.11 336.159 625.094 336.161 625.075 336.161C625.061 336.161 625.047 336.161 625.033 336.161C624.79 336.161 624.592 336.082 624.438 335.923C624.289 335.76 624.214 335.552 624.214 335.3C624.214 335.081 624.289 334.894 624.438 334.74C624.592 334.586 624.795 334.509 625.047 334.509C625.187 334.509 625.311 334.535 625.418 334.586C625.525 334.637 625.614 334.71 625.684 334.803C625.759 334.892 625.815 334.997 625.852 335.118C625.889 335.235 625.908 335.363 625.908 335.503C625.908 335.713 625.878 335.932 625.817 336.161C625.761 336.385 625.675 336.607 625.558 336.826C625.446 337.05 625.308 337.267 625.145 337.477C624.982 337.687 624.795 337.881 624.585 338.058L624.375 337.855ZM634.337 331.149C634.337 332.026 634.241 332.787 634.05 333.431C633.863 334.07 633.606 334.6 633.28 335.02C632.953 335.44 632.566 335.753 632.118 335.958C631.674 336.163 631.198 336.266 630.69 336.266C630.176 336.266 629.698 336.163 629.255 335.958C628.816 335.753 628.433 335.44 628.107 335.02C627.78 334.6 627.523 334.07 627.337 333.431C627.15 332.787 627.057 332.026 627.057 331.149C627.057 330.272 627.15 329.511 627.337 328.867C627.523 328.223 627.78 327.691 628.107 327.271C628.433 326.846 628.816 326.531 629.255 326.326C629.698 326.121 630.176 326.018 630.69 326.018C631.198 326.018 631.674 326.121 632.118 326.326C632.566 326.531 632.953 326.846 633.28 327.271C633.606 327.691 633.863 328.223 634.05 328.867C634.241 329.511 634.337 330.272 634.337 331.149ZM633.042 331.149C633.042 330.384 632.976 329.742 632.846 329.224C632.72 328.701 632.547 328.281 632.328 327.964C632.113 327.647 631.863 327.42 631.579 327.285C631.294 327.145 630.998 327.075 630.69 327.075C630.382 327.075 630.085 327.145 629.801 327.285C629.516 327.42 629.266 327.647 629.052 327.964C628.837 328.281 628.664 328.701 628.534 329.224C628.408 329.742 628.345 330.384 628.345 331.149C628.345 331.914 628.408 332.556 628.534 333.074C628.664 333.592 628.837 334.01 629.052 334.327C629.266 334.644 629.516 334.873 629.801 335.013C630.085 335.148 630.382 335.216 630.69 335.216C630.998 335.216 631.294 335.148 631.579 335.013C631.863 334.873 632.113 334.644 632.328 334.327C632.547 334.01 632.72 333.592 632.846 333.074C632.976 332.556 633.042 331.914 633.042 331.149ZM642.458 331.149C642.458 332.026 642.362 332.787 642.171 333.431C641.984 334.07 641.727 334.6 641.401 335.02C641.074 335.44 640.687 335.753 640.239 335.958C639.795 336.163 639.319 336.266 638.811 336.266C638.297 336.266 637.819 336.163 637.376 335.958C636.937 335.753 636.554 335.44 636.228 335.02C635.901 334.6 635.644 334.07 635.458 333.431C635.271 332.787 635.178 332.026 635.178 331.149C635.178 330.272 635.271 329.511 635.458 328.867C635.644 328.223 635.901 327.691 636.228 327.271C636.554 326.846 636.937 326.531 637.376 326.326C637.819 326.121 638.297 326.018 638.811 326.018C639.319 326.018 639.795 326.121 640.239 326.326C640.687 326.531 641.074 326.846 641.401 327.271C641.727 327.691 641.984 328.223 642.171 328.867C642.362 329.511 642.458 330.272 642.458 331.149ZM641.163 331.149C641.163 330.384 641.097 329.742 640.967 329.224C640.841 328.701 640.668 328.281 640.449 327.964C640.234 327.647 639.984 327.42 639.7 327.285C639.415 327.145 639.119 327.075 638.811 327.075C638.503 327.075 638.206 327.145 637.922 327.285C637.637 327.42 637.387 327.647 637.173 327.964C636.958 328.281 636.785 328.701 636.655 329.224C636.529 329.742 636.466 330.384 636.466 331.149C636.466 331.914 636.529 332.556 636.655 333.074C636.785 333.592 636.958 334.01 637.173 334.327C637.387 334.644 637.637 334.873 637.922 335.013C638.206 335.148 638.503 335.216 638.811 335.216C639.119 335.216 639.415 335.148 639.7 335.013C639.984 334.873 640.234 334.644 640.449 334.327C640.668 334.01 640.841 333.592 640.967 333.074C641.097 332.556 641.163 331.914 641.163 331.149ZM650.579 331.149C650.579 332.026 650.483 332.787 650.292 333.431C650.105 334.07 649.849 334.6 649.522 335.02C649.195 335.44 648.808 335.753 648.36 335.958C647.917 336.163 647.441 336.266 646.932 336.266C646.419 336.266 645.94 336.163 645.497 335.958C645.058 335.753 644.676 335.44 644.349 335.02C644.022 334.6 643.766 334.07 643.579 333.431C643.392 332.787 643.299 332.026 643.299 331.149C643.299 330.272 643.392 329.511 643.579 328.867C643.766 328.223 644.022 327.691 644.349 327.271C644.676 326.846 645.058 326.531 645.497 326.326C645.94 326.121 646.419 326.018 646.932 326.018C647.441 326.018 647.917 326.121 648.36 326.326C648.808 326.531 649.195 326.846 649.522 327.271C649.849 327.691 650.105 328.223 650.292 328.867C650.483 329.511 650.579 330.272 650.579 331.149ZM649.284 331.149C649.284 330.384 649.219 329.742 649.088 329.224C648.962 328.701 648.789 328.281 648.57 327.964C648.355 327.647 648.106 327.42 647.821 327.285C647.536 327.145 647.24 327.075 646.932 327.075C646.624 327.075 646.328 327.145 646.043 327.285C645.758 327.42 645.509 327.647 645.294 327.964C645.079 328.281 644.907 328.701 644.776 329.224C644.65 329.742 644.587 330.384 644.587 331.149C644.587 331.914 644.65 332.556 644.776 333.074C644.907 333.592 645.079 334.01 645.294 334.327C645.509 334.644 645.758 334.873 646.043 335.013C646.328 335.148 646.624 335.216 646.932 335.216C647.24 335.216 647.536 335.148 647.821 335.013C648.106 334.873 648.355 334.644 648.57 334.327C648.789 334.01 648.962 333.592 649.088 333.074C649.219 332.556 649.284 331.914 649.284 331.149Z" fill="white"/>
<path d="M539.07 278.13V288.161H538.391C538.284 288.161 538.193 288.142 538.118 288.105C538.048 288.068 537.978 288.005 537.908 287.916L532.105 280.356C532.114 280.473 532.121 280.587 532.126 280.699C532.131 280.811 532.133 280.916 532.133 281.014V288.161H530.943V278.13H531.643C531.704 278.13 531.755 278.135 531.797 278.144C531.839 278.149 531.876 278.16 531.909 278.179C531.942 278.193 531.974 278.216 532.007 278.249C532.04 278.277 532.075 278.314 532.112 278.361L537.915 285.914C537.906 285.793 537.896 285.676 537.887 285.564C537.882 285.447 537.88 285.338 537.88 285.235V278.13H539.07ZM545.868 283.842C545.868 283.553 545.826 283.289 545.742 283.051C545.662 282.808 545.543 282.601 545.385 282.428C545.231 282.251 545.042 282.115 544.818 282.022C544.594 281.924 544.339 281.875 544.055 281.875C543.457 281.875 542.984 282.05 542.634 282.4C542.288 282.745 542.074 283.226 541.99 283.842H545.868ZM546.876 287.167C546.722 287.354 546.537 287.517 546.323 287.657C546.108 287.792 545.877 287.904 545.63 287.993C545.387 288.082 545.135 288.147 544.874 288.189C544.612 288.236 544.353 288.259 544.097 288.259C543.607 288.259 543.154 288.177 542.739 288.014C542.328 287.846 541.971 287.603 541.668 287.286C541.369 286.964 541.136 286.567 540.968 286.096C540.8 285.625 540.716 285.083 540.716 284.472C540.716 283.977 540.79 283.515 540.94 283.086C541.094 282.657 541.313 282.286 541.598 281.973C541.882 281.656 542.23 281.408 542.641 281.231C543.051 281.049 543.513 280.958 544.027 280.958C544.451 280.958 544.843 281.03 545.203 281.175C545.567 281.315 545.879 281.52 546.141 281.791C546.407 282.057 546.614 282.388 546.764 282.785C546.913 283.177 546.988 283.625 546.988 284.129C546.988 284.325 546.967 284.456 546.925 284.521C546.883 284.586 546.803 284.619 546.687 284.619H541.948C541.962 285.067 542.022 285.457 542.13 285.788C542.242 286.119 542.396 286.397 542.592 286.621C542.788 286.84 543.021 287.006 543.292 287.118C543.562 287.225 543.866 287.279 544.202 287.279C544.514 287.279 544.783 287.244 545.007 287.174C545.235 287.099 545.431 287.02 545.595 286.936C545.758 286.852 545.893 286.775 546.001 286.705C546.113 286.63 546.208 286.593 546.288 286.593C546.39 286.593 546.47 286.633 546.526 286.712L546.876 287.167ZM558.229 281.07L555.933 288.161H554.946C554.825 288.161 554.741 288.082 554.694 287.923L553.126 283.114C553.089 283.007 553.058 282.899 553.035 282.792C553.012 282.68 552.988 282.57 552.965 282.463C552.942 282.57 552.918 282.68 552.895 282.792C552.872 282.899 552.841 283.009 552.804 283.121L551.208 287.923C551.166 288.082 551.073 288.161 550.928 288.161H549.99L547.694 281.07H548.674C548.772 281.07 548.854 281.096 548.919 281.147C548.989 281.198 549.036 281.259 549.059 281.329L550.417 285.893C550.496 286.229 550.559 286.546 550.606 286.845C550.648 286.691 550.69 286.535 550.732 286.376C550.779 286.217 550.828 286.056 550.879 285.893L552.377 281.301C552.4 281.231 552.44 281.173 552.496 281.126C552.557 281.079 552.629 281.056 552.713 281.056H553.259C553.352 281.056 553.429 281.079 553.49 281.126C553.551 281.173 553.593 281.231 553.616 281.301L555.079 285.893C555.13 286.056 555.177 286.217 555.219 286.376C555.261 286.535 555.301 286.691 555.338 286.845C555.361 286.691 555.389 286.537 555.422 286.383C555.459 286.224 555.499 286.061 555.541 285.893L556.927 281.329C556.95 281.254 556.995 281.194 557.06 281.147C557.125 281.096 557.202 281.07 557.291 281.07H558.229ZM563.99 286.453C564.219 286.761 564.468 286.978 564.739 287.104C565.01 287.23 565.313 287.293 565.649 287.293C566.312 287.293 566.82 287.057 567.175 286.586C567.53 286.115 567.707 285.443 567.707 284.57C567.707 284.108 567.665 283.711 567.581 283.38C567.502 283.049 567.385 282.778 567.231 282.568C567.077 282.353 566.888 282.197 566.664 282.099C566.44 282.001 566.186 281.952 565.901 281.952C565.495 281.952 565.138 282.045 564.83 282.232C564.527 282.419 564.247 282.682 563.99 283.023V286.453ZM563.927 282.169C564.226 281.8 564.571 281.504 564.963 281.28C565.355 281.056 565.803 280.944 566.307 280.944C566.718 280.944 567.089 281.023 567.42 281.182C567.751 281.336 568.034 281.567 568.267 281.875C568.5 282.178 568.68 282.556 568.806 283.009C568.932 283.462 568.995 283.982 568.995 284.57C568.995 285.093 568.925 285.58 568.785 286.033C568.645 286.481 568.442 286.871 568.176 287.202C567.915 287.529 567.593 287.788 567.21 287.979C566.832 288.166 566.405 288.259 565.929 288.259C565.495 288.259 565.122 288.187 564.809 288.042C564.501 287.893 564.228 287.687 563.99 287.426V290.562H562.737V281.07H563.486C563.663 281.07 563.773 281.156 563.815 281.329L563.927 282.169ZM571.768 282.491C571.992 282.006 572.267 281.628 572.594 281.357C572.92 281.082 573.319 280.944 573.791 280.944C573.94 280.944 574.082 280.96 574.218 280.993C574.358 281.026 574.481 281.077 574.589 281.147L574.498 282.078C574.47 282.195 574.4 282.253 574.288 282.253C574.222 282.253 574.127 282.239 574.001 282.211C573.875 282.183 573.732 282.169 573.574 282.169C573.35 282.169 573.149 282.202 572.972 282.267C572.799 282.332 572.643 282.43 572.503 282.561C572.367 282.687 572.244 282.846 572.132 283.037C572.024 283.224 571.926 283.438 571.838 283.681V288.161H570.585V281.07H571.299C571.434 281.07 571.527 281.096 571.579 281.147C571.63 281.198 571.665 281.287 571.684 281.413L571.768 282.491ZM577 281.07V288.161H575.754V281.07H577ZM577.266 278.844C577.266 278.965 577.241 279.08 577.189 279.187C577.143 279.29 577.077 279.383 576.993 279.467C576.914 279.546 576.818 279.609 576.706 279.656C576.599 279.703 576.485 279.726 576.363 279.726C576.242 279.726 576.128 279.703 576.02 279.656C575.918 279.609 575.827 279.546 575.747 279.467C575.668 279.383 575.605 279.29 575.558 279.187C575.512 279.08 575.488 278.965 575.488 278.844C575.488 278.723 575.512 278.608 575.558 278.501C575.605 278.389 575.668 278.293 575.747 278.214C575.827 278.13 575.918 278.065 576.02 278.018C576.128 277.971 576.242 277.948 576.363 277.948C576.485 277.948 576.599 277.971 576.706 278.018C576.818 278.065 576.914 278.13 576.993 278.214C577.077 278.293 577.143 278.389 577.189 278.501C577.241 278.608 577.266 278.723 577.266 278.844ZM583.983 282.33C583.945 282.381 583.908 282.421 583.871 282.449C583.833 282.477 583.782 282.491 583.717 282.491C583.647 282.491 583.57 282.463 583.486 282.407C583.402 282.346 583.297 282.281 583.171 282.211C583.049 282.141 582.898 282.078 582.716 282.022C582.538 281.961 582.319 281.931 582.058 281.931C581.708 281.931 581.4 281.994 581.134 282.12C580.868 282.241 580.644 282.419 580.462 282.652C580.284 282.885 580.149 283.168 580.056 283.499C579.967 283.83 579.923 284.201 579.923 284.612C579.923 285.041 579.972 285.424 580.07 285.76C580.168 286.091 580.305 286.371 580.483 286.6C580.665 286.824 580.882 286.997 581.134 287.118C581.39 287.235 581.677 287.293 581.995 287.293C582.298 287.293 582.548 287.258 582.744 287.188C582.94 287.113 583.101 287.032 583.227 286.943C583.357 286.854 583.465 286.775 583.549 286.705C583.637 286.63 583.724 286.593 583.808 286.593C583.91 286.593 583.99 286.633 584.046 286.712L584.396 287.167C584.242 287.358 584.067 287.522 583.871 287.657C583.675 287.792 583.462 287.907 583.234 288C583.01 288.089 582.774 288.154 582.527 288.196C582.279 288.238 582.027 288.259 581.771 288.259C581.327 288.259 580.914 288.177 580.532 288.014C580.154 287.851 579.825 287.615 579.545 287.307C579.265 286.994 579.045 286.612 578.887 286.159C578.728 285.706 578.649 285.191 578.649 284.612C578.649 284.085 578.721 283.597 578.866 283.149C579.015 282.701 579.23 282.316 579.51 281.994C579.794 281.667 580.142 281.413 580.553 281.231C580.968 281.049 581.444 280.958 581.981 280.958C582.48 280.958 582.919 281.04 583.297 281.203C583.679 281.362 584.018 281.588 584.312 281.882L583.983 282.33ZM590.356 283.842C590.356 283.553 590.314 283.289 590.23 283.051C590.151 282.808 590.032 282.601 589.873 282.428C589.719 282.251 589.53 282.115 589.306 282.022C589.082 281.924 588.828 281.875 588.543 281.875C587.946 281.875 587.472 282.05 587.122 282.4C586.777 282.745 586.562 283.226 586.478 283.842H590.356ZM591.364 287.167C591.21 287.354 591.026 287.517 590.811 287.657C590.596 287.792 590.365 287.904 590.118 287.993C589.875 288.082 589.623 288.147 589.362 288.189C589.101 288.236 588.842 288.259 588.585 288.259C588.095 288.259 587.642 288.177 587.227 288.014C586.816 287.846 586.459 287.603 586.156 287.286C585.857 286.964 585.624 286.567 585.456 286.096C585.288 285.625 585.204 285.083 585.204 284.472C585.204 283.977 585.279 283.515 585.428 283.086C585.582 282.657 585.801 282.286 586.086 281.973C586.371 281.656 586.718 281.408 587.129 281.231C587.54 281.049 588.002 280.958 588.515 280.958C588.94 280.958 589.332 281.03 589.691 281.175C590.055 281.315 590.368 281.52 590.629 281.791C590.895 282.057 591.103 282.388 591.252 282.785C591.401 283.177 591.476 283.625 591.476 284.129C591.476 284.325 591.455 284.456 591.413 284.521C591.371 284.586 591.292 284.619 591.175 284.619H586.436C586.45 285.067 586.511 285.457 586.618 285.788C586.73 286.119 586.884 286.397 587.08 286.621C587.276 286.84 587.509 287.006 587.78 287.118C588.051 287.225 588.354 287.279 588.69 287.279C589.003 287.279 589.271 287.244 589.495 287.174C589.724 287.099 589.92 287.02 590.083 286.936C590.246 286.852 590.382 286.775 590.489 286.705C590.601 286.63 590.697 286.593 590.776 286.593C590.879 286.593 590.958 286.633 591.014 286.712L591.364 287.167ZM592.895 287.391C592.895 287.27 592.916 287.155 592.958 287.048C593.004 286.941 593.065 286.847 593.14 286.768C593.219 286.689 593.312 286.626 593.42 286.579C593.527 286.532 593.641 286.509 593.763 286.509C593.884 286.509 593.998 286.532 594.106 286.579C594.213 286.626 594.306 286.689 594.386 286.768C594.465 286.847 594.528 286.941 594.575 287.048C594.621 287.155 594.645 287.27 594.645 287.391C594.645 287.517 594.621 287.634 594.575 287.741C594.528 287.844 594.465 287.935 594.386 288.014C594.306 288.093 594.213 288.154 594.106 288.196C593.998 288.243 593.884 288.266 593.763 288.266C593.641 288.266 593.527 288.243 593.42 288.196C593.312 288.154 593.219 288.093 593.14 288.014C593.065 287.935 593.004 287.844 592.958 287.741C592.916 287.634 592.895 287.517 592.895 287.391ZM592.895 282.141C592.895 282.02 592.916 281.905 592.958 281.798C593.004 281.691 593.065 281.597 593.14 281.518C593.219 281.439 593.312 281.376 593.42 281.329C593.527 281.282 593.641 281.259 593.763 281.259C593.884 281.259 593.998 281.282 594.106 281.329C594.213 281.376 594.306 281.439 594.386 281.518C594.465 281.597 594.528 281.691 594.575 281.798C594.621 281.905 594.645 282.02 594.645 282.141C594.645 282.267 594.621 282.384 594.575 282.491C594.528 282.594 594.465 282.685 594.386 282.764C594.306 282.843 594.213 282.906 594.106 282.953C593.998 282.995 593.884 283.016 593.763 283.016C593.641 283.016 593.527 282.995 593.42 282.953C593.312 282.906 593.219 282.843 593.14 282.764C593.065 282.685 593.004 282.594 592.958 282.491C592.916 282.384 592.895 282.267 592.895 282.141ZM603.393 287.202C603.701 287.174 603.971 287.109 604.205 287.006C604.438 286.899 604.634 286.763 604.793 286.6C604.956 286.437 605.077 286.248 605.157 286.033C605.241 285.814 605.283 285.573 605.283 285.312C605.283 285.079 605.238 284.878 605.15 284.71C605.066 284.542 604.949 284.397 604.8 284.276C604.65 284.15 604.475 284.045 604.275 283.961C604.074 283.872 603.859 283.791 603.631 283.716L603.393 287.202ZM603.162 279.11C602.858 279.138 602.595 279.199 602.371 279.292C602.151 279.385 601.969 279.502 601.825 279.642C601.68 279.782 601.573 279.941 601.503 280.118C601.433 280.291 601.398 280.473 601.398 280.664C601.398 280.888 601.437 281.084 601.517 281.252C601.596 281.415 601.706 281.56 601.846 281.686C601.986 281.812 602.149 281.922 602.336 282.015C602.522 282.108 602.725 282.192 602.945 282.267L603.162 279.11ZM603.715 282.512C604.051 282.619 604.382 282.734 604.709 282.855C605.035 282.976 605.329 283.133 605.591 283.324C605.852 283.515 606.062 283.756 606.221 284.045C606.384 284.33 606.466 284.687 606.466 285.116C606.466 285.536 606.396 285.93 606.256 286.299C606.116 286.668 605.91 286.992 605.64 287.272C605.374 287.552 605.045 287.781 604.653 287.958C604.265 288.131 603.822 288.233 603.323 288.266L603.239 289.491C603.234 289.58 603.199 289.657 603.134 289.722C603.068 289.792 602.987 289.827 602.889 289.827H602.427L602.532 288.252C601.967 288.196 601.451 288.056 600.985 287.832C600.523 287.603 600.124 287.314 599.788 286.964L600.166 286.39C600.203 286.339 600.25 286.297 600.306 286.264C600.362 286.231 600.422 286.215 600.488 286.215C600.576 286.215 600.677 286.259 600.789 286.348C600.901 286.437 601.038 286.537 601.202 286.649C601.37 286.761 601.566 286.871 601.79 286.978C602.018 287.085 602.291 287.158 602.609 287.195L602.861 283.478C602.534 283.38 602.212 283.27 601.895 283.149C601.582 283.028 601.3 282.867 601.048 282.666C600.8 282.465 600.6 282.216 600.446 281.917C600.296 281.618 600.222 281.243 600.222 280.79C600.222 280.449 600.287 280.118 600.418 279.796C600.553 279.469 600.749 279.18 601.006 278.928C601.262 278.676 601.577 278.471 601.951 278.312C602.324 278.149 602.751 278.058 603.232 278.039L603.302 277.031C603.306 276.942 603.339 276.863 603.4 276.793C603.465 276.723 603.549 276.688 603.652 276.688H604.114L604.023 278.067C604.508 278.128 604.928 278.254 605.283 278.445C605.642 278.636 605.959 278.87 606.235 279.145L605.934 279.607C605.84 279.747 605.733 279.817 605.612 279.817C605.546 279.817 605.465 279.789 605.367 279.733C605.273 279.672 605.159 279.602 605.024 279.523C604.893 279.444 604.737 279.367 604.555 279.292C604.377 279.217 604.174 279.161 603.946 279.124L603.715 282.512ZM614.132 286.978C614.267 286.978 614.374 287.018 614.454 287.097C614.533 287.176 614.573 287.279 614.573 287.405V288.161H607.881V287.734C607.881 287.645 607.899 287.554 607.937 287.461C607.974 287.368 608.032 287.281 608.112 287.202L611.325 283.975C611.591 283.704 611.833 283.445 612.053 283.198C612.272 282.946 612.459 282.694 612.613 282.442C612.767 282.19 612.886 281.936 612.97 281.679C613.054 281.418 613.096 281.14 613.096 280.846C613.096 280.552 613.049 280.295 612.956 280.076C612.862 279.852 612.734 279.668 612.571 279.523C612.412 279.378 612.223 279.271 612.004 279.201C611.784 279.126 611.549 279.089 611.297 279.089C611.04 279.089 610.804 279.126 610.59 279.201C610.375 279.276 610.184 279.381 610.016 279.516C609.852 279.647 609.715 279.803 609.603 279.985C609.491 280.167 609.411 280.368 609.365 280.587C609.309 280.75 609.232 280.86 609.134 280.916C609.04 280.967 608.907 280.981 608.735 280.958L608.084 280.846C608.149 280.389 608.275 279.985 608.462 279.635C608.653 279.28 608.891 278.984 609.176 278.746C609.465 278.508 609.794 278.328 610.163 278.207C610.531 278.081 610.93 278.018 611.36 278.018C611.784 278.018 612.181 278.081 612.55 278.207C612.918 278.333 613.238 278.517 613.509 278.76C613.779 278.998 613.992 279.29 614.146 279.635C614.3 279.98 614.377 280.372 614.377 280.811C614.377 281.184 614.321 281.532 614.209 281.854C614.097 282.171 613.945 282.475 613.754 282.764C613.562 283.053 613.341 283.336 613.089 283.611C612.841 283.886 612.578 284.164 612.298 284.444L609.652 287.146C609.838 287.095 610.027 287.055 610.219 287.027C610.41 286.994 610.594 286.978 610.772 286.978H614.132ZM623.044 283.149C623.044 284.026 622.948 284.787 622.757 285.431C622.57 286.07 622.313 286.6 621.987 287.02C621.66 287.44 621.273 287.753 620.825 287.958C620.381 288.163 619.905 288.266 619.397 288.266C618.883 288.266 618.405 288.163 617.962 287.958C617.523 287.753 617.14 287.44 616.814 287.02C616.487 286.6 616.23 286.07 616.044 285.431C615.857 284.787 615.764 284.026 615.764 283.149C615.764 282.272 615.857 281.511 616.044 280.867C616.23 280.223 616.487 279.691 616.814 279.271C617.14 278.846 617.523 278.531 617.962 278.326C618.405 278.121 618.883 278.018 619.397 278.018C619.905 278.018 620.381 278.121 620.825 278.326C621.273 278.531 621.66 278.846 621.987 279.271C622.313 279.691 622.57 280.223 622.757 280.867C622.948 281.511 623.044 282.272 623.044 283.149ZM621.749 283.149C621.749 282.384 621.683 281.742 621.553 281.224C621.427 280.701 621.254 280.281 621.035 279.964C620.82 279.647 620.57 279.42 620.286 279.285C620.001 279.145 619.705 279.075 619.397 279.075C619.089 279.075 618.792 279.145 618.508 279.285C618.223 279.42 617.973 279.647 617.759 279.964C617.544 280.281 617.371 280.701 617.241 281.224C617.115 281.742 617.052 282.384 617.052 283.149C617.052 283.914 617.115 284.556 617.241 285.074C617.371 285.592 617.544 286.01 617.759 286.327C617.973 286.644 618.223 286.873 618.508 287.013C618.792 287.148 619.089 287.216 619.397 287.216C619.705 287.216 620.001 287.148 620.286 287.013C620.57 286.873 620.82 286.644 621.035 286.327C621.254 286.01 621.427 285.592 621.553 285.074C621.683 284.556 621.749 283.914 621.749 283.149ZM624.375 289.855C624.338 289.822 624.312 289.792 624.298 289.764C624.284 289.736 624.277 289.701 624.277 289.659C624.277 289.626 624.286 289.594 624.305 289.561C624.328 289.528 624.354 289.498 624.382 289.47C624.429 289.419 624.487 289.351 624.557 289.267C624.632 289.183 624.706 289.083 624.781 288.966C624.856 288.854 624.923 288.728 624.984 288.588C625.049 288.453 625.096 288.308 625.124 288.154C625.11 288.159 625.094 288.161 625.075 288.161C625.061 288.161 625.047 288.161 625.033 288.161C624.79 288.161 624.592 288.082 624.438 287.923C624.289 287.76 624.214 287.552 624.214 287.3C624.214 287.081 624.289 286.894 624.438 286.74C624.592 286.586 624.795 286.509 625.047 286.509C625.187 286.509 625.311 286.535 625.418 286.586C625.525 286.637 625.614 286.71 625.684 286.803C625.759 286.892 625.815 286.997 625.852 287.118C625.889 287.235 625.908 287.363 625.908 287.503C625.908 287.713 625.878 287.932 625.817 288.161C625.761 288.385 625.675 288.607 625.558 288.826C625.446 289.05 625.308 289.267 625.145 289.477C624.982 289.687 624.795 289.881 624.585 290.058L624.375 289.855ZM633.546 286.978C633.681 286.978 633.788 287.018 633.868 287.097C633.947 287.176 633.987 287.279 633.987 287.405V288.161H627.295V287.734C627.295 287.645 627.313 287.554 627.351 287.461C627.388 287.368 627.446 287.281 627.526 287.202L630.739 283.975C631.005 283.704 631.247 283.445 631.467 283.198C631.686 282.946 631.873 282.694 632.027 282.442C632.181 282.19 632.3 281.936 632.384 281.679C632.468 281.418 632.51 281.14 632.51 280.846C632.51 280.552 632.463 280.295 632.37 280.076C632.276 279.852 632.148 279.668 631.985 279.523C631.826 279.378 631.637 279.271 631.418 279.201C631.198 279.126 630.963 279.089 630.711 279.089C630.454 279.089 630.218 279.126 630.004 279.201C629.789 279.276 629.598 279.381 629.43 279.516C629.266 279.647 629.129 279.803 629.017 279.985C628.905 280.167 628.825 280.368 628.779 280.587C628.723 280.75 628.646 280.86 628.548 280.916C628.454 280.967 628.321 280.981 628.149 280.958L627.498 280.846C627.563 280.389 627.689 279.985 627.876 279.635C628.067 279.28 628.305 278.984 628.59 278.746C628.879 278.508 629.208 278.328 629.577 278.207C629.945 278.081 630.344 278.018 630.774 278.018C631.198 278.018 631.595 278.081 631.964 278.207C632.332 278.333 632.652 278.517 632.923 278.76C633.193 278.998 633.406 279.29 633.56 279.635C633.714 279.98 633.791 280.372 633.791 280.811C633.791 281.184 633.735 281.532 633.623 281.854C633.511 282.171 633.359 282.475 633.168 282.764C632.976 283.053 632.755 283.336 632.503 283.611C632.255 283.886 631.992 284.164 631.712 284.444L629.066 287.146C629.252 287.095 629.441 287.055 629.633 287.027C629.824 286.994 630.008 286.978 630.186 286.978H633.546ZM642.458 283.149C642.458 284.026 642.362 284.787 642.171 285.431C641.984 286.07 641.727 286.6 641.401 287.02C641.074 287.44 640.687 287.753 640.239 287.958C639.795 288.163 639.319 288.266 638.811 288.266C638.297 288.266 637.819 288.163 637.376 287.958C636.937 287.753 636.554 287.44 636.228 287.02C635.901 286.6 635.644 286.07 635.458 285.431C635.271 284.787 635.178 284.026 635.178 283.149C635.178 282.272 635.271 281.511 635.458 280.867C635.644 280.223 635.901 279.691 636.228 279.271C636.554 278.846 636.937 278.531 637.376 278.326C637.819 278.121 638.297 278.018 638.811 278.018C639.319 278.018 639.795 278.121 640.239 278.326C640.687 278.531 641.074 278.846 641.401 279.271C641.727 279.691 641.984 280.223 642.171 280.867C642.362 281.511 642.458 282.272 642.458 283.149ZM641.163 283.149C641.163 282.384 641.097 281.742 640.967 281.224C640.841 280.701 640.668 280.281 640.449 279.964C640.234 279.647 639.984 279.42 639.7 279.285C639.415 279.145 639.119 279.075 638.811 279.075C638.503 279.075 638.206 279.145 637.922 279.285C637.637 279.42 637.387 279.647 637.173 279.964C636.958 280.281 636.785 280.701 636.655 281.224C636.529 281.742 636.466 282.384 636.466 283.149C636.466 283.914 636.529 284.556 636.655 285.074C636.785 285.592 636.958 286.01 637.173 286.327C637.387 286.644 637.637 286.873 637.922 287.013C638.206 287.148 638.503 287.216 638.811 287.216C639.119 287.216 639.415 287.148 639.7 287.013C639.984 286.873 640.234 286.644 640.449 286.327C640.668 286.01 640.841 285.592 640.967 285.074C641.097 284.556 641.163 283.914 641.163 283.149ZM650.579 283.149C650.579 284.026 650.483 284.787 650.292 285.431C650.105 286.07 649.849 286.6 649.522 287.02C649.195 287.44 648.808 287.753 648.36 287.958C647.917 288.163 647.441 288.266 646.932 288.266C646.419 288.266 645.94 288.163 645.497 287.958C645.058 287.753 644.676 287.44 644.349 287.02C644.022 286.6 643.766 286.07 643.579 285.431C643.392 284.787 643.299 284.026 643.299 283.149C643.299 282.272 643.392 281.511 643.579 280.867C643.766 280.223 644.022 279.691 644.349 279.271C644.676 278.846 645.058 278.531 645.497 278.326C645.94 278.121 646.419 278.018 646.932 278.018C647.441 278.018 647.917 278.121 648.36 278.326C648.808 278.531 649.195 278.846 649.522 279.271C649.849 279.691 650.105 280.223 650.292 280.867C650.483 281.511 650.579 282.272 650.579 283.149ZM649.284 283.149C649.284 282.384 649.219 281.742 649.088 281.224C648.962 280.701 648.789 280.281 648.57 279.964C648.355 279.647 648.106 279.42 647.821 279.285C647.536 279.145 647.24 279.075 646.932 279.075C646.624 279.075 646.328 279.145 646.043 279.285C645.758 279.42 645.509 279.647 645.294 279.964C645.079 280.281 644.907 280.701 644.776 281.224C644.65 281.742 644.587 282.384 644.587 283.149C644.587 283.914 644.65 284.556 644.776 285.074C644.907 285.592 645.079 286.01 645.294 286.327C645.509 286.644 645.758 286.873 646.043 287.013C646.328 287.148 646.624 287.216 646.932 287.216C647.24 287.216 647.536 287.148 647.821 287.013C648.106 286.873 648.355 286.644 648.57 286.327C648.789 286.01 648.962 285.592 649.088 285.074C649.219 284.556 649.284 283.914 649.284 283.149Z" fill="#59CE77"/>
<path d="M562.571 366.236V369.743H566.694V370.849H562.571V375.161H561.213V365.13H567.394V366.236H562.571ZM570 364.85V375.161H568.754V364.85H570ZM575.009 367.958C575.527 367.958 575.994 368.044 576.409 368.217C576.825 368.39 577.179 368.635 577.473 368.952C577.767 369.269 577.991 369.654 578.145 370.107C578.304 370.555 578.383 371.057 578.383 371.612C578.383 372.172 578.304 372.676 578.145 373.124C577.991 373.572 577.767 373.955 577.473 374.272C577.179 374.589 576.825 374.834 576.409 375.007C575.994 375.175 575.527 375.259 575.009 375.259C574.487 375.259 574.015 375.175 573.595 375.007C573.18 374.834 572.825 374.589 572.531 374.272C572.237 373.955 572.011 373.572 571.852 373.124C571.698 372.676 571.621 372.172 571.621 371.612C571.621 371.057 571.698 370.555 571.852 370.107C572.011 369.654 572.237 369.269 572.531 368.952C572.825 368.635 573.18 368.39 573.595 368.217C574.015 368.044 574.487 367.958 575.009 367.958ZM575.009 374.286C575.709 374.286 576.232 374.053 576.577 373.586C576.923 373.115 577.095 372.459 577.095 371.619C577.095 370.774 576.923 370.116 576.577 369.645C576.232 369.174 575.709 368.938 575.009 368.938C574.655 368.938 574.344 368.999 574.078 369.12C573.817 369.241 573.598 369.416 573.42 369.645C573.248 369.874 573.117 370.156 573.028 370.492C572.944 370.823 572.902 371.199 572.902 371.619C572.902 372.459 573.075 373.115 573.42 373.586C573.77 374.053 574.3 374.286 575.009 374.286ZM582.953 367.958C583.471 367.958 583.937 368.044 584.353 368.217C584.768 368.39 585.123 368.635 585.417 368.952C585.711 369.269 585.935 369.654 586.089 370.107C586.247 370.555 586.327 371.057 586.327 371.612C586.327 372.172 586.247 372.676 586.089 373.124C585.935 373.572 585.711 373.955 585.417 374.272C585.123 374.589 584.768 374.834 584.353 375.007C583.937 375.175 583.471 375.259 582.953 375.259C582.43 375.259 581.959 375.175 581.539 375.007C581.123 374.834 580.769 374.589 580.475 374.272C580.181 373.955 579.954 373.572 579.796 373.124C579.642 372.676 579.565 372.172 579.565 371.612C579.565 371.057 579.642 370.555 579.796 370.107C579.954 369.654 580.181 369.269 580.475 368.952C580.769 368.635 581.123 368.39 581.539 368.217C581.959 368.044 582.43 367.958 582.953 367.958ZM582.953 374.286C583.653 374.286 584.175 374.053 584.521 373.586C584.866 373.115 585.039 372.459 585.039 371.619C585.039 370.774 584.866 370.116 584.521 369.645C584.175 369.174 583.653 368.938 582.953 368.938C582.598 368.938 582.288 368.999 582.022 369.12C581.76 369.241 581.541 369.416 581.364 369.645C581.191 369.874 581.06 370.156 580.972 370.492C580.888 370.823 580.846 371.199 580.846 371.619C580.846 372.459 581.018 373.115 581.364 373.586C581.714 374.053 582.243 374.286 582.953 374.286ZM589.09 369.491C589.314 369.006 589.589 368.628 589.916 368.357C590.243 368.082 590.642 367.944 591.113 367.944C591.262 367.944 591.405 367.96 591.54 367.993C591.68 368.026 591.804 368.077 591.911 368.147L591.82 369.078C591.792 369.195 591.722 369.253 591.61 369.253C591.545 369.253 591.449 369.239 591.323 369.211C591.197 369.183 591.055 369.169 590.896 369.169C590.672 369.169 590.471 369.202 590.294 369.267C590.121 369.332 589.965 369.43 589.825 369.561C589.69 369.687 589.566 369.846 589.454 370.037C589.347 370.224 589.249 370.438 589.16 370.681V375.161H587.907V368.07H588.621C588.756 368.07 588.85 368.096 588.901 368.147C588.952 368.198 588.987 368.287 589.006 368.413L589.09 369.491ZM592.895 374.391C592.895 374.27 592.916 374.155 592.958 374.048C593.004 373.941 593.065 373.847 593.14 373.768C593.219 373.689 593.312 373.626 593.42 373.579C593.527 373.532 593.641 373.509 593.763 373.509C593.884 373.509 593.998 373.532 594.106 373.579C594.213 373.626 594.306 373.689 594.386 373.768C594.465 373.847 594.528 373.941 594.575 374.048C594.621 374.155 594.645 374.27 594.645 374.391C594.645 374.517 594.621 374.634 594.575 374.741C594.528 374.844 594.465 374.935 594.386 375.014C594.306 375.093 594.213 375.154 594.106 375.196C593.998 375.243 593.884 375.266 593.763 375.266C593.641 375.266 593.527 375.243 593.42 375.196C593.312 375.154 593.219 375.093 593.14 375.014C593.065 374.935 593.004 374.844 592.958 374.741C592.916 374.634 592.895 374.517 592.895 374.391ZM592.895 369.141C592.895 369.02 592.916 368.905 592.958 368.798C593.004 368.691 593.065 368.597 593.14 368.518C593.219 368.439 593.312 368.376 593.42 368.329C593.527 368.282 593.641 368.259 593.763 368.259C593.884 368.259 593.998 368.282 594.106 368.329C594.213 368.376 594.306 368.439 594.386 368.518C594.465 368.597 594.528 368.691 594.575 368.798C594.621 368.905 594.645 369.02 594.645 369.141C594.645 369.267 594.621 369.384 594.575 369.491C594.528 369.594 594.465 369.685 594.386 369.764C594.306 369.843 594.213 369.906 594.106 369.953C593.998 369.995 593.884 370.016 593.763 370.016C593.641 370.016 593.527 369.995 593.42 369.953C593.312 369.906 593.219 369.843 593.14 369.764C593.065 369.685 593.004 369.594 592.958 369.491C592.916 369.384 592.895 369.267 592.895 369.141ZM603.393 374.202C603.701 374.174 603.971 374.109 604.205 374.006C604.438 373.899 604.634 373.763 604.793 373.6C604.956 373.437 605.077 373.248 605.157 373.033C605.241 372.814 605.283 372.573 605.283 372.312C605.283 372.079 605.238 371.878 605.15 371.71C605.066 371.542 604.949 371.397 604.8 371.276C604.65 371.15 604.475 371.045 604.275 370.961C604.074 370.872 603.859 370.791 603.631 370.716L603.393 374.202ZM603.162 366.11C602.858 366.138 602.595 366.199 602.371 366.292C602.151 366.385 601.969 366.502 601.825 366.642C601.68 366.782 601.573 366.941 601.503 367.118C601.433 367.291 601.398 367.473 601.398 367.664C601.398 367.888 601.437 368.084 601.517 368.252C601.596 368.415 601.706 368.56 601.846 368.686C601.986 368.812 602.149 368.922 602.336 369.015C602.522 369.108 602.725 369.192 602.945 369.267L603.162 366.11ZM603.715 369.512C604.051 369.619 604.382 369.734 604.709 369.855C605.035 369.976 605.329 370.133 605.591 370.324C605.852 370.515 606.062 370.756 606.221 371.045C606.384 371.33 606.466 371.687 606.466 372.116C606.466 372.536 606.396 372.93 606.256 373.299C606.116 373.668 605.91 373.992 605.64 374.272C605.374 374.552 605.045 374.781 604.653 374.958C604.265 375.131 603.822 375.233 603.323 375.266L603.239 376.491C603.234 376.58 603.199 376.657 603.134 376.722C603.068 376.792 602.987 376.827 602.889 376.827H602.427L602.532 375.252C601.967 375.196 601.451 375.056 600.985 374.832C600.523 374.603 600.124 374.314 599.788 373.964L600.166 373.39C600.203 373.339 600.25 373.297 600.306 373.264C600.362 373.231 600.422 373.215 600.488 373.215C600.576 373.215 600.677 373.259 600.789 373.348C600.901 373.437 601.038 373.537 601.202 373.649C601.37 373.761 601.566 373.871 601.79 373.978C602.018 374.085 602.291 374.158 602.609 374.195L602.861 370.478C602.534 370.38 602.212 370.27 601.895 370.149C601.582 370.028 601.3 369.867 601.048 369.666C600.8 369.465 600.6 369.216 600.446 368.917C600.296 368.618 600.222 368.243 600.222 367.79C600.222 367.449 600.287 367.118 600.418 366.796C600.553 366.469 600.749 366.18 601.006 365.928C601.262 365.676 601.577 365.471 601.951 365.312C602.324 365.149 602.751 365.058 603.232 365.039L603.302 364.031C603.306 363.942 603.339 363.863 603.4 363.793C603.465 363.723 603.549 363.688 603.652 363.688H604.114L604.023 365.067C604.508 365.128 604.928 365.254 605.283 365.445C605.642 365.636 605.959 365.87 606.235 366.145L605.934 366.607C605.84 366.747 605.733 366.817 605.612 366.817C605.546 366.817 605.465 366.789 605.367 366.733C605.273 366.672 605.159 366.602 605.024 366.523C604.893 366.444 604.737 366.367 604.555 366.292C604.377 366.217 604.174 366.161 603.946 366.124L603.715 369.512ZM614.349 374.209V375.161H608.973V374.209H611.122V367.37C611.122 367.165 611.129 366.957 611.143 366.747L609.358 368.28C609.297 368.331 609.236 368.364 609.176 368.378C609.115 368.387 609.059 368.387 609.008 368.378C608.956 368.369 608.907 368.35 608.861 368.322C608.819 368.294 608.786 368.264 608.763 368.231L608.371 367.692L611.36 365.109H612.375V374.209H614.349ZM617.325 368.077C617.325 368.394 617.369 368.679 617.458 368.931C617.551 369.178 617.682 369.388 617.85 369.561C618.022 369.734 618.23 369.864 618.473 369.953C618.72 370.042 618.995 370.086 619.299 370.086C619.635 370.086 619.931 370.032 620.188 369.925C620.449 369.813 620.668 369.666 620.846 369.484C621.023 369.302 621.158 369.092 621.252 368.854C621.345 368.616 621.392 368.369 621.392 368.112C621.392 367.799 621.34 367.517 621.238 367.265C621.14 367.008 621.002 366.791 620.825 366.614C620.647 366.437 620.435 366.301 620.188 366.208C619.945 366.11 619.677 366.061 619.383 366.061C619.075 366.061 618.795 366.112 618.543 366.215C618.291 366.313 618.074 366.451 617.892 366.628C617.71 366.805 617.57 367.018 617.472 367.265C617.374 367.512 617.325 367.783 617.325 368.077ZM620.237 371.164C620.339 371.029 620.435 370.9 620.524 370.779C620.612 370.658 620.696 370.536 620.776 370.415C620.519 370.62 620.23 370.777 619.908 370.884C619.586 370.991 619.245 371.045 618.886 371.045C618.508 371.045 618.148 370.982 617.808 370.856C617.472 370.73 617.175 370.546 616.919 370.303C616.662 370.056 616.457 369.755 616.303 369.4C616.153 369.041 616.079 368.63 616.079 368.168C616.079 367.729 616.16 367.319 616.324 366.936C616.487 366.553 616.716 366.22 617.01 365.935C617.304 365.65 617.654 365.426 618.06 365.263C618.466 365.1 618.911 365.018 619.397 365.018C619.877 365.018 620.314 365.097 620.706 365.256C621.098 365.415 621.434 365.636 621.714 365.921C621.994 366.206 622.208 366.546 622.358 366.943C622.512 367.34 622.589 367.778 622.589 368.259C622.589 368.548 622.561 368.824 622.505 369.085C622.453 369.342 622.376 369.596 622.274 369.848C622.176 370.095 622.054 370.343 621.91 370.59C621.765 370.833 621.602 371.082 621.42 371.339L618.977 374.867C618.916 374.956 618.83 375.028 618.718 375.084C618.606 375.135 618.477 375.161 618.333 375.161H617.185L620.237 371.164ZM624.375 376.855C624.338 376.822 624.312 376.792 624.298 376.764C624.284 376.736 624.277 376.701 624.277 376.659C624.277 376.626 624.286 376.594 624.305 376.561C624.328 376.528 624.354 376.498 624.382 376.47C624.429 376.419 624.487 376.351 624.557 376.267C624.632 376.183 624.706 376.083 624.781 375.966C624.856 375.854 624.923 375.728 624.984 375.588C625.049 375.453 625.096 375.308 625.124 375.154C625.11 375.159 625.094 375.161 625.075 375.161C625.061 375.161 625.047 375.161 625.033 375.161C624.79 375.161 624.592 375.082 624.438 374.923C624.289 374.76 624.214 374.552 624.214 374.3C624.214 374.081 624.289 373.894 624.438 373.74C624.592 373.586 624.795 373.509 625.047 373.509C625.187 373.509 625.311 373.535 625.418 373.586C625.525 373.637 625.614 373.71 625.684 373.803C625.759 373.892 625.815 373.997 625.852 374.118C625.889 374.235 625.908 374.363 625.908 374.503C625.908 374.713 625.878 374.932 625.817 375.161C625.761 375.385 625.675 375.607 625.558 375.826C625.446 376.05 625.308 376.267 625.145 376.477C624.982 376.687 624.795 376.881 624.585 377.058L624.375 376.855ZM628.618 368.077C628.618 368.394 628.662 368.679 628.751 368.931C628.844 369.178 628.975 369.388 629.143 369.561C629.315 369.734 629.523 369.864 629.766 369.953C630.013 370.042 630.288 370.086 630.592 370.086C630.928 370.086 631.224 370.032 631.481 369.925C631.742 369.813 631.961 369.666 632.139 369.484C632.316 369.302 632.451 369.092 632.545 368.854C632.638 368.616 632.685 368.369 632.685 368.112C632.685 367.799 632.633 367.517 632.531 367.265C632.433 367.008 632.295 366.791 632.118 366.614C631.94 366.437 631.728 366.301 631.481 366.208C631.238 366.11 630.97 366.061 630.676 366.061C630.368 366.061 630.088 366.112 629.836 366.215C629.584 366.313 629.367 366.451 629.185 366.628C629.003 366.805 628.863 367.018 628.765 367.265C628.667 367.512 628.618 367.783 628.618 368.077ZM631.53 371.164C631.632 371.029 631.728 370.9 631.817 370.779C631.905 370.658 631.989 370.536 632.069 370.415C631.812 370.62 631.523 370.777 631.201 370.884C630.879 370.991 630.538 371.045 630.179 371.045C629.801 371.045 629.441 370.982 629.101 370.856C628.765 370.73 628.468 370.546 628.212 370.303C627.955 370.056 627.75 369.755 627.596 369.4C627.446 369.041 627.372 368.63 627.372 368.168C627.372 367.729 627.453 367.319 627.617 366.936C627.78 366.553 628.009 366.22 628.303 365.935C628.597 365.65 628.947 365.426 629.353 365.263C629.759 365.1 630.204 365.018 630.69 365.018C631.17 365.018 631.607 365.097 631.999 365.256C632.391 365.415 632.727 365.636 633.007 365.921C633.287 366.206 633.501 366.546 633.651 366.943C633.805 367.34 633.882 367.778 633.882 368.259C633.882 368.548 633.854 368.824 633.798 369.085C633.746 369.342 633.669 369.596 633.567 369.848C633.469 370.095 633.347 370.343 633.203 370.59C633.058 370.833 632.895 371.082 632.713 371.339L630.27 374.867C630.209 374.956 630.123 375.028 630.011 375.084C629.899 375.135 629.77 375.161 629.626 375.161H628.478L631.53 371.164ZM642.458 370.149C642.458 371.026 642.362 371.787 642.171 372.431C641.984 373.07 641.727 373.6 641.401 374.02C641.074 374.44 640.687 374.753 640.239 374.958C639.795 375.163 639.319 375.266 638.811 375.266C638.297 375.266 637.819 375.163 637.376 374.958C636.937 374.753 636.554 374.44 636.228 374.02C635.901 373.6 635.644 373.07 635.458 372.431C635.271 371.787 635.178 371.026 635.178 370.149C635.178 369.272 635.271 368.511 635.458 367.867C635.644 367.223 635.901 366.691 636.228 366.271C636.554 365.846 636.937 365.531 637.376 365.326C637.819 365.121 638.297 365.018 638.811 365.018C639.319 365.018 639.795 365.121 640.239 365.326C640.687 365.531 641.074 365.846 641.401 366.271C641.727 366.691 641.984 367.223 642.171 367.867C642.362 368.511 642.458 369.272 642.458 370.149ZM641.163 370.149C641.163 369.384 641.097 368.742 640.967 368.224C640.841 367.701 640.668 367.281 640.449 366.964C640.234 366.647 639.984 366.42 639.7 366.285C639.415 366.145 639.119 366.075 638.811 366.075C638.503 366.075 638.206 366.145 637.922 366.285C637.637 366.42 637.387 366.647 637.173 366.964C636.958 367.281 636.785 367.701 636.655 368.224C636.529 368.742 636.466 369.384 636.466 370.149C636.466 370.914 636.529 371.556 636.655 372.074C636.785 372.592 636.958 373.01 637.173 373.327C637.387 373.644 637.637 373.873 637.922 374.013C638.206 374.148 638.503 374.216 638.811 374.216C639.119 374.216 639.415 374.148 639.7 374.013C639.984 373.873 640.234 373.644 640.449 373.327C640.668 373.01 640.841 372.592 640.967 372.074C641.097 371.556 641.163 370.914 641.163 370.149ZM650.579 370.149C650.579 371.026 650.483 371.787 650.292 372.431C650.105 373.07 649.849 373.6 649.522 374.02C649.195 374.44 648.808 374.753 648.36 374.958C647.917 375.163 647.441 375.266 646.932 375.266C646.419 375.266 645.94 375.163 645.497 374.958C645.058 374.753 644.676 374.44 644.349 374.02C644.022 373.6 643.766 373.07 643.579 372.431C643.392 371.787 643.299 371.026 643.299 370.149C643.299 369.272 643.392 368.511 643.579 367.867C643.766 367.223 644.022 366.691 644.349 366.271C644.676 365.846 645.058 365.531 645.497 365.326C645.94 365.121 646.419 365.018 646.932 365.018C647.441 365.018 647.917 365.121 648.36 365.326C648.808 365.531 649.195 365.846 649.522 366.271C649.849 366.691 650.105 367.223 650.292 367.867C650.483 368.511 650.579 369.272 650.579 370.149ZM649.284 370.149C649.284 369.384 649.219 368.742 649.088 368.224C648.962 367.701 648.789 367.281 648.57 366.964C648.355 366.647 648.106 366.42 647.821 366.285C647.536 366.145 647.24 366.075 646.932 366.075C646.624 366.075 646.328 366.145 646.043 366.285C645.758 366.42 645.509 366.647 645.294 366.964C645.079 367.281 644.907 367.701 644.776 368.224C644.65 368.742 644.587 369.384 644.587 370.149C644.587 370.914 644.65 371.556 644.776 372.074C644.907 372.592 645.079 373.01 645.294 373.327C645.509 373.644 645.758 373.873 646.043 374.013C646.328 374.148 646.624 374.216 646.932 374.216C647.24 374.216 647.536 374.148 647.821 374.013C648.106 373.873 648.355 373.644 648.57 373.327C648.789 373.01 648.962 372.592 649.088 372.074C649.219 371.556 649.284 370.914 649.284 370.149Z" fill="white"/>
<path d="M558.616 207.089C558.691 207.089 558.756 207.119 558.812 207.18L559.351 207.761C558.94 208.237 558.441 208.608 557.853 208.874C557.27 209.14 556.563 209.273 555.732 209.273C555.013 209.273 554.36 209.149 553.772 208.902C553.184 208.65 552.682 208.3 552.267 207.852C551.852 207.399 551.53 206.858 551.301 206.228C551.072 205.598 550.958 204.905 550.958 204.149C550.958 203.393 551.077 202.7 551.315 202.07C551.553 201.44 551.887 200.899 552.316 200.446C552.75 199.993 553.268 199.643 553.87 199.396C554.472 199.144 555.137 199.018 555.865 199.018C556.579 199.018 557.209 199.132 557.755 199.361C558.301 199.59 558.782 199.9 559.197 200.292L558.749 200.915C558.721 200.962 558.684 201.001 558.637 201.034C558.595 201.062 558.537 201.076 558.462 201.076C558.378 201.076 558.275 201.032 558.154 200.943C558.033 200.85 557.874 200.747 557.678 200.635C557.482 200.523 557.237 200.423 556.943 200.334C556.649 200.241 556.287 200.194 555.858 200.194C555.34 200.194 554.866 200.285 554.437 200.467C554.008 200.644 553.637 200.903 553.324 201.244C553.016 201.585 552.776 202 552.603 202.49C552.43 202.98 552.344 203.533 552.344 204.149C552.344 204.774 552.433 205.332 552.61 205.822C552.792 206.312 553.037 206.727 553.345 207.068C553.658 207.404 554.024 207.661 554.444 207.838C554.869 208.015 555.326 208.104 555.816 208.104C556.115 208.104 556.383 208.088 556.621 208.055C556.864 208.018 557.085 207.962 557.286 207.887C557.491 207.812 557.68 207.719 557.853 207.607C558.03 207.49 558.205 207.353 558.378 207.194C558.457 207.124 558.537 207.089 558.616 207.089ZM565.241 204.842C565.241 204.553 565.199 204.289 565.115 204.051C565.035 203.808 564.916 203.601 564.758 203.428C564.604 203.251 564.415 203.115 564.191 203.022C563.967 202.924 563.712 202.875 563.428 202.875C562.83 202.875 562.357 203.05 562.007 203.4C561.661 203.745 561.447 204.226 561.363 204.842H565.241ZM566.249 208.167C566.095 208.354 565.91 208.517 565.696 208.657C565.481 208.792 565.25 208.904 565.003 208.993C564.76 209.082 564.508 209.147 564.247 209.189C563.985 209.236 563.726 209.259 563.47 209.259C562.98 209.259 562.527 209.177 562.112 209.014C561.701 208.846 561.344 208.603 561.041 208.286C560.742 207.964 560.509 207.567 560.341 207.096C560.173 206.625 560.089 206.083 560.089 205.472C560.089 204.977 560.163 204.515 560.313 204.086C560.467 203.657 560.686 203.286 560.971 202.973C561.255 202.656 561.603 202.408 562.014 202.231C562.424 202.049 562.886 201.958 563.4 201.958C563.824 201.958 564.216 202.03 564.576 202.175C564.94 202.315 565.252 202.52 565.514 202.791C565.78 203.057 565.987 203.388 566.137 203.785C566.286 204.177 566.361 204.625 566.361 205.129C566.361 205.325 566.34 205.456 566.298 205.521C566.256 205.586 566.176 205.619 566.06 205.619H561.321C561.335 206.067 561.395 206.457 561.503 206.788C561.615 207.119 561.769 207.397 561.965 207.621C562.161 207.84 562.394 208.006 562.665 208.118C562.935 208.225 563.239 208.279 563.575 208.279C563.887 208.279 564.156 208.244 564.38 208.174C564.608 208.099 564.804 208.02 564.968 207.936C565.131 207.852 565.266 207.775 565.374 207.705C565.486 207.63 565.581 207.593 565.661 207.593C565.763 207.593 565.843 207.633 565.899 207.712L566.249 208.167ZM569.207 202.07V209.161H567.961V202.07H569.207ZM569.473 199.844C569.473 199.965 569.448 200.08 569.396 200.187C569.35 200.29 569.284 200.383 569.2 200.467C569.121 200.546 569.025 200.609 568.913 200.656C568.806 200.703 568.692 200.726 568.57 200.726C568.449 200.726 568.335 200.703 568.227 200.656C568.125 200.609 568.034 200.546 567.954 200.467C567.875 200.383 567.812 200.29 567.765 200.187C567.719 200.08 567.695 199.965 567.695 199.844C567.695 199.723 567.719 199.608 567.765 199.501C567.812 199.389 567.875 199.293 567.954 199.214C568.034 199.13 568.125 199.065 568.227 199.018C568.335 198.971 568.449 198.948 568.57 198.948C568.692 198.948 568.806 198.971 568.913 199.018C569.025 199.065 569.121 199.13 569.2 199.214C569.284 199.293 569.35 199.389 569.396 199.501C569.448 199.608 569.473 199.723 569.473 199.844ZM572.543 198.85V209.161H571.297V198.85H572.543ZM575.879 202.07V209.161H574.633V202.07H575.879ZM576.145 199.844C576.145 199.965 576.12 200.08 576.068 200.187C576.022 200.29 575.956 200.383 575.872 200.467C575.793 200.546 575.697 200.609 575.585 200.656C575.478 200.703 575.364 200.726 575.242 200.726C575.121 200.726 575.007 200.703 574.899 200.656C574.797 200.609 574.706 200.546 574.626 200.467C574.547 200.383 574.484 200.29 574.437 200.187C574.391 200.08 574.367 199.965 574.367 199.844C574.367 199.723 574.391 199.608 574.437 199.501C574.484 199.389 574.547 199.293 574.626 199.214C574.706 199.13 574.797 199.065 574.899 199.018C575.007 198.971 575.121 198.948 575.242 198.948C575.364 198.948 575.478 198.971 575.585 199.018C575.697 199.065 575.793 199.13 575.872 199.214C575.956 199.293 576.022 199.389 576.068 199.501C576.12 199.608 576.145 199.723 576.145 199.844ZM579.102 203.099C579.256 202.926 579.42 202.77 579.592 202.63C579.765 202.49 579.947 202.371 580.138 202.273C580.334 202.17 580.54 202.093 580.754 202.042C580.974 201.986 581.209 201.958 581.461 201.958C581.849 201.958 582.189 202.023 582.483 202.154C582.782 202.28 583.029 202.462 583.225 202.7C583.426 202.933 583.578 203.216 583.68 203.547C583.783 203.878 583.834 204.245 583.834 204.646V209.161H582.581V204.646C582.581 204.109 582.458 203.694 582.21 203.4C581.968 203.101 581.597 202.952 581.097 202.952C580.729 202.952 580.383 203.041 580.061 203.218C579.744 203.395 579.45 203.636 579.179 203.939V209.161H577.926V202.07H578.675C578.853 202.07 578.962 202.156 579.004 202.329L579.102 203.099ZM588.204 205.696C588.456 205.696 588.678 205.661 588.869 205.591C589.06 205.521 589.221 205.423 589.352 205.297C589.483 205.171 589.581 205.022 589.646 204.849C589.711 204.672 589.744 204.478 589.744 204.268C589.744 203.834 589.611 203.489 589.345 203.232C589.084 202.975 588.703 202.847 588.204 202.847C587.7 202.847 587.315 202.975 587.049 203.232C586.788 203.489 586.657 203.834 586.657 204.268C586.657 204.478 586.69 204.672 586.755 204.849C586.825 205.022 586.925 205.171 587.056 205.297C587.187 205.423 587.348 205.521 587.539 205.591C587.73 205.661 587.952 205.696 588.204 205.696ZM590.451 209.546C590.451 209.373 590.402 209.233 590.304 209.126C590.206 209.019 590.073 208.935 589.905 208.874C589.742 208.813 589.55 208.771 589.331 208.748C589.112 208.72 588.878 208.699 588.631 208.685C588.388 208.671 588.141 208.657 587.889 208.643C587.637 208.629 587.394 208.606 587.161 208.573C586.9 208.694 586.685 208.848 586.517 209.035C586.354 209.217 586.272 209.432 586.272 209.679C586.272 209.838 586.312 209.985 586.391 210.12C586.475 210.26 586.601 210.379 586.769 210.477C586.937 210.58 587.147 210.659 587.399 210.715C587.656 210.776 587.957 210.806 588.302 210.806C588.638 210.806 588.939 210.776 589.205 210.715C589.471 210.654 589.695 210.568 589.877 210.456C590.064 210.344 590.206 210.211 590.304 210.057C590.402 209.903 590.451 209.733 590.451 209.546ZM591.718 202.35V202.812C591.718 202.966 591.62 203.064 591.424 203.106L590.619 203.211C590.778 203.519 590.857 203.86 590.857 204.233C590.857 204.578 590.789 204.893 590.654 205.178C590.523 205.458 590.341 205.698 590.108 205.899C589.875 206.1 589.595 206.254 589.268 206.361C588.941 206.468 588.587 206.522 588.204 206.522C587.873 206.522 587.56 206.482 587.266 206.403C587.117 206.496 587.002 206.597 586.923 206.704C586.844 206.807 586.804 206.912 586.804 207.019C586.804 207.187 586.872 207.315 587.007 207.404C587.147 207.488 587.329 207.549 587.553 207.586C587.777 207.623 588.031 207.647 588.316 207.656C588.605 207.665 588.899 207.682 589.198 207.705C589.501 207.724 589.795 207.759 590.08 207.81C590.369 207.861 590.626 207.945 590.85 208.062C591.074 208.179 591.254 208.34 591.389 208.545C591.529 208.75 591.599 209.016 591.599 209.343C591.599 209.646 591.522 209.94 591.368 210.225C591.219 210.51 591.002 210.762 590.717 210.981C590.432 211.205 590.082 211.382 589.667 211.513C589.256 211.648 588.792 211.716 588.274 211.716C587.756 211.716 587.303 211.665 586.916 211.562C586.529 211.459 586.207 211.322 585.95 211.149C585.693 210.976 585.5 210.776 585.369 210.547C585.243 210.323 585.18 210.087 585.18 209.84C585.18 209.49 585.29 209.194 585.509 208.951C585.728 208.708 586.029 208.515 586.412 208.37C586.202 208.277 586.034 208.153 585.908 207.999C585.787 207.84 585.726 207.628 585.726 207.362C585.726 207.259 585.745 207.154 585.782 207.047C585.819 206.935 585.875 206.825 585.95 206.718C586.029 206.606 586.125 206.501 586.237 206.403C586.349 206.305 586.48 206.219 586.629 206.144C586.279 205.948 586.006 205.689 585.81 205.367C585.614 205.04 585.516 204.662 585.516 204.233C585.516 203.888 585.581 203.575 585.712 203.295C585.847 203.01 586.034 202.77 586.272 202.574C586.51 202.373 586.792 202.219 587.119 202.112C587.45 202.005 587.812 201.951 588.204 201.951C588.512 201.951 588.799 201.986 589.065 202.056C589.331 202.121 589.574 202.219 589.793 202.35H591.718ZM592.895 208.391C592.895 208.27 592.916 208.155 592.958 208.048C593.004 207.941 593.065 207.847 593.14 207.768C593.219 207.689 593.312 207.626 593.42 207.579C593.527 207.532 593.641 207.509 593.763 207.509C593.884 207.509 593.998 207.532 594.106 207.579C594.213 207.626 594.306 207.689 594.386 207.768C594.465 207.847 594.528 207.941 594.575 208.048C594.621 208.155 594.645 208.27 594.645 208.391C594.645 208.517 594.621 208.634 594.575 208.741C594.528 208.844 594.465 208.935 594.386 209.014C594.306 209.093 594.213 209.154 594.106 209.196C593.998 209.243 593.884 209.266 593.763 209.266C593.641 209.266 593.527 209.243 593.42 209.196C593.312 209.154 593.219 209.093 593.14 209.014C593.065 208.935 593.004 208.844 592.958 208.741C592.916 208.634 592.895 208.517 592.895 208.391ZM592.895 203.141C592.895 203.02 592.916 202.905 592.958 202.798C593.004 202.691 593.065 202.597 593.14 202.518C593.219 202.439 593.312 202.376 593.42 202.329C593.527 202.282 593.641 202.259 593.763 202.259C593.884 202.259 593.998 202.282 594.106 202.329C594.213 202.376 594.306 202.439 594.386 202.518C594.465 202.597 594.528 202.691 594.575 202.798C594.621 202.905 594.645 203.02 594.645 203.141C594.645 203.267 594.621 203.384 594.575 203.491C594.528 203.594 594.465 203.685 594.386 203.764C594.306 203.843 594.213 203.906 594.106 203.953C593.998 203.995 593.884 204.016 593.763 204.016C593.641 204.016 593.527 203.995 593.42 203.953C593.312 203.906 593.219 203.843 593.14 203.764C593.065 203.685 593.004 203.594 592.958 203.491C592.916 203.384 592.895 203.267 592.895 203.141ZM603.393 208.202C603.701 208.174 603.971 208.109 604.205 208.006C604.438 207.899 604.634 207.763 604.793 207.6C604.956 207.437 605.077 207.248 605.157 207.033C605.241 206.814 605.283 206.573 605.283 206.312C605.283 206.079 605.238 205.878 605.15 205.71C605.066 205.542 604.949 205.397 604.8 205.276C604.65 205.15 604.475 205.045 604.275 204.961C604.074 204.872 603.859 204.791 603.631 204.716L603.393 208.202ZM603.162 200.11C602.858 200.138 602.595 200.199 602.371 200.292C602.151 200.385 601.969 200.502 601.825 200.642C601.68 200.782 601.573 200.941 601.503 201.118C601.433 201.291 601.398 201.473 601.398 201.664C601.398 201.888 601.437 202.084 601.517 202.252C601.596 202.415 601.706 202.56 601.846 202.686C601.986 202.812 602.149 202.922 602.336 203.015C602.522 203.108 602.725 203.192 602.945 203.267L603.162 200.11ZM603.715 203.512C604.051 203.619 604.382 203.734 604.709 203.855C605.035 203.976 605.329 204.133 605.591 204.324C605.852 204.515 606.062 204.756 606.221 205.045C606.384 205.33 606.466 205.687 606.466 206.116C606.466 206.536 606.396 206.93 606.256 207.299C606.116 207.668 605.91 207.992 605.64 208.272C605.374 208.552 605.045 208.781 604.653 208.958C604.265 209.131 603.822 209.233 603.323 209.266L603.239 210.491C603.234 210.58 603.199 210.657 603.134 210.722C603.068 210.792 602.987 210.827 602.889 210.827H602.427L602.532 209.252C601.967 209.196 601.451 209.056 600.985 208.832C600.523 208.603 600.124 208.314 599.788 207.964L600.166 207.39C600.203 207.339 600.25 207.297 600.306 207.264C600.362 207.231 600.422 207.215 600.488 207.215C600.576 207.215 600.677 207.259 600.789 207.348C600.901 207.437 601.038 207.537 601.202 207.649C601.37 207.761 601.566 207.871 601.79 207.978C602.018 208.085 602.291 208.158 602.609 208.195L602.861 204.478C602.534 204.38 602.212 204.27 601.895 204.149C601.582 204.028 601.3 203.867 601.048 203.666C600.8 203.465 600.6 203.216 600.446 202.917C600.296 202.618 600.222 202.243 600.222 201.79C600.222 201.449 600.287 201.118 600.418 200.796C600.553 200.469 600.749 200.18 601.006 199.928C601.262 199.676 601.577 199.471 601.951 199.312C602.324 199.149 602.751 199.058 603.232 199.039L603.302 198.031C603.306 197.942 603.339 197.863 603.4 197.793C603.465 197.723 603.549 197.688 603.652 197.688H604.114L604.023 199.067C604.508 199.128 604.928 199.254 605.283 199.445C605.642 199.636 605.959 199.87 606.235 200.145L605.934 200.607C605.84 200.747 605.733 200.817 605.612 200.817C605.546 200.817 605.465 200.789 605.367 200.733C605.273 200.672 605.159 200.602 605.024 200.523C604.893 200.444 604.737 200.367 604.555 200.292C604.377 200.217 604.174 200.161 603.946 200.124L603.715 203.512ZM614.132 207.978C614.267 207.978 614.374 208.018 614.454 208.097C614.533 208.176 614.573 208.279 614.573 208.405V209.161H607.881V208.734C607.881 208.645 607.899 208.554 607.937 208.461C607.974 208.368 608.032 208.281 608.112 208.202L611.325 204.975C611.591 204.704 611.833 204.445 612.053 204.198C612.272 203.946 612.459 203.694 612.613 203.442C612.767 203.19 612.886 202.936 612.97 202.679C613.054 202.418 613.096 202.14 613.096 201.846C613.096 201.552 613.049 201.295 612.956 201.076C612.862 200.852 612.734 200.668 612.571 200.523C612.412 200.378 612.223 200.271 612.004 200.201C611.784 200.126 611.549 200.089 611.297 200.089C611.04 200.089 610.804 200.126 610.59 200.201C610.375 200.276 610.184 200.381 610.016 200.516C609.852 200.647 609.715 200.803 609.603 200.985C609.491 201.167 609.411 201.368 609.365 201.587C609.309 201.75 609.232 201.86 609.134 201.916C609.04 201.967 608.907 201.981 608.735 201.958L608.084 201.846C608.149 201.389 608.275 200.985 608.462 200.635C608.653 200.28 608.891 199.984 609.176 199.746C609.465 199.508 609.794 199.328 610.163 199.207C610.531 199.081 610.93 199.018 611.36 199.018C611.784 199.018 612.181 199.081 612.55 199.207C612.918 199.333 613.238 199.517 613.509 199.76C613.779 199.998 613.992 200.29 614.146 200.635C614.3 200.98 614.377 201.372 614.377 201.811C614.377 202.184 614.321 202.532 614.209 202.854C614.097 203.171 613.945 203.475 613.754 203.764C613.562 204.053 613.341 204.336 613.089 204.611C612.841 204.886 612.578 205.164 612.298 205.444L609.652 208.146C609.838 208.095 610.027 208.055 610.219 208.027C610.41 207.994 610.594 207.978 610.772 207.978H614.132ZM623.044 204.149C623.044 205.026 622.948 205.787 622.757 206.431C622.57 207.07 622.313 207.6 621.987 208.02C621.66 208.44 621.273 208.753 620.825 208.958C620.381 209.163 619.905 209.266 619.397 209.266C618.883 209.266 618.405 209.163 617.962 208.958C617.523 208.753 617.14 208.44 616.814 208.02C616.487 207.6 616.23 207.07 616.044 206.431C615.857 205.787 615.764 205.026 615.764 204.149C615.764 203.272 615.857 202.511 616.044 201.867C616.23 201.223 616.487 200.691 616.814 200.271C617.14 199.846 617.523 199.531 617.962 199.326C618.405 199.121 618.883 199.018 619.397 199.018C619.905 199.018 620.381 199.121 620.825 199.326C621.273 199.531 621.66 199.846 621.987 200.271C622.313 200.691 622.57 201.223 622.757 201.867C622.948 202.511 623.044 203.272 623.044 204.149ZM621.749 204.149C621.749 203.384 621.683 202.742 621.553 202.224C621.427 201.701 621.254 201.281 621.035 200.964C620.82 200.647 620.57 200.42 620.286 200.285C620.001 200.145 619.705 200.075 619.397 200.075C619.089 200.075 618.792 200.145 618.508 200.285C618.223 200.42 617.973 200.647 617.759 200.964C617.544 201.281 617.371 201.701 617.241 202.224C617.115 202.742 617.052 203.384 617.052 204.149C617.052 204.914 617.115 205.556 617.241 206.074C617.371 206.592 617.544 207.01 617.759 207.327C617.973 207.644 618.223 207.873 618.508 208.013C618.792 208.148 619.089 208.216 619.397 208.216C619.705 208.216 620.001 208.148 620.286 208.013C620.57 207.873 620.82 207.644 621.035 207.327C621.254 207.01 621.427 206.592 621.553 206.074C621.683 205.556 621.749 204.914 621.749 204.149ZM624.375 210.855C624.338 210.822 624.312 210.792 624.298 210.764C624.284 210.736 624.277 210.701 624.277 210.659C624.277 210.626 624.286 210.594 624.305 210.561C624.328 210.528 624.354 210.498 624.382 210.47C624.429 210.419 624.487 210.351 624.557 210.267C624.632 210.183 624.706 210.083 624.781 209.966C624.856 209.854 624.923 209.728 624.984 209.588C625.049 209.453 625.096 209.308 625.124 209.154C625.11 209.159 625.094 209.161 625.075 209.161C625.061 209.161 625.047 209.161 625.033 209.161C624.79 209.161 624.592 209.082 624.438 208.923C624.289 208.76 624.214 208.552 624.214 208.3C624.214 208.081 624.289 207.894 624.438 207.74C624.592 207.586 624.795 207.509 625.047 207.509C625.187 207.509 625.311 207.535 625.418 207.586C625.525 207.637 625.614 207.71 625.684 207.803C625.759 207.892 625.815 207.997 625.852 208.118C625.889 208.235 625.908 208.363 625.908 208.503C625.908 208.713 625.878 208.932 625.817 209.161C625.761 209.385 625.675 209.607 625.558 209.826C625.446 210.05 625.308 210.267 625.145 210.477C624.982 210.687 624.795 210.881 624.585 211.058L624.375 210.855ZM631.747 205.542V201.405C631.747 201.284 631.751 201.151 631.761 201.006C631.77 200.861 631.784 200.714 631.803 200.565L628.149 205.542H631.747ZM634.358 205.542V206.256C634.358 206.331 634.334 206.394 634.288 206.445C634.246 206.496 634.178 206.522 634.085 206.522H632.839V209.161H631.747V206.522H627.295C627.201 206.522 627.12 206.496 627.05 206.445C626.984 206.389 626.942 206.321 626.924 206.242L626.798 205.605L631.677 199.13H632.839V205.542H634.358ZM642.458 204.149C642.458 205.026 642.362 205.787 642.171 206.431C641.984 207.07 641.727 207.6 641.401 208.02C641.074 208.44 640.687 208.753 640.239 208.958C639.795 209.163 639.319 209.266 638.811 209.266C638.297 209.266 637.819 209.163 637.376 208.958C636.937 208.753 636.554 208.44 636.228 208.02C635.901 207.6 635.644 207.07 635.458 206.431C635.271 205.787 635.178 205.026 635.178 204.149C635.178 203.272 635.271 202.511 635.458 201.867C635.644 201.223 635.901 200.691 636.228 200.271C636.554 199.846 636.937 199.531 637.376 199.326C637.819 199.121 638.297 199.018 638.811 199.018C639.319 199.018 639.795 199.121 640.239 199.326C640.687 199.531 641.074 199.846 641.401 200.271C641.727 200.691 641.984 201.223 642.171 201.867C642.362 202.511 642.458 203.272 642.458 204.149ZM641.163 204.149C641.163 203.384 641.097 202.742 640.967 202.224C640.841 201.701 640.668 201.281 640.449 200.964C640.234 200.647 639.984 200.42 639.7 200.285C639.415 200.145 639.119 200.075 638.811 200.075C638.503 200.075 638.206 200.145 637.922 200.285C637.637 200.42 637.387 200.647 637.173 200.964C636.958 201.281 636.785 201.701 636.655 202.224C636.529 202.742 636.466 203.384 636.466 204.149C636.466 204.914 636.529 205.556 636.655 206.074C636.785 206.592 636.958 207.01 637.173 207.327C637.387 207.644 637.637 207.873 637.922 208.013C638.206 208.148 638.503 208.216 638.811 208.216C639.119 208.216 639.415 208.148 639.7 208.013C639.984 207.873 640.234 207.644 640.449 207.327C640.668 207.01 640.841 206.592 640.967 206.074C641.097 205.556 641.163 204.914 641.163 204.149ZM650.579 204.149C650.579 205.026 650.483 205.787 650.292 206.431C650.105 207.07 649.849 207.6 649.522 208.02C649.195 208.44 648.808 208.753 648.36 208.958C647.917 209.163 647.441 209.266 646.932 209.266C646.419 209.266 645.94 209.163 645.497 208.958C645.058 208.753 644.676 208.44 644.349 208.02C644.022 207.6 643.766 207.07 643.579 206.431C643.392 205.787 643.299 205.026 643.299 204.149C643.299 203.272 643.392 202.511 643.579 201.867C643.766 201.223 644.022 200.691 644.349 200.271C644.676 199.846 645.058 199.531 645.497 199.326C645.94 199.121 646.419 199.018 646.932 199.018C647.441 199.018 647.917 199.121 648.36 199.326C648.808 199.531 649.195 199.846 649.522 200.271C649.849 200.691 650.105 201.223 650.292 201.867C650.483 202.511 650.579 203.272 650.579 204.149ZM649.284 204.149C649.284 203.384 649.219 202.742 649.088 202.224C648.962 201.701 648.789 201.281 648.57 200.964C648.355 200.647 648.106 200.42 647.821 200.285C647.536 200.145 647.24 200.075 646.932 200.075C646.624 200.075 646.328 200.145 646.043 200.285C645.758 200.42 645.509 200.647 645.294 200.964C645.079 201.281 644.907 201.701 644.776 202.224C644.65 202.742 644.587 203.384 644.587 204.149C644.587 204.914 644.65 205.556 644.776 206.074C644.907 206.592 645.079 207.01 645.294 207.327C645.509 207.644 645.758 207.873 646.043 208.013C646.328 208.148 646.624 208.216 646.932 208.216C647.24 208.216 647.536 208.148 647.821 208.013C648.106 207.873 648.355 207.644 648.57 207.327C648.789 207.01 648.962 206.592 649.088 206.074C649.219 205.556 649.284 204.914 649.284 204.149Z" fill="white"/>
<line x1="244.5" y1="321.161" x2="244.5" y2="265.161" stroke="#F33233"/>
</svg>
