<svg width="662" height="571" viewBox="0 0 662 571" fill="none" xmlns="http://www.w3.org/2000/svg">
<line x1="661" y1="380.412" y2="380.412" stroke="white" stroke-opacity="0.2" stroke-width="0.5"/>
<line x1="661" y1="190.412" y2="190.412" stroke="white" stroke-opacity="0.2" stroke-width="0.5"/>
<line x1="661" y1="285.411" y2="285.411" stroke="white" stroke-opacity="0.2" stroke-width="0.5"/>
<line x1="661" y1="475.41" y2="475.41" stroke="white" stroke-opacity="0.2" stroke-width="0.5"/>
<line x1="661" y1="95.4106" y2="95.4106" stroke="white" stroke-opacity="0.2" stroke-width="0.5"/>
<line x1="84.2227" y1="570.161" x2="84.2227" y2="0.161377" stroke="white" stroke-opacity="0.2" stroke-width="0.5"/>
<line x1="166.584" y1="570.161" x2="166.584" y2="0.161377" stroke="white" stroke-opacity="0.2" stroke-width="0.5"/>
<line x1="248.945" y1="570.161" x2="248.945" y2="0.161377" stroke="white" stroke-opacity="0.2" stroke-width="0.5"/>
<line x1="331.306" y1="570.161" x2="331.306" y2="0.161377" stroke="white" stroke-opacity="0.2" stroke-width="0.5"/>
<line x1="413.667" y1="570.161" x2="413.667" y2="0.161377" stroke="white" stroke-opacity="0.2" stroke-width="0.5"/>
<line x1="496.028" y1="570.161" x2="496.028" y2="0.161377" stroke="white" stroke-opacity="0.2" stroke-width="0.5"/>
<line x1="578.389" y1="570.161" x2="578.389" y2="0.161377" stroke="white" stroke-opacity="0.2" stroke-width="0.5"/>
<line y1="312.661" x2="661" y2="312.661" stroke="white"/>
<path d="M0 351.161H661" stroke="white" stroke-width="0.5" stroke-dasharray="5 5"/>
<path d="M0 185.161H661" stroke="white" stroke-width="0.5" stroke-dasharray="5 5"/>
<rect x="214" y="221.161" width="17" height="56" fill="#F33233"/>
<line x1="222.5" y1="304.161" x2="222.5" y2="205.161" stroke="#F33233"/>
<rect x="236" y="277.161" width="16.3539" height="35.9458" fill="#F33233"/>
<rect x="38" y="256.161" width="17" height="40" fill="#59CE77"/>
<line x1="46.6611" y1="315.161" x2="46.6611" y2="246.161" stroke="#59CE77"/>
<rect x="60" y="206.187" width="17" height="50.0545" fill="#59CE77"/>
<line x1="68.5" y1="267.161" x2="68.5" y2="181.16" stroke="#59CE77"/>
<rect x="82" y="179.161" width="17" height="27" fill="#59CE77"/>
<line x1="90.54" y1="264.313" x2="90.54" y2="173.161" stroke="#59CE77"/>
<rect x="-5" y="308.161" width="17" height="61" fill="#F33233"/>
<line x1="4.5" y1="308.161" x2="4.5" y2="296.161" stroke="#F33233"/>
<line x1="4.5" y1="375.161" x2="4.5" y2="369.161" stroke="#F33233"/>
<rect x="104" y="179.161" width="17" height="55" fill="#F33233"/>
<line x1="112.5" y1="253.161" x2="112.5" y2="167.161" stroke="#F33233"/>
<rect x="126" y="234.161" width="17" height="56" fill="#F33233"/>
<line x1="134.5" y1="298.377" x2="134.5" y2="202.161" stroke="#F33233"/>
<rect x="148" y="290.161" width="17" height="33" fill="#F33233"/>
<line x1="156.5" y1="338.161" x2="156.5" y2="262.161" stroke="#F33233"/>
<rect x="170" y="262.161" width="17" height="61" fill="#59CE77"/>
<line x1="178.5" y1="286.874" x2="178.5" y2="209.16" stroke="#59CE77"/>
<rect x="192" y="221.161" width="17" height="41" fill="#59CE77"/>
<line x1="200.5" y1="269.589" x2="200.5" y2="196.161" stroke="#59CE77"/>
<rect x="17" y="296.16" width="17" height="73" fill="#59CE77"/>
<line x1="25.5" y1="374.16" x2="25.5" y2="288.16" stroke="#59CE77"/>
<rect x="257.5" y="293.661" width="16" height="19" fill="#59CE77" stroke="#59CE77"/>
<line x1="265.5" y1="323.161" x2="265.5" y2="312.161" stroke="#59CE77"/>
<line x1="265.5" y1="294.161" x2="265.5" y2="277.161" stroke="#59CE77"/>
<rect x="279.5" y="264.661" width="16" height="28" fill="#59CE77" stroke="#59CE77"/>
<line x1="287.5" y1="303.161" x2="287.5" y2="292.161" stroke="#59CE77"/>
<line x1="287.5" y1="265.161" x2="287.5" y2="254.161" stroke="#59CE77"/>
<rect x="301.5" y="214.661" width="16" height="49" fill="#59CE77" stroke="#59CE77"/>
<line x1="309.5" y1="281.161" x2="309.5" y2="263.161" stroke="#59CE77"/>
<line x1="309.5" y1="215.161" x2="309.5" y2="190.161" stroke="#59CE77"/>
<rect x="323.5" y="187.661" width="16" height="26" fill="#59CE77" stroke="#59CE77"/>
<line x1="331.5" y1="224.161" x2="331.5" y2="213.161" stroke="#59CE77"/>
<line x1="331.5" y1="188.161" x2="331.5" y2="167.161" stroke="#59CE77"/>
<rect x="345.5" y="148.661" width="16" height="38" fill="#59CE77" stroke="#59CE77"/>
<line x1="353.5" y1="203.161" x2="353.5" y2="186.161" stroke="#59CE77"/>
<line x1="353.5" y1="149.161" x2="353.5" y2="132.161" stroke="#59CE77"/>
<line x1="661.25" y1="0.160889" x2="661.25" y2="570.161" stroke="white" stroke-width="0.5"/>
<path d="M520.469 331.149C520.469 331.9 520.35 332.591 520.112 333.221C519.874 333.846 519.538 334.385 519.104 334.838C518.67 335.291 518.147 335.643 517.536 335.895C516.929 336.142 516.257 336.266 515.52 336.266C514.783 336.266 514.111 336.142 513.504 335.895C512.897 335.643 512.377 335.291 511.943 334.838C511.509 334.385 511.173 333.846 510.935 333.221C510.697 332.591 510.578 331.9 510.578 331.149C510.578 330.398 510.697 329.709 510.935 329.084C511.173 328.454 511.509 327.913 511.943 327.46C512.377 327.003 512.897 326.648 513.504 326.396C514.111 326.144 514.783 326.018 515.52 326.018C516.257 326.018 516.929 326.144 517.536 326.396C518.147 326.648 518.67 327.003 519.104 327.46C519.538 327.913 519.874 328.454 520.112 329.084C520.35 329.709 520.469 330.398 520.469 331.149ZM519.076 331.149C519.076 330.533 518.992 329.98 518.824 329.49C518.656 329 518.418 328.587 518.11 328.251C517.802 327.91 517.429 327.649 516.99 327.467C516.551 327.285 516.061 327.194 515.52 327.194C514.983 327.194 514.496 327.285 514.057 327.467C513.618 327.649 513.243 327.91 512.93 328.251C512.622 328.587 512.384 329 512.216 329.49C512.048 329.98 511.964 330.533 511.964 331.149C511.964 331.765 512.048 332.318 512.216 332.808C512.384 333.293 512.622 333.706 512.93 334.047C513.243 334.383 513.618 334.642 514.057 334.824C514.496 335.001 514.983 335.09 515.52 335.09C516.061 335.09 516.551 335.001 516.99 334.824C517.429 334.642 517.802 334.383 518.11 334.047C518.418 333.706 518.656 333.293 518.824 332.808C518.992 332.318 519.076 331.765 519.076 331.149ZM523.164 330.491C523.388 330.006 523.663 329.628 523.99 329.357C524.317 329.082 524.716 328.944 525.187 328.944C525.336 328.944 525.479 328.96 525.614 328.993C525.754 329.026 525.878 329.077 525.985 329.147L525.894 330.078C525.866 330.195 525.796 330.253 525.684 330.253C525.619 330.253 525.523 330.239 525.397 330.211C525.271 330.183 525.129 330.169 524.97 330.169C524.746 330.169 524.545 330.202 524.368 330.267C524.195 330.332 524.039 330.43 523.899 330.561C523.764 330.687 523.64 330.846 523.528 331.037C523.421 331.224 523.323 331.438 523.234 331.681V336.161H521.981V329.07H522.695C522.83 329.07 522.924 329.096 522.975 329.147C523.026 329.198 523.061 329.287 523.08 329.413L523.164 330.491ZM528.397 329.07V336.161H527.151V329.07H528.397ZM528.663 326.844C528.663 326.965 528.637 327.08 528.586 327.187C528.539 327.29 528.474 327.383 528.39 327.467C528.31 327.546 528.215 327.609 528.103 327.656C527.995 327.703 527.881 327.726 527.76 327.726C527.638 327.726 527.524 327.703 527.417 327.656C527.314 327.609 527.223 327.546 527.144 327.467C527.064 327.383 527.001 327.29 526.955 327.187C526.908 327.08 526.885 326.965 526.885 326.844C526.885 326.723 526.908 326.608 526.955 326.501C527.001 326.389 527.064 326.293 527.144 326.214C527.223 326.13 527.314 326.065 527.417 326.018C527.524 325.971 527.638 325.948 527.76 325.948C527.881 325.948 527.995 325.971 528.103 326.018C528.215 326.065 528.31 326.13 528.39 326.214C528.474 326.293 528.539 326.389 528.586 326.501C528.637 326.608 528.663 326.723 528.663 326.844ZM532.915 332.696C533.167 332.696 533.389 332.661 533.58 332.591C533.771 332.521 533.932 332.423 534.063 332.297C534.194 332.171 534.292 332.022 534.357 331.849C534.422 331.672 534.455 331.478 534.455 331.268C534.455 330.834 534.322 330.489 534.056 330.232C533.795 329.975 533.414 329.847 532.915 329.847C532.411 329.847 532.026 329.975 531.76 330.232C531.499 330.489 531.368 330.834 531.368 331.268C531.368 331.478 531.401 331.672 531.466 331.849C531.536 332.022 531.636 332.171 531.767 332.297C531.898 332.423 532.059 332.521 532.25 332.591C532.441 332.661 532.663 332.696 532.915 332.696ZM535.162 336.546C535.162 336.373 535.113 336.233 535.015 336.126C534.917 336.019 534.784 335.935 534.616 335.874C534.453 335.813 534.261 335.771 534.042 335.748C533.823 335.72 533.589 335.699 533.342 335.685C533.099 335.671 532.852 335.657 532.6 335.643C532.348 335.629 532.105 335.606 531.872 335.573C531.611 335.694 531.396 335.848 531.228 336.035C531.065 336.217 530.983 336.432 530.983 336.679C530.983 336.838 531.023 336.985 531.102 337.12C531.186 337.26 531.312 337.379 531.48 337.477C531.648 337.58 531.858 337.659 532.11 337.715C532.367 337.776 532.668 337.806 533.013 337.806C533.349 337.806 533.65 337.776 533.916 337.715C534.182 337.654 534.406 337.568 534.588 337.456C534.775 337.344 534.917 337.211 535.015 337.057C535.113 336.903 535.162 336.733 535.162 336.546ZM536.429 329.35V329.812C536.429 329.966 536.331 330.064 536.135 330.106L535.33 330.211C535.489 330.519 535.568 330.86 535.568 331.233C535.568 331.578 535.5 331.893 535.365 332.178C535.234 332.458 535.052 332.698 534.819 332.899C534.586 333.1 534.306 333.254 533.979 333.361C533.652 333.468 533.298 333.522 532.915 333.522C532.584 333.522 532.271 333.482 531.977 333.403C531.828 333.496 531.713 333.597 531.634 333.704C531.555 333.807 531.515 333.912 531.515 334.019C531.515 334.187 531.583 334.315 531.718 334.404C531.858 334.488 532.04 334.549 532.264 334.586C532.488 334.623 532.742 334.647 533.027 334.656C533.316 334.665 533.61 334.682 533.909 334.705C534.212 334.724 534.506 334.759 534.791 334.81C535.08 334.861 535.337 334.945 535.561 335.062C535.785 335.179 535.965 335.34 536.1 335.545C536.24 335.75 536.31 336.016 536.31 336.343C536.31 336.646 536.233 336.94 536.079 337.225C535.93 337.51 535.713 337.762 535.428 337.981C535.143 338.205 534.793 338.382 534.378 338.513C533.967 338.648 533.503 338.716 532.985 338.716C532.467 338.716 532.014 338.665 531.627 338.562C531.24 338.459 530.918 338.322 530.661 338.149C530.404 337.976 530.211 337.776 530.08 337.547C529.954 337.323 529.891 337.087 529.891 336.84C529.891 336.49 530.001 336.194 530.22 335.951C530.439 335.708 530.74 335.515 531.123 335.37C530.913 335.277 530.745 335.153 530.619 334.999C530.498 334.84 530.437 334.628 530.437 334.362C530.437 334.259 530.456 334.154 530.493 334.047C530.53 333.935 530.586 333.825 530.661 333.718C530.74 333.606 530.836 333.501 530.948 333.403C531.06 333.305 531.191 333.219 531.34 333.144C530.99 332.948 530.717 332.689 530.521 332.367C530.325 332.04 530.227 331.662 530.227 331.233C530.227 330.888 530.292 330.575 530.423 330.295C530.558 330.01 530.745 329.77 530.983 329.574C531.221 329.373 531.503 329.219 531.83 329.112C532.161 329.005 532.523 328.951 532.915 328.951C533.223 328.951 533.51 328.986 533.776 329.056C534.042 329.121 534.285 329.219 534.504 329.35H536.429ZM539.033 329.07V336.161H537.787V329.07H539.033ZM539.299 326.844C539.299 326.965 539.274 327.08 539.222 327.187C539.176 327.29 539.11 327.383 539.026 327.467C538.947 327.546 538.851 327.609 538.739 327.656C538.632 327.703 538.518 327.726 538.396 327.726C538.275 327.726 538.161 327.703 538.053 327.656C537.951 327.609 537.86 327.546 537.78 327.467C537.701 327.383 537.638 327.29 537.591 327.187C537.545 327.08 537.521 326.965 537.521 326.844C537.521 326.723 537.545 326.608 537.591 326.501C537.638 326.389 537.701 326.293 537.78 326.214C537.86 326.13 537.951 326.065 538.053 326.018C538.161 325.971 538.275 325.948 538.396 325.948C538.518 325.948 538.632 325.971 538.739 326.018C538.851 326.065 538.947 326.13 539.026 326.214C539.11 326.293 539.176 326.389 539.222 326.501C539.274 326.608 539.299 326.723 539.299 326.844ZM542.257 330.099C542.411 329.926 542.574 329.77 542.747 329.63C542.919 329.49 543.101 329.371 543.293 329.273C543.489 329.17 543.694 329.093 543.909 329.042C544.128 328.986 544.364 328.958 544.616 328.958C545.003 328.958 545.344 329.023 545.638 329.154C545.936 329.28 546.184 329.462 546.38 329.7C546.58 329.933 546.732 330.216 546.835 330.547C546.937 330.878 546.989 331.245 546.989 331.646V336.161H545.736V331.646C545.736 331.109 545.612 330.694 545.365 330.4C545.122 330.101 544.751 329.952 544.252 329.952C543.883 329.952 543.538 330.041 543.216 330.218C542.898 330.395 542.604 330.636 542.334 330.939V336.161H541.081V329.07H541.83C542.007 329.07 542.117 329.156 542.159 329.329L542.257 330.099ZM552.73 332.969C552.156 332.988 551.666 333.034 551.26 333.109C550.859 333.179 550.53 333.272 550.273 333.389C550.021 333.506 549.837 333.643 549.72 333.802C549.608 333.961 549.552 334.138 549.552 334.334C549.552 334.521 549.583 334.682 549.643 334.817C549.704 334.952 549.786 335.064 549.888 335.153C549.996 335.237 550.119 335.3 550.259 335.342C550.404 335.379 550.558 335.398 550.721 335.398C550.941 335.398 551.141 335.377 551.323 335.335C551.505 335.288 551.676 335.223 551.834 335.139C551.998 335.055 552.152 334.955 552.296 334.838C552.446 334.721 552.59 334.588 552.73 334.439V332.969ZM548.705 330.071C549.097 329.693 549.52 329.411 549.972 329.224C550.425 329.037 550.927 328.944 551.477 328.944C551.874 328.944 552.226 329.009 552.534 329.14C552.842 329.271 553.101 329.453 553.311 329.686C553.521 329.919 553.68 330.202 553.787 330.533C553.895 330.864 553.948 331.228 553.948 331.625V336.161H553.395C553.274 336.161 553.181 336.142 553.115 336.105C553.05 336.063 552.999 335.984 552.961 335.867L552.821 335.195C552.635 335.368 552.453 335.522 552.275 335.657C552.098 335.788 551.911 335.9 551.715 335.993C551.519 336.082 551.309 336.149 551.085 336.196C550.866 336.247 550.621 336.273 550.35 336.273C550.075 336.273 549.816 336.236 549.573 336.161C549.331 336.082 549.118 335.965 548.936 335.811C548.759 335.657 548.617 335.463 548.509 335.23C548.407 334.992 548.355 334.712 548.355 334.39C548.355 334.11 548.432 333.842 548.586 333.585C548.74 333.324 548.99 333.093 549.335 332.892C549.681 332.691 550.131 332.528 550.686 332.402C551.242 332.271 551.923 332.197 552.73 332.178V331.625C552.73 331.074 552.611 330.659 552.373 330.379C552.135 330.094 551.788 329.952 551.33 329.952C551.022 329.952 550.763 329.992 550.553 330.071C550.348 330.146 550.168 330.232 550.014 330.33C549.865 330.423 549.734 330.51 549.622 330.589C549.515 330.664 549.408 330.701 549.3 330.701C549.216 330.701 549.144 330.68 549.083 330.638C549.023 330.591 548.971 330.535 548.929 330.47L548.705 330.071ZM557.134 325.85V336.161H555.888V325.85H557.134ZM563.99 334.453C564.219 334.761 564.468 334.978 564.739 335.104C565.01 335.23 565.313 335.293 565.649 335.293C566.312 335.293 566.82 335.057 567.175 334.586C567.53 334.115 567.707 333.443 567.707 332.57C567.707 332.108 567.665 331.711 567.581 331.38C567.502 331.049 567.385 330.778 567.231 330.568C567.077 330.353 566.888 330.197 566.664 330.099C566.44 330.001 566.186 329.952 565.901 329.952C565.495 329.952 565.138 330.045 564.83 330.232C564.527 330.419 564.247 330.682 563.99 331.023V334.453ZM563.927 330.169C564.226 329.8 564.571 329.504 564.963 329.28C565.355 329.056 565.803 328.944 566.307 328.944C566.718 328.944 567.089 329.023 567.42 329.182C567.751 329.336 568.034 329.567 568.267 329.875C568.5 330.178 568.68 330.556 568.806 331.009C568.932 331.462 568.995 331.982 568.995 332.57C568.995 333.093 568.925 333.58 568.785 334.033C568.645 334.481 568.442 334.871 568.176 335.202C567.915 335.529 567.593 335.788 567.21 335.979C566.832 336.166 566.405 336.259 565.929 336.259C565.495 336.259 565.122 336.187 564.809 336.042C564.501 335.893 564.228 335.687 563.99 335.426V338.562H562.737V329.07H563.486C563.663 329.07 563.773 329.156 563.815 329.329L563.927 330.169ZM571.768 330.491C571.992 330.006 572.267 329.628 572.594 329.357C572.92 329.082 573.319 328.944 573.791 328.944C573.94 328.944 574.082 328.96 574.218 328.993C574.358 329.026 574.481 329.077 574.589 329.147L574.498 330.078C574.47 330.195 574.4 330.253 574.288 330.253C574.222 330.253 574.127 330.239 574.001 330.211C573.875 330.183 573.732 330.169 573.574 330.169C573.35 330.169 573.149 330.202 572.972 330.267C572.799 330.332 572.643 330.43 572.503 330.561C572.367 330.687 572.244 330.846 572.132 331.037C572.024 331.224 571.926 331.438 571.838 331.681V336.161H570.585V329.07H571.299C571.434 329.07 571.527 329.096 571.579 329.147C571.63 329.198 571.665 329.287 571.684 329.413L571.768 330.491ZM577 329.07V336.161H575.754V329.07H577ZM577.266 326.844C577.266 326.965 577.241 327.08 577.189 327.187C577.143 327.29 577.077 327.383 576.993 327.467C576.914 327.546 576.818 327.609 576.706 327.656C576.599 327.703 576.485 327.726 576.363 327.726C576.242 327.726 576.128 327.703 576.02 327.656C575.918 327.609 575.827 327.546 575.747 327.467C575.668 327.383 575.605 327.29 575.558 327.187C575.512 327.08 575.488 326.965 575.488 326.844C575.488 326.723 575.512 326.608 575.558 326.501C575.605 326.389 575.668 326.293 575.747 326.214C575.827 326.13 575.918 326.065 576.02 326.018C576.128 325.971 576.242 325.948 576.363 325.948C576.485 325.948 576.599 325.971 576.706 326.018C576.818 326.065 576.914 326.13 576.993 326.214C577.077 326.293 577.143 326.389 577.189 326.501C577.241 326.608 577.266 326.723 577.266 326.844ZM583.983 330.33C583.945 330.381 583.908 330.421 583.871 330.449C583.833 330.477 583.782 330.491 583.717 330.491C583.647 330.491 583.57 330.463 583.486 330.407C583.402 330.346 583.297 330.281 583.171 330.211C583.049 330.141 582.898 330.078 582.716 330.022C582.538 329.961 582.319 329.931 582.058 329.931C581.708 329.931 581.4 329.994 581.134 330.12C580.868 330.241 580.644 330.419 580.462 330.652C580.284 330.885 580.149 331.168 580.056 331.499C579.967 331.83 579.923 332.201 579.923 332.612C579.923 333.041 579.972 333.424 580.07 333.76C580.168 334.091 580.305 334.371 580.483 334.6C580.665 334.824 580.882 334.997 581.134 335.118C581.39 335.235 581.677 335.293 581.995 335.293C582.298 335.293 582.548 335.258 582.744 335.188C582.94 335.113 583.101 335.032 583.227 334.943C583.357 334.854 583.465 334.775 583.549 334.705C583.637 334.63 583.724 334.593 583.808 334.593C583.91 334.593 583.99 334.633 584.046 334.712L584.396 335.167C584.242 335.358 584.067 335.522 583.871 335.657C583.675 335.792 583.462 335.907 583.234 336C583.01 336.089 582.774 336.154 582.527 336.196C582.279 336.238 582.027 336.259 581.771 336.259C581.327 336.259 580.914 336.177 580.532 336.014C580.154 335.851 579.825 335.615 579.545 335.307C579.265 334.994 579.045 334.612 578.887 334.159C578.728 333.706 578.649 333.191 578.649 332.612C578.649 332.085 578.721 331.597 578.866 331.149C579.015 330.701 579.23 330.316 579.51 329.994C579.794 329.667 580.142 329.413 580.553 329.231C580.968 329.049 581.444 328.958 581.981 328.958C582.48 328.958 582.919 329.04 583.297 329.203C583.679 329.362 584.018 329.588 584.312 329.882L583.983 330.33ZM590.356 331.842C590.356 331.553 590.314 331.289 590.23 331.051C590.151 330.808 590.032 330.601 589.873 330.428C589.719 330.251 589.53 330.115 589.306 330.022C589.082 329.924 588.828 329.875 588.543 329.875C587.946 329.875 587.472 330.05 587.122 330.4C586.777 330.745 586.562 331.226 586.478 331.842H590.356ZM591.364 335.167C591.21 335.354 591.026 335.517 590.811 335.657C590.596 335.792 590.365 335.904 590.118 335.993C589.875 336.082 589.623 336.147 589.362 336.189C589.101 336.236 588.842 336.259 588.585 336.259C588.095 336.259 587.642 336.177 587.227 336.014C586.816 335.846 586.459 335.603 586.156 335.286C585.857 334.964 585.624 334.567 585.456 334.096C585.288 333.625 585.204 333.083 585.204 332.472C585.204 331.977 585.279 331.515 585.428 331.086C585.582 330.657 585.801 330.286 586.086 329.973C586.371 329.656 586.718 329.408 587.129 329.231C587.54 329.049 588.002 328.958 588.515 328.958C588.94 328.958 589.332 329.03 589.691 329.175C590.055 329.315 590.368 329.52 590.629 329.791C590.895 330.057 591.103 330.388 591.252 330.785C591.401 331.177 591.476 331.625 591.476 332.129C591.476 332.325 591.455 332.456 591.413 332.521C591.371 332.586 591.292 332.619 591.175 332.619H586.436C586.45 333.067 586.511 333.457 586.618 333.788C586.73 334.119 586.884 334.397 587.08 334.621C587.276 334.84 587.509 335.006 587.78 335.118C588.051 335.225 588.354 335.279 588.69 335.279C589.003 335.279 589.271 335.244 589.495 335.174C589.724 335.099 589.92 335.02 590.083 334.936C590.246 334.852 590.382 334.775 590.489 334.705C590.601 334.63 590.697 334.593 590.776 334.593C590.879 334.593 590.958 334.633 591.014 334.712L591.364 335.167ZM592.895 335.391C592.895 335.27 592.916 335.155 592.958 335.048C593.004 334.941 593.065 334.847 593.14 334.768C593.219 334.689 593.312 334.626 593.42 334.579C593.527 334.532 593.641 334.509 593.763 334.509C593.884 334.509 593.998 334.532 594.106 334.579C594.213 334.626 594.306 334.689 594.386 334.768C594.465 334.847 594.528 334.941 594.575 335.048C594.621 335.155 594.645 335.27 594.645 335.391C594.645 335.517 594.621 335.634 594.575 335.741C594.528 335.844 594.465 335.935 594.386 336.014C594.306 336.093 594.213 336.154 594.106 336.196C593.998 336.243 593.884 336.266 593.763 336.266C593.641 336.266 593.527 336.243 593.42 336.196C593.312 336.154 593.219 336.093 593.14 336.014C593.065 335.935 593.004 335.844 592.958 335.741C592.916 335.634 592.895 335.517 592.895 335.391ZM592.895 330.141C592.895 330.02 592.916 329.905 592.958 329.798C593.004 329.691 593.065 329.597 593.14 329.518C593.219 329.439 593.312 329.376 593.42 329.329C593.527 329.282 593.641 329.259 593.763 329.259C593.884 329.259 593.998 329.282 594.106 329.329C594.213 329.376 594.306 329.439 594.386 329.518C594.465 329.597 594.528 329.691 594.575 329.798C594.621 329.905 594.645 330.02 594.645 330.141C594.645 330.267 594.621 330.384 594.575 330.491C594.528 330.594 594.465 330.685 594.386 330.764C594.306 330.843 594.213 330.906 594.106 330.953C593.998 330.995 593.884 331.016 593.763 331.016C593.641 331.016 593.527 330.995 593.42 330.953C593.312 330.906 593.219 330.843 593.14 330.764C593.065 330.685 593.004 330.594 592.958 330.491C592.916 330.384 592.895 330.267 592.895 330.141ZM603.393 335.202C603.701 335.174 603.971 335.109 604.205 335.006C604.438 334.899 604.634 334.763 604.793 334.6C604.956 334.437 605.077 334.248 605.157 334.033C605.241 333.814 605.283 333.573 605.283 333.312C605.283 333.079 605.238 332.878 605.15 332.71C605.066 332.542 604.949 332.397 604.8 332.276C604.65 332.15 604.475 332.045 604.275 331.961C604.074 331.872 603.859 331.791 603.631 331.716L603.393 335.202ZM603.162 327.11C602.858 327.138 602.595 327.199 602.371 327.292C602.151 327.385 601.969 327.502 601.825 327.642C601.68 327.782 601.573 327.941 601.503 328.118C601.433 328.291 601.398 328.473 601.398 328.664C601.398 328.888 601.437 329.084 601.517 329.252C601.596 329.415 601.706 329.56 601.846 329.686C601.986 329.812 602.149 329.922 602.336 330.015C602.522 330.108 602.725 330.192 602.945 330.267L603.162 327.11ZM603.715 330.512C604.051 330.619 604.382 330.734 604.709 330.855C605.035 330.976 605.329 331.133 605.591 331.324C605.852 331.515 606.062 331.756 606.221 332.045C606.384 332.33 606.466 332.687 606.466 333.116C606.466 333.536 606.396 333.93 606.256 334.299C606.116 334.668 605.91 334.992 605.64 335.272C605.374 335.552 605.045 335.781 604.653 335.958C604.265 336.131 603.822 336.233 603.323 336.266L603.239 337.491C603.234 337.58 603.199 337.657 603.134 337.722C603.068 337.792 602.987 337.827 602.889 337.827H602.427L602.532 336.252C601.967 336.196 601.451 336.056 600.985 335.832C600.523 335.603 600.124 335.314 599.788 334.964L600.166 334.39C600.203 334.339 600.25 334.297 600.306 334.264C600.362 334.231 600.422 334.215 600.488 334.215C600.576 334.215 600.677 334.259 600.789 334.348C600.901 334.437 601.038 334.537 601.202 334.649C601.37 334.761 601.566 334.871 601.79 334.978C602.018 335.085 602.291 335.158 602.609 335.195L602.861 331.478C602.534 331.38 602.212 331.27 601.895 331.149C601.582 331.028 601.3 330.867 601.048 330.666C600.8 330.465 600.6 330.216 600.446 329.917C600.296 329.618 600.222 329.243 600.222 328.79C600.222 328.449 600.287 328.118 600.418 327.796C600.553 327.469 600.749 327.18 601.006 326.928C601.262 326.676 601.577 326.471 601.951 326.312C602.324 326.149 602.751 326.058 603.232 326.039L603.302 325.031C603.306 324.942 603.339 324.863 603.4 324.793C603.465 324.723 603.549 324.688 603.652 324.688H604.114L604.023 326.067C604.508 326.128 604.928 326.254 605.283 326.445C605.642 326.636 605.959 326.87 606.235 327.145L605.934 327.607C605.84 327.747 605.733 327.817 605.612 327.817C605.546 327.817 605.465 327.789 605.367 327.733C605.273 327.672 605.159 327.602 605.024 327.523C604.893 327.444 604.737 327.367 604.555 327.292C604.377 327.217 604.174 327.161 603.946 327.124L603.715 330.512ZM614.132 334.978C614.267 334.978 614.374 335.018 614.454 335.097C614.533 335.176 614.573 335.279 614.573 335.405V336.161H607.881V335.734C607.881 335.645 607.899 335.554 607.937 335.461C607.974 335.368 608.032 335.281 608.112 335.202L611.325 331.975C611.591 331.704 611.833 331.445 612.053 331.198C612.272 330.946 612.459 330.694 612.613 330.442C612.767 330.19 612.886 329.936 612.97 329.679C613.054 329.418 613.096 329.14 613.096 328.846C613.096 328.552 613.049 328.295 612.956 328.076C612.862 327.852 612.734 327.668 612.571 327.523C612.412 327.378 612.223 327.271 612.004 327.201C611.784 327.126 611.549 327.089 611.297 327.089C611.04 327.089 610.804 327.126 610.59 327.201C610.375 327.276 610.184 327.381 610.016 327.516C609.852 327.647 609.715 327.803 609.603 327.985C609.491 328.167 609.411 328.368 609.365 328.587C609.309 328.75 609.232 328.86 609.134 328.916C609.04 328.967 608.907 328.981 608.735 328.958L608.084 328.846C608.149 328.389 608.275 327.985 608.462 327.635C608.653 327.28 608.891 326.984 609.176 326.746C609.465 326.508 609.794 326.328 610.163 326.207C610.531 326.081 610.93 326.018 611.36 326.018C611.784 326.018 612.181 326.081 612.55 326.207C612.918 326.333 613.238 326.517 613.509 326.76C613.779 326.998 613.992 327.29 614.146 327.635C614.3 327.98 614.377 328.372 614.377 328.811C614.377 329.184 614.321 329.532 614.209 329.854C614.097 330.171 613.945 330.475 613.754 330.764C613.562 331.053 613.341 331.336 613.089 331.611C612.841 331.886 612.578 332.164 612.298 332.444L609.652 335.146C609.838 335.095 610.027 335.055 610.219 335.027C610.41 334.994 610.594 334.978 610.772 334.978H614.132ZM623.044 331.149C623.044 332.026 622.948 332.787 622.757 333.431C622.57 334.07 622.313 334.6 621.987 335.02C621.66 335.44 621.273 335.753 620.825 335.958C620.381 336.163 619.905 336.266 619.397 336.266C618.883 336.266 618.405 336.163 617.962 335.958C617.523 335.753 617.14 335.44 616.814 335.02C616.487 334.6 616.23 334.07 616.044 333.431C615.857 332.787 615.764 332.026 615.764 331.149C615.764 330.272 615.857 329.511 616.044 328.867C616.23 328.223 616.487 327.691 616.814 327.271C617.14 326.846 617.523 326.531 617.962 326.326C618.405 326.121 618.883 326.018 619.397 326.018C619.905 326.018 620.381 326.121 620.825 326.326C621.273 326.531 621.66 326.846 621.987 327.271C622.313 327.691 622.57 328.223 622.757 328.867C622.948 329.511 623.044 330.272 623.044 331.149ZM621.749 331.149C621.749 330.384 621.683 329.742 621.553 329.224C621.427 328.701 621.254 328.281 621.035 327.964C620.82 327.647 620.57 327.42 620.286 327.285C620.001 327.145 619.705 327.075 619.397 327.075C619.089 327.075 618.792 327.145 618.508 327.285C618.223 327.42 617.973 327.647 617.759 327.964C617.544 328.281 617.371 328.701 617.241 329.224C617.115 329.742 617.052 330.384 617.052 331.149C617.052 331.914 617.115 332.556 617.241 333.074C617.371 333.592 617.544 334.01 617.759 334.327C617.973 334.644 618.223 334.873 618.508 335.013C618.792 335.148 619.089 335.216 619.397 335.216C619.705 335.216 620.001 335.148 620.286 335.013C620.57 334.873 620.82 334.644 621.035 334.327C621.254 334.01 621.427 333.592 621.553 333.074C621.683 332.556 621.749 331.914 621.749 331.149ZM624.375 337.855C624.338 337.822 624.312 337.792 624.298 337.764C624.284 337.736 624.277 337.701 624.277 337.659C624.277 337.626 624.286 337.594 624.305 337.561C624.328 337.528 624.354 337.498 624.382 337.47C624.429 337.419 624.487 337.351 624.557 337.267C624.632 337.183 624.706 337.083 624.781 336.966C624.856 336.854 624.923 336.728 624.984 336.588C625.049 336.453 625.096 336.308 625.124 336.154C625.11 336.159 625.094 336.161 625.075 336.161C625.061 336.161 625.047 336.161 625.033 336.161C624.79 336.161 624.592 336.082 624.438 335.923C624.289 335.76 624.214 335.552 624.214 335.3C624.214 335.081 624.289 334.894 624.438 334.74C624.592 334.586 624.795 334.509 625.047 334.509C625.187 334.509 625.311 334.535 625.418 334.586C625.525 334.637 625.614 334.71 625.684 334.803C625.759 334.892 625.815 334.997 625.852 335.118C625.889 335.235 625.908 335.363 625.908 335.503C625.908 335.713 625.878 335.932 625.817 336.161C625.761 336.385 625.675 336.607 625.558 336.826C625.446 337.05 625.308 337.267 625.145 337.477C624.982 337.687 624.795 337.881 624.585 338.058L624.375 337.855ZM634.337 331.149C634.337 332.026 634.241 332.787 634.05 333.431C633.863 334.07 633.606 334.6 633.28 335.02C632.953 335.44 632.566 335.753 632.118 335.958C631.674 336.163 631.198 336.266 630.69 336.266C630.176 336.266 629.698 336.163 629.255 335.958C628.816 335.753 628.433 335.44 628.107 335.02C627.78 334.6 627.523 334.07 627.337 333.431C627.15 332.787 627.057 332.026 627.057 331.149C627.057 330.272 627.15 329.511 627.337 328.867C627.523 328.223 627.78 327.691 628.107 327.271C628.433 326.846 628.816 326.531 629.255 326.326C629.698 326.121 630.176 326.018 630.69 326.018C631.198 326.018 631.674 326.121 632.118 326.326C632.566 326.531 632.953 326.846 633.28 327.271C633.606 327.691 633.863 328.223 634.05 328.867C634.241 329.511 634.337 330.272 634.337 331.149ZM633.042 331.149C633.042 330.384 632.976 329.742 632.846 329.224C632.72 328.701 632.547 328.281 632.328 327.964C632.113 327.647 631.863 327.42 631.579 327.285C631.294 327.145 630.998 327.075 630.69 327.075C630.382 327.075 630.085 327.145 629.801 327.285C629.516 327.42 629.266 327.647 629.052 327.964C628.837 328.281 628.664 328.701 628.534 329.224C628.408 329.742 628.345 330.384 628.345 331.149C628.345 331.914 628.408 332.556 628.534 333.074C628.664 333.592 628.837 334.01 629.052 334.327C629.266 334.644 629.516 334.873 629.801 335.013C630.085 335.148 630.382 335.216 630.69 335.216C630.998 335.216 631.294 335.148 631.579 335.013C631.863 334.873 632.113 334.644 632.328 334.327C632.547 334.01 632.72 333.592 632.846 333.074C632.976 332.556 633.042 331.914 633.042 331.149ZM642.458 331.149C642.458 332.026 642.362 332.787 642.171 333.431C641.984 334.07 641.727 334.6 641.401 335.02C641.074 335.44 640.687 335.753 640.239 335.958C639.795 336.163 639.319 336.266 638.811 336.266C638.297 336.266 637.819 336.163 637.376 335.958C636.937 335.753 636.554 335.44 636.228 335.02C635.901 334.6 635.644 334.07 635.458 333.431C635.271 332.787 635.178 332.026 635.178 331.149C635.178 330.272 635.271 329.511 635.458 328.867C635.644 328.223 635.901 327.691 636.228 327.271C636.554 326.846 636.937 326.531 637.376 326.326C637.819 326.121 638.297 326.018 638.811 326.018C639.319 326.018 639.795 326.121 640.239 326.326C640.687 326.531 641.074 326.846 641.401 327.271C641.727 327.691 641.984 328.223 642.171 328.867C642.362 329.511 642.458 330.272 642.458 331.149ZM641.163 331.149C641.163 330.384 641.097 329.742 640.967 329.224C640.841 328.701 640.668 328.281 640.449 327.964C640.234 327.647 639.984 327.42 639.7 327.285C639.415 327.145 639.119 327.075 638.811 327.075C638.503 327.075 638.206 327.145 637.922 327.285C637.637 327.42 637.387 327.647 637.173 327.964C636.958 328.281 636.785 328.701 636.655 329.224C636.529 329.742 636.466 330.384 636.466 331.149C636.466 331.914 636.529 332.556 636.655 333.074C636.785 333.592 636.958 334.01 637.173 334.327C637.387 334.644 637.637 334.873 637.922 335.013C638.206 335.148 638.503 335.216 638.811 335.216C639.119 335.216 639.415 335.148 639.7 335.013C639.984 334.873 640.234 334.644 640.449 334.327C640.668 334.01 640.841 333.592 640.967 333.074C641.097 332.556 641.163 331.914 641.163 331.149ZM650.579 331.149C650.579 332.026 650.483 332.787 650.292 333.431C650.105 334.07 649.849 334.6 649.522 335.02C649.195 335.44 648.808 335.753 648.36 335.958C647.917 336.163 647.441 336.266 646.932 336.266C646.419 336.266 645.94 336.163 645.497 335.958C645.058 335.753 644.676 335.44 644.349 335.02C644.022 334.6 643.766 334.07 643.579 333.431C643.392 332.787 643.299 332.026 643.299 331.149C643.299 330.272 643.392 329.511 643.579 328.867C643.766 328.223 644.022 327.691 644.349 327.271C644.676 326.846 645.058 326.531 645.497 326.326C645.94 326.121 646.419 326.018 646.932 326.018C647.441 326.018 647.917 326.121 648.36 326.326C648.808 326.531 649.195 326.846 649.522 327.271C649.849 327.691 650.105 328.223 650.292 328.867C650.483 329.511 650.579 330.272 650.579 331.149ZM649.284 331.149C649.284 330.384 649.219 329.742 649.088 329.224C648.962 328.701 648.789 328.281 648.57 327.964C648.355 327.647 648.106 327.42 647.821 327.285C647.536 327.145 647.24 327.075 646.932 327.075C646.624 327.075 646.328 327.145 646.043 327.285C645.758 327.42 645.509 327.647 645.294 327.964C645.079 328.281 644.907 328.701 644.776 329.224C644.65 329.742 644.587 330.384 644.587 331.149C644.587 331.914 644.65 332.556 644.776 333.074C644.907 333.592 645.079 334.01 645.294 334.327C645.509 334.644 645.758 334.873 646.043 335.013C646.328 335.148 646.624 335.216 646.932 335.216C647.24 335.216 647.536 335.148 647.821 335.013C648.106 334.873 648.355 334.644 648.57 334.327C648.789 334.01 648.962 333.592 649.088 333.074C649.219 332.556 649.284 331.914 649.284 331.149Z" fill="white"/>
<path d="M603.291 374.202C603.599 374.174 603.87 374.109 604.103 374.006C604.336 373.899 604.532 373.763 604.691 373.6C604.854 373.437 604.976 373.248 605.055 373.033C605.139 372.814 605.181 372.573 605.181 372.312C605.181 372.079 605.137 371.878 605.048 371.71C604.964 371.542 604.847 371.397 604.698 371.276C604.549 371.15 604.374 371.045 604.173 370.961C603.972 370.872 603.758 370.791 603.529 370.716L603.291 374.202ZM603.06 366.11C602.757 366.138 602.493 366.199 602.269 366.292C602.05 366.385 601.868 366.502 601.723 366.642C601.578 366.782 601.471 366.941 601.401 367.118C601.331 367.291 601.296 367.473 601.296 367.664C601.296 367.888 601.336 368.084 601.415 368.252C601.494 368.415 601.604 368.56 601.744 368.686C601.884 368.812 602.047 368.922 602.234 369.015C602.421 369.108 602.624 369.192 602.843 369.267L603.06 366.11ZM603.613 369.512C603.949 369.619 604.28 369.734 604.607 369.855C604.934 369.976 605.228 370.133 605.489 370.324C605.75 370.515 605.96 370.756 606.119 371.045C606.282 371.33 606.364 371.687 606.364 372.116C606.364 372.536 606.294 372.93 606.154 373.299C606.014 373.668 605.809 373.992 605.538 374.272C605.272 374.552 604.943 374.781 604.551 374.958C604.164 375.131 603.72 375.233 603.221 375.266L603.137 376.491C603.132 376.58 603.097 376.657 603.032 376.722C602.967 376.792 602.885 376.827 602.787 376.827H602.325L602.43 375.252C601.865 375.196 601.35 375.056 600.883 374.832C600.421 374.603 600.022 374.314 599.686 373.964L600.064 373.39C600.101 373.339 600.148 373.297 600.204 373.264C600.26 373.231 600.321 373.215 600.386 373.215C600.475 373.215 600.575 373.259 600.687 373.348C600.799 373.437 600.937 373.537 601.1 373.649C601.268 373.761 601.464 373.871 601.688 373.978C601.917 374.085 602.19 374.158 602.507 374.195L602.759 370.478C602.432 370.38 602.11 370.27 601.793 370.149C601.48 370.028 601.198 369.867 600.946 369.666C600.699 369.465 600.498 369.216 600.344 368.917C600.195 368.618 600.12 368.243 600.12 367.79C600.12 367.449 600.185 367.118 600.316 366.796C600.451 366.469 600.647 366.18 600.904 365.928C601.161 365.676 601.476 365.471 601.849 365.312C602.222 365.149 602.649 365.058 603.13 365.039L603.2 364.031C603.205 363.942 603.237 363.863 603.298 363.793C603.363 363.723 603.447 363.688 603.55 363.688H604.012L603.921 365.067C604.406 365.128 604.826 365.254 605.181 365.445C605.54 365.636 605.858 365.87 606.133 366.145L605.832 366.607C605.739 366.747 605.631 366.817 605.51 366.817C605.445 366.817 605.363 366.789 605.265 366.733C605.172 366.672 605.057 366.602 604.922 366.523C604.791 366.444 604.635 366.367 604.453 366.292C604.276 366.217 604.073 366.161 603.844 366.124L603.613 369.512ZM614.247 374.209V375.161H608.871V374.209H611.02V367.37C611.02 367.165 611.027 366.957 611.041 366.747L609.256 368.28C609.195 368.331 609.135 368.364 609.074 368.378C609.013 368.387 608.957 368.387 608.906 368.378C608.855 368.369 608.806 368.35 608.759 368.322C608.717 368.294 608.684 368.264 608.661 368.231L608.269 367.692L611.258 365.109H612.273V374.209H614.247ZM617.223 368.077C617.223 368.394 617.268 368.679 617.356 368.931C617.45 369.178 617.58 369.388 617.748 369.561C617.921 369.734 618.129 369.864 618.371 369.953C618.619 370.042 618.894 370.086 619.197 370.086C619.533 370.086 619.83 370.032 620.086 369.925C620.348 369.813 620.567 369.666 620.744 369.484C620.922 369.302 621.057 369.092 621.15 368.854C621.244 368.616 621.29 368.369 621.29 368.112C621.29 367.799 621.239 367.517 621.136 367.265C621.038 367.008 620.901 366.791 620.723 366.614C620.546 366.437 620.334 366.301 620.086 366.208C619.844 366.11 619.575 366.061 619.281 366.061C618.973 366.061 618.693 366.112 618.441 366.215C618.189 366.313 617.972 366.451 617.79 366.628C617.608 366.805 617.468 367.018 617.37 367.265C617.272 367.512 617.223 367.783 617.223 368.077ZM620.135 371.164C620.238 371.029 620.334 370.9 620.422 370.779C620.511 370.658 620.595 370.536 620.674 370.415C620.418 370.62 620.128 370.777 619.806 370.884C619.484 370.991 619.144 371.045 618.784 371.045C618.406 371.045 618.047 370.982 617.706 370.856C617.37 370.73 617.074 370.546 616.817 370.303C616.561 370.056 616.355 369.755 616.201 369.4C616.052 369.041 615.977 368.63 615.977 368.168C615.977 367.729 616.059 367.319 616.222 366.936C616.386 366.553 616.614 366.22 616.908 365.935C617.202 365.65 617.552 365.426 617.958 365.263C618.364 365.1 618.81 365.018 619.295 365.018C619.776 365.018 620.212 365.097 620.604 365.256C620.996 365.415 621.332 365.636 621.612 365.921C621.892 366.206 622.107 366.546 622.256 366.943C622.41 367.34 622.487 367.778 622.487 368.259C622.487 368.548 622.459 368.824 622.403 369.085C622.352 369.342 622.275 369.596 622.172 369.848C622.074 370.095 621.953 370.343 621.808 370.59C621.664 370.833 621.5 371.082 621.318 371.339L618.875 374.867C618.815 374.956 618.728 375.028 618.616 375.084C618.504 375.135 618.376 375.161 618.231 375.161H617.083L620.135 371.164ZM624.273 376.855C624.236 376.822 624.21 376.792 624.196 376.764C624.182 376.736 624.175 376.701 624.175 376.659C624.175 376.626 624.185 376.594 624.203 376.561C624.227 376.528 624.252 376.498 624.28 376.47C624.327 376.419 624.385 376.351 624.455 376.267C624.53 376.183 624.605 376.083 624.679 375.966C624.754 375.854 624.822 375.728 624.882 375.588C624.948 375.453 624.994 375.308 625.022 375.154C625.008 375.159 624.992 375.161 624.973 375.161C624.959 375.161 624.945 375.161 624.931 375.161C624.689 375.161 624.49 375.082 624.336 374.923C624.187 374.76 624.112 374.552 624.112 374.3C624.112 374.081 624.187 373.894 624.336 373.74C624.49 373.586 624.693 373.509 624.945 373.509C625.085 373.509 625.209 373.535 625.316 373.586C625.424 373.637 625.512 373.71 625.582 373.803C625.657 373.892 625.713 373.997 625.75 374.118C625.788 374.235 625.806 374.363 625.806 374.503C625.806 374.713 625.776 374.932 625.715 375.161C625.659 375.385 625.573 375.607 625.456 375.826C625.344 376.05 625.207 376.267 625.043 376.477C624.88 376.687 624.693 376.881 624.483 377.058L624.273 376.855ZM628.516 368.077C628.516 368.394 628.56 368.679 628.649 368.931C628.742 369.178 628.873 369.388 629.041 369.561C629.214 369.734 629.421 369.864 629.664 369.953C629.911 370.042 630.187 370.086 630.49 370.086C630.826 370.086 631.122 370.032 631.379 369.925C631.64 369.813 631.86 369.666 632.037 369.484C632.214 369.302 632.35 369.092 632.443 368.854C632.536 368.616 632.583 368.369 632.583 368.112C632.583 367.799 632.532 367.517 632.429 367.265C632.331 367.008 632.193 366.791 632.016 366.614C631.839 366.437 631.626 366.301 631.379 366.208C631.136 366.11 630.868 366.061 630.574 366.061C630.266 366.061 629.986 366.112 629.734 366.215C629.482 366.313 629.265 366.451 629.083 366.628C628.901 366.805 628.761 367.018 628.663 367.265C628.565 367.512 628.516 367.783 628.516 368.077ZM631.428 371.164C631.531 371.029 631.626 370.9 631.715 370.779C631.804 370.658 631.888 370.536 631.967 370.415C631.71 370.62 631.421 370.777 631.099 370.884C630.777 370.991 630.436 371.045 630.077 371.045C629.699 371.045 629.34 370.982 628.999 370.856C628.663 370.73 628.367 370.546 628.11 370.303C627.853 370.056 627.648 369.755 627.494 369.4C627.345 369.041 627.27 368.63 627.27 368.168C627.27 367.729 627.352 367.319 627.515 366.936C627.678 366.553 627.907 366.22 628.201 365.935C628.495 365.65 628.845 365.426 629.251 365.263C629.657 365.1 630.103 365.018 630.588 365.018C631.069 365.018 631.505 365.097 631.897 365.256C632.289 365.415 632.625 365.636 632.905 365.921C633.185 366.206 633.4 366.546 633.549 366.943C633.703 367.34 633.78 367.778 633.78 368.259C633.78 368.548 633.752 368.824 633.696 369.085C633.645 369.342 633.568 369.596 633.465 369.848C633.367 370.095 633.246 370.343 633.101 370.59C632.956 370.833 632.793 371.082 632.611 371.339L630.168 374.867C630.107 374.956 630.021 375.028 629.909 375.084C629.797 375.135 629.669 375.161 629.524 375.161H628.376L631.428 371.164ZM642.356 370.149C642.356 371.026 642.261 371.787 642.069 372.431C641.883 373.07 641.626 373.6 641.299 374.02C640.973 374.44 640.585 374.753 640.137 374.958C639.694 375.163 639.218 375.266 638.709 375.266C638.196 375.266 637.718 375.163 637.274 374.958C636.836 374.753 636.453 374.44 636.126 374.02C635.8 373.6 635.543 373.07 635.356 372.431C635.17 371.787 635.076 371.026 635.076 370.149C635.076 369.272 635.17 368.511 635.356 367.867C635.543 367.223 635.8 366.691 636.126 366.271C636.453 365.846 636.836 365.531 637.274 365.326C637.718 365.121 638.196 365.018 638.709 365.018C639.218 365.018 639.694 365.121 640.137 365.326C640.585 365.531 640.973 365.846 641.299 366.271C641.626 366.691 641.883 367.223 642.069 367.867C642.261 368.511 642.356 369.272 642.356 370.149ZM641.061 370.149C641.061 369.384 640.996 368.742 640.865 368.224C640.739 367.701 640.567 367.281 640.347 366.964C640.133 366.647 639.883 366.42 639.598 366.285C639.314 366.145 639.017 366.075 638.709 366.075C638.401 366.075 638.105 366.145 637.82 366.285C637.536 366.42 637.286 366.647 637.071 366.964C636.857 367.281 636.684 367.701 636.553 368.224C636.427 368.742 636.364 369.384 636.364 370.149C636.364 370.914 636.427 371.556 636.553 372.074C636.684 372.592 636.857 373.01 637.071 373.327C637.286 373.644 637.536 373.873 637.82 374.013C638.105 374.148 638.401 374.216 638.709 374.216C639.017 374.216 639.314 374.148 639.598 374.013C639.883 373.873 640.133 373.644 640.347 373.327C640.567 373.01 640.739 372.592 640.865 372.074C640.996 371.556 641.061 370.914 641.061 370.149ZM650.477 370.149C650.477 371.026 650.382 371.787 650.19 372.431C650.004 373.07 649.747 373.6 649.42 374.02C649.094 374.44 648.706 374.753 648.258 374.958C647.815 375.163 647.339 375.266 646.83 375.266C646.317 375.266 645.839 375.163 645.395 374.958C644.957 374.753 644.574 374.44 644.247 374.02C643.921 373.6 643.664 373.07 643.477 372.431C643.291 371.787 643.197 371.026 643.197 370.149C643.197 369.272 643.291 368.511 643.477 367.867C643.664 367.223 643.921 366.691 644.247 366.271C644.574 365.846 644.957 365.531 645.395 365.326C645.839 365.121 646.317 365.018 646.83 365.018C647.339 365.018 647.815 365.121 648.258 365.326C648.706 365.531 649.094 365.846 649.42 366.271C649.747 366.691 650.004 367.223 650.19 367.867C650.382 368.511 650.477 369.272 650.477 370.149ZM649.182 370.149C649.182 369.384 649.117 368.742 648.986 368.224C648.86 367.701 648.688 367.281 648.468 366.964C648.254 366.647 648.004 366.42 647.719 366.285C647.435 366.145 647.138 366.075 646.83 366.075C646.522 366.075 646.226 366.145 645.941 366.285C645.657 366.42 645.407 366.647 645.192 366.964C644.978 367.281 644.805 367.701 644.674 368.224C644.548 368.742 644.485 369.384 644.485 370.149C644.485 370.914 644.548 371.556 644.674 372.074C644.805 372.592 644.978 373.01 645.192 373.327C645.407 373.644 645.657 373.873 645.941 374.013C646.226 374.148 646.522 374.216 646.83 374.216C647.138 374.216 647.435 374.148 647.719 374.013C648.004 373.873 648.254 373.644 648.468 373.327C648.688 373.01 648.86 372.592 648.986 372.074C649.117 371.556 649.182 370.914 649.182 370.149Z" fill="white"/>
<path d="M603.291 208.202C603.599 208.174 603.87 208.109 604.103 208.006C604.336 207.899 604.532 207.763 604.691 207.6C604.854 207.437 604.976 207.248 605.055 207.033C605.139 206.814 605.181 206.573 605.181 206.312C605.181 206.079 605.137 205.878 605.048 205.71C604.964 205.542 604.847 205.397 604.698 205.276C604.549 205.15 604.374 205.045 604.173 204.961C603.972 204.872 603.758 204.791 603.529 204.716L603.291 208.202ZM603.06 200.11C602.757 200.138 602.493 200.199 602.269 200.292C602.05 200.385 601.868 200.502 601.723 200.642C601.578 200.782 601.471 200.941 601.401 201.118C601.331 201.291 601.296 201.473 601.296 201.664C601.296 201.888 601.336 202.084 601.415 202.252C601.494 202.415 601.604 202.56 601.744 202.686C601.884 202.812 602.047 202.922 602.234 203.015C602.421 203.108 602.624 203.192 602.843 203.267L603.06 200.11ZM603.613 203.512C603.949 203.619 604.28 203.734 604.607 203.855C604.934 203.976 605.228 204.133 605.489 204.324C605.75 204.515 605.96 204.756 606.119 205.045C606.282 205.33 606.364 205.687 606.364 206.116C606.364 206.536 606.294 206.93 606.154 207.299C606.014 207.668 605.809 207.992 605.538 208.272C605.272 208.552 604.943 208.781 604.551 208.958C604.164 209.131 603.72 209.233 603.221 209.266L603.137 210.491C603.132 210.58 603.097 210.657 603.032 210.722C602.967 210.792 602.885 210.827 602.787 210.827H602.325L602.43 209.252C601.865 209.196 601.35 209.056 600.883 208.832C600.421 208.603 600.022 208.314 599.686 207.964L600.064 207.39C600.101 207.339 600.148 207.297 600.204 207.264C600.26 207.231 600.321 207.215 600.386 207.215C600.475 207.215 600.575 207.259 600.687 207.348C600.799 207.437 600.937 207.537 601.1 207.649C601.268 207.761 601.464 207.871 601.688 207.978C601.917 208.085 602.19 208.158 602.507 208.195L602.759 204.478C602.432 204.38 602.11 204.27 601.793 204.149C601.48 204.028 601.198 203.867 600.946 203.666C600.699 203.465 600.498 203.216 600.344 202.917C600.195 202.618 600.12 202.243 600.12 201.79C600.12 201.449 600.185 201.118 600.316 200.796C600.451 200.469 600.647 200.18 600.904 199.928C601.161 199.676 601.476 199.471 601.849 199.312C602.222 199.149 602.649 199.058 603.13 199.039L603.2 198.031C603.205 197.942 603.237 197.863 603.298 197.793C603.363 197.723 603.447 197.688 603.55 197.688H604.012L603.921 199.067C604.406 199.128 604.826 199.254 605.181 199.445C605.54 199.636 605.858 199.87 606.133 200.145L605.832 200.607C605.739 200.747 605.631 200.817 605.51 200.817C605.445 200.817 605.363 200.789 605.265 200.733C605.172 200.672 605.057 200.602 604.922 200.523C604.791 200.444 604.635 200.367 604.453 200.292C604.276 200.217 604.073 200.161 603.844 200.124L603.613 203.512ZM614.03 207.978C614.165 207.978 614.273 208.018 614.352 208.097C614.431 208.176 614.471 208.279 614.471 208.405V209.161H607.779V208.734C607.779 208.645 607.798 208.554 607.835 208.461C607.872 208.368 607.931 208.281 608.01 208.202L611.223 204.975C611.489 204.704 611.732 204.445 611.951 204.198C612.17 203.946 612.357 203.694 612.511 203.442C612.665 203.19 612.784 202.936 612.868 202.679C612.952 202.418 612.994 202.14 612.994 201.846C612.994 201.552 612.947 201.295 612.854 201.076C612.761 200.852 612.632 200.668 612.469 200.523C612.31 200.378 612.121 200.271 611.902 200.201C611.683 200.126 611.447 200.089 611.195 200.089C610.938 200.089 610.703 200.126 610.488 200.201C610.273 200.276 610.082 200.381 609.914 200.516C609.751 200.647 609.613 200.803 609.501 200.985C609.389 201.167 609.31 201.368 609.263 201.587C609.207 201.75 609.13 201.86 609.032 201.916C608.939 201.967 608.806 201.981 608.633 201.958L607.982 201.846C608.047 201.389 608.173 200.985 608.36 200.635C608.551 200.28 608.789 199.984 609.074 199.746C609.363 199.508 609.692 199.328 610.061 199.207C610.43 199.081 610.829 199.018 611.258 199.018C611.683 199.018 612.079 199.081 612.448 199.207C612.817 199.333 613.136 199.517 613.407 199.76C613.678 199.998 613.89 200.29 614.044 200.635C614.198 200.98 614.275 201.372 614.275 201.811C614.275 202.184 614.219 202.532 614.107 202.854C613.995 203.171 613.843 203.475 613.652 203.764C613.461 204.053 613.239 204.336 612.987 204.611C612.74 204.886 612.476 205.164 612.196 205.444L609.55 208.146C609.737 208.095 609.926 208.055 610.117 208.027C610.308 207.994 610.493 207.978 610.67 207.978H614.03ZM622.942 204.149C622.942 205.026 622.847 205.787 622.655 206.431C622.469 207.07 622.212 207.6 621.885 208.02C621.559 208.44 621.171 208.753 620.723 208.958C620.28 209.163 619.804 209.266 619.295 209.266C618.782 209.266 618.304 209.163 617.86 208.958C617.422 208.753 617.039 208.44 616.712 208.02C616.386 207.6 616.129 207.07 615.942 206.431C615.756 205.787 615.662 205.026 615.662 204.149C615.662 203.272 615.756 202.511 615.942 201.867C616.129 201.223 616.386 200.691 616.712 200.271C617.039 199.846 617.422 199.531 617.86 199.326C618.304 199.121 618.782 199.018 619.295 199.018C619.804 199.018 620.28 199.121 620.723 199.326C621.171 199.531 621.559 199.846 621.885 200.271C622.212 200.691 622.469 201.223 622.655 201.867C622.847 202.511 622.942 203.272 622.942 204.149ZM621.647 204.149C621.647 203.384 621.582 202.742 621.451 202.224C621.325 201.701 621.153 201.281 620.933 200.964C620.719 200.647 620.469 200.42 620.184 200.285C619.9 200.145 619.603 200.075 619.295 200.075C618.987 200.075 618.691 200.145 618.406 200.285C618.122 200.42 617.872 200.647 617.657 200.964C617.443 201.281 617.27 201.701 617.139 202.224C617.013 202.742 616.95 203.384 616.95 204.149C616.95 204.914 617.013 205.556 617.139 206.074C617.27 206.592 617.443 207.01 617.657 207.327C617.872 207.644 618.122 207.873 618.406 208.013C618.691 208.148 618.987 208.216 619.295 208.216C619.603 208.216 619.9 208.148 620.184 208.013C620.469 207.873 620.719 207.644 620.933 207.327C621.153 207.01 621.325 206.592 621.451 206.074C621.582 205.556 621.647 204.914 621.647 204.149ZM624.273 210.855C624.236 210.822 624.21 210.792 624.196 210.764C624.182 210.736 624.175 210.701 624.175 210.659C624.175 210.626 624.185 210.594 624.203 210.561C624.227 210.528 624.252 210.498 624.28 210.47C624.327 210.419 624.385 210.351 624.455 210.267C624.53 210.183 624.605 210.083 624.679 209.966C624.754 209.854 624.822 209.728 624.882 209.588C624.948 209.453 624.994 209.308 625.022 209.154C625.008 209.159 624.992 209.161 624.973 209.161C624.959 209.161 624.945 209.161 624.931 209.161C624.689 209.161 624.49 209.082 624.336 208.923C624.187 208.76 624.112 208.552 624.112 208.3C624.112 208.081 624.187 207.894 624.336 207.74C624.49 207.586 624.693 207.509 624.945 207.509C625.085 207.509 625.209 207.535 625.316 207.586C625.424 207.637 625.512 207.71 625.582 207.803C625.657 207.892 625.713 207.997 625.75 208.118C625.788 208.235 625.806 208.363 625.806 208.503C625.806 208.713 625.776 208.932 625.715 209.161C625.659 209.385 625.573 209.607 625.456 209.826C625.344 210.05 625.207 210.267 625.043 210.477C624.88 210.687 624.693 210.881 624.483 211.058L624.273 210.855ZM631.645 205.542V201.405C631.645 201.284 631.65 201.151 631.659 201.006C631.668 200.861 631.682 200.714 631.701 200.565L628.047 205.542H631.645ZM634.256 205.542V206.256C634.256 206.331 634.233 206.394 634.186 206.445C634.144 206.496 634.076 206.522 633.983 206.522H632.737V209.161H631.645V206.522H627.193C627.1 206.522 627.018 206.496 626.948 206.445C626.883 206.389 626.841 206.321 626.822 206.242L626.696 205.605L631.575 199.13H632.737V205.542H634.256ZM642.356 204.149C642.356 205.026 642.261 205.787 642.069 206.431C641.883 207.07 641.626 207.6 641.299 208.02C640.973 208.44 640.585 208.753 640.137 208.958C639.694 209.163 639.218 209.266 638.709 209.266C638.196 209.266 637.718 209.163 637.274 208.958C636.836 208.753 636.453 208.44 636.126 208.02C635.8 207.6 635.543 207.07 635.356 206.431C635.17 205.787 635.076 205.026 635.076 204.149C635.076 203.272 635.17 202.511 635.356 201.867C635.543 201.223 635.8 200.691 636.126 200.271C636.453 199.846 636.836 199.531 637.274 199.326C637.718 199.121 638.196 199.018 638.709 199.018C639.218 199.018 639.694 199.121 640.137 199.326C640.585 199.531 640.973 199.846 641.299 200.271C641.626 200.691 641.883 201.223 642.069 201.867C642.261 202.511 642.356 203.272 642.356 204.149ZM641.061 204.149C641.061 203.384 640.996 202.742 640.865 202.224C640.739 201.701 640.567 201.281 640.347 200.964C640.133 200.647 639.883 200.42 639.598 200.285C639.314 200.145 639.017 200.075 638.709 200.075C638.401 200.075 638.105 200.145 637.82 200.285C637.536 200.42 637.286 200.647 637.071 200.964C636.857 201.281 636.684 201.701 636.553 202.224C636.427 202.742 636.364 203.384 636.364 204.149C636.364 204.914 636.427 205.556 636.553 206.074C636.684 206.592 636.857 207.01 637.071 207.327C637.286 207.644 637.536 207.873 637.82 208.013C638.105 208.148 638.401 208.216 638.709 208.216C639.017 208.216 639.314 208.148 639.598 208.013C639.883 207.873 640.133 207.644 640.347 207.327C640.567 207.01 640.739 206.592 640.865 206.074C640.996 205.556 641.061 204.914 641.061 204.149ZM650.477 204.149C650.477 205.026 650.382 205.787 650.19 206.431C650.004 207.07 649.747 207.6 649.42 208.02C649.094 208.44 648.706 208.753 648.258 208.958C647.815 209.163 647.339 209.266 646.83 209.266C646.317 209.266 645.839 209.163 645.395 208.958C644.957 208.753 644.574 208.44 644.247 208.02C643.921 207.6 643.664 207.07 643.477 206.431C643.291 205.787 643.197 205.026 643.197 204.149C643.197 203.272 643.291 202.511 643.477 201.867C643.664 201.223 643.921 200.691 644.247 200.271C644.574 199.846 644.957 199.531 645.395 199.326C645.839 199.121 646.317 199.018 646.83 199.018C647.339 199.018 647.815 199.121 648.258 199.326C648.706 199.531 649.094 199.846 649.42 200.271C649.747 200.691 650.004 201.223 650.19 201.867C650.382 202.511 650.477 203.272 650.477 204.149ZM649.182 204.149C649.182 203.384 649.117 202.742 648.986 202.224C648.86 201.701 648.688 201.281 648.468 200.964C648.254 200.647 648.004 200.42 647.719 200.285C647.435 200.145 647.138 200.075 646.83 200.075C646.522 200.075 646.226 200.145 645.941 200.285C645.657 200.42 645.407 200.647 645.192 200.964C644.978 201.281 644.805 201.701 644.674 202.224C644.548 202.742 644.485 203.384 644.485 204.149C644.485 204.914 644.548 205.556 644.674 206.074C644.805 206.592 644.978 207.01 645.192 207.327C645.407 207.644 645.657 207.873 645.941 208.013C646.226 208.148 646.522 208.216 646.83 208.216C647.138 208.216 647.435 208.148 647.719 208.013C648.004 207.873 648.254 207.644 648.468 207.327C648.688 207.01 648.86 206.592 648.986 206.074C649.117 205.556 649.182 204.914 649.182 204.149Z" fill="white"/>
<line x1="244.5" y1="321.161" x2="244.5" y2="265.161" stroke="#F33233"/>
</svg>
