<?xml version="1.0" encoding="UTF-8"?>
<svg width="155px" height="27px" viewBox="0 0 155 27" version="1.1" xmlns="http://www.w3.org/2000/svg" xmlns:xlink="http://www.w3.org/1999/xlink">
    <!-- Generator: sketchtool 58 (101010) - https://sketch.com -->
    <title>26D463A2-0BE2-4297-977E-C6525A56671E</title>
    <desc>Created with sketchtool.</desc>
    <defs>
        <polygon id="path-1" points="0 9.38534728 0 0.285859811 9.07603245 0.285859811 9.07603245 9.38534728"></polygon>
    </defs>
    <g id="Unassigned-Screens" stroke="none" stroke-width="1" fill="none" fill-rule="evenodd">
        <g id="NDX-37_Mobile_Legal" transform="translate(-20.000000, -1836.000000)">
            <g id="bmoharris_logo" transform="translate(20.000000, 1836.000000)">
                <g id="Group-3" transform="translate(0.000000, 9.849701)">
                    <g id="Fill-1-Clipped">
                        <mask id="mask-2" fill="white">
                            <use xlink:href="#path-1"></use>
                        </mask>
                        <g id="path-1"></g>
                        <path d="M6.76179706,6.70228671 C6.76179706,8.18213036 6.26578512,8.89048465 4.53814408,8.89048465 L3.46174701,8.89048465 L3.46174701,4.7450977 L4.60863767,4.7450977 C6.17812468,4.7450977 6.76179706,5.29944602 6.76179706,6.70228671 M9.07603245,6.85629267 C9.07603245,5.13266709 7.67054354,4.51335892 5.96445235,4.47431003 L5.96445235,4.41008007 C7.41450201,4.29439315 8.6066839,3.68420855 8.6066839,2.21823272 C8.6066839,0.59022223 7.25817424,0.285859811 5.75078007,0.285859811 C3.93767011,0.285859811 1.80861735,0.335127109 -0.000109575541,0.285859811 L-0.000109575541,0.740943669 C0.384865825,0.715397662 1.31077915,0.766854616 1.31077915,1.24638965 L1.31077915,8.40146109 C1.31077915,8.86493862 0.357106688,8.9426715 -0.000109575541,8.9426715 L-0.000109575541,9.38534728 C1.75236857,9.33243056 3.82371155,9.38534728 5.57911173,9.38534728 C7.42728583,9.38534728 9.07603245,8.74779196 9.07603245,6.85629267 M6.39435376,2.49084511 C6.39435376,3.6320217 5.89359352,4.26811726 4.58014804,4.26811726 L3.46174701,4.26811726 L3.46174701,0.766854616 C3.60419522,0.75371667 4.08084882,0.740943669 4.22293177,0.740943669 L4.60863767,0.740943669 C5.94984228,0.740943669 6.39435376,1.33762539 6.39435376,2.49084511" id="Fill-1" fill="#003764" fill-rule="nonzero" mask="url(#mask-2)"></path>
                    </g>
                </g>
                <path d="M20.7719066,19.2199028 C19.9606823,19.2199028 19.1490928,19.2085896 18.3378685,19.2341356 L18.3378685,18.7786868 C18.7082339,18.7786868 19.7309389,18.7531408 19.7309389,18.2498845 L19.7309389,11.5845665 L19.7031798,11.5845665 L15.9754199,19.3374145 L15.591175,19.3374145 L11.9638594,11.5845665 L11.9353697,11.5845665 L11.9353697,18.2498845 C11.9353697,18.7673736 13.0030007,18.7786868 13.3868803,18.7786868 L13.4014904,19.2341356 C12.3897429,19.192897 11.0072649,19.167716 10.0097622,19.2341356 L10.0097622,18.7786868 C10.3958334,18.7786868 11.3210162,18.7410977 11.3210162,18.2498845 L11.3210162,11.1061263 C11.3210162,10.628416 10.3673437,10.5900969 10.0097622,10.5900969 L9.99697839,10.135378 C11.1504436,10.1850103 12.3897429,10.1850103 13.5432081,10.135378 L16.6449265,16.634647 L19.8025283,10.1488809 C20.91472,10.1970534 22.1109197,10.1850103 23.2209199,10.135378 L23.2209199,10.5900969 C22.8505546,10.5900969 21.8833678,10.6163728 21.8833678,11.1061263 L21.8833678,18.2498845 C21.8833678,18.7531408 22.8370403,18.7786868 23.2209199,18.7786868 L23.2209199,19.2341356 C22.4089652,19.2085896 21.5838613,19.2199028 20.7719066,19.2199028" id="Fill-4" fill="#003764" fill-rule="nonzero"></path>
                <path d="M34.1781453,14.6681154 C34.1781453,11.6620804 32.3394677,9.97640887 29.0244423,9.97640887 C25.7083212,9.97640887 23.8557641,11.6485775 23.8557641,14.6681154 C23.8557641,17.6880183 25.6926154,19.3733249 29.0244423,19.3733249 C32.352982,19.3733249 34.1781453,17.6880183 34.1781453,14.6681154 M31.7700401,14.6681154 C31.7700401,16.4450227 31.5980065,18.9189709 29.0244423,18.9189709 C26.4490519,18.9189709 26.2635039,16.4450227 26.2635039,14.6681154 C26.2635039,12.8941278 26.4490519,10.4311278 29.0244423,10.4311278 C31.5844922,10.4311278 31.7700401,12.9058059 31.7700401,14.6681154" id="Fill-6" fill="#003764" fill-rule="nonzero"></path>
                <path d="M52.8965695,0.364942834 C60.1610626,0.364942834 66.0474606,6.24782316 66.0474606,13.5021591 C66.0474606,20.7572249 60.1610626,26.6371857 52.8965695,26.6371857 C45.6386509,26.6371857 39.7489656,20.7572249 39.7489656,13.5021591 C39.7489656,6.24782316 45.6386509,0.364942834 52.8965695,0.364942834 Z M59.1019424,15.2931897 L46.6939731,15.2931897 L46.6939731,19.2269097 L59.1019424,19.2269097 L59.1019424,15.2931897 Z M55.9878054,6.31778283 C55.8219808,6.31778283 55.6751495,6.39697545 55.582376,6.51923135 L53.299552,9.49242154 C53.206778,9.61212282 53.061408,9.68912577 52.8981402,9.68912577 C52.7345077,9.68912577 52.5891372,9.61212282 52.4963632,9.49242154 L50.2135393,6.51923135 C50.1207658,6.39697545 49.9739344,6.31778283 49.8084754,6.31778283 C49.6477643,6.31778283 49.5045859,6.39259612 49.4110812,6.50901296 L46.6939731,9.93071804 L46.6939731,15.2931897 L49.3957405,11.8331656 C49.4914368,11.7112747 49.6408249,11.6328119 49.8084754,11.6328119 C49.977952,11.6328119 50.128801,11.7134643 50.2248624,11.8379099 L52.5186439,14.8348214 C52.6055738,14.9497784 52.7432736,15.0238618 52.8981402,15.0238618 C53.0526416,15.0238618 53.1903415,14.9497784 53.277637,14.8348214 L55.5710529,11.8379099 C55.6674794,11.7134643 55.8179632,11.6328119 55.9878054,11.6328119 C56.155456,11.6328119 56.3044785,11.7112747 56.4001747,11.8331656 L59.1019424,15.2931897 L59.1019424,9.93071804 L56.384834,6.50901296 C56.2916949,6.39259612 56.148151,6.31778283 55.9878054,6.31778283 Z" id="Fill-8-2" fill="#003764" fill-rule="nonzero"></path>
                <path d="M77.9885651,19.2391718 L77.9885651,18.8037949 C78.3516254,18.8037949 79.3396314,18.8037949 79.3396314,18.3155012 L79.3396314,14.6595028 L74.8645664,14.6595028 L74.8645664,18.3155012 C74.8645664,18.8037949 75.8525725,18.8037949 76.2156328,18.8037949 L76.2156328,19.2391718 C74.7772709,19.1862551 73.1062441,19.1862551 71.6682479,19.2391718 L71.6682479,18.8037949 C72.0313081,18.8037949 73.0193142,18.8037949 73.0193142,18.3155012 L73.0193142,10.8589869 C73.0193142,10.3706933 72.0166981,10.3706933 71.6682479,10.3706933 L71.6682479,9.93495138 C73.0919992,9.98786809 74.7922465,9.98786809 76.2156328,9.93495138 L76.2156328,10.3706933 C75.8525725,10.3706933 74.8645664,10.3706933 74.8645664,10.8589869 L74.8645664,14.184712 L79.3396314,14.184712 L79.3396314,10.8589869 C79.3396314,10.3834662 78.3373804,10.3706933 77.9885651,10.3706933 L77.9885651,9.93495138 C79.4123164,9.98786809 81.1125637,9.98786809 82.5363151,9.93495138 L82.5363151,10.3706933 C82.1732548,10.3706933 81.1702736,10.3706933 81.1702736,10.8589869 L81.1702736,18.3155012 C81.1702736,18.8037949 82.1732548,18.8037949 82.5363151,18.8037949 L82.5363151,19.2391718 C81.0975881,19.1862551 79.4269264,19.1862551 77.9885651,19.2391718" id="Fill-13" fill="#003764" fill-rule="nonzero"></path>
                <path d="M87.6056813,15.742252 C86.2253949,15.8604935 85.1066288,15.953189 85.1066288,17.5107655 C85.1066288,18.1435766 85.3243187,18.7771176 86.1523448,18.7771176 C87.3003308,18.7771176 87.6056813,17.8271711 87.6056813,16.9560522 L87.6056813,15.742252 Z M88.6806177,19.2654112 C88.1429669,19.2654112 87.6199262,19.1865835 87.6199262,18.5928214 C86.9807355,19.1471697 86.3415448,19.3708797 85.4547135,19.3708797 C84.0459373,19.3708797 83.3340616,18.7245658 83.3340616,17.4443459 C83.3340616,15.2667313 85.9927294,15.4123436 87.6056813,15.3061452 L87.6056813,14.303282 C87.6056813,13.5905484 87.242621,13.1945853 86.4284752,13.1945853 C85.4989092,13.1945853 85.2231439,13.6168243 85.2231439,14.3959775 C85.2231439,14.7386589 84.9320384,14.8050785 84.6274181,14.8050785 C84.1620877,14.8178515 83.8275168,14.7915756 83.8275168,14.2638681 C83.8275168,13.0230621 85.2666088,12.7592083 86.3557897,12.7592083 C88.0556719,12.7592083 89.2763434,12.9836483 89.2763434,14.7649348 L89.2763434,17.7873923 C89.2763434,18.684787 89.3632733,18.8037584 90.3666196,18.8172613 L90.3666196,19.2391353 C89.7993837,19.2391353 89.2328785,19.2654112 88.6806177,19.2654112 L88.6806177,19.2654112 Z" id="Fill-15" fill="#003764" fill-rule="nonzero"></path>
                <path d="M95.9736366,14.804969 C94.6952557,14.804969 95.7117511,13.4054128 94.8398955,13.4054128 C93.8964496,13.4054128 93.6637842,15.0159061 93.6637842,15.6359441 L93.6637842,18.3153552 C93.6637842,18.8171518 94.5060552,18.8171518 94.8844557,18.8171518 L94.8844557,19.2390259 C93.5472692,19.1999769 92.1669828,19.1864741 90.8301608,19.2390259 L90.8301608,18.8171518 C91.1932211,18.8171518 91.9781474,18.7908759 91.9781474,18.3153552 L91.9781474,13.8148788 C91.9781474,13.340088 91.2081967,13.3134472 90.8301608,13.2999443 L90.8159159,12.9043462 C91.7454819,12.9043462 92.690023,12.9174841 93.6203193,12.8780703 L93.6203193,13.8812984 L93.6488091,13.8677955 C93.9976245,13.2473925 94.5933502,12.7590989 95.3921558,12.7590989 C96.2355226,12.7590989 96.7439528,13.2211166 96.7439528,13.9867669 C96.7439528,14.4885635 96.5985828,14.804969 95.9736366,14.804969" id="Fill-17" fill="#003764" fill-rule="nonzero"></path>
                <path d="M102.757897,14.804969 C101.479516,14.804969 102.496011,13.4054128 101.62452,13.4054128 C100.68071,13.4054128 100.448045,15.0159061 100.448045,15.6359441 L100.448045,18.3153552 C100.448045,18.8171518 101.29068,18.8171518 101.668716,18.8171518 L101.668716,19.2390259 C100.331895,19.1999769 98.9512426,19.1864741 97.6144212,19.2390259 L97.6144212,18.8171518 C97.9774815,18.8171518 98.7624072,18.7908759 98.7624072,18.3153552 L98.7624072,13.8148788 C98.7624072,13.340088 97.9924566,13.3134472 97.6144212,13.2999443 L97.6001763,12.9043462 C98.5297418,12.9043462 99.4742834,12.9174841 100.40458,12.8780703 L100.40458,13.8812984 L100.433069,13.8677955 C100.781885,13.2473925 101.377611,12.7590989 102.176416,12.7590989 C103.019782,12.7590989 103.528213,13.2211166 103.528213,13.9867669 C103.528213,14.4885635 103.382843,14.804969 102.757897,14.804969" id="Fill-19" fill="#003764" fill-rule="nonzero"></path>
                <path d="M106.360485,11.6635766 C105.764759,11.6635766 105.401699,11.2417026 105.401699,10.7267681 C105.401699,10.2118336 105.779734,9.80273251 106.360485,9.80273251 C106.941966,9.80273251 107.320001,10.2249715 107.320001,10.7267681 C107.320001,11.2417026 106.941966,11.6635766 106.360485,11.6635766 M104.370228,19.2390623 L104.370228,18.8171883 C104.733288,18.8171883 105.517849,18.7774095 105.517849,18.3153918 L105.517849,13.7882744 C105.517849,13.3528975 104.704068,13.3401245 104.370228,13.3266216 L104.370228,12.9043826 C105.300524,12.9043826 106.273555,12.9437965 107.203851,12.8908797 L107.203851,18.3153918 C107.203851,18.7774095 108.002657,18.8171883 108.365717,18.8171883 L108.365717,19.2390623 C107.058116,19.1865106 105.677829,19.1865106 104.370228,19.2390623" id="Fill-21" fill="#003764" fill-rule="nonzero"></path>
                <path d="M111.765079,19.3710257 C110.965909,19.3710257 110.137882,19.2392813 109.382542,19.0017034 L109.382542,17.0353908 L110.035977,17.0353908 C110.065198,18.051757 110.530163,18.9619247 111.794299,18.9619247 C112.534665,18.9619247 113.319591,18.6455191 113.319591,17.8798688 C113.319591,16.3226573 109.498692,17.0488937 109.498692,14.7785836 C109.498692,13.3264757 110.718633,12.7589894 112.15736,12.7589894 C112.869236,12.7589894 113.552256,12.8910987 114.220667,13.1155386 L114.220667,14.7785836 L113.624941,14.7785836 C113.522671,13.8545481 113.173855,13.1947313 112.04121,13.1947313 C111.343579,13.1947313 110.849758,13.458585 110.849758,14.1322697 C110.849758,15.6759783 114.685633,14.7523078 114.685633,17.3123825 C114.685633,18.8035394 113.173855,19.3710257 111.765079,19.3710257" id="Fill-23" fill="#003764" fill-rule="nonzero"></path>
                <path d="M123.56158,14.4884905 L122.312419,14.4884905 L122.312419,18.764527 L123.241985,18.764527 C124.898402,18.764527 125.741038,18.0908423 125.741038,16.5599067 C125.741038,15.1348044 125.174532,14.4884905 123.56158,14.4884905 M123.460406,10.3832473 C123.08237,10.3832473 122.689724,10.3832473 122.312419,10.423391 L122.312419,14.0129699 L123.518115,14.0129699 C124.840692,14.0129699 125.290683,13.3662909 125.290683,12.2181804 C125.290683,10.9905124 124.869182,10.3832473 123.460406,10.3832473 M124.099596,19.2393178 C122.442814,19.2393178 120.772152,19.1864011 119.115735,19.2393178 L119.115735,18.8035759 C119.449576,18.8035759 120.466802,18.764527 120.466802,18.3152823 L120.466802,10.8587679 C120.466802,10.3971151 119.464551,10.3569714 119.115735,10.3704743 L119.10149,9.93509732 C120.829862,9.98764913 122.573574,9.93509732 124.302676,9.93509732 C125.944118,9.93509732 127.22323,10.3179225 127.22323,12.0200164 C127.22323,13.4057048 126.206003,14.0129699 124.811472,14.184858 L124.811472,14.2377747 C126.540574,14.3432432 127.732026,14.9632813 127.732026,16.6661051 C127.732026,18.5926389 125.944118,19.2393178 124.099596,19.2393178" id="Fill-25" fill="#003764" fill-rule="nonzero"></path>
                <path d="M133.513267,15.742252 C132.132981,15.8604935 131.014215,15.953189 131.014215,17.5107655 C131.014215,18.1435766 131.232635,18.7771176 132.060661,18.7771176 C133.208647,18.7771176 133.513267,17.8271711 133.513267,16.9560522 L133.513267,15.742252 Z M134.588203,19.2654112 C134.051283,19.2654112 133.528243,19.1865835 133.528243,18.5928214 C132.889052,19.1471697 132.249131,19.3708797 131.36303,19.3708797 C129.953524,19.3708797 129.241648,18.7245658 129.241648,17.4443459 C129.241648,15.2667313 131.901046,15.4123436 133.513267,15.3061452 L133.513267,14.303282 C133.513267,13.5905484 133.150207,13.1945853 132.336792,13.1945853 C131.406495,13.1945853 131.13073,13.6168243 131.13073,14.3959775 C131.13073,14.7386589 130.840355,14.8050785 130.535004,14.8050785 C130.069673,14.8178515 129.735833,14.7915756 129.735833,14.2638681 C129.735833,13.0230621 131.174195,12.7592083 132.264106,12.7592083 C133.963988,12.7592083 135.18466,12.9836483 135.18466,14.7649348 L135.18466,17.7873923 C135.18466,18.684787 135.27159,18.8037584 136.274206,18.8172613 L136.274206,19.2391353 C135.7077,19.2391353 135.140464,19.2654112 134.588203,19.2654112 L134.588203,19.2654112 Z" id="Fill-27" fill="#003764" fill-rule="nonzero"></path>
                <path d="M141.474588,19.2391718 L141.474588,18.8300708 C141.837648,18.8172978 142.535279,18.7771541 142.535279,18.3155012 L142.535279,14.9240864 C142.535279,14.1055194 142.375664,13.4190617 141.314973,13.4190617 C140.094301,13.4190617 139.658191,14.3693731 139.658191,15.3331874 L139.658191,18.3155012 C139.658191,18.7381051 140.384677,18.8172978 140.719247,18.8172978 L140.733492,19.2263988 C139.469355,19.1734821 138.088704,19.1862551 136.824933,19.2391718 L136.824933,18.8300708 C137.202968,18.8172978 137.972554,18.8037949 137.972554,18.3155012 L137.972554,13.8281627 C137.972554,13.353007 137.202968,13.3263662 136.824933,13.3135932 L136.824933,12.9044921 C137.754864,12.9044921 138.684429,12.9172651 139.614726,12.8782163 L139.614726,13.8146598 L139.643946,13.8146598 C140.312357,13.0891532 140.980402,12.7592448 142.041093,12.7592448 C143.624825,12.7592448 144.220551,13.4588405 144.220551,14.8441639 L144.220551,18.3155012 C144.220551,18.7771541 144.990867,18.8172978 145.353927,18.8172978 L145.353927,19.2391718 C144.089791,19.199758 142.738725,19.1862551 141.474588,19.2391718" id="Fill-29" fill="#003764" fill-rule="nonzero"></path>
                <path d="M150.59803,19.2263258 L150.59803,18.8172248 C150.71418,18.8172248 151.121071,18.8299978 151.077241,18.6453367 C151.033776,18.4606755 150.728425,18.1964569 150.56881,17.9855198 C150.162285,17.4844532 149.769639,16.9826566 149.348138,16.4943629 C149.333894,16.4808601 149.159303,16.2170063 149.159303,16.2170063 L148.578553,16.7315758 L148.578553,18.355207 C148.578553,18.8829145 149.319649,18.8172248 149.711199,18.8172248 L149.711199,19.2390988 C148.418573,19.1865471 147.052531,19.1865471 145.759905,19.2390988 L145.759905,18.8172248 C146.10799,18.8172248 146.892551,18.7643081 146.892551,18.3154282 L146.892551,10.5155026 C146.892551,10.0407118 146.151455,10.014071 145.774149,10.0005681 L145.759905,9.59146707 C146.689471,9.59146707 147.648257,9.61774297 148.578553,9.56519116 L148.563578,16.1243108 C148.563578,16.1243108 150.888405,13.6565665 150.888405,13.4189887 C150.888405,13.3135202 150.35112,13.2872443 150.249214,13.2872443 L150.249214,12.9044191 L153.126303,12.9044191 L153.126303,13.2737414 L152.951348,13.2737414 C152.631752,13.2737414 151.978317,13.2872443 151.746016,13.4850434 C151.164536,13.9729721 150.20575,15.1214476 150.20575,15.1214476 L152.864418,18.2891524 C153.154793,18.6318338 153.619758,18.8172248 154.070844,18.8299978 L154.070844,19.2390988 C152.922858,19.1734091 151.731041,19.2263258 150.59803,19.2263258" id="Fill-31" fill="#003764" fill-rule="nonzero"></path>
                <path d="M67.3693073,7.34626507 C66.6388036,7.34626507 66.0463652,6.74337929 66.0463652,6.00108533 C66.0463652,5.25842645 66.6388036,4.65700047 67.3693073,4.65700047 C68.1001757,4.65700047 68.6929797,5.25842645 68.6929797,6.00108533 C68.6929797,6.74337929 68.1001757,7.34626507 67.3693073,7.34626507 M67.3693073,4.43949447 C66.5065822,4.43949447 65.8078557,5.13872517 65.8078557,6.00108533 C65.8078557,6.86308057 66.5065822,7.56231126 67.3693073,7.56231126 C68.2316669,7.56231126 68.9307585,6.86308057 68.9307585,6.00108533 C68.9307585,5.13872517 68.2316669,4.43949447 67.3693073,4.43949447" id="Fill-33" fill="#003764" fill-rule="nonzero"></path>
                <path d="M67.0219161,5.91357204 L67.0219161,5.29280405 L67.3973948,5.29280405 C67.7158943,5.29280405 67.8608997,5.38695935 67.8608997,5.60410042 C67.8608997,5.82087653 67.7158943,5.91357204 67.3973948,5.91357204 L67.0219161,5.91357204 M68.0924693,5.61139928 C68.0924693,5.26360862 67.8901197,5.10522338 67.4993003,5.10522338 L66.8049564,5.10522338 L66.8049564,6.89709327 L67.0219161,6.89709327 L67.0219161,6.10261246 L67.3973948,6.10261246 L67.9036339,6.89709327 L68.1647892,6.89709327 L67.6289644,6.10261246 C67.9164179,6.0569946 68.0924693,5.86065532 68.0924693,5.61139928" id="Fill-35" fill="#003764" fill-rule="nonzero"></path>
            </g>
        </g>
    </g>
</svg>