<?xml version="1.0" encoding="UTF-8"?>
<svg width="51px" height="37px" viewBox="0 0 51 37" version="1.1" xmlns="http://www.w3.org/2000/svg" xmlns:xlink="http://www.w3.org/1999/xlink">
    <!-- Generator: sketchtool 57.1 (101010) - https://sketch.com -->
    <title>7699B724-0A34-48B0-8D91-8ABA9366568B@3x</title>
    <desc>Created with sketchtool.</desc>
    <g id="Experiment-2_Mobile" stroke="none" stroke-width="1" fill="none" fill-rule="evenodd">
        <g id="NDX_44_asset-sheet_1" transform="translate(-641.000000, -439.000000)" fill="white" fill-rule="nonzero">
            <path d="M685.878754,459 L691.490999,475.5 L668,475.5 L673.612245,459 L685.878754,459 Z M658.878754,459 L664.490999,475.5 L641,475.5 L646.612245,459 L658.878754,459 Z M684.088435,461.5 L675.402563,461.5 L671.490999,473 L688,473 L684.088435,461.5 Z M657.088435,461.5 L648.402563,461.5 L644.490999,473 L661,473 L657.088435,461.5 Z M671.878754,439 L677.490999,455.5 L654,455.5 L659.612245,439 L671.878754,439 Z M670.088435,441.5 L661.402563,441.5 L657.490999,453 L674,453 L670.088435,441.5 Z" id="commodities"></path>
        </g>
    </g>
</svg>