<?xml version="1.0" encoding="UTF-8"?>
<svg width="170px" height="24px" viewBox="0 0 170 24" version="1.1" xmlns="http://www.w3.org/2000/svg" xmlns:xlink="http://www.w3.org/1999/xlink">
    <!-- Generator: sketchtool 58 (101010) - https://sketch.com -->
    <title>4305D019-3FAF-46D5-9963-D68284E8F946</title>
    <desc>Created with sketchtool.</desc>
    <g id="Unassigned-Screens" stroke="none" stroke-width="1" fill="none" fill-rule="evenodd">
        <g id="NDX-37_Mobile_Legal" transform="translate(-20.000000, -1882.000000)" fill-rule="nonzero">
            <g id="fifththird_logo" transform="translate(20.000000, 1882.975460)">
                <path d="M40.5995228,11.5361282 C40.5995228,12.4921609 39.7072256,12.7471029 38.6237219,12.7471029 L35.8830948,12.7471029 L35.8830948,15.2965235 C36.8391275,15.4877301 37.2852761,15.8701431 37.2852761,16.1250852 L37.2852761,16.1888207 L34.0347648,16.1888207 L34.0347648,7.8394683 C33.4611452,7.64826176 33.0149966,7.26584867 33.0149966,7.01090661 L33.0149966,6.9471711 L41.49182,6.9471711 L41.49182,9.24164963 L41.4280845,9.24164963 C41.1731425,9.24164963 40.7907294,8.79550102 40.5995228,8.22188139 L35.8830948,8.22188139 L35.8830948,11.3449216 L40.5995228,11.3449216 L40.5995228,11.5361282 Z" id="Path" fill="#003764"></path>
                <path d="M45.5071575,16.1888207 L42.1291752,16.1888207 L42.1291752,16.1250852 C42.1291752,15.8701431 42.5115883,15.4877301 42.9577369,15.2965235 L42.9577369,9.30538514 C42.5115883,9.17791411 42.1291752,8.73176551 42.1291752,8.47682345 L42.1291752,8.41308793 L45.5071575,8.41308793 L45.5071575,8.47682345 C45.5071575,8.73176551 45.1247444,9.1141786 44.6785958,9.30538514 L44.6785958,15.2965235 C45.1247444,15.4239945 45.5071575,15.8701431 45.5071575,16.1250852 L45.5071575,16.1888207 Z" id="Path" fill="#003764"></path>
                <path d="M53.5378323,11.9822768 C53.5378323,12.9383095 52.6455351,13.1932515 51.5620314,13.1932515 L49.0763463,13.1932515 L49.0763463,15.2965235 C49.7137014,15.4239945 50.2235855,15.8701431 50.2235855,16.1250852 L50.2235855,16.1888207 L47.4192229,16.1888207 L47.4192229,9.30538514 C46.9730743,9.17791411 46.5906612,8.73176551 46.5906612,8.47682345 L46.5906612,8.41308793 L54.7488071,8.41308793 L54.7488071,10.5163599 L54.6850716,10.5163599 C54.4301295,10.5163599 54.0477164,10.1339468 53.8565099,9.68779823 L49.0763463,9.68779823 L49.0763463,11.9822768 L53.5378323,11.9822768 L53.5378323,11.9822768 Z" id="Path" fill="#003764"></path>
                <path d="M63.2893661,8.41308793 L63.2893661,10.5163599 L63.2256305,10.5163599 C62.9706885,10.5163599 62.5882754,10.1339468 62.3970688,9.68779823 L60.1663258,9.68779823 L60.1663258,15.2965235 C60.803681,15.4239945 61.3135651,15.8701431 61.3135651,16.1250852 L61.3135651,16.1888207 L57.3619632,16.1888207 L57.3619632,16.1250852 C57.3619632,15.8701431 57.8718473,15.4877301 58.5092025,15.2965235 L58.5092025,9.68779823 L56.342195,9.68779823 C56.2147239,10.1339468 55.7685753,10.5163599 55.5136333,10.5163599 L55.4498978,10.5163599 L55.4498978,8.41308793 L63.2893661,8.41308793 Z" id="Path" fill="#003764"></path>
                <path d="M66.6673483,11.5998637 C67.4321745,11.4086571 68.2607362,11.3449216 69.0255624,11.4086571 C69.8541241,11.4086571 70.6189502,11.4723926 71.4475119,11.5998637 L71.4475119,9.30538514 C71.0013633,9.17791411 70.6189502,8.73176551 70.6189502,8.47682345 L70.6189502,8.41308793 L73.9969325,8.41308793 L73.9969325,8.47682345 C73.9969325,8.73176551 73.6145194,9.1141786 73.1683708,9.30538514 L73.1683708,15.2965235 C73.6145194,15.4239945 73.9969325,15.8701431 73.9969325,16.1250852 L73.9969325,16.1888207 L71.5112474,16.1888207 L71.5112474,13.002045 C70.7464213,12.874574 69.9178596,12.7471029 69.0892979,12.8108384 C68.3244717,12.8108384 67.49591,12.874574 66.7310838,13.002045 L66.7310838,15.2965235 C67.1772324,15.4239945 67.5596455,15.8701431 67.5596455,16.1250852 L67.5596455,16.1888207 L65.0102249,16.1888207 L65.0102249,9.30538514 C64.5640763,9.17791411 64.1816633,8.73176551 64.1816633,8.47682345 L64.1816633,8.41308793 L67.5596455,8.41308793 L67.5596455,8.47682345 C67.5596455,8.73176551 67.1772324,9.1141786 66.7310838,9.30538514 L66.6673483,11.5998637 Z" id="Path" fill="#003764"></path>
                <path d="M88.5923654,6.9471711 L88.5923654,9.24164963 L88.5923654,9.24164963 C88.3374233,9.24164963 87.8912747,8.79550102 87.7000682,8.22188139 L84.8957055,8.22188139 L84.8957055,15.232788 C85.4693252,15.4239945 85.9154738,15.8064076 85.9154738,16.0613497 L85.9154738,16.0613497 L82.0913429,16.0613497 L82.0913429,16.0613497 C82.0913429,15.8064076 82.5374915,15.360259 83.1111111,15.232788 L83.1111111,8.28561691 L80.3067485,8.28561691 C80.1155419,8.85923654 79.7331288,9.30538514 79.4781868,9.30538514 L79.4144513,9.30538514 L79.4144513,7.01090661 L88.5923654,7.01090661 L88.5923654,6.9471711 Z" id="Path" fill="#003764"></path>
                <path d="M91.9703476,11.5998637 C92.7351738,11.4086571 93.5637355,11.3449216 94.3285617,11.4086571 C95.1571234,11.4086571 95.9219496,11.4723926 96.7505112,11.5998637 L96.7505112,9.30538514 C96.3043626,9.17791411 95.9219496,8.73176551 95.9219496,8.47682345 L95.9219496,8.41308793 L99.2999318,8.41308793 L99.2999318,8.47682345 C99.2999318,8.73176551 98.9175187,9.1141786 98.4713701,9.30538514 L98.4713701,15.2965235 C98.9175187,15.4239945 99.2999318,15.8701431 99.2999318,16.1250852 L99.2999318,16.1888207 L96.7505112,16.1888207 L96.7505112,13.002045 C95.9856851,12.874574 95.1571234,12.7471029 94.3285617,12.8108384 C93.5637355,12.8108384 92.7351738,12.874574 91.9703476,13.002045 L91.9703476,15.2965235 C92.4164963,15.4239945 92.7989093,15.8701431 92.7989093,16.1250852 L92.7989093,16.1888207 L90.2494888,16.1888207 L90.2494888,9.30538514 C89.8033401,9.17791411 89.4209271,8.73176551 89.4209271,8.47682345 L89.4209271,8.41308793 L92.7989093,8.41308793 L92.7989093,8.47682345 C92.7989093,8.73176551 92.4164963,9.1141786 91.9703476,9.30538514 L91.9703476,11.5998637 Z" id="Path" fill="#003764"></path>
                <path d="M103.633947,16.1888207 L100.255965,16.1888207 L100.255965,16.1250852 C100.255965,15.8701431 100.638378,15.4877301 101.084526,15.2965235 L101.084526,9.30538514 C100.638378,9.17791411 100.255965,8.73176551 100.255965,8.47682345 L100.255965,8.41308793 L103.633947,8.41308793 L103.633947,8.47682345 C103.633947,8.73176551 103.251534,9.1141786 102.805385,9.30538514 L102.805385,15.2965235 C103.251534,15.4239945 103.633947,15.8701431 103.633947,16.1250852 L103.633947,16.1888207 Z" id="Path" fill="#003764"></path>
                <path d="M108.031697,16.1888207 L105.546012,16.1888207 L105.546012,9.30538514 C105.099864,9.17791411 104.717451,8.73176551 104.717451,8.47682345 L104.717451,8.41308793 L110.198705,8.41308793 C112.11077,8.41308793 113.321745,9.05044308 113.321745,10.7075665 C113.321745,11.9822768 112.493183,12.6833674 111.218473,12.874574 L112.875596,15.2965235 C113.321745,15.360259 113.831629,15.8064076 113.831629,16.1250852 L113.831629,16.1888207 L111.473415,16.1888207 L109.370143,13.002045 L107.266871,13.002045 L107.266871,15.2965235 C107.71302,15.4239945 108.095433,15.8701431 108.095433,16.1250852 L108.031697,16.1888207 Z M109.943763,11.8548057 C111.345944,11.8548057 111.664622,11.4086571 111.664622,10.771302 C111.664622,10.1339468 111.40968,9.68779823 109.943763,9.68779823 L107.266871,9.68779823 L107.266871,11.8548057 L109.943763,11.8548057 Z" id="Shape" fill="#003764"></path>
                <path d="M115.170075,9.30538514 C114.723926,9.17791411 114.341513,8.73176551 114.341513,8.47682345 L114.341513,8.41308793 L119.759032,8.41308793 C121.92604,8.41308793 123.583163,9.68779823 123.583163,12.3009543 C123.583163,14.9141104 121.92604,16.1888207 119.759032,16.1888207 L115.170075,16.1888207 L115.170075,9.30538514 Z M119.121677,14.9141104 C120.970007,14.9141104 121.862304,14.3404908 121.862304,12.3009543 C121.862304,10.2614179 120.970007,9.68779823 119.121677,9.68779823 L116.827198,9.68779823 L116.827198,14.9141104 L119.121677,14.9141104 Z" id="Shape" fill="#003764"></path>
                <path d="M25.5579414,6.81970007 C25.4942059,3.0593047 22.4986367,-1.45661261e-12 18.7382413,-1.45661261e-12 L-7.28306304e-13,-1.45661261e-12 L-7.28306304e-13,15.9338787 C-7.28306304e-13,19.694274 3.0593047,22.6898432 6.81970007,22.7535787 L25.5579414,22.7535787 L25.5579414,6.81970007 L25.5579414,6.81970007 Z" id="Path" fill="#003764"></path>
                <path d="M18.7382413,1.21097478 L1.21097478,1.21097478 L1.21097478,15.9338787 C1.21097478,18.9931834 3.69665985,21.4788684 6.75596455,21.4788684 L24.2832311,21.4788684 L24.2832311,6.75596455 C24.2832311,3.69665985 21.797546,1.21097478 18.7382413,1.21097478" id="Path" fill="#FFFFFF"></path>
                <path d="M18.6745058,2.03953647 L2.03953647,2.03953647 L2.03953647,15.9338787 C2.03953647,18.6107703 4.20654397,20.7140423 6.81970007,20.7140423 L23.5184049,20.7140423 L23.5184049,6.81970007 C23.5184049,4.20654397 21.3513974,2.03953647 18.6745058,2.03953647" id="Path" fill="#003764"></path>
                <path d="M11.4723926,18.4832993 L15.2965235,3.95160191 L14.4042263,3.95160191 L10.5800954,18.5470348 L11.4723926,18.4832993 Z M19.2481254,13.5119291 C19.8854806,13.3844581 20.4591002,13.129516 20.9052488,12.6196319 C21.2876619,12.1097478 21.4788684,11.4723926 21.2876619,10.8350375 C21.1601909,10.2614179 20.7777778,9.75153374 20.2678937,9.36912065 C19.8217451,9.05044308 19.3118609,8.85923654 18.8019768,8.85923654 L14.7229039,8.85923654 C15.7426721,9.17791411 16.5074983,9.94274029 16.8261759,10.9625085 C16.8261759,10.9625085 17.463531,12.9383095 14.7866394,13.5119291 C14.7866394,13.5119291 14.7229039,13.5119291 14.7866394,13.5119291 C15.2965235,13.7031357 15.7426721,14.0218132 16.1888207,14.4679618 C16.5074983,14.7866394 16.6987048,15.232788 16.8261759,15.6152011 C17.2723245,17.7184731 14.7229039,18.2283572 14.7229039,18.2283572 L18.6745058,18.2283572 C20.0766871,18.2283572 20.6503067,17.463531 20.7777778,17.33606 C21.2239264,16.8899114 21.4151329,16.2525562 21.2876619,15.6152011 C21.1601909,15.105317 20.9052488,14.5954329 20.4591002,14.2767553 C20.1404226,13.9580777 19.694274,13.7031357 19.2481254,13.5119291 L19.2481254,13.5119291 M10.8350375,12.6196319 C11.2174506,12.2372188 11.3449216,11.4086571 11.1537151,10.7075665 C10.9625085,10.0702113 10.5800954,9.49659168 10.0702113,9.1141786 C9.62406271,8.79550102 9.1141786,8.54055896 8.54055896,8.47682345 L4.20654397,8.47682345 C5.29004772,8.79550102 6.11860941,9.62406271 6.50102249,10.7075665 C6.9471711,12.9383095 4.39775051,13.3844581 4.39775051,13.3844581 L9.17791411,13.3844581 C9.75153374,13.3844581 10.3888889,13.129516 10.8350375,12.6196319 M10.3888889,4.334015 L10.3251534,7.58452624 L4.14280845,7.58452624 L4.14280845,4.334015 L10.3888889,4.334015 Z" id="Shape" fill="#FFFFFF"></path>
                <path d="M135.501704,14.7229039 C137.095092,14.7229039 137.668712,14.2767553 137.668712,13.4481936 C137.668712,12.6196319 137.095092,12.1097478 135.501704,12.1097478 L131.932515,12.1097478 L131.932515,14.7229039 L135.501704,14.7229039 Z M135.437969,10.6438309 C136.585208,10.6438309 137.41377,10.3888889 137.41377,9.43285617 C137.41377,8.54055896 136.585208,8.41308793 135.437969,8.41308793 L131.932515,8.41308793 L131.932515,10.6438309 L135.437969,10.6438309 Z M135.629175,7.01090661 C137.796183,7.01090661 139.198364,7.58452624 139.198364,9.30538514 C139.198364,10.3888889 138.433538,11.0899796 137.158828,11.4086571 C138.624744,11.6635992 139.453306,12.4284254 139.453306,13.6394001 C139.453306,15.105317 138.178596,16.2525562 136.011588,16.2525562 L130.02045,16.2525562 L130.02045,7.96693933 C129.44683,7.77573279 129.064417,7.3933197 129.064417,7.13837764 L129.064417,7.01090661 L135.629175,7.01090661 Z" id="Shape" fill="#003764"></path>
                <path d="M150.352079,9.30538514 C149.90593,9.17791411 149.523517,8.73176551 149.523517,8.47682345 L149.523517,8.41308793 L151.945467,8.41308793 L157.044308,13.7031357 L157.044308,9.30538514 C156.59816,9.17791411 156.215746,8.73176551 156.215746,8.47682345 L156.215746,8.41308793 L159.402522,8.41308793 L159.402522,8.47682345 C159.402522,8.73176551 159.020109,9.1141786 158.57396,9.30538514 L158.57396,15.2965235 C159.020109,15.4239945 159.402522,15.8701431 159.402522,16.1250852 L159.402522,16.1888207 L157.171779,16.1888207 L151.881731,10.771302 L151.881731,15.2965235 C152.32788,15.4239945 152.710293,15.8701431 152.710293,16.1250852 L152.710293,16.1888207 L150.352079,16.1888207 L150.352079,9.30538514 Z" id="Path" fill="#003764"></path>
                <path d="M166.349693,9.17791411 C166.158487,8.98670757 165.96728,8.79550102 165.96728,8.47682345 L165.96728,8.41308793 L169.154056,8.41308793 L169.154056,8.47682345 C169.154056,8.85923654 168.644172,9.24164963 168.261759,9.30538514 L165.457396,11.6635992 L168.580436,15.2965235 C168.962849,15.4239945 169.536469,15.7426721 169.536469,16.1250852 L169.536469,16.1888207 L167.178255,16.1888207 L164.246421,12.6196319 L163.035446,13.5756646 L163.035446,15.2965235 C163.481595,15.4239945 163.864008,15.8701431 163.864008,16.1250852 L163.864008,16.1888207 L161.378323,16.1888207 L161.378323,9.30538514 C160.932175,9.17791411 160.549761,8.73176551 160.549761,8.47682345 L160.549761,8.41308793 L163.864008,8.41308793 L163.864008,8.47682345 C163.864008,8.73176551 163.481595,9.1141786 163.035446,9.30538514 L163.035446,11.9822768 L166.349693,9.17791411 Z" id="Path" fill="#003764"></path>
                <path d="M144.169734,10.3251534 L142.958759,13.002045 C143.851057,12.9383095 144.743354,12.9383095 145.571915,13.002045 L144.297205,10.2614179 L144.169734,10.2614179 L144.169734,10.3251534 Z M142.703817,16.1250852 L142.703817,16.1888207 L139.453306,16.1888207 L139.453306,16.1250852 C139.453306,15.7426721 139.96319,15.360259 140.345603,15.2965235 L143.149966,9.24164963 C142.831288,9.1141786 142.512611,8.79550102 142.512611,8.54055896 L142.512611,8.47682345 L146.209271,8.47682345 L146.209271,8.54055896 C146.209271,8.79550102 145.826858,9.1141786 145.571915,9.24164963 L148.567485,15.2965235 C148.949898,15.360259 149.459782,15.7426721 149.459782,16.1250852 L149.459782,16.1888207 L145.954329,16.1888207 L145.954329,16.1250852 C145.954329,15.7426721 146.400477,15.4239945 146.719155,15.360259 L146.273006,14.4042263 C144.998296,14.2130198 143.65985,14.2130198 142.38514,14.4042263 L141.938991,15.360259 C142.38514,15.360259 142.703817,15.6789366 142.703817,16.1250852" id="Shape" fill="#003764"></path>
            </g>
        </g>
    </g>
</svg>