<?xml version="1.0" encoding="UTF-8"?>
<svg width="53px" height="47px" viewBox="0 0 53 47" version="1.1" xmlns="http://www.w3.org/2000/svg" xmlns:xlink="http://www.w3.org/1999/xlink">
    <!-- Generator: sketchtool 57.1 (101010) - https://sketch.com -->
    <title>F64167E7-1C0B-4E53-A2BF-71D18A654B8C@3x</title>
    <desc>Created with sketchtool.</desc>
    <g id="Experiment-2_Mobile" stroke="none" stroke-width="1" fill="none" fill-rule="evenodd">
        <g id="NDX_44_asset-sheet_1" transform="translate(-426.000000, -434.000000)" fill="#00AEEF" fill-rule="nonzero">
            <path d="M436.295032,460.24216 C441.979429,460.24216 446.590064,464.829841 446.590064,470.49216 C446.590064,476.15448 441.979429,480.74216 436.295032,480.74216 C430.610636,480.74216 426,476.15448 426,470.49216 C426,464.829841 430.610636,460.24216 436.295032,460.24216 Z M436.295032,462.74216 C431.988562,462.74216 428.5,466.213354 428.5,470.49216 C428.5,474.770967 431.988562,478.24216 436.295032,478.24216 C440.601502,478.24216 444.090064,474.770967 444.090064,470.49216 C444.090064,466.213354 440.601502,462.74216 436.295032,462.74216 Z M469.656354,457.65 C469.656354,461.562795 468.254195,465.263006 465.747908,468.172961 C462.680079,471.734901 458.212187,473.825319 453.406354,473.825319 L453.049,473.825 L454.90387,475.670934 L453.14052,477.443107 L448.25,472.576935 L453.14052,467.710763 L454.90387,469.482936 L453.051,471.325 L453.406354,471.325319 C457.350068,471.325319 461.019743,469.666029 463.606701,466.820528 L463.853644,466.541469 C465.972957,464.080816 467.156354,460.957904 467.156354,457.65 L469.656354,457.65 Z M438.611133,466.155344 L438.611133,468.155344 L437.062154,468.155344 C435.972426,468.155344 435.039227,468.816175 434.644834,469.755337 L438.266211,469.755344 L438.266211,471.755344 L434.645256,471.756357 C435.01668,472.639772 435.864922,473.276692 436.871619,473.348567 L437.062154,473.355344 L438.611133,473.355344 L438.611133,475.355344 L437.062154,475.355344 C434.857633,475.355344 433.012549,473.816145 432.553751,471.756262 L430.62207,471.755344 L430.62207,469.755344 L432.553529,469.755423 C432.996673,467.76372 434.735797,466.258569 436.842902,466.160439 L437.062154,466.155344 L438.611133,466.155344 Z M451.552587,437.25 L456.443107,442.116172 L451.552587,446.982344 L449.789237,445.210171 L451.56766,443.44046 C447.509331,443.450001 443.743822,445.216651 441.15342,448.22427 C439.034107,450.684924 437.85071,453.807836 437.85071,457.11574 L435.35071,457.11574 C435.35071,453.202944 436.752869,449.502734 439.259156,446.592779 C442.326984,443.030839 446.794876,440.940421 451.60071,440.940421 L451.71671,440.94 L449.789237,439.022173 L451.552587,437.25 Z M468.204968,434 C473.889364,434 478.5,438.587681 478.5,444.25 C478.5,449.912319 473.889364,454.5 468.204968,454.5 C462.520571,454.5 457.909936,449.912319 457.909936,444.25 C457.909936,438.587681 462.520571,434 468.204968,434 Z M468.204968,436.5 C463.898498,436.5 460.409936,439.971194 460.409936,444.25 C460.409936,448.528806 463.898498,452 468.204968,452 C472.511438,452 476,448.528806 476,444.25 C476,439.971194 472.511438,436.5 468.204968,436.5 Z M469.174936,438.069 L469.174936,439.623 C470.714936,439.959 471.414936,441.065 471.610936,442.017 L469.664936,442.535 C469.580936,442.101 469.342936,441.373 468.236936,441.373 C467.452936,441.373 467.060936,441.835 467.060936,442.283 C467.060936,442.661 467.340936,442.955 467.886936,443.081 L469.104936,443.347 C470.980936,443.767 471.722936,444.859 471.722936,446.119 C471.722936,447.407 470.798936,448.611 469.174936,448.905 L469.174936,450.431 L467.564936,450.431 L467.564936,448.933 C465.590936,448.611 464.694936,447.155 464.596936,446.007 L466.528936,445.573 C466.598936,446.385 467.158936,447.113 468.362936,447.113 C469.062936,447.113 469.566936,446.777 469.566936,446.231 C469.566936,445.825 469.258936,445.559 468.698936,445.433 L467.452936,445.139 C465.884936,444.761 464.918936,443.809 464.918936,442.479 C464.918936,440.911 466.094936,439.833 467.564936,439.581 L467.564936,438.069 L469.174936,438.069 Z" id="forex"></path>
        </g>
    </g>
</svg>