<?xml version="1.0" encoding="UTF-8"?>
<svg width="32px" height="50px" viewBox="0 0 32 50" version="1.1" xmlns="http://www.w3.org/2000/svg" xmlns:xlink="http://www.w3.org/1999/xlink">
    <!-- Generator: sketchtool 57.1 (101010) - https://sketch.com -->
    <title>4461F9C1-BEB3-41B5-9264-0A477C46475F@1x</title>
    <desc>Created with sketchtool.</desc>
    <g id="Experiment-2_Mobile" stroke="none" stroke-width="1" fill="none" fill-rule="evenodd">
        <g id="NDX_44_asset-sheet_1" transform="translate(-1239.000000, -426.000000)" fill="#FFFFFF" fill-rule="nonzero">
            <path d="M1254.99849,426 L1269.04016,452.038291 C1273.27454,459.890351 1270.42051,469.731309 1262.66551,474.018686 C1260.31401,475.318725 1257.6777,476 1254.99849,476 C1246.16277,476 1239,468.747583 1239,459.801274 C1239,457.088532 1239.67285,454.419229 1240.95682,452.038291 L1254.99849,426 Z M1254.99849,459.885343 C1251.29027,459.885343 1248.28416,462.929077 1248.28416,466.683714 C1248.28416,470.43835 1251.29027,473.482085 1254.99849,473.482085 C1258.70671,473.482085 1261.71282,470.43835 1261.71282,466.683714 C1261.71282,462.929077 1258.70671,459.885343 1254.99849,459.885343 Z M1254.99849,431.254039 L1243.13945,453.244962 C1242.05506,455.255809 1241.48679,457.510198 1241.48679,459.801274 C1241.48679,464.151234 1243.49188,468.027021 1246.6173,470.532811 C1246.09034,469.358717 1245.79736,468.055857 1245.79736,466.683714 C1245.79736,461.538471 1249.91685,457.367428 1254.99849,457.367428 C1260.08013,457.367428 1264.19962,461.538471 1264.19962,466.683714 C1264.19962,468.058222 1263.90563,469.363208 1263.37785,470.537723 C1268.45911,466.480989 1270.06263,459.188363 1266.85753,453.244962 L1254.99849,431.254039 Z" id="ndx_7_hot"></path>
        </g>
    </g>
</svg>