<?xml version="1.0" encoding="UTF-8"?>
<svg width="53px" height="56px" viewBox="0 0 53 56" version="1.1" xmlns="http://www.w3.org/2000/svg" xmlns:xlink="http://www.w3.org/1999/xlink">
    <!-- Generator: sketchtool 57.1 (101010) - https://sketch.com -->
    <title>B1C37175-6A10-4CF2-8C7B-A3C6A00F7801@1x</title>
    <desc>Created with sketchtool.</desc>
    <g id="Experiment-2_Mobile" stroke="none" stroke-width="1" fill="none" fill-rule="evenodd">
        <g id="NDX_44_asset-sheet_1" transform="translate(-1063.000000, -420.000000)" fill="#FFFFFF" fill-rule="nonzero">
            <path d="M1089.94057,420 L1094.87767,424.866079 L1089.94057,429.732158 L1088.16043,427.960019 L1089.89573,426.248881 L1089.5,426.249881 C1076.38934,426.249881 1065.73872,436.618075 1065.52702,449.484322 L1065.52381,449.874964 C1065.52381,462.921337 1076.25691,473.500048 1089.5,473.500048 C1102.74309,473.500048 1113.47619,462.921337 1113.47619,449.874964 C1113.47619,443.815329 1111.1524,438.119128 1107.05203,433.780447 L1106.73312,433.449397 L1108.54233,431.706376 C1113.29436,436.546039 1116,443.00188 1116,449.874964 C1116,464.304824 1104.13414,476 1089.5,476 C1074.86586,476 1063,464.304824 1063,449.874964 C1063,435.589404 1074.62973,423.984106 1089.06182,423.753428 L1089.5,423.749929 L1090.16629,423.748929 L1088.16043,421.772139 L1089.94057,420 Z M1089.5,432.70495 C1099.11624,432.70495 1106.91429,440.390827 1106.91429,449.874964 C1106.91429,459.359102 1099.11624,467.044979 1089.5,467.044979 C1079.88376,467.044979 1072.08571,459.359102 1072.08571,449.874964 C1072.08571,440.390827 1079.88376,432.70495 1089.5,432.70495 Z M1089.5,435.204902 C1081.27481,435.204902 1074.60952,441.774313 1074.60952,449.874964 C1074.60952,457.975615 1081.27481,464.545026 1089.5,464.545026 C1097.72519,464.545026 1104.39048,457.975615 1104.39048,449.874964 C1104.39048,441.774313 1097.72519,435.204902 1089.5,435.204902 Z M1090.7619,438.929938 L1090.7619,448.624988 L1100.60476,448.624988 L1100.60476,451.12494 L1088.2381,451.12494 L1088.2381,438.929938 L1090.7619,438.929938 Z" id="ndx_7_24hrs"></path>
        </g>
    </g>
</svg>