<?xml version="1.0" encoding="UTF-8"?>
<svg width="24px" height="27px" viewBox="0 0 24 27" version="1.1" xmlns="http://www.w3.org/2000/svg" xmlns:xlink="http://www.w3.org/1999/xlink">
    <!-- Generator: sketchtool 58 (101010) - https://sketch.com -->
    <title>26479231-0F71-4245-91F6-BFE307408F17</title>
    <desc>Created with sketchtool.</desc>
    <g id="Unassigned-Screens" stroke="none" stroke-width="1" fill="none" fill-rule="evenodd">
        <g id="NDX-36_Market_Data_current" transform="translate(-1157.000000, -342.000000)" fill="#00AEEF" fill-rule="nonzero">
            <g id="buttons_refresh" transform="translate(1135.000000, 334.000000)">
                <path d="M33.9992581,11.8650341 L33.9992578,14.0908406 C28.8776032,14.0912417 24.7258065,18.2432859 24.7258065,23.3650341 C24.7258065,28.4870298 28.8780043,32.6392277 34,32.6392277 C39.1219957,32.6392277 43.2741935,28.4870298 43.2741935,23.3650341 C43.2741935,21.5860586 42.7733068,19.9240715 41.9048691,18.5124087 L43.8017534,17.3473165 C44.8787911,19.0978778 45.5,21.1589104 45.5,23.3650341 C45.5,29.7163088 40.3512746,34.8650341 34,34.8650341 C27.6487254,34.8650341 22.5,29.7163088 22.5,23.3650341 C22.5,17.0921703 27.5223811,11.9923464 33.7653249,11.867381 L33.9992581,11.8650341 Z M34,8.760907 L39.1935484,12.8851954 L34,17.0094839 L34,8.760907 Z" id="refresh_icon"></path>
            </g>
        </g>
    </g>
</svg>